<?xml version="1.0" encoding="UTF-8"?><svg id="a" xmlns="http://www.w3.org/2000/svg" viewBox="0 0 87.36 112.44"><defs><style>.d{fill:#2c318c;}</style></defs><g id="b"><g id="c"><g><path class="d" d="M53.01,77.95l-.15,1.03c-1.78,12.23-15.58,18.33-25.5,11.26-3.62-2.57-6.87-8.12-6.87-11.71v-.58H.94c-.55,0-.98,.46-.94,1.01l.05,.71c1.19,15.4,12.81,28.79,27.63,31.84,23.26,4.79,43.48-9.38,45.65-31.98h0c.08-.85-.59-1.58-1.44-1.58h-18.89Z"/><path class="d" d="M45.49,79.89c30.24-5.82,35.59-50.43,7.65-63.77-6.02-2.88-15.22-4.12-22.42-3.04C12.89,15.75,2.26,28.34,2.3,46.76c.04,23.83,18.39,37.91,43.19,33.13Zm-5.08-48.78c10.99,2.32,15.54,16.3,8.41,25.79-6.53,8.68-20.98,7.32-25.79-2.43-6.32-12.81,3.69-26.26,17.39-23.36h0Z"/><path class="d" d="M81.16,19.73c6.11-9.17-1.53-21.19-12.46-19.58-10.06,1.48-14.22,13.79-7.18,21.2,5.59,5.87,15.16,5.08,19.63-1.62h.01Z"/><path class="d" d="M76.64,35.4h1.22v-3.55c0-.8,.65-1.44,1.44-1.44h.46v-1.14h-5.02v1.14h.46c.8,0,1.44,.65,1.44,1.44v3.55Z"/><path class="d" d="M85.34,29.87v.03c-.49,1.23-2.23,1.23-2.71,0v-.03c-.15-.36-.5-.6-.89-.6h-.21c-.52,0-.94,.42-.94,.94v5.19h1.22v-4.6l1.28,3.4c.14,.37,.49,.61,.88,.61h0c.39,0,.74-.24,.88-.61l1.28-3.43v4.63h1.22v-5.19c0-.52-.42-.94-.94-.94h-.21c-.39,0-.74,.24-.88,.6Z"/></g></g></g></svg>