<?xml version="1.0" encoding="UTF-8"?><svg id="a" xmlns="http://www.w3.org/2000/svg" viewBox="0 0 83.4 112.44"><defs><style>.d{fill:#fff;}</style></defs><g id="b"><g id="c"><path class="d" d="M53.08,77.95l-.15,1.03c-1.78,12.23-15.58,18.33-25.5,11.26-3.62-2.57-6.87-8.12-6.87-11.71v-.58H0l.13,1.72c1.19,15.4,12.81,28.79,27.63,31.84,23.26,4.79,43.48-9.38,45.65-31.98l.15-1.58h-20.48Z"/><path class="d" d="M45.56,79.89c30.24-5.82,35.59-50.43,7.65-63.77-6.02-2.88-15.22-4.12-22.42-3.04C12.96,15.75,2.33,28.34,2.37,46.76c.04,23.83,18.39,37.91,43.19,33.13Zm-5.08-48.78c10.99,2.32,15.54,16.3,8.41,25.79-6.53,8.68-20.98,7.32-25.79-2.43-6.32-12.81,3.69-26.26,17.39-23.36h0Z"/><path class="d" d="M81.23,19.73c6.11-9.17-1.53-21.19-12.46-19.58-10.06,1.48-14.22,13.79-7.18,21.2,5.59,5.87,15.16,5.08,19.63-1.62h.01Z"/></g></g></svg>