<?xml version="1.0" encoding="UTF-8"?><svg id="a" xmlns="http://www.w3.org/2000/svg" viewBox="0 0 1179.26 376.85"><defs><style>.d{fill:#fff;}</style></defs><g id="b"><g id="c"><g><path class="d" d="M165.9,269.05l-.47,3.22c-5.56,38.23-48.7,57.29-79.7,35.19-11.31-8.03-21.47-25.38-21.47-36.6v-1.81H0l.41,5.38c3.72,48.13,40.04,89.98,86.36,99.52,72.7,14.97,135.9-29.32,142.68-99.95l.47-4.94h-64.01Z"/><path class="d" d="M142.4,275.11c94.52-18.19,111.24-157.62,23.91-199.32-18.82-9-47.57-12.88-70.07-9.5C40.51,74.64,7.28,113.99,7.41,171.56c.13,74.48,57.48,118.49,134.99,103.55Zm-15.88-152.46c34.35,7.25,48.57,50.95,26.29,80.61-20.41,27.13-65.57,22.88-80.61-7.6-19.75-40.04,11.53-82.08,54.35-73.01h-.03Z"/><path class="d" d="M253.89,87.11c19.1-28.66-4.78-66.23-38.94-61.2-31.44,4.63-44.45,43.1-22.44,66.26,17.47,18.35,47.38,15.88,61.35-5.06h.03Z"/><path class="d" d="M389.85,67.26v11.03l-.06,11.03-1.78-2.38c-14.22-18.88-38.57-28.38-66.61-26.04-60.45,5.06-100.7,59.54-92.02,124.55,7.69,57.63,52.82,95.17,108.64,90.33,22.66-1.97,45.26-14.1,50.29-26.97,1.06-2.72,1.56,.38,1.56,9.69v10.53h60.64V67.26h-60.67Zm-44.51,152.21c-30.1,3.41-54.82-18.1-56.17-48.76-1.44-33.29,24.88-57.63,57.42-53.13,57.73,8,56.63,95.36-1.25,101.89Z"/><polygon class="d" points="472.3 0 472.3 134.87 472.3 269.73 502.93 269.73 533.59 269.73 533.59 134.87 533.59 0 502.93 0 472.3 0"/><path class="d" d="M1151.82,98.08c-11.88-25.63-43.94-40.79-77.98-36.85-16.47,1.91-30.97,9.66-39.57,21.19-2.22,3-4.06,5.69-4.06,6s-.31,.56-.69,.56c-.44,0-.69-4.06-.69-10.88v-10.88h-56.54v201.82h60.54l.25-61.32c.31-71.26,.13-69.57,8.41-79.76,11.03-13.56,39.04-14.31,49.6-1.31,8.25,10.13,8.1,8.81,8.41,80.76l.28,61.67h59.85v-69.82c0-81.7-.25-84.83-7.81-101.14v-.03Z"/><path class="d" d="M889.87,67.26v11.03l-.06,11.03-1.34-1.69c-.75-.94-2.66-3.31-4.25-5.31-12.35-15.5-39.26-24.13-65.89-21.13-51.6,5.78-87.92,47.29-89.73,102.55-2.25,68.54,45.63,117.58,109.42,112.08,22.57-1.94,44.01-13.22,49.98-26.25,1.47-3.22,1.88-1.31,1.88,8.94v10.53h60.64V67.26h-60.64Zm-4.47,122.52c-16.6,40.76-76.33,39.88-92.39-1.31-15.82-40.6,17.44-79.73,59.39-69.89,29.35,6.91,45.23,41.16,33.01,71.2Z"/><path class="d" d="M711.25,67.42l-31.47,.19-8.25,26.85c-4.53,14.75-13.25,43.16-19.41,63.14-6.13,19.97-11.31,35.85-11.5,35.32-.19-.53-8.97-28.94-19.5-63.14l-19.13-62.17-31.54-.19c-28.91-.16-31.51-.09-31.13,.94,.22,.59,16.57,46.01,36.29,100.92l35.88,99.8,29.25-.19,29.25-.19,36.35-100.55c20-55.29,36.35-100.64,36.38-100.74,0-.09-14.16-.09-31.47,0Z"/><polygon class="d" points="1137.57 49.79 1142.32 49.79 1142.32 30.41 1149.7 30.41 1149.7 25.97 1130.19 25.97 1130.19 30.41 1137.57 30.41 1137.57 49.79"/><polygon class="d" points="1172.29 25.97 1166.1 42.04 1159.92 25.97 1152.95 25.97 1152.95 49.79 1157.7 49.79 1157.7 31.94 1163.6 47.51 1168.61 47.51 1174.51 31.82 1174.51 49.79 1179.26 49.79 1179.26 25.97 1172.29 25.97"/></g></g></g></svg>