<?xml version="1.0" encoding="UTF-8"?><svg id="a" xmlns="http://www.w3.org/2000/svg" viewBox="0 0 1181.79 381.56"><defs><style>.d{fill:#77cbbf;}</style></defs><g id="b"><g id="c"><g><path class="d" d="M117.49,381.56c-9.38,0-18.97-1-28.66-2.97C41.51,368.84,4.41,326.09,.63,276.95l-.63-7.91H69.11v4.16c0,10.53,9.75,27.07,20.5,34.69,13.69,9.75,31.1,11.63,46.57,5.03,15.91-6.81,26.94-21.25,29.47-38.63l.75-5.25h68.64l-.72,7.5c-3.25,33.79-19.35,62.98-45.35,82.17-20.38,15.07-45.1,22.85-71.45,22.85h-.03ZM5.06,273.73l.22,2.84c3.66,47.1,39.16,88.08,84.48,97.42,35.6,7.31,69.82,.56,96.39-19.03,24.91-18.41,40.35-46.41,43.48-78.86l.22-2.34h-59.42l-.19,1.22c-2.75,19.03-14.82,34.82-32.26,42.29-16.97,7.25-36.1,5.19-51.13-5.5-11.78-8.41-22.16-26-22.44-38.01H5.06v-.03Z"/><path class="d" d="M115.64,282.67c-27.69,0-52.35-8.1-71.29-23.69C20.69,239.48,7.66,209.25,7.6,173.9c-.09-58.82,33.85-99.05,90.86-107.61,22.88-3.44,52.26,.56,71.42,9.72,41.1,19.63,63.64,63.54,57.42,111.86-6.09,47.41-38.26,83.48-81.92,91.89h0c-10.19,1.97-20.13,2.94-29.72,2.94v-.03Zm.25-212.94c-5.81,0-11.47,.38-16.75,1.19C44.66,79.11,12.19,117.61,12.28,173.9c.06,33.94,12.5,62.89,35.07,81.45,24.41,20.13,58.92,27.16,97.14,19.78h0c41.66-8,72.32-42.51,78.14-87.86,5.94-46.29-15.57-88.3-54.79-107.05-13.97-6.69-33.63-10.5-51.95-10.5Zm2.03,156.21c-1.69,0-3.38-.06-5.09-.25-17.75-1.66-32.79-11.63-40.23-26.69-9.75-19.72-8-42.01,4.56-58.17,12.22-15.72,31.79-22.54,52.38-18.16h0c16.32,3.44,29.16,14.82,35.32,31.19,6.72,17.94,3.88,37.79-7.66,53.1-9.1,12.1-23.5,18.97-39.26,18.97h-.03Zm-.5-99.89c-14.53,0-27.72,6.22-36.6,17.63-11.44,14.72-12.97,35.13-4.03,53.23,6.72,13.6,20.35,22.6,36.47,24.1,16.03,1.5,31.1-4.81,40.16-16.88,10.56-14.03,13.19-32.22,7.03-48.66-5.56-14.85-17.19-25.16-31.91-28.25h0c-3.75-.78-7.47-1.19-11.13-1.19v.03Z"/><path class="d" d="M223.73,109.21c-11.47,0-22.38-4.66-30.38-13.06-10.85-11.41-14.41-27.79-9.25-42.69,5.16-14.94,17.5-25.22,33.07-27.5,16.75-2.44,32.79,4.84,41.79,19.1,8.97,14.19,8.75,31.69-.59,45.73h0c-7.03,10.53-18.32,17.22-30.97,18.32-1.22,.09-2.44,.16-3.66,.16v-.03Zm-.19-79.04c-1.88,0-3.78,.13-5.69,.41-13.78,2.03-24.75,11.16-29.32,24.41-4.66,13.44-1.56,27.63,8.22,37.94,7.88,8.28,18.88,12.44,30.22,11.47,11.22-.97,21.25-6.88,27.47-16.22h0c8.28-12.44,8.5-28,.53-40.6-7-11.03-18.69-17.38-31.44-17.38v-.03Z"/><path class="d" d="M331.21,280.92c-52.23,0-94.23-37.69-101.61-92.8-4.5-33.79,3.69-65.67,23.13-89.83,17.47-21.72,42.69-35.01,71.01-37.38,27.35-2.28,51.29,6.41,66.26,23.97l.06-17.66h65.32v206.5h-65.32v-16.44c-8.63,11.63-28.91,21.44-49.26,23.19-3.22,.28-6.41,.41-9.56,.41l-.03,.03Zm1.06-215.66c-2.66,0-5.38,.13-8.13,.34-27.04,2.25-51.1,14.91-67.76,35.63-18.6,23.13-26.47,53.79-22.13,86.26,7.6,56.76,51.23,93.08,106.11,88.33,21.53-1.88,43.63-13.53,48.29-25.5,.91-2.31,2.28-2.59,3.28-2.41,2.38,.44,2.78,2.38,2.78,12.94v8.19h55.95V71.95h-55.95l-.06,26.72-6-7.94c-12.38-16.41-32.63-25.47-56.42-25.47h.03Zm9.41,159.28c-12.66,0-24.5-4.25-33.88-12.28-11.19-9.56-17.72-23.44-18.38-39.07-.72-16.72,5.47-32.35,17-42.85,11.47-10.44,26.79-14.97,43.07-12.69,31.32,4.34,45.04,30.19,44.76,53.85-.31,23.66-14.66,49.13-46.07,52.67h0c-2.19,.25-4.34,.38-6.5,.38Zm-.31-102.8c-12.03,0-23.13,4.16-31.79,12.03-10.66,9.69-16.16,23.63-15.5,39.16,.63,14.31,6.56,27,16.75,35.72,9.97,8.53,23.04,12.38,36.82,10.81h0c28.57-3.22,41.63-26.47,41.91-48.07,.28-21.63-12.22-45.2-40.69-49.16-2.53-.34-5-.53-7.47-.53l-.03,.03Z"/><path class="d" d="M538.47,274.42h-66.01V0h66.01V274.42Zm-61.32-4.69h56.63V4.69h-56.63V269.73Z"/><path class="d" d="M1164.51,273.73h-64.51l-.28-67.36c-.19-44.4-2.68-69.55-7.47-75.45l-.38-.47c-4.28-5.28-12.38-8.44-21.66-8.44h0c-10.1,0-19.41,3.75-24.29,9.75l-.5,.63c-4.73,5.81-7.19,30.3-7.38,73.45l-.28,67.89h-65.23V67.26h61.23v13.22c0,1.78,0,3.25,.03,4.44,.34-.47,.72-1,1.16-1.56,9-12.06,24-20.13,41.19-22.13,35.04-4.03,68.11,11.66,80.39,38.19,7.78,16.82,8.03,19.69,8.03,102.14v72.17h-.06Zm-59.85-4.69h55.17v-67.48c0-81.45-.22-84.26-7.6-100.17h0c-11.47-24.72-42.54-39.35-75.58-35.51-15.88,1.84-29.72,9.22-37.98,20.25-2.06,2.75-3.31,4.66-3.66,5.25-.31,1.28-1.53,2.25-2.94,2.25-2.78,0-3.03-2.16-3.03-13.22v-8.53h-51.85v197.1h55.88l.25-63.23c.19-44.28,3-69.75,8.44-76.42l.5-.59c5.84-7.19,16.28-11.5,27.94-11.5h0c10.66,0,20.13,3.81,25.29,10.16l.38,.47c5.5,6.75,8.35,32.88,8.53,78.39l.28,62.7-.03,.09Z"/><path class="d" d="M830.95,280.92c-26.32,0-50.45-9.31-68.82-26.72-22.66-21.47-34.47-52.79-33.32-88.17,1.88-56.76,38.76-98.86,91.83-104.8,27.25-3.06,55.23,6,67.98,22l1.44,1.78v-17.75h65.35v206.47h-65.32v-16.41c-8.56,11.75-28.5,21.38-49.26,23.16-3.31,.28-6.59,.44-9.85,.44h-.03Zm.41-215.63c-3.38,0-6.78,.19-10.19,.56-50.63,5.66-85.86,45.98-87.64,100.3-1.13,34.04,10.19,64.1,31.85,84.64,19.66,18.63,46.29,27.5,75.01,25.04,21.75-1.88,42.41-12.6,48.04-24.88,.44-.97,1.47-3.22,3.69-2.75,2.53,.56,2.66,3.09,2.66,12.66v8.19h55.95V71.95h-55.95l-.06,26.41-9.75-12.22c-10.25-12.85-31.38-20.85-53.6-20.85Zm11,159.25h-.47c-22.1-.19-40.66-12.78-48.51-32.88-7.85-20.1-4.53-41.29,8.81-56.67,13.03-15.03,32.97-21.13,53.29-16.35,13.88,3.25,25.79,12.78,32.66,26.1,7.69,14.88,8.41,32.47,1.97,48.26h0c-7.94,19.47-26.22,31.54-47.79,31.54h.03Zm-.34-102.8c-14.06,0-27.07,5.72-36.26,16.32-12.19,14.03-15.16,33.41-7.97,51.88,7.13,18.28,24.04,29.76,44.16,29.91,19.85,.16,36.6-10.81,43.88-28.63,5.91-14.5,5.25-30.66-1.81-44.35-6.34-12.28-16.85-20.69-29.57-23.69-4.19-.97-8.35-1.47-12.41-1.47l-.03,.03Z"/><path class="d" d="M612.39,273.77l-36.44-101.36c-21.03-58.48-35.94-99.95-36.29-100.86-.31-.84-.22-1.75,.28-2.47,.83-1.21,11.85-1.75,33.04-1.63l33.26,.19,19.63,63.82c7.94,25.79,14.31,46.51,17.44,56.54,2-6.06,5.22-16.16,9.1-28.72l28.16-91.61,33.19-.19c21.55-.13,32.61,.13,33.19,.75l.69,.78-.09,1.03c-.02,.25-12.19,34.02-36.51,101.3l-36.91,102.08-61.79,.38,.06-.03Zm-67.51-201.57c3.81,10.56,19.75,54.88,35.47,98.61l35.32,98.24,55.2-.34,35.79-99.02c17.16-47.45,31.32-86.7,35.26-97.64-4.81,0-14.94,0-28.16,.06l-29.76,.16-27.13,88.33c-11.35,36.91-11.53,36.94-13.66,37.01l-1.69,.06-.59-1.59c-.28-.75-11.6-37.44-19.53-63.26l-18.63-60.51-29.82-.16c-14.56-.09-24.1-.13-28.07,.09v-.03Z"/><polygon class="d" points="1140.1 52.13 1144.85 52.13 1144.85 32.76 1152.23 32.76 1152.23 28.32 1132.72 28.32 1132.72 32.76 1140.1 32.76 1140.1 52.13"/><polygon class="d" points="1174.83 28.32 1168.64 44.38 1162.45 28.32 1155.48 28.32 1155.48 52.13 1160.23 52.13 1160.23 34.29 1166.14 49.85 1171.14 49.85 1177.04 34.16 1177.04 52.13 1181.79 52.13 1181.79 28.32 1174.83 28.32"/></g></g></g></svg>