<?xml version="1.0" encoding="UTF-8"?> <svg xmlns="http://www.w3.org/2000/svg" viewBox="0 0 207.74 42.97"><defs><style>.cls-1{fill:#1a1a1a;}.cls-2{fill:blue;mix-blend-mode:overlay;opacity:.79;}.cls-2,.cls-3,.cls-4{fill-rule:evenodd;}.cls-3{fill:#141459;}.cls-4{fill:#00a2db;}.cls-5{isolation:isolate;}</style></defs><g class="cls-5"><g id="Layer_2"><g id="Nav"><g><path class="cls-1" d="M77.34,35.15c-.47,2.3-1.61,4.09-3.4,5.38-1.79,1.28-4.04,1.93-6.74,1.93-3.75,0-6.65-1.18-8.7-3.55-2.05-2.37-3.07-5.73-3.07-10.09s1.03-7.83,3.09-10.29c2.06-2.47,4.94-3.7,8.62-3.7,3.41,0,6.06,1.12,7.94,3.37,1.88,2.25,2.81,5.45,2.81,9.61v1.32h-20.54c0,3.72,.86,6.58,2.59,8.6,1.72,2.01,4.19,3.02,7.4,3.02,2.2,0,3.99-.47,5.38-1.42,1.39-.95,2.32-2.33,2.79-4.16h1.83Zm-1.37-7.71c0-3.58-.74-6.3-2.23-8.14-1.49-1.84-3.7-2.76-6.64-2.76s-5.25,.93-6.92,2.79c-1.67,1.86-2.61,4.56-2.81,8.11h18.61Z"></path><path class="cls-1" d="M113.93,35.15c-.47,2.3-1.61,4.09-3.4,5.38-1.79,1.28-4.04,1.93-6.74,1.93-3.75,0-6.65-1.18-8.7-3.55-2.05-2.37-3.07-5.73-3.07-10.09s1.03-7.83,3.09-10.29c2.06-2.47,4.94-3.7,8.62-3.7,3.41,0,6.06,1.12,7.94,3.37,1.88,2.25,2.81,5.45,2.81,9.61v1.32h-20.54c0,3.72,.86,6.58,2.59,8.6,1.72,2.01,4.19,3.02,7.4,3.02,2.2,0,3.99-.47,5.38-1.42,1.39-.95,2.32-2.33,2.79-4.16h1.83Zm-1.37-7.71c0-3.58-.74-6.3-2.23-8.14-1.49-1.84-3.7-2.76-6.64-2.76s-5.25,.93-6.92,2.79c-1.67,1.86-2.61,4.56-2.81,8.11h18.61Z"></path><path class="cls-1" d="M126.93,41.64l-10.65-26.01h2.13l9.64,23.88,9.74-23.88h2.03l-10.65,26.01h-2.23Z"></path><path class="cls-1" d="M198.9,35.15c-.47,2.3-1.61,4.09-3.4,5.38-1.79,1.28-4.04,1.93-6.74,1.93-3.75,0-6.65-1.18-8.7-3.55-2.05-2.37-3.07-5.73-3.07-10.09s1.03-7.83,3.09-10.29c2.06-2.47,4.94-3.7,8.62-3.7,3.41,0,6.06,1.12,7.94,3.37,1.88,2.25,2.81,5.45,2.81,9.61v1.32h-20.54c0,3.72,.86,6.58,2.59,8.6,1.72,2.01,4.19,3.02,7.4,3.02,2.2,0,3.99-.47,5.38-1.42,1.39-.95,2.32-2.33,2.79-4.16h1.83Zm-1.37-7.71c0-3.58-.74-6.3-2.23-8.14-1.49-1.84-3.7-2.76-6.64-2.76s-5.25,.93-6.92,2.79c-1.67,1.86-2.61,4.56-2.81,8.11h18.61Z"></path></g><path class="cls-1" d="M157.82,17.07c-1.5-1.5-3.9-2.26-7.18-2.26-5.62,0-8.9,2.03-9.84,6.09h1.82c.45-1.43,1.24-2.5,2.39-3.2,1.28-.78,3.11-1.17,5.48-1.17,2.81,0,4.78,.6,5.93,1.8,1.15,1.2,1.72,3.25,1.72,6.16v1.07l-5.68,.2c-4.53,.17-7.83,.94-9.89,2.31-2.06,1.37-3.09,3.46-3.09,6.26,0,2.5,.79,4.45,2.36,5.83,1.57,1.39,3.76,2.08,6.57,2.08,2.13,0,4.03-.42,5.71-1.27,1.67-.84,3.03-2.08,4.08-3.7v4.36h1.88V24.35c0-3.35-.75-5.77-2.26-7.28Zm.33,15.24c0,1.35-.18,2.43-.53,3.22-.35,.79-1.01,1.63-1.95,2.51-1.76,1.66-4.13,2.48-7.1,2.48-2.3,0-4.06-.52-5.27-1.57-1.22-1.05-1.83-2.59-1.83-4.61,0-2.33,.85-4.04,2.56-5.12,1.71-1.08,4.59-1.71,8.65-1.88l5.48-.2v5.17Z"></path><path class="cls-1" d="M175.37,39.93c-1,.36-2.08,.54-3.25,.54-1.62,0-2.82-.45-3.6-1.34-.78-.9-1.17-2.31-1.17-4.23V17.35h8.02v-1.72h-8.02v-7.2h-1.93v26.32c0,4.97,2.16,7.45,6.49,7.45,1.31,0,2.46-.19,3.46-.54v-1.73Z"></path><path class="cls-1" d="M92.07,40.01c-.93,.3-1.92,.46-2.99,.46-1.62,0-2.82-.45-3.6-1.34-.78-.9-1.17-2.31-1.17-4.23V8.42h-1.93v26.32c0,4.97,2.16,7.45,6.49,7.45,1.19,0,2.26-.15,3.2-.44v-1.74Z"></path><g><path class="cls-1" d="M200.09,16.43h-1.51v-.7h3.83v.7h-1.51v4.08h-.81v-4.08Z"></path><path class="cls-1" d="M203.05,15.72h.98l1.36,3.8,1.4-3.8h.95v4.78h-.74v-3.48l-1.31,3.48h-.64l-1.27-3.47v3.47h-.73v-4.78Z"></path></g><g><polygon class="cls-3" points="17.64 42.97 61.17 0 20.33 6.78 17.64 42.97"></polygon><polygon class="cls-4" points="0 0 61.17 0 27.35 23.86 0 0"></polygon><polygon class="cls-2" points="17.64 42.97 61.17 0 20.33 6.78 17.64 42.97"></polygon></g></g></g></g></svg> 