<svg width="277" height="64" viewBox="0 0 277 64" fill="none" xmlns="http://www.w3.org/2000/svg">
<path d="M49.7139 36.5713C57.2881 36.5713 63.4282 42.7114 63.4282 50.2856L63.4282 61.7141C63.4282 62.9765 62.4049 63.9999 61.1425 63.9999L47.4282 63.9999C39.854 63.9999 33.7139 57.8598 33.7139 50.2856L33.7139 38.857C33.7139 37.5946 34.7373 36.5713 35.9996 36.5713L49.7139 36.5713Z" fill="white"/>
<path d="M48.8527 16.0063C37.5159 16.1759 33.8902 19.8016 33.7207 31.1383C33.7136 31.6117 34.1027 32.0008 34.576 31.9937C45.9128 31.8241 49.5385 28.1984 49.7081 16.8617C49.7151 16.3883 49.326 15.9992 48.8527 16.0063Z" fill="white"/>
<path d="M14.045 64H33.7141C29.7141 60 26.857 58.2857 26.857 49.1429V13.1429C26.857 5.88426 20.9727 0 13.7141 0C6.45555 0 0.571289 5.88426 0.571289 13.1429V50.5263C0.571289 57.9676 6.60365 64 14.045 64Z" fill="white"/>
<path d="M76.7929 47.568C75.9296 47.568 75.8119 46.7832 76.2436 46.2338C77.617 44.4288 77.617 44.4288 77.617 40.9363V26.221C77.617 22.7286 77.617 22.7286 76.2436 20.9235C75.8119 20.3742 75.9296 19.5894 76.7929 19.5894H84.9158C85.7791 19.5894 85.8968 20.3742 85.4651 20.9235C84.0917 22.7286 84.0917 22.7286 84.0917 26.221V42.4667C84.0917 44.0363 84.4449 45.2136 87.6626 45.2136C90.0563 45.2136 91.469 44.7034 93.588 40.8186C94.5298 39.092 94.7652 38.6604 95.3931 38.6604C96.0209 38.6604 96.3741 39.1313 96.2564 40.2692L95.7462 46.0769C95.6677 47.0971 95.0791 47.568 94.0981 47.568H76.7929Z" fill="white"/>
<path d="M108.049 47.9604C101.692 47.9604 97.4149 43.5655 97.4149 37.1692C97.4149 31.5578 100.907 25.7502 108.559 25.7502C113.072 25.7502 116.054 28.1831 116.054 31.7147C116.054 35.4034 112.444 37.6793 105.577 38.7781C105.067 38.8566 104.871 39.1705 105.067 39.6414C106.166 41.9958 108.167 42.9768 110.443 42.9768C113.582 42.9768 114.524 41.3287 115.23 41.3287C115.662 41.3287 115.976 41.5642 115.976 42.192C115.976 43.4085 114.21 47.9604 108.049 47.9604ZM104.204 35.011C104.204 35.2857 104.204 35.5211 104.204 35.7565C104.243 36.2274 104.557 36.4629 105.028 36.3452C109.03 35.4034 110.482 32.9705 110.482 30.8515C110.482 29.3211 109.658 28.2616 108.167 28.2616C105.498 28.2616 104.204 31.4008 104.204 35.011Z" fill="white"/>
<path d="M118.65 47.568C117.787 47.568 117.669 46.7832 118.101 46.2338C119.474 44.4288 119.474 44.4288 119.474 40.9363V34.03C119.474 30.6945 119.474 30.6945 118.219 29.0856C117.787 28.5362 117.63 27.8299 118.493 27.5552L123.045 26.0248C124.222 25.6324 124.968 25.9856 124.968 26.7704V27.516C124.968 28.1831 125.321 28.2616 125.753 27.7907C127.401 26.221 129.638 25.6717 131.404 25.6717C134.033 25.6717 135.798 26.4957 136.819 28.0654C137.093 28.497 137.407 28.5363 137.721 28.1438C139.369 26.2995 141.802 25.6717 143.686 25.6717C148.356 25.6717 150.318 28.34 150.318 33.0882V42.8199C150.318 44.7819 150.906 45.0958 152.044 44.9781C152.947 44.8996 153.261 45.7237 152.672 46.3123C151.926 47.0971 150.2 47.9604 148.316 47.9604C145.844 47.9604 144.039 46.7047 144.039 42.8591V33.5591C144.039 31.0869 143.686 29.1249 141.371 29.1249C139.369 29.1249 138.074 30.773 138.035 33.5983V40.9363C138.035 44.4288 138.035 44.4288 139.409 46.2338C139.84 46.7832 139.723 47.568 138.859 47.568H130.933C130.069 47.568 129.952 46.7832 130.383 46.2338C131.757 44.4288 131.757 44.4288 131.757 40.9363V33.5591C131.757 31.0869 131.521 29.1249 129.088 29.1249C127.087 29.1249 125.792 30.773 125.753 33.5983V40.9363C125.753 44.4288 125.753 44.4288 127.126 46.2338C127.558 46.7832 127.44 47.568 126.577 47.568H118.65Z" fill="white"/>
<path d="M163.851 47.9604C157.572 47.9604 153.413 43.4085 153.413 36.9338C153.413 30.7337 157.454 25.6717 164.243 25.6717C170.639 25.6717 174.328 30.616 174.328 36.6983C174.328 43.2908 170.325 47.9604 163.851 47.9604ZM160.241 36.6198C160.241 42.6629 161.457 45.449 163.811 45.449C166.244 45.449 167.5 42.5844 167.5 36.3844C167.5 30.773 166.323 28.1831 164.008 28.1831C161.496 28.1831 160.241 30.8515 160.241 36.6198Z" fill="white"/>
<path d="M176.909 47.568C176.046 47.568 175.928 46.7832 176.36 46.2338C177.733 44.4288 177.733 44.4288 177.733 40.9363V34.03C177.733 30.6945 177.733 30.6945 176.477 29.0856C176.046 28.5362 175.889 27.8299 176.752 27.5552L181.304 26.0248C182.481 25.6324 183.227 25.9856 183.227 26.7704V27.516C183.227 28.1831 183.58 28.2616 184.012 27.8299C185.699 26.221 188.014 25.6717 189.78 25.6717C194.45 25.6717 196.686 28.34 196.686 33.0882V42.8199C196.686 44.7819 197.275 45.0958 198.413 44.9781C199.315 44.8996 199.629 45.7237 199.041 46.3123C198.295 47.0971 196.569 47.9604 194.685 47.9604C192.213 47.9604 190.408 46.7047 190.408 42.8591V33.5591C190.408 31.0869 189.937 29.1249 187.504 29.1249C185.503 29.1249 184.051 30.8122 184.012 33.5983V40.9363C184.012 44.4288 184.012 44.4288 185.385 46.2338C185.817 46.7832 185.699 47.568 184.836 47.568H176.909Z" fill="white"/>
<path d="M268.253 47.9604C261.896 47.9604 257.619 43.5655 257.619 37.1692C257.619 31.5578 261.112 25.7502 268.763 25.7502C273.276 25.7502 276.258 28.1831 276.258 31.7147C276.258 35.4034 272.648 37.6793 265.781 38.7781C265.271 38.8566 265.075 39.1705 265.271 39.6414C266.37 41.9958 268.371 42.9768 270.647 42.9768C273.786 42.9768 274.728 41.3287 275.434 41.3287C275.866 41.3287 276.18 41.5642 276.18 42.192C276.18 43.4085 274.414 47.9604 268.253 47.9604ZM264.408 35.011C264.408 35.2857 264.408 35.5211 264.408 35.7565C264.447 36.2274 264.761 36.4629 265.232 36.3452C269.234 35.4034 270.686 32.9705 270.686 30.8515C270.686 29.3211 269.862 28.2616 268.371 28.2616C265.703 28.2616 264.408 31.4008 264.408 35.011Z" fill="white"/>
<path d="M230.617 16.0001C225.126 16.1115 223.332 17.9049 223.221 23.3958C223.215 23.7102 223.47 23.9661 223.785 23.9597C229.276 23.8483 231.069 22.0549 231.18 16.564C231.187 16.2496 230.931 15.9937 230.617 16.0001Z" fill="white"/>
<path d="M206.458 47.9608C203.122 47.9608 200.022 45.9596 200.022 42.114C200.022 37.0127 206.262 34.5013 212.03 33.0494C212.423 32.9316 212.658 32.6569 212.619 32.2253C212.462 29.3215 211.677 28.1835 210.264 28.1835C206.693 28.1835 208.302 33.5987 204.143 33.5987C202.377 33.5987 201.435 32.3823 201.435 30.9304C201.435 27.5949 205.712 25.6721 210.343 25.6721C216.15 25.6721 218.897 28.1443 218.897 33.4418V42.8203C218.897 44.7823 220.486 45.0963 221.624 44.9785C222.527 44.9001 222.841 45.7241 222.252 46.3127C221.506 47.0975 218.78 47.9608 217.053 47.9608C215.248 47.9608 213.757 47.2153 213.129 45.2532C213.011 44.7823 212.815 44.7823 212.462 45.214C210.931 47.176 208.695 47.9608 206.458 47.9608ZM206.34 41.0937C206.34 42.9773 207.439 44.1937 209.048 44.1937C211.167 44.1937 212.619 41.8785 212.619 39.681L212.658 36.0709C212.658 35.5608 212.148 35.3646 211.324 35.6392C207.91 36.8557 206.34 38.8177 206.34 41.0937Z" fill="white"/>
<path d="M223.984 47.5684C223.121 47.5684 223.003 46.7836 223.435 46.2342C224.808 44.4292 224.808 44.4292 224.808 40.9367V33.9126C224.808 30.4987 224.808 30.4987 223.867 28.9291C223.513 28.3012 223.396 27.4772 224.298 27.2417L229.086 25.9468C230.263 25.6329 231.087 25.8683 231.087 27.8303V40.9367C231.087 44.4292 231.087 44.4292 232.46 46.2342C232.892 46.7836 232.774 47.5684 231.911 47.5684H223.984Z" fill="white"/>
<path d="M242.736 48.0001C236.849 48.0001 234.26 43.252 234.26 37.2874C234.26 29.7531 238.262 25.6721 243.991 25.6721C245.443 25.6721 246.542 25.9468 247.405 26.3392C247.915 26.5746 248.229 26.5746 248.229 26.2215C248.229 22.8075 248.229 22.8075 247.287 21.2379C246.934 20.61 246.817 19.786 247.719 19.5505L252.506 18.2556C253.684 17.9417 254.508 18.1768 254.508 20.1389V42.82C254.508 44.7821 255.097 45.096 256.235 44.9783C257.137 44.8998 257.451 45.7238 256.863 46.3125C256.117 47.0973 254.39 47.9608 252.663 47.9608C251.055 47.9608 249.72 47.4115 249.014 45.9203C248.818 45.4887 248.582 45.4102 248.308 45.7241C246.934 47.176 245.09 48.0001 242.736 48.0001ZM241.362 36.4241C241.362 42.0747 243.089 44.1152 245.247 44.1152C246.895 44.1152 248.19 42.5849 248.19 40.0734V33.0494C248.19 29.6746 246.856 28.3012 245.129 28.3012C242.225 28.3012 241.362 32.1076 241.362 36.4241Z" fill="white"/>
</svg>
