<svg width="110" height="112" viewBox="0 0 110 112" fill="none" xmlns="http://www.w3.org/2000/svg">
<path d="M86 64C99.2548 64 110 74.7452 110 88L110 108C110 110.209 108.209 112 106 112L82 112C68.7451 112 58 101.255 58 88L58 68C58 65.7909 59.7908 64 62 64L86 64Z" fill="white"/>
<path d="M60 56C60 31.3846 67.3846 24 92 24C92 48.6154 84.6154 56 60 56Z" fill="white"/>
<path d="M23.5789 112H58C51 105 46 102 46 86V23C46 10.2975 35.7025 0 23 0C10.2975 0 0 10.2974 0 23V88.4211C0 101.443 10.5567 112 23.5789 112Z" fill="white"/>
</svg>
