<svg width="112" height="112" viewBox="0 0 112 112" fill="none" xmlns="http://www.w3.org/2000/svg">
<path d="M87 64C100.255 64 111 74.7452 111 88L111 108C111 110.209 109.209 112 107 112L83 112C69.7451 112 59 101.255 59 88L59 68C59 65.7909 60.7908 64 63 64L87 64Z" fill="#FAD446"/>
<path d="M85.4921 28.011C65.6527 28.3078 59.3078 34.6527 59.011 54.4921C58.9986 55.3204 59.6796 56.0014 60.5079 55.989C80.3473 55.6922 86.6922 49.3473 86.989 29.5079C87.0014 28.6796 86.3204 27.9986 85.4921 28.011Z" fill="#0EA474"/>
<path d="M24.5789 112H59C52 105 47 102 47 86V23C47 10.2975 36.7025 0 24 0C11.2975 0 1 10.2974 1 23V88.4211C1 101.443 11.5567 112 24.5789 112Z" fill="#FAD446"/>
</svg>
