<svg width="223" height="48" viewBox="0 0 223 48" fill="none" xmlns="http://www.w3.org/2000/svg">
<path d="M37.2861 27.4287C42.9667 27.4287 47.5718 32.0338 47.5718 37.7144L47.5718 46.2859C47.5718 47.2326 46.8043 48.0001 45.8575 48.0001L35.5718 48.0001C29.8911 48.0001 25.286 43.3951 25.286 37.7144L25.286 29.143C25.286 28.1962 26.0536 27.4287 27.0003 27.4287L37.2861 27.4287Z" fill="#FAD446"/>
<path d="M36.6394 12.0047C28.1368 12.1319 25.4175 14.8512 25.2904 23.3538C25.2851 23.7088 25.5769 24.0006 25.9319 23.9953C34.4345 23.8681 37.1538 21.1488 37.2809 12.6462C37.2862 12.2912 36.9944 11.9994 36.6394 12.0047Z" fill="#0EA474"/>
<path d="M10.534 48H25.2859C22.2859 45 20.143 43.7143 20.143 36.8571V9.85714C20.143 4.41319 15.7298 0 10.2859 0C4.8419 0 0.428711 4.41319 0.428711 9.85714V37.8947C0.428711 43.4757 4.953 48 10.534 48Z" fill="#FAD446"/>
<path d="M60.6443 36.6492C59.9428 36.6492 59.8472 36.0115 60.1979 35.5651C61.3138 34.0985 61.3138 34.0985 61.3138 31.2609V19.3048C61.3138 16.4672 61.3138 16.4672 60.1979 15.0005C59.8472 14.5542 59.9428 13.9165 60.6443 13.9165H67.2441C67.9455 13.9165 68.0411 14.5542 67.6904 15.0005C66.5745 16.4672 66.5745 16.4672 66.5745 19.3048V32.5044C66.5745 33.7797 66.8615 34.7362 69.4759 34.7362C71.4208 34.7362 72.5685 34.3217 74.2902 31.1653C75.0554 29.7624 75.2467 29.4117 75.7569 29.4117C76.267 29.4117 76.5539 29.7943 76.4583 30.7189L76.0438 35.4376C75.98 36.2666 75.5018 36.6492 74.7047 36.6492H60.6443Z" fill="#1F2A37"/>
<path d="M86.0399 36.968C80.8748 36.968 77.3996 33.3971 77.3996 28.2001C77.3996 23.6409 80.2372 18.9222 86.4544 18.9222C90.121 18.9222 92.5441 20.8989 92.5441 23.7684C92.5441 26.7654 89.6108 28.6146 84.0313 29.5073C83.6168 29.5711 83.4574 29.8262 83.6168 30.2088C84.5095 32.1218 86.1356 32.9188 87.9848 32.9188C90.5354 32.9188 91.3006 31.5797 91.8745 31.5797C92.2252 31.5797 92.4803 31.771 92.4803 32.2812C92.4803 33.2696 91.0456 36.968 86.0399 36.968ZM82.9154 26.4466C82.9154 26.6698 82.9154 26.8611 82.9154 27.0523C82.9472 27.4349 83.2023 27.6262 83.5849 27.5306C86.837 26.7654 88.0167 24.7886 88.0167 23.067C88.0167 21.8235 87.3471 20.9627 86.1356 20.9627C83.9675 20.9627 82.9154 23.5133 82.9154 26.4466Z" fill="#1F2A37"/>
<path d="M94.6533 36.6492C93.9519 36.6492 93.8563 36.0115 94.207 35.5651C95.3229 34.0985 95.3229 34.0985 95.3229 31.2609V25.6495C95.3229 22.9394 95.3229 22.9394 94.3026 21.6322C93.9519 21.1859 93.8244 20.612 94.5258 20.3888L98.2242 19.1453C99.1807 18.8265 99.7865 19.1135 99.7865 19.7511V20.3569C99.7865 20.8989 100.073 20.9627 100.424 20.5801C101.763 19.3048 103.581 18.8584 105.015 18.8584C107.152 18.8584 108.586 19.5279 109.415 20.8033C109.638 21.154 109.893 21.1859 110.149 20.867C111.488 19.3685 113.464 18.8584 114.995 18.8584C118.789 18.8584 120.383 21.0264 120.383 24.8843V32.7913C120.383 34.3855 120.861 34.6405 121.786 34.5449C122.519 34.4811 122.774 35.1507 122.296 35.6289C121.69 36.2666 120.287 36.968 118.757 36.968C116.748 36.968 115.282 35.9477 115.282 32.8232V25.2669C115.282 23.2583 114.995 21.6641 113.114 21.6641C111.488 21.6641 110.435 23.0032 110.404 25.2988V31.2609C110.404 34.0985 110.404 34.0985 111.519 35.5651C111.87 36.0115 111.775 36.6492 111.073 36.6492H104.633C103.931 36.6492 103.836 36.0115 104.186 35.5651C105.302 34.0985 105.302 34.0985 105.302 31.2609V25.2669C105.302 23.2583 105.111 21.6641 103.134 21.6641C101.508 21.6641 100.456 23.0032 100.424 25.2988V31.2609C100.424 34.0985 100.424 34.0985 101.54 35.5651C101.891 36.0115 101.795 36.6492 101.094 36.6492H94.6533Z" fill="#1F2A37"/>
<path d="M131.379 36.968C126.277 36.968 122.898 33.2696 122.898 28.0088C122.898 22.9713 126.182 18.8584 131.698 18.8584C136.894 18.8584 139.891 22.8757 139.891 27.8175C139.891 33.1739 136.639 36.968 131.379 36.968ZM128.445 27.7538C128.445 32.6638 129.434 34.9275 131.347 34.9275C133.324 34.9275 134.344 32.6 134.344 27.5625C134.344 23.0032 133.387 20.8989 131.506 20.8989C129.466 20.8989 128.445 23.067 128.445 27.7538Z" fill="#1F2A37"/>
<path d="M141.989 36.6492C141.287 36.6492 141.191 36.0115 141.542 35.5651C142.658 34.0985 142.658 34.0985 142.658 31.2609V25.6495C142.658 22.9394 142.658 22.9394 141.638 21.6322C141.287 21.1859 141.16 20.612 141.861 20.3888L145.559 19.1453C146.516 18.8265 147.122 19.1135 147.122 19.7511V20.3569C147.122 20.8989 147.409 20.9627 147.759 20.612C149.13 19.3048 151.011 18.8584 152.446 18.8584C156.24 18.8584 158.058 21.0264 158.058 24.8843V32.7913C158.058 34.3855 158.536 34.6405 159.46 34.5449C160.194 34.4811 160.449 35.1507 159.971 35.6289C159.365 36.2666 157.962 36.968 156.432 36.968C154.423 36.968 152.956 35.9477 152.956 32.8232V25.2669C152.956 23.2583 152.574 21.6641 150.597 21.6641C148.971 21.6641 147.791 23.0351 147.759 25.2988V31.2609C147.759 34.0985 147.759 34.0985 148.875 35.5651C149.226 36.0115 149.13 36.6492 148.429 36.6492H141.989Z" fill="#1F2A37"/>
<path d="M216.206 36.968C211.041 36.968 207.566 33.3971 207.566 28.2001C207.566 23.6409 210.403 18.9222 216.62 18.9222C220.287 18.9222 222.71 20.8989 222.71 23.7684C222.71 26.7654 219.777 28.6146 214.197 29.5073C213.783 29.5711 213.623 29.8262 213.783 30.2088C214.675 32.1218 216.301 32.9188 218.151 32.9188C220.701 32.9188 221.467 31.5797 222.04 31.5797C222.391 31.5797 222.646 31.771 222.646 32.2812C222.646 33.2696 221.211 36.968 216.206 36.968ZM213.081 26.4466C213.081 26.6698 213.081 26.8611 213.081 27.0523C213.113 27.4349 213.368 27.6262 213.751 27.5306C217.003 26.7654 218.183 24.7886 218.183 23.067C218.183 21.8235 217.513 20.9627 216.301 20.9627C214.133 20.9627 213.081 23.5133 213.081 26.4466Z" fill="#1F2A37"/>
<path d="M185.626 11.0001C181.164 11.0906 179.707 12.5477 179.617 17.0091C179.612 17.2645 179.82 17.4724 180.075 17.4672C184.536 17.3767 185.993 15.9196 186.084 11.4582C186.089 11.2028 185.881 10.9949 185.626 11.0001Z" fill="#0EA474"/>
<path d="M165.997 36.9682C163.287 36.9682 160.768 35.3421 160.768 32.2176C160.768 28.0728 165.837 26.0323 170.524 24.8526C170.843 24.757 171.034 24.5338 171.003 24.1831C170.875 21.8237 170.237 20.8991 169.09 20.8991C166.188 20.8991 167.495 25.299 164.116 25.299C162.681 25.299 161.916 24.3106 161.916 23.1309C161.916 20.4208 165.391 18.8586 169.153 18.8586C173.872 18.8586 176.104 20.8672 176.104 25.1714V32.7915C176.104 34.3857 177.395 34.6407 178.319 34.5451C179.053 34.4813 179.308 35.1508 178.829 35.6291C178.224 36.2668 176.008 36.9682 174.605 36.9682C173.139 36.9682 171.927 36.3624 171.417 34.7683C171.321 34.3857 171.162 34.3857 170.875 34.7364C169.632 36.3305 167.814 36.9682 165.997 36.9682ZM165.901 31.3886C165.901 32.919 166.794 33.9074 168.101 33.9074C169.823 33.9074 171.003 32.0263 171.003 30.2408L171.034 27.3076C171.034 26.8931 170.62 26.7337 169.95 26.9569C167.177 27.9453 165.901 29.5394 165.901 31.3886Z" fill="#0EA474"/>
<path d="M180.237 36.6494C179.536 36.6494 179.44 36.0117 179.791 35.5653C180.907 34.0987 180.907 34.0987 180.907 31.2611V25.554C180.907 22.7802 180.907 22.7802 180.141 21.5049C179.854 20.9947 179.759 20.3252 180.492 20.1339L184.382 19.0818C185.338 18.8267 186.008 19.018 186.008 20.6121V31.2611C186.008 34.0987 186.008 34.0987 187.124 35.5653C187.475 36.0117 187.379 36.6494 186.677 36.6494H180.237Z" fill="#0EA474"/>
<path d="M195.472 37.0001C190.69 37.0001 188.586 33.1422 188.586 28.296C188.586 22.1744 191.838 18.8586 196.493 18.8586C197.672 18.8586 198.565 19.0818 199.267 19.4006C199.681 19.5919 199.936 19.5919 199.936 19.3049C199.936 16.5311 199.936 16.5311 199.171 15.2558C198.884 14.7457 198.788 14.0761 199.522 13.8848L203.411 12.8327C204.368 12.5776 205.038 12.7687 205.038 14.3628V32.7913C205.038 34.3854 205.516 34.6405 206.441 34.5448C207.174 34.4811 207.429 35.1506 206.951 35.6289C206.345 36.2665 204.942 36.9682 203.539 36.9682C202.232 36.9682 201.148 36.5218 200.574 35.3103C200.414 34.9595 200.223 34.8958 200 35.1508C198.884 36.3305 197.385 37.0001 195.472 37.0001ZM194.357 27.5945C194.357 32.1857 195.759 33.8436 197.513 33.8436C198.852 33.8436 199.904 32.6002 199.904 30.5597V24.8526C199.904 22.1107 198.82 20.9947 197.417 20.9947C195.058 20.9947 194.357 24.0874 194.357 27.5945Z" fill="#0EA474"/>
</svg>
