<svg width="201" height="32" viewBox="0 0 201 32" fill="none" xmlns="http://www.w3.org/2000/svg">
<path d="M0.792939 31.568C-0.0703576 31.568 -0.18808 30.7832 0.243568 30.2338C1.617 28.4288 1.617 28.4288 1.617 24.9363V10.221C1.617 6.72862 1.617 6.72862 0.243568 4.92354C-0.18808 4.37417 -0.0703576 3.58936 0.792939 3.58936H8.91578C9.77907 3.58936 9.89679 4.37417 9.46515 4.92354C8.09172 6.72862 8.09172 6.72862 8.09172 10.221V26.4667C8.09172 28.0363 8.44489 29.2136 11.6626 29.2136C14.0563 29.2136 15.469 28.7034 17.588 24.8186C18.5298 23.092 18.7652 22.6604 19.3931 22.6604C20.0209 22.6604 20.3741 23.1313 20.2564 24.2692L19.7462 30.0769C19.6677 31.0971 19.0791 31.568 18.0981 31.568H0.792939Z" fill="white"/>
<path d="M32.0491 31.9604C25.6921 31.9604 21.4149 27.5655 21.4149 21.1692C21.4149 15.5578 24.9073 9.75015 32.5593 9.75015C37.0719 9.75015 40.0542 12.1831 40.0542 15.7147C40.0542 19.4034 36.4441 21.6793 29.577 22.7781C29.0668 22.8566 28.8706 23.1705 29.0668 23.6414C30.1656 25.9958 32.1668 26.9768 34.4428 26.9768C37.5821 26.9768 38.5238 25.3287 39.2302 25.3287C39.6618 25.3287 39.9758 25.5642 39.9758 26.192C39.9758 27.4085 38.2099 31.9604 32.0491 31.9604ZM28.2035 19.011C28.2035 19.2857 28.2035 19.5211 28.2035 19.7565C28.2428 20.2274 28.5567 20.4629 29.0276 20.3452C33.0301 19.4034 34.482 16.9705 34.482 14.8515C34.482 13.3211 33.658 12.2616 32.1668 12.2616C29.4985 12.2616 28.2035 15.4008 28.2035 19.011Z" fill="white"/>
<path d="M42.6503 31.568C41.787 31.568 41.6692 30.7832 42.1009 30.2338C43.4743 28.4288 43.4743 28.4288 43.4743 24.9363V18.03C43.4743 14.6945 43.4743 14.6945 42.2186 13.0856C41.787 12.5362 41.63 11.8299 42.4933 11.5552L47.0452 10.0248C48.2224 9.63243 48.968 9.9856 48.968 10.7704V11.516C48.968 12.1831 49.3212 12.2616 49.7528 11.7907C51.4009 10.221 53.6377 9.67167 55.4035 9.67167C58.0326 9.67167 59.7985 10.4957 60.8187 12.0654C61.0934 12.497 61.4073 12.5363 61.7213 12.1438C63.3694 10.2995 65.8023 9.67167 67.6859 9.67167C72.3555 9.67167 74.3175 12.34 74.3175 17.0882V26.8199C74.3175 28.7819 74.9062 29.0958 76.0441 28.9781C76.9467 28.8996 77.2606 29.7237 76.672 30.3123C75.9264 31.0971 74.1998 31.9604 72.3163 31.9604C69.8441 31.9604 68.039 30.7047 68.039 26.8591V17.5591C68.039 15.0869 67.6859 13.1249 65.3707 13.1249C63.3694 13.1249 62.0744 14.773 62.0352 17.5983V24.9363C62.0352 28.4288 62.0352 28.4288 63.4086 30.2338C63.8403 30.7832 63.7225 31.568 62.8592 31.568H54.9326C54.0693 31.568 53.9516 30.7832 54.3832 30.2338C55.7567 28.4288 55.7567 28.4288 55.7567 24.9363V17.5591C55.7567 15.0869 55.5212 13.1249 53.0883 13.1249C51.087 13.1249 49.7921 14.773 49.7528 17.5983V24.9363C49.7528 28.4288 49.7528 28.4288 51.1263 30.2338C51.5579 30.7832 51.4402 31.568 50.5769 31.568H42.6503Z" fill="white"/>
<path d="M87.8507 31.9604C81.5722 31.9604 77.4127 27.4085 77.4127 20.9338C77.4127 14.7337 81.4545 9.67167 88.2431 9.67167C94.6394 9.67167 98.328 14.616 98.328 20.6983C98.328 27.2908 94.3254 31.9604 87.8507 31.9604ZM84.2406 20.6198C84.2406 26.6629 85.457 29.449 87.8115 29.449C90.2444 29.449 91.5001 26.5844 91.5001 20.3844C91.5001 14.773 90.3229 12.1831 88.0077 12.1831C85.4963 12.1831 84.2406 14.8515 84.2406 20.6198Z" fill="white"/>
<path d="M100.909 31.568C100.046 31.568 99.928 30.7832 100.36 30.2338C101.733 28.4288 101.733 28.4288 101.733 24.9363V18.03C101.733 14.6945 101.733 14.6945 100.477 13.0856C100.046 12.5362 99.8887 11.8299 100.752 11.5552L105.304 10.0248C106.481 9.63243 107.227 9.9856 107.227 10.7704V11.516C107.227 12.1831 107.58 12.2616 108.012 11.8299C109.699 10.221 112.014 9.67167 113.78 9.67167C118.45 9.67167 120.686 12.34 120.686 17.0882V26.8199C120.686 28.7819 121.275 29.0958 122.413 28.9781C123.315 28.8996 123.629 29.7237 123.041 30.3123C122.295 31.0971 120.569 31.9604 118.685 31.9604C116.213 31.9604 114.408 30.7047 114.408 26.8591V17.5591C114.408 15.0869 113.937 13.1249 111.504 13.1249C109.503 13.1249 108.051 14.8122 108.012 17.5983V24.9363C108.012 28.4288 108.012 28.4288 109.385 30.2338C109.817 30.7832 109.699 31.568 108.836 31.568H100.909Z" fill="white"/>
<path d="M192.253 31.9604C185.896 31.9604 181.619 27.5655 181.619 21.1692C181.619 15.5578 185.112 9.75015 192.763 9.75015C197.276 9.75015 200.258 12.1831 200.258 15.7147C200.258 19.4034 196.648 21.6793 189.781 22.7781C189.271 22.8566 189.075 23.1705 189.271 23.6414C190.37 25.9958 192.371 26.9768 194.647 26.9768C197.786 26.9768 198.728 25.3287 199.434 25.3287C199.866 25.3287 200.18 25.5642 200.18 26.192C200.18 27.4085 198.414 31.9604 192.253 31.9604ZM188.408 19.011C188.408 19.2857 188.408 19.5211 188.408 19.7565C188.447 20.2274 188.761 20.4629 189.232 20.3452C193.234 19.4034 194.686 16.9705 194.686 14.8515C194.686 13.3211 193.862 12.2616 192.371 12.2616C189.703 12.2616 188.408 15.4008 188.408 19.011Z" fill="white"/>
<path d="M154.617 0.000116683C149.126 0.111505 147.332 1.90488 147.221 7.39582C147.215 7.71019 147.47 7.96606 147.785 7.95968C153.276 7.84829 155.069 6.05492 155.18 0.563978C155.187 0.249605 154.931 -0.00626063 154.617 0.000116683Z" fill="white"/>
<path d="M130.458 31.9608C127.122 31.9608 124.022 29.9596 124.022 26.114C124.022 21.0127 130.262 18.5013 136.03 17.0494C136.423 16.9316 136.658 16.6569 136.619 16.2253C136.462 13.3215 135.677 12.1835 134.264 12.1835C130.693 12.1835 132.302 17.5987 128.143 17.5987C126.377 17.5987 125.435 16.3823 125.435 14.9304C125.435 11.5949 129.712 9.67209 134.343 9.67209C140.15 9.67209 142.897 12.1443 142.897 17.4418V26.8203C142.897 28.7823 144.486 29.0963 145.624 28.9785C146.527 28.9001 146.841 29.7241 146.252 30.3127C145.506 31.0975 142.78 31.9608 141.053 31.9608C139.248 31.9608 137.757 31.2153 137.129 29.2532C137.011 28.7823 136.815 28.7823 136.462 29.214C134.931 31.176 132.695 31.9608 130.458 31.9608ZM130.34 25.0937C130.34 26.9773 131.439 28.1937 133.048 28.1937C135.167 28.1937 136.619 25.8785 136.619 23.681L136.658 20.0709C136.658 19.5608 136.148 19.3646 135.324 19.6392C131.91 20.8557 130.34 22.8177 130.34 25.0937Z" fill="white"/>
<path d="M147.984 31.5684C147.121 31.5684 147.003 30.7836 147.435 30.2342C148.808 28.4292 148.808 28.4292 148.808 24.9367V17.9126C148.808 14.4987 148.808 14.4987 147.867 12.9291C147.513 12.3012 147.396 11.4772 148.298 11.2417L153.086 9.94678C154.263 9.63285 155.087 9.8683 155.087 11.8303V24.9367C155.087 28.4292 155.087 28.4292 156.46 30.2342C156.892 30.7836 156.774 31.5684 155.911 31.5684H147.984Z" fill="white"/>
<path d="M166.736 32.0001C160.849 32.0001 158.26 27.252 158.26 21.2874C158.26 13.7531 162.262 9.67209 167.991 9.67209C169.443 9.67209 170.542 9.94678 171.405 10.3392C171.915 10.5746 172.229 10.5746 172.229 10.2215C172.229 6.80752 172.229 6.80752 171.287 5.23789C170.934 4.61003 170.817 3.78598 171.719 3.55053L176.506 2.25559C177.684 1.94166 178.508 2.17684 178.508 4.13887V26.82C178.508 28.7821 179.097 29.096 180.235 28.9783C181.137 28.8998 181.451 29.7238 180.863 30.3125C180.117 31.0973 178.39 31.9608 176.663 31.9608C175.055 31.9608 173.72 31.4115 173.014 29.9203C172.818 29.4887 172.582 29.4102 172.308 29.7241C170.934 31.176 169.09 32.0001 166.736 32.0001ZM165.362 20.4241C165.362 26.0747 167.089 28.1152 169.247 28.1152C170.895 28.1152 172.19 26.5849 172.19 24.0734V17.0494C172.19 13.6746 170.856 12.3012 169.129 12.3012C166.225 12.3012 165.362 16.1076 165.362 20.4241Z" fill="white"/>
</svg>
