<svg width="165" height="51" viewBox="0 0 165 51" fill="none" xmlns="http://www.w3.org/2000/svg">
<path d="M56.8229 0H5.48047C2.45316 0 0 2.45469 0 5.48387V45.5248C0 48.554 2.45316 51.0087 5.48047 51.0087H56.8229C59.8502 51.0087 62.3033 48.554 62.3033 45.5248V5.48387C62.3033 2.45469 59.8502 0 56.8229 0ZM43.8002 23.3195C43.748 25.7829 42.678 27.7066 40.5728 28.9775C38.1719 30.4311 35.7187 31.7977 33.2829 33.1992C33.2395 33.2253 33.196 33.234 33.1177 33.2775C33.109 33.1644 33.0916 33.0686 33.0916 32.9729C33.0916 30.9534 33.0568 28.9426 33.0916 26.9232C33.1438 24.4946 34.1877 22.5709 36.2668 21.3088C38.6764 19.8464 41.1383 18.4711 43.5827 17.0609C43.6349 17.0348 43.6871 17.0174 43.7915 16.9652V19.9073C43.7915 21.0476 43.8089 22.1792 43.7915 23.3195H43.8002ZM57.4666 44.2191C57.4666 45.1505 56.7185 45.8991 55.7877 45.8991H33.0916C33.0916 43.1746 33.0916 40.4501 33.0916 37.7255C33.0916 37.4296 33.1786 37.2729 33.4308 37.1249C36.3364 35.4537 39.2506 33.7998 42.13 32.0937C45.5227 30.0916 47.2364 27.0712 47.2799 23.1541C47.3321 19.2458 47.2886 15.3374 47.2886 11.4291V10.9503C47.1668 11.0113 47.0798 11.0461 46.9928 11.0896C42.8955 13.4572 38.7895 15.7988 34.7009 18.1925C31.6475 19.9857 29.986 22.6928 29.6467 26.2181C29.6467 26.2529 29.638 26.2878 29.6293 26.3226C29.6032 26.3226 29.5771 26.3313 29.5597 26.3226C27.8373 24.9647 25.8626 24.0333 23.9836 22.9278C21.2607 21.3175 18.5118 19.7593 15.7716 18.1751C15.6759 18.1142 15.5715 18.0707 15.4149 17.9836V18.4363C15.4149 22.3881 15.3714 26.3487 15.4236 30.3006C15.4758 34.1306 17.1634 37.0814 20.4517 39.0486C23.3833 40.807 26.3671 42.4869 29.3335 44.1843C29.6206 44.3497 29.7424 44.5238 29.725 44.8633C29.7076 45.2028 29.7076 45.5422 29.7076 45.8817H6.51566C5.58485 45.8817 4.83673 45.1331 4.83673 44.2017V6.78955C4.83673 5.85817 5.58485 5.10957 6.51566 5.10957H55.7964C56.7272 5.10957 57.4753 5.85817 57.4753 6.78955V44.2104L57.4666 44.2191ZM29.6032 40.0932C29.6032 40.1628 29.5858 40.2238 29.5771 40.3282C29.4553 40.2673 29.3509 40.215 29.2552 40.1628C26.9239 38.8136 24.5838 37.4905 22.2611 36.1152C20.0428 34.8008 18.9207 32.8336 18.8859 30.257C18.8598 28.3246 18.8859 26.3835 18.8859 24.4511V23.9898L20.7997 25.0952C22.5308 26.0963 24.2619 27.106 26.0018 28.0983C28.3331 29.4301 29.5684 31.4234 29.5945 34.1219C29.6206 36.1152 29.5945 38.1085 29.5945 40.1019L29.6032 40.0932Z" fill="#4DA47C"/>
<path d="M83.5901 43.018C82.0765 43.018 80.6063 42.8613 79.1884 42.5567C77.7704 42.2433 76.4829 41.7385 75.3347 41.0421C74.8301 40.7635 74.5169 40.4067 74.4125 39.9888C74.2995 39.571 74.3517 39.1619 74.5604 38.7702C74.7692 38.3785 75.065 38.0912 75.4477 37.9085C75.8305 37.7257 76.2394 37.7605 76.6917 38.0129C77.927 38.6832 79.1014 39.1445 80.2062 39.3795C81.311 39.6145 82.3462 39.7364 83.3031 39.7364C87.2351 39.7364 89.2011 37.7692 89.2011 33.8347V30.5879C88.6096 31.824 87.6961 32.7902 86.4435 33.4952C85.1908 34.2003 83.7989 34.5485 82.2592 34.5485C80.4063 34.5485 78.7969 34.122 77.4138 33.2602C76.0393 32.4072 74.9693 31.2146 74.2125 29.6826C73.4556 28.1506 73.0729 26.3662 73.0729 24.3119C73.0729 22.2577 73.4556 20.5167 74.2125 18.9847C74.9693 17.4527 76.0393 16.2602 77.4138 15.4072C78.7882 14.5541 80.4063 14.1189 82.2592 14.1189C83.7989 14.1189 85.1821 14.4671 86.4087 15.1547C87.6266 15.8424 88.5313 16.7738 89.1228 17.9576V16.356C89.1228 14.9197 89.8274 14.2059 91.228 14.2059C92.6286 14.2059 93.3332 14.9197 93.3332 16.356V33.3299C93.3332 36.5592 92.5068 38.9791 90.8452 40.5982C89.1924 42.2172 86.774 43.018 83.6075 43.018H83.5901ZM83.2509 31.2234C85.0429 31.2234 86.4783 30.6053 87.5483 29.3693C88.6183 28.1332 89.1489 26.4445 89.1489 24.3119C89.1489 22.1793 88.6183 20.4993 87.5483 19.2807C86.4783 18.0621 85.0516 17.4527 83.2509 17.4527C81.4502 17.4527 80.0235 18.0621 78.9535 19.2807C77.8835 20.4993 77.3529 22.1793 77.3529 24.3119C77.3529 26.4445 77.8835 28.1332 78.9535 29.3693C80.0235 30.6053 81.4502 31.2234 83.2509 31.2234Z" fill="#1C1C1C"/>
<path d="M99.3878 35.3493C97.9525 35.3493 97.2391 34.6355 97.2391 33.1993V16.3472C97.2391 14.911 97.9264 14.1972 99.3008 14.1972C100.675 14.1972 101.363 14.911 101.363 16.3472V18.1578C101.919 16.8956 102.772 15.9294 103.911 15.2505C105.051 14.5802 106.434 14.1798 108.061 14.0754C109.096 13.9883 109.662 14.5541 109.749 15.764C109.862 17.0001 109.261 17.6703 107.939 17.7835L107.139 17.8705C103.407 18.2361 101.537 20.1598 101.537 23.6417V33.208C101.537 34.6442 100.823 35.358 99.3878 35.358V35.3493Z" fill="#1C1C1C"/>
<path d="M140.491 35.3493C139.256 35.3493 138.403 34.7313 137.925 33.4953L131.74 17.1046C131.401 16.2602 131.409 15.5639 131.757 15.0155C132.105 14.4671 132.706 14.1973 133.549 14.1973C134.054 14.1973 134.463 14.3191 134.767 14.5542C135.072 14.7892 135.359 15.2505 135.611 15.9208L140.622 30.0744L145.841 15.7554C146.233 14.7195 146.937 14.1973 147.946 14.1973C148.956 14.1973 149.686 14.7195 150.052 15.7554L155.184 30.1614L160.317 15.8424C160.543 15.1983 160.83 14.7631 161.178 14.5367C161.526 14.3104 161.926 14.1973 162.378 14.1973C163.222 14.1973 163.762 14.4932 163.996 15.0851C164.231 15.677 164.214 16.3473 163.935 17.1046L157.75 33.4953C157.246 34.7313 156.402 35.3493 155.228 35.3493C153.966 35.3493 153.105 34.7313 152.661 33.4953L147.816 20.3514L143.014 33.4953C142.562 34.7313 141.727 35.3493 140.491 35.3493Z" fill="#1C1C1C"/>
<path d="M120.457 35.4711C118.343 35.4711 116.525 35.0271 114.977 34.148C113.437 33.2601 112.245 32.0154 111.401 30.405C110.557 28.7947 110.14 26.871 110.14 24.6513C110.14 22.4316 110.557 20.5079 111.401 18.8976C112.245 17.2873 113.437 16.0338 114.977 15.1546C116.516 14.2668 118.343 13.8315 120.457 13.8315C122.571 13.8315 124.311 14.2755 125.851 15.1546C127.39 16.0425 128.591 17.2873 129.443 18.8976C130.296 20.5079 130.731 22.4316 130.731 24.6513C130.731 26.871 130.305 28.7947 129.443 30.405C128.591 32.0154 127.39 33.2688 125.851 34.148C124.311 35.0358 122.51 35.4711 120.457 35.4711ZM120.457 32.1285C122.223 32.1285 123.65 31.4844 124.737 30.2048C125.824 28.9165 126.364 27.0625 126.364 24.6426C126.364 22.2227 125.824 20.3687 124.737 19.0978C123.65 17.8269 122.223 17.1915 120.457 17.1915C118.691 17.1915 117.221 17.8269 116.134 19.0978C115.046 20.3687 114.507 22.214 114.507 24.6426C114.507 27.0712 115.046 28.9252 116.134 30.2048C117.221 31.4931 118.656 32.1285 120.457 32.1285Z" fill="#1C1C1C"/>
</svg>
