<svg width="63" height="52" viewBox="0 0 63 52" fill="none" xmlns="http://www.w3.org/2000/svg">
<path d="M56.8228 0.491211H5.48046C2.45316 0.491211 0 2.9459 0 5.97508V46.016C0 49.0452 2.45316 51.4999 5.48046 51.4999H56.8228C59.8502 51.4999 62.3033 49.0452 62.3033 46.016V5.97508C62.3033 2.9459 59.8502 0.491211 56.8228 0.491211ZM43.8002 23.8107C43.748 26.2741 42.678 28.1978 40.5728 29.4687C38.1719 30.9223 35.7187 32.289 33.2829 33.6904C33.2394 33.7165 33.196 33.7252 33.1177 33.7687C33.109 33.6556 33.0916 33.5598 33.0916 33.4641C33.0916 31.4446 33.0568 29.4339 33.0916 27.4144C33.1438 24.9858 34.1877 23.0621 36.2668 21.8C38.6764 20.3376 41.1383 18.9623 43.5827 17.5521C43.6349 17.526 43.6871 17.5086 43.7915 17.4564V20.3985C43.7915 21.5388 43.8089 22.6704 43.7915 23.8107H43.8002ZM57.4666 44.7104C57.4666 45.6417 56.7185 46.3903 55.7876 46.3903H33.0916C33.0916 43.6658 33.0916 40.9413 33.0916 38.2168C33.0916 37.9208 33.1786 37.7641 33.4308 37.6161C36.3363 35.9449 39.2506 34.291 42.13 32.5849C45.5227 30.5829 47.2364 27.5624 47.2799 23.6453C47.3321 19.737 47.2886 15.8286 47.2886 11.9203V11.4415C47.1668 11.5025 47.0798 11.5373 46.9928 11.5808C42.8955 13.9485 38.7895 16.29 34.7009 18.6837C31.6475 20.4769 29.986 23.184 29.6467 26.7093C29.6467 26.7442 29.638 26.779 29.6293 26.8138C29.6032 26.8138 29.5771 26.8225 29.5597 26.8138C27.8373 25.4559 25.8626 24.5245 23.9836 23.419C21.2607 21.8087 18.5118 20.2506 15.7716 18.6663C15.6759 18.6054 15.5715 18.5619 15.4149 18.4748V18.9275C15.4149 22.8793 15.3714 26.8399 15.4236 30.7918C15.4758 34.6218 17.1634 37.5726 20.4517 39.5399C23.3833 41.2982 26.3671 42.9781 29.3335 44.6755C29.6206 44.8409 29.7424 45.015 29.725 45.3545C29.7076 45.694 29.7076 46.0334 29.7076 46.3729H6.51566C5.58485 46.3729 4.83672 45.6243 4.83672 44.6929V7.28077C4.83672 6.34938 5.58485 5.60079 6.51566 5.60079H55.7964C56.7272 5.60079 57.4753 6.34938 57.4753 7.28077V44.7017L57.4666 44.7104ZM29.6032 40.5844C29.6032 40.654 29.5858 40.715 29.5771 40.8194C29.4553 40.7585 29.3509 40.7063 29.2552 40.654C26.9239 39.3048 24.5838 37.9817 22.2611 36.6064C20.0428 35.292 18.9206 33.3248 18.8858 30.7482C18.8598 28.8158 18.8858 26.8747 18.8858 24.9423V24.481L20.7997 25.5864C22.5308 26.5875 24.2619 27.5972 26.0018 28.5895C28.3331 29.9213 29.5684 31.9147 29.5945 34.6131C29.6206 36.6064 29.5945 38.5998 29.5945 40.5931L29.6032 40.5844Z" fill="#4DA47C"/>
</svg>
