<svg width="48" height="48" viewBox="0 0 48 48" fill="none" xmlns="http://www.w3.org/2000/svg">
<circle cx="24" cy="24" r="24" fill="#4DA47C"/>
<path d="M31.7922 21.6394C31.7594 23.1906 31.0856 24.402 29.7599 25.2022C28.2481 26.1176 26.7033 26.9782 25.1695 27.8606C25.1421 27.8771 25.1147 27.8826 25.0654 27.91C25.0599 27.8387 25.049 27.7784 25.049 27.7181C25.049 26.4465 25.0271 25.1803 25.049 23.9086C25.0818 22.3794 25.7392 21.168 27.0484 20.3732C28.5658 19.4524 30.116 18.5863 31.6553 17.6984C31.6882 17.6819 31.721 17.671 31.7868 17.6381V19.4907C31.7868 20.2088 31.7977 20.9214 31.7868 21.6394H31.7922ZM24.9913 37.1495C24.9913 35.4339 25.049 32.4266 25.049 30.7109C25.049 30.5246 25.1038 30.4259 25.2626 30.3327C27.0922 29.2803 28.9273 28.2389 30.7405 27.1645C32.8769 25.9038 33.956 24.0018 33.9834 21.5353C34.0163 19.0742 33.9889 16.6131 33.9889 14.152V13.8505C33.9122 13.8889 33.8574 13.9108 33.8026 13.9382C31.2225 15.4291 28.637 16.9036 26.0624 18.4109C24.1397 19.5401 23.0934 21.2447 22.8797 23.4647C22.8797 23.4866 22.8743 23.5085 22.8688 23.5304C22.8524 23.5304 22.8359 23.5359 22.825 23.5304C21.7403 22.6754 20.4969 22.0889 19.3136 21.3928C17.5991 20.3787 15.868 19.3976 14.1425 18.4C14.0823 18.3616 14.0165 18.3342 13.9179 18.2794V18.5644C13.9179 21.0529 13.8905 23.5469 13.9234 26.0354C13.9563 28.4471 15.019 30.3053 17.0896 31.5441C18.9357 32.6513 20.8551 33.8767 22.7231 34.9455V37.1495H24.9913ZM22.8523 32.2018C22.8523 32.2457 22.8414 32.284 22.8359 32.3498C22.7592 32.3115 22.6935 32.2786 22.6332 32.2457C21.1652 31.3961 19.6916 30.5629 18.229 29.6969C16.8322 28.8692 16.1255 27.6304 16.1036 26.008C16.0872 24.7911 16.1036 23.5688 16.1036 22.352V22.0615L17.3087 22.7576C18.3988 23.3879 19.4889 24.0238 20.5845 24.6486C22.0526 25.4873 22.8304 26.7425 22.8469 28.4417C22.8633 29.6969 22.8469 30.9521 22.8469 32.2073L22.8523 32.2018Z" fill="white"/>
</svg>
