<svg width="136" height="40" viewBox="0 0 136 40" fill="none" xmlns="http://www.w3.org/2000/svg">
<g clip-path="url(#clip0_48_1662)">
<path d="M44.5279 0H4.29464C1.92236 0 0 1.92524 0 4.30107V35.7057C0 38.0816 1.92236 40.0068 4.29464 40.0068H44.5279C46.9002 40.0068 48.8226 38.0816 48.8226 35.7057V4.30107C48.8226 1.92524 46.9002 0 44.5279 0ZM34.323 18.2898C34.2821 20.2219 33.4437 21.7307 31.794 22.7274C29.9125 23.8676 27.9901 24.9394 26.0814 26.0386C26.0473 26.0591 26.0133 26.0659 25.9519 26.1C25.9451 26.0113 25.9314 25.9362 25.9314 25.8611C25.9314 24.2772 25.9042 22.7001 25.9314 21.1162C25.9724 19.2115 26.7904 17.7027 28.4196 16.7127C30.3079 15.5658 32.2371 14.4871 34.1526 13.3811C34.1935 13.3606 34.2344 13.347 34.3162 13.306V15.6136C34.3162 16.5079 34.3299 17.3955 34.3162 18.2898H34.323ZM45.0324 34.6817C45.0324 35.4122 44.4461 35.9993 43.7167 35.9993H25.9314C25.9314 33.8624 25.9314 31.7255 25.9314 29.5887C25.9314 29.3565 25.9996 29.2337 26.1973 29.1176C28.4741 27.8068 30.7578 26.5096 33.0142 25.1715C35.6728 23.6013 37.0157 21.2323 37.0498 18.1601C37.0907 15.0947 37.0566 12.0294 37.0566 8.96399V8.5885C36.9612 8.63628 36.893 8.66359 36.8248 8.69773C33.6141 10.5547 30.3965 12.3912 27.1926 14.2686C24.7998 15.675 23.4978 17.7983 23.232 20.5632C23.232 20.5905 23.2251 20.6179 23.2183 20.6452C23.1979 20.6452 23.1774 20.652 23.1638 20.6452C21.814 19.5801 20.2666 18.8496 18.7942 17.9826C16.6605 16.7196 14.5063 15.4975 12.359 14.255C12.284 14.2072 12.2022 14.1731 12.0795 14.1048V14.4598C12.0795 17.5593 12.0454 20.6656 12.0863 23.7651C12.1272 26.7691 13.4497 29.0835 16.0265 30.6264C18.3238 32.0055 20.662 33.3231 22.9866 34.6544C23.2115 34.7841 23.3069 34.9206 23.2933 35.1869C23.2797 35.4531 23.2797 35.7194 23.2797 35.9857H5.10585C4.37644 35.9857 3.79019 35.3985 3.79019 34.668V5.32514C3.79019 4.59464 4.37644 4.00751 5.10585 4.00751H43.7235C44.4529 4.00751 45.0392 4.59464 45.0392 5.32514V34.6749L45.0324 34.6817ZM23.1979 31.4456C23.1979 31.5003 23.1842 31.548 23.1774 31.63C23.082 31.5822 23.0002 31.5412 22.9252 31.5003C21.0983 30.4421 19.2645 29.4043 17.4444 28.3257C15.7061 27.2948 14.8267 25.7518 14.7995 23.731C14.779 22.2154 14.7995 20.6929 14.7995 19.1773V18.8155L16.2992 19.6825C17.6557 20.4677 19.0123 21.2596 20.3757 22.0379C22.2026 23.0824 23.1706 24.6458 23.1911 26.7622C23.2115 28.3257 23.1911 29.8891 23.1911 31.4525L23.1979 31.4456Z" fill="#4DA47C"/>
<path d="M65.5033 33.7396C64.3172 33.7396 63.1651 33.6167 62.054 33.3778C60.9428 33.132 59.9339 32.736 59.0341 32.1898C58.6387 31.9714 58.3933 31.6915 58.3115 31.3638C58.2229 31.0361 58.2638 30.7152 58.4274 30.408C58.591 30.1007 58.8228 29.8755 59.1227 29.7321C59.4227 29.5887 59.7431 29.616 60.0975 29.814C61.0655 30.3397 61.9858 30.7015 62.8516 30.8859C63.7173 31.0702 64.5285 31.1658 65.2784 31.1658C68.3596 31.1658 69.9002 29.6228 69.9002 26.537V23.9905C69.4367 24.9599 68.7209 25.7177 67.7393 26.2707C66.7576 26.8237 65.6669 27.0968 64.4604 27.0968C63.0084 27.0968 61.7472 26.7623 60.6633 26.0864C59.5863 25.4174 58.7478 24.482 58.1547 23.2805C57.5617 22.0789 57.2617 20.6793 57.2617 19.0681C57.2617 17.457 57.5617 16.0915 58.1547 14.89C58.7478 13.6884 59.5863 12.7531 60.6633 12.084C61.7404 11.415 63.0084 11.0736 64.4604 11.0736C65.6669 11.0736 66.7508 11.3467 67.712 11.886C68.6664 12.4254 69.3753 13.1559 69.8389 14.0844V12.8282C69.8389 11.7017 70.391 11.1419 71.4886 11.1419C72.5861 11.1419 73.1383 11.7017 73.1383 12.8282V26.141C73.1383 28.6739 72.4906 30.5718 71.1886 31.8417C69.8934 33.1115 67.9983 33.7396 65.517 33.7396H65.5033ZM65.2375 24.4889C66.6418 24.4889 67.7665 24.0041 68.605 23.0347C69.4435 22.0652 69.8593 20.7408 69.8593 19.0681C69.8593 17.3955 69.4435 16.0779 68.605 15.1221C67.7665 14.1663 66.6486 13.6884 65.2375 13.6884C63.8264 13.6884 62.7084 14.1663 61.8699 15.1221C61.0315 16.0779 60.6156 17.3955 60.6156 19.0681C60.6156 20.7408 61.0315 22.0652 61.8699 23.0347C62.7084 24.0041 63.8264 24.4889 65.2375 24.4889Z" fill="#1C1C1C"/>
<path d="M77.8827 27.725C76.758 27.725 76.199 27.1652 76.199 26.0387V12.8214C76.199 11.6949 76.7375 11.1351 77.8146 11.1351C78.8916 11.1351 79.4302 11.6949 79.4302 12.8214V14.2415C79.8665 13.2515 80.5345 12.4937 81.4275 11.9612C82.3205 11.4355 83.4044 11.1215 84.6792 11.0395C85.4904 10.9713 85.9335 11.415 86.0017 12.364C86.0903 13.3335 85.6199 13.8591 84.5838 13.9479L83.9566 14.0162C81.0322 14.3029 79.5665 15.8117 79.5665 18.5425V26.0455C79.5665 27.172 79.0075 27.7318 77.8827 27.7318V27.725Z" fill="#1C1C1C"/>
<path d="M110.093 27.7249C109.125 27.7249 108.457 27.2402 108.082 26.2707L103.235 13.4153C102.969 12.753 102.976 12.2069 103.249 11.7768C103.521 11.3467 103.992 11.135 104.653 11.135C105.048 11.135 105.369 11.2306 105.607 11.4149C105.846 11.5993 106.071 11.9611 106.269 12.4868L110.195 23.5876L114.285 12.3571C114.592 11.5446 115.144 11.135 115.935 11.135C116.726 11.135 117.298 11.5446 117.585 12.3571L121.607 23.6559L125.628 12.4253C125.806 11.9201 126.031 11.5788 126.303 11.4013C126.576 11.2238 126.89 11.135 127.244 11.135C127.905 11.135 128.328 11.3671 128.512 11.8314C128.696 12.2956 128.682 12.8213 128.464 13.4153L123.617 26.2707C123.222 27.2402 122.561 27.7249 121.641 27.7249C120.652 27.7249 119.977 27.2402 119.63 26.2707L115.833 15.9618L112.07 26.2707C111.715 27.2402 111.061 27.7249 110.093 27.7249Z" fill="#1C1C1C"/>
<path d="M94.3934 27.8206C92.7369 27.8206 91.3122 27.4724 90.0988 26.7828C88.8922 26.0865 87.9583 25.1102 87.297 23.8472C86.6358 22.5842 86.3086 21.0754 86.3086 19.3345C86.3086 17.5936 86.6358 16.0848 87.297 14.8218C87.9583 13.5587 88.8922 12.5756 90.0988 11.8861C91.3054 11.1897 92.7369 10.8484 94.3934 10.8484C96.0499 10.8484 97.4133 11.1966 98.6199 11.8861C99.8265 12.5825 100.767 13.5587 101.435 14.8218C102.103 16.0848 102.444 17.5936 102.444 19.3345C102.444 21.0754 102.11 22.5842 101.435 23.8472C100.767 25.1102 99.8265 26.0933 98.6199 26.7828C97.4133 27.4792 96.0022 27.8206 94.3934 27.8206ZM94.3934 25.199C95.7773 25.199 96.8952 24.6938 97.7473 23.6902C98.5994 22.6798 99.0221 21.2256 99.0221 19.3277C99.0221 17.4297 98.5994 15.9755 97.7473 14.9788C96.8952 13.982 95.7773 13.4837 94.3934 13.4837C93.0096 13.4837 91.8575 13.982 91.0054 14.9788C90.1533 15.9755 89.7307 17.4229 89.7307 19.3277C89.7307 21.2324 90.1533 22.6866 91.0054 23.6902C91.8575 24.7006 92.9823 25.199 94.3934 25.199Z" fill="#1C1C1C"/>
</g>
<defs>
<clipPath id="clip0_48_1662">
<rect width="135.567" height="40" fill="white"/>
</clipPath>
</defs>
</svg>
