<svg width="155" height="32" viewBox="0 0 155 32" fill="none" xmlns="http://www.w3.org/2000/svg">
<path d="M130.135 19.9219C129.933 19.9448 129.734 19.9837 129.539 20.0381C129.276 20.1026 129.006 20.1329 128.735 20.1281C128.385 20.1613 128.032 20.116 127.702 19.9956C127.372 19.8751 127.074 19.6826 126.829 19.4322C126.398 18.833 126.192 18.1031 126.245 17.3687V11.4891H129.279C130.005 11.4891 130.368 11.1537 130.368 10.4829C130.368 9.81207 130.005 9.47687 129.279 9.47728H127.899C127.681 9.47851 127.465 9.43652 127.263 9.35376C127.062 9.271 126.879 9.14913 126.725 8.99526C126.571 8.8414 126.45 8.65862 126.368 8.45759C126.286 8.25656 126.245 8.04132 126.248 7.82441V6.82126C126.248 6.47583 126.11 6.14454 125.864 5.90028C125.618 5.65602 125.285 5.5188 124.938 5.5188C124.591 5.5188 124.257 5.65602 124.012 5.90028C123.766 6.14454 123.628 6.47583 123.628 6.82126V17.5749C123.538 18.8505 123.956 20.1101 124.791 21.0826C125.569 21.8905 126.753 22.2944 128.343 22.2944C128.66 22.2913 128.977 22.2655 129.29 22.2172C129.578 22.1821 129.861 22.1129 130.133 22.0109C130.244 21.9836 130.348 21.9309 130.436 21.857C130.523 21.7832 130.593 21.6901 130.638 21.5851C130.737 21.3528 130.786 21.1025 130.781 20.8502C130.809 20.5914 130.744 20.3311 130.598 20.1154C130.538 20.0519 130.466 20.0018 130.385 19.9684C130.305 19.9351 130.218 19.9192 130.131 19.9219" fill="white"/>
<path d="M52.7343 22.3839C51.543 22.415 50.3649 22.1301 49.3209 21.5584C48.3664 21.0116 47.5925 20.2003 47.0937 19.2236C46.5438 18.1212 46.2724 16.9022 46.3027 15.6721C46.2547 14.7973 46.384 13.9219 46.6829 13.0978C46.9817 12.2736 47.4441 11.5177 48.0425 10.8747C48.6616 10.2776 49.3976 9.81358 50.2048 9.51144C51.0119 9.2093 51.873 9.07552 52.7343 9.11842C53.3895 9.12415 54.041 9.21662 54.6717 9.39339C55.3501 9.57812 55.9888 9.8847 56.5564 10.298C56.6827 10.3665 56.7922 10.4621 56.8768 10.5778C56.9614 10.6935 57.0191 10.8265 57.0457 10.9672C57.0914 11.2281 57.045 11.4968 56.9142 11.7276C56.7949 11.9528 56.5912 12.1222 56.3471 12.1991C56.2043 12.235 56.0555 12.2407 55.9103 12.2158C55.7651 12.191 55.6268 12.1362 55.5042 12.0549C55.1114 11.7725 54.6751 11.5555 54.2123 11.4125C53.8024 11.2861 53.3763 11.2199 52.9472 11.216C52.409 11.1837 51.8703 11.2717 51.3707 11.4736C50.8712 11.6755 50.4235 11.9862 50.0605 12.3828C49.3287 13.329 48.968 14.5076 49.0457 15.6989C48.9744 16.9055 49.3338 18.0984 50.0605 19.0672C50.4152 19.4771 50.8602 19.8001 51.3609 20.0111C51.8615 20.2221 52.4044 20.3155 52.9472 20.2839C53.8631 20.2799 54.7557 19.9962 55.5042 19.4712C55.6244 19.39 55.761 19.3361 55.9045 19.3134C56.048 19.2907 56.1947 19.2997 56.3343 19.3398C56.4504 19.3819 56.5568 19.4466 56.6473 19.5302C56.7379 19.6138 56.8107 19.7145 56.8616 19.8265C56.9757 20.0626 57.0125 20.3283 56.9668 20.5863C56.9404 20.727 56.8827 20.86 56.7981 20.9758C56.7134 21.0916 56.6039 21.1871 56.4774 21.2554C55.925 21.6527 55.3041 21.9459 54.6453 22.1205C54.0225 22.2903 53.3801 22.3784 52.7343 22.3827" fill="white"/>
<path d="M63.7797 22.3839C62.6026 22.4142 61.4384 22.134 60.4054 21.5718C59.4624 21.0366 58.697 20.2393 58.2033 19.2777C57.66 18.1818 57.3932 16.9708 57.4258 15.7493C57.3933 14.5279 57.6601 13.3169 58.2033 12.2209C58.6973 11.2596 59.4626 10.4626 60.4054 9.92749C61.4383 9.36502 62.6025 9.0846 63.7797 9.11475C64.9395 9.08873 66.0855 9.36918 67.1007 9.92749C68.045 10.4646 68.8138 11.2608 69.3151 12.2209C69.8672 13.3143 70.1389 14.5263 70.1061 15.7493C70.1389 16.9723 69.8672 18.1844 69.3151 19.2777C68.814 20.2381 68.0452 21.0346 67.1007 21.5718C66.0854 22.1299 64.9394 22.4101 63.7797 22.3839ZM63.7797 20.3393C64.2804 20.3558 64.7784 20.2581 65.2353 20.0537C65.6922 19.8492 66.0959 19.5434 66.4156 19.1597C67.1449 18.1781 67.5 16.9707 67.4176 15.753C67.5018 14.5388 67.1464 13.3347 66.4156 12.3584C66.0802 11.9912 65.6712 11.6977 65.215 11.4969C64.7588 11.296 64.2654 11.1923 63.7665 11.1923C63.2676 11.1923 62.7742 11.296 62.318 11.4969C61.8618 11.6977 61.4529 11.9912 61.1175 12.3584C60.3864 13.3345 60.0309 14.5387 60.1155 15.753C60.0327 16.9708 60.3878 18.1782 61.1175 19.1597C61.4412 19.5454 61.8495 19.8522 62.311 20.0567C62.7724 20.2611 63.2748 20.3578 63.7797 20.3393Z" fill="white"/>
<path d="M72.7775 22.3317C72.5963 22.3556 72.412 22.3373 72.2391 22.2781C72.0663 22.2188 71.9097 22.1204 71.7818 21.9905C71.654 21.8606 71.5583 21.7028 71.5024 21.5297C71.4465 21.3566 71.4319 21.173 71.4599 20.9933V10.5091C71.4599 9.61691 71.8903 9.1708 72.7512 9.1708C73.6121 9.1708 74.0425 9.61691 74.0425 10.5091V11.4788C74.4599 10.7312 75.0875 10.1209 75.8483 9.72256C76.6417 9.31405 77.5243 9.10695 78.4175 9.1197C81.457 9.1197 82.9769 10.8324 82.9773 14.2578V20.9945C83.0051 21.1742 82.9904 21.3578 82.9345 21.5308C82.8786 21.7038 82.7829 21.8615 82.655 21.9914C82.5272 22.1213 82.3706 22.2197 82.1979 22.279C82.0251 22.3383 81.8408 22.3567 81.6596 22.3329C81.4768 22.3591 81.2903 22.3425 81.1151 22.2845C80.9398 22.2265 80.7805 22.1286 80.6499 21.9987C80.5192 21.8688 80.4209 21.7104 80.3625 21.5361C80.3042 21.3618 80.2876 21.1764 80.3139 20.9945V14.4147C80.3856 13.5608 80.1573 12.7085 79.6679 12.0032C79.4101 11.7343 79.0949 11.5264 78.7455 11.3948C78.3961 11.2631 78.0215 11.2112 77.6492 11.2428C77.1736 11.2215 76.6988 11.3004 76.256 11.4744C75.8132 11.6485 75.4124 11.9137 75.08 12.2527C74.4191 12.9785 74.0734 13.9347 74.1184 14.9129V20.9964C74.1447 21.1782 74.128 21.3636 74.0697 21.5379C74.0114 21.7123 73.913 21.8707 73.7824 22.0006C73.6518 22.1305 73.4925 22.2283 73.3172 22.2863C73.1419 22.3443 72.9554 22.3609 72.7726 22.3347" fill="white"/>
<path d="M86.1098 22.3317C85.9286 22.3556 85.7442 22.3373 85.5714 22.2781C85.3986 22.2188 85.242 22.1204 85.1141 21.9905C84.9862 21.8606 84.8905 21.7028 84.8346 21.5297C84.7788 21.3566 84.7642 21.173 84.7921 20.9933V10.5091C84.7921 9.61691 85.2226 9.1708 86.0835 9.1708C86.9444 9.1708 87.3748 9.61691 87.3748 10.5091V11.4788C87.7922 10.7312 88.4197 10.1209 89.1806 9.72256C89.9739 9.31405 90.8565 9.10695 91.7498 9.1197C94.7892 9.1197 96.3092 10.8324 96.3096 14.2578V20.9945C96.3374 21.1742 96.3227 21.3578 96.2668 21.5308C96.2108 21.7038 96.1151 21.8615 95.9873 21.9914C95.8594 22.1213 95.7029 22.2197 95.5302 22.279C95.3574 22.3383 95.1731 22.3567 94.9919 22.3329C94.8091 22.3591 94.6226 22.3425 94.4473 22.2845C94.272 22.2265 94.1128 22.1286 93.9821 21.9987C93.8515 21.8688 93.7531 21.7104 93.6948 21.5361C93.6365 21.3618 93.6198 21.1764 93.6461 20.9945V14.4147C93.7178 13.5608 93.4895 12.7085 93.0002 12.0032C92.7424 11.7343 92.4272 11.5264 92.0778 11.3948C91.7284 11.2631 91.3538 11.2112 90.9815 11.2428C90.5059 11.2215 90.0311 11.3004 89.5883 11.4744C89.1455 11.6485 88.7447 11.9137 88.4123 12.2527C87.7514 12.9785 87.4057 13.9347 87.4507 14.9129V20.9964C87.477 21.1782 87.4603 21.3636 87.402 21.5379C87.3437 21.7123 87.2453 21.8707 87.1147 22.0006C86.984 22.1305 86.8248 22.2283 86.6495 22.2863C86.4742 22.3443 86.2877 22.3609 86.1049 22.3347" fill="white"/>
<path d="M104.564 22.3869C103.657 22.4369 102.749 22.3061 101.893 22.0022C101.038 21.6983 100.252 21.2275 99.5818 20.6173C98.9601 19.9791 98.4776 19.2202 98.1645 18.388C97.8515 17.5557 97.7146 16.6682 97.7625 15.7809C97.7379 14.5747 98.0145 13.3812 98.5675 12.3073C99.074 11.3333 99.8455 10.5204 100.794 9.96155C101.786 9.39075 102.917 9.10065 104.063 9.12265C104.843 9.08302 105.622 9.21384 106.346 9.5059C107.071 9.79797 107.721 10.2442 108.253 10.8132C109.334 12.1173 109.881 13.7792 109.783 15.4664C109.783 16.0606 109.431 16.3577 108.728 16.3577H100.348C100.541 19.0145 101.955 20.3425 104.591 20.3417C105.151 20.3381 105.708 20.2722 106.253 20.1452C106.853 20.0054 107.424 19.7614 107.938 19.4243C108.22 19.2336 108.563 19.1542 108.901 19.2017C109.027 19.2261 109.146 19.279 109.249 19.3563C109.352 19.4336 109.436 19.5332 109.494 19.6476C109.618 19.8911 109.641 20.173 109.56 20.4335C109.457 20.752 109.235 21.0193 108.94 21.1806C108.3 21.6018 107.591 21.908 106.845 22.0852C106.1 22.2798 105.334 22.382 104.565 22.3894L104.564 22.3869ZM104.17 10.986C103.683 10.9622 103.196 11.0409 102.742 11.2172C102.288 11.3934 101.876 11.6631 101.534 12.0086C100.85 12.764 100.433 13.7215 100.348 14.7346H107.54C107.554 13.7317 107.219 12.7549 106.592 11.9691C106.286 11.6371 105.91 11.3767 105.49 11.2067C105.071 11.0367 104.619 10.9613 104.167 10.986" fill="white"/>
<path d="M117.653 22.3839C116.461 22.4151 115.283 22.1302 114.239 21.5584C113.285 21.012 112.511 20.2011 112.011 19.2248C111.462 18.1223 111.191 16.9034 111.221 15.6733C111.173 14.7985 111.302 13.9231 111.601 13.099C111.9 12.2749 112.362 11.5189 112.961 10.8759C113.58 10.2789 114.316 9.81484 115.123 9.5127C115.93 9.21056 116.791 9.07677 117.653 9.11963C118.308 9.12536 118.959 9.21782 119.59 9.3946C120.268 9.57933 120.907 9.88591 121.475 10.2992C121.601 10.3677 121.71 10.4633 121.795 10.579C121.88 10.6947 121.937 10.8277 121.964 10.9684C122.01 11.2294 121.963 11.498 121.832 11.7288C121.713 11.9539 121.509 12.1233 121.265 12.2003C121.122 12.2361 120.974 12.2418 120.828 12.217C120.683 12.1922 120.545 12.1374 120.422 12.0561C120.029 11.7736 119.593 11.5566 119.13 11.4137C118.721 11.2873 118.294 11.2211 117.865 11.2172C117.327 11.1849 116.788 11.2729 116.289 11.4748C115.789 11.6767 115.342 11.9874 114.979 12.384C114.247 13.3302 113.886 14.5088 113.964 15.7001C113.893 16.9067 114.252 18.0996 114.979 19.0685C115.333 19.4783 115.778 19.8013 116.279 20.0123C116.78 20.2233 117.323 20.3167 117.865 20.2851C118.781 20.281 119.673 19.9973 120.422 19.4724C120.542 19.3912 120.679 19.3373 120.822 19.3146C120.966 19.2919 121.113 19.3009 121.253 19.341C121.369 19.3831 121.475 19.4478 121.566 19.5314C121.656 19.615 121.729 19.7157 121.78 19.8277C121.894 20.0639 121.93 20.3295 121.885 20.5875C121.859 20.7282 121.801 20.8612 121.716 20.977C121.632 21.0928 121.522 21.1883 121.396 21.2567C120.843 21.6539 120.222 21.9471 119.564 22.1217C118.941 22.2915 118.298 22.3797 117.653 22.3839Z" fill="white"/>
<path d="M16.3729 14.739C16.0332 14.739 15.7013 14.8392 15.4189 15.0268C15.1365 15.2144 14.9164 15.4811 14.7865 15.7932C14.6565 16.1052 14.6225 16.4485 14.6888 16.7798C14.755 17.111 14.9185 17.4153 15.1587 17.6541C15.3988 17.8929 15.7048 18.0555 16.0379 18.1214C16.371 18.1873 16.7162 18.1535 17.03 18.0243C17.3437 17.895 17.6119 17.6761 17.8006 17.3953C17.9892 17.1145 18.09 16.7844 18.09 16.4466C18.09 15.9937 17.909 15.5594 17.587 15.2392C17.265 14.9189 16.8283 14.739 16.3729 14.739Z" fill="#4F96FF"/>
<path d="M23.0281 14.739C22.6885 14.739 22.3565 14.8392 22.0742 15.0268C21.7918 15.2144 21.5717 15.4811 21.4417 15.7932C21.3118 16.1052 21.2778 16.4485 21.344 16.7798C21.4103 17.111 21.5738 17.4153 21.814 17.6541C22.0541 17.8929 22.3601 18.0555 22.6931 18.1214C23.0262 18.1873 23.3715 18.1535 23.6852 18.0243C23.999 17.895 24.2672 17.6761 24.4558 17.3953C24.6445 17.1145 24.7452 16.7844 24.7452 16.4466C24.7452 15.9937 24.5643 15.5594 24.2423 15.2392C23.9203 14.9189 23.4835 14.739 23.0281 14.739Z" fill="#4F96FF"/>
<path d="M28.2783 12.1602C27.3583 10.8039 26.1119 9.69798 24.6525 8.94298C23.1931 8.18798 21.567 7.80788 19.9222 7.83728C18.2849 7.8085 16.666 8.18513 15.2114 8.93327C13.7568 9.68141 12.5121 10.7776 11.5894 12.123C10.6583 12.418 9.84145 12.9915 9.25026 13.7653C8.65907 14.5391 8.32238 15.4754 8.28613 16.4465C8.32247 17.4176 8.65919 18.3539 9.25037 19.1277C9.84154 19.9015 10.6584 20.475 11.5894 20.77C12.5122 22.1154 13.7569 23.2115 15.2115 23.9596C16.6661 24.7078 18.2849 25.0845 19.9222 25.0558C21.567 25.0851 23.1931 24.7049 24.6525 23.9499C26.1118 23.1949 27.3583 22.0891 28.2783 20.7329C29.1855 20.4247 29.9773 19.8499 30.549 19.0845C31.1207 18.3192 31.4454 17.3993 31.4801 16.4465C31.4454 15.4937 31.1208 14.5738 30.5491 13.8084C29.9774 13.0431 29.1856 12.4683 28.2783 12.1602ZM26.3459 19.9871C24.2486 20.6 22.0774 20.9274 19.8917 20.9604C17.7059 20.9274 15.5347 20.6 13.4374 19.9871C12.6437 19.7783 11.9385 19.3216 11.4255 18.6842C10.9125 18.0468 10.6189 17.2624 10.588 16.4465C10.6189 15.6307 10.9125 14.8463 11.4255 14.2089C11.9385 13.5714 12.6437 13.1147 13.4374 12.906C15.5347 12.2931 17.7059 11.9657 19.8917 11.9326C22.0774 11.9657 24.2486 12.2931 26.3459 12.906C27.1396 13.1147 27.8449 13.5714 28.3578 14.2089C28.8708 14.8463 29.1644 15.6307 29.1953 16.4465C29.1644 17.2624 28.8708 18.0468 28.3578 18.6842C27.8449 19.3216 27.1396 19.7783 26.3459 19.9871Z" fill="#4F96FF"/>
<path d="M35.8712 5.38405e-08H3.45743C3.00338 -7.98599e-05 2.55375 0.0888011 2.13424 0.261566C1.71473 0.434331 1.33355 0.687595 1.01248 1.00689C0.691411 1.32619 0.436742 1.70526 0.263018 2.12245C0.089294 2.53965 -8.03032e-05 2.9868 5.41394e-08 3.43835V28.5629C0.000486641 29.4744 0.364985 30.3484 1.01335 30.9928C1.6617 31.6371 2.54084 31.9989 3.45743 31.9988H35.8712C36.3253 31.9989 36.7749 31.91 37.1945 31.7372C37.614 31.5645 37.9952 31.3112 38.3164 30.9919C38.6375 30.6726 38.8922 30.2936 39.066 29.8764C39.2398 29.4592 39.3292 29.012 39.3292 28.5604V3.43835C39.3292 2.98677 39.2398 2.53961 39.066 2.12241C38.8922 1.70521 38.6375 1.32614 38.3164 1.00685C37.9952 0.687566 37.614 0.434312 37.1945 0.261554C36.7749 0.0887967 36.3253 -7.98438e-05 35.8712 5.38405e-08ZM36.2749 27.7404C36.2749 28.0197 36.1634 28.2875 35.9648 28.485C35.7662 28.6825 35.4969 28.7934 35.216 28.7934H4.11075C3.82992 28.7934 3.56058 28.6825 3.36201 28.485C3.16343 28.2875 3.05186 28.0197 3.05186 27.7404V4.25839C3.05219 3.97932 3.16389 3.71179 3.36244 3.51457C3.56098 3.31735 3.83013 3.20657 4.11075 3.20657H35.2185C35.4987 3.20721 35.7672 3.31828 35.9652 3.51543C36.1632 3.71258 36.2746 3.97974 36.2749 4.25839V27.7404Z" fill="#4F96FF"/>
<path d="M133.081 7.38858H133.491V5.71659H134.128V5.33325H132.444V5.71659H133.081V7.38858Z" fill="white"/>
<path d="M136.079 5.33325L135.545 6.71992L135.012 5.33325H134.412V7.38858H134.822V5.84859L135.332 7.19192H135.763L136.273 5.83792V7.38858H136.683V5.33325H136.079Z" fill="white"/>
</svg>
