<?xml version="1.0" encoding="UTF-8"?><svg id="a" xmlns="http://www.w3.org/2000/svg" viewBox="0 0 540.42 442.15"><defs><style>.b{fill:#fff;}</style></defs><g><path class="b" d="M232.09,202.45c-16.49-3.13-30.68,11.06-27.55,27.55,1.75,9.21,9.18,16.64,18.39,18.39,16.49,3.13,30.68-11.06,27.55-27.55-1.75-9.21-9.18-16.64-18.39-18.39Z"/><path class="b" d="M322.81,202.45c-16.49-3.13-30.68,11.06-27.55,27.55,1.75,9.21,9.18,16.64,18.39,18.39,16.49,3.13,30.68-11.06,27.55-27.55-1.75-9.21-9.18-16.64-18.39-18.39Z"/><path class="b" d="M389.79,166.67c-22.68-35.4-65.17-59.25-113.9-59.25s-90.82,23.62-113.58,58.74c-46.1,17.27-45,59.26-45,59.26,0,0-1.1,41.99,45,59.26,22.76,35.12,65.08,58.74,113.58,58.74s91.22-23.85,113.9-59.25c44.74-17.57,43.64-58.75,43.64-58.75,0,0,1.1-41.18-43.64-58.75Zm-26.34,107.28c-39.79,13.17-87.97,13.33-87.97,13.33,0,0-48.18-.15-87.97-13.33-39.79-13.17-38.84-48.53-38.84-48.53,0,0-.95-35.36,38.84-48.53,39.79-13.17,87.97-13.33,87.97-13.33,0,0,48.18,.15,87.97,13.33,39.79,13.17,38.84,48.53,38.84,48.53,0,0,.95,35.36-38.84,48.53Z"/></g><path class="b" d="M493.29,0H51.47C25.44,0,4.34,21.1,4.34,47.13V391.47c0,26.03,21.1,47.13,47.13,47.13H493.29c26.03,0,47.13-21.1,47.13-47.13V47.13c0-26.03-21.1-47.13-47.13-47.13Zm5.53,380.21c0,7.97-6.46,14.44-14.44,14.44H60.37c-7.97,0-14.44-6.46-14.44-14.44V58.39c0-7.97,6.46-14.44,14.44-14.44H484.39c7.97,0,14.44,6.46,14.44,14.44V380.21Z"/></svg>