<?xml version="1.0" encoding="UTF-8"?><svg id="a" xmlns="http://www.w3.org/2000/svg" viewBox="0 0 540.42 442.15"><defs><style>.b{fill:#4373b9;}</style></defs><g><circle class="b" cx="224.97" cy="227.24" r="23.6"/><circle class="b" cx="316.43" cy="227.24" r="23.6"/><path class="b" d="M388.58,168.02c-22.86-35.68-65.7-59.73-114.82-59.73s-91.56,23.82-114.5,59.22c-46.47,17.41-45.36,59.74-45.36,59.74,0,0-1.11,42.33,45.36,59.74,22.94,35.4,65.61,59.22,114.5,59.22s91.96-24.04,114.82-59.73c45.1-17.72,43.99-59.23,43.99-59.23,0,0,1.11-41.51-43.99-59.23Zm-26.55,108.15c-40.11,13.28-88.69,13.43-88.69,13.43,0,0-48.57-.15-88.69-13.43-40.11-13.28-39.16-48.92-39.16-48.92,0,0-.96-35.64,39.16-48.92,40.11-13.28,88.69-13.43,88.69-13.43,0,0,48.57,.15,88.69,13.43,40.11,13.28,39.16,48.92,39.16,48.92,0,0,.96,35.64-39.16,48.92Z"/></g><path class="b" d="M492.91,0H47.51C21.27,0,0,21.27,0,47.51V394.63c0,26.24,21.27,47.51,47.51,47.51H492.91c26.24,0,47.51-21.27,47.51-47.51V47.51c0-26.24-21.27-47.51-47.51-47.51Zm5.58,383.29c0,8.04-6.52,14.55-14.55,14.55H56.49c-8.04,0-14.55-6.52-14.55-14.55V58.86c0-8.04,6.52-14.55,14.55-14.55H483.93c8.04,0,14.55,6.52,14.55,14.55V383.29Z"/></svg>