<?xml version="1.0" encoding="UTF-8"?><svg id="a" xmlns="http://www.w3.org/2000/svg" viewBox="0 0 999.1 299.63"><defs><style>.b{fill:#fff;}.c{fill:#d51e3e;}</style></defs><polygon class="c" points="127.53 -1.92 -3.9 73.98 -3.9 225.74 127.53 301.59 127.53 301.59 258.96 225.74 258.96 73.98 127.53 -1.92"/><polygon class="b" points="127.53 149.83 178.78 120.24 127.53 90.65 76.27 120.24 76.27 179.42 127.53 209.01 127.53 149.83"/><path d="M345.36,34.97h87.48c15.43-.41,30.83,1.67,45.59,6.18,10.75,3.35,20.59,9.13,28.77,16.88,6.95,6.84,12.08,15.32,14.92,24.65,2.88,9.77,4.3,19.92,4.22,30.1,.07,10.46-1.42,20.86-4.43,30.88-2.96,9.64-8.27,18.39-15.44,25.47-8.08,7.86-17.87,13.75-28.61,17.19-14.35,4.5-29.33,6.62-44.36,6.28h-27.33v75.85h-60.83V34.97Zm60.83,107.55h26.81c13.07,0,22.18-2.42,27.33-7.36,5.51-5.98,8.29-13.97,7.67-22.08,.69-8-2.19-15.89-7.87-21.56-5.21-4.6-14.36-6.9-27.43-6.9h-26.5v57.89Z"/><path d="M601.12,96.78v171.67h-59.23V96.78h59.23Z"/><path d="M735.58,177.88l58.51,90.57h-64.74l-28.77-47.09-29.44,47.09h-62.68l60.16-87.48-54.08-84.19h65.41l24.24,41.17,25.73-41.17h59.85l-54.19,81.1Z"/><path d="M802.02,89.62v178.82h59.18V34.97c-55.22,0-58.97,44.92-59.18,54.65Z"/><path d="M882.14,89.62v178.82h59.18V34.97c-54.96,0-58.97,44.92-59.18,54.65Z"/><circle cx="571.48" cy="48.71" r="33.96"/></svg>