<?xml version="1.0" encoding="UTF-8"?><svg id="a" xmlns="http://www.w3.org/2000/svg" viewBox="0 0 1352.45 282.11"><defs><style>.b{fill:#fff;}.c{fill:#d51e3e;}</style></defs><polygon class="c" points="122.16 0 0 70.55 0 211.61 122.16 282.11 122.16 282.11 244.32 211.61 244.32 70.55 122.16 0"/><polygon class="b" points="122.16 141.05 169.8 113.55 122.16 86.05 74.52 113.55 74.52 168.56 122.16 196.06 122.16 141.05"/><path class="b" d="M324.63,34.3h81.31c14.34-.38,28.65,1.56,42.38,5.74,10,3.12,19.14,8.48,26.74,15.69,6.46,6.36,11.23,14.24,13.87,22.91,2.67,9.08,3.99,18.51,3.92,27.98,.07,9.72-1.32,19.39-4.11,28.7-2.75,8.96-7.68,17.09-14.35,23.68-7.51,7.31-16.61,12.78-26.59,15.98-13.33,4.18-27.26,6.15-41.23,5.84h-25.4v70.5h-56.54V34.3Zm56.54,99.97h24.92c12.15,0,20.62-2.25,25.4-6.84,5.12-5.55,7.7-12.99,7.13-20.52,.64-7.43-2.04-14.77-7.32-20.04-4.85-4.27-13.34-6.41-25.49-6.41h-24.63v53.81Z"/><path class="b" d="M562.35,91.74V251.31h-55.05V91.74h55.05Z"/><path class="b" d="M687.34,167.12l54.38,84.18h-60.17l-26.74-43.77-27.36,43.77h-58.26l55.91-81.31-50.27-78.25h60.79l22.53,38.27,23.92-38.27h55.63l-50.37,75.38Z"/><path class="b" d="M749.09,85.09V251.31h55.01V34.3c-51.32,0-54.81,41.76-55.01,50.8Z"/><path class="b" d="M823.56,85.09V251.31h55.01V34.3c-51.08,0-54.81,41.76-55.01,50.8Z"/><circle class="b" cx="534.8" cy="47.07" r="31.57"/><circle class="c" cx="922.62" cy="221.44" r="31.57"/><g><path class="b" d="M973.43,251.04V34.25h72.26c48.17,0,72.26,20.75,72.26,62.24,0,21.25-6.13,37.3-18.37,48.12-12.25,10.83-30.52,16.25-54.81,16.25h-59.51v90.17h-11.84Zm71.35-101.11c21.05,0,36.43-4.29,46.15-12.9,9.72-8.6,14.57-22.01,14.57-40.23s-4.8-31.43-14.41-39.62c-9.62-8.2-25.16-12.29-46.61-12.29h-59.21v105.05h59.51Z"/><path class="b" d="M1133.36,251.04V95.28h11.54v27.02c13.15-19.63,30.26-29.45,51.31-29.45,3.44,0,7.29,.3,11.54,.91l-1.52,11.23c-3.84-.61-7.29-.91-10.32-.91-8.09,0-15.44,1.52-22.01,4.55-6.58,3.04-12.71,7.8-18.37,14.27-3.85,4.25-6.58,8.8-8.2,13.66-1.62,4.86-2.43,11.13-2.43,18.82v95.64h-11.54Z"/><path class="b" d="M1280.18,255.9c-22.27,0-39.77-7.33-52.53-22.01-12.75-14.67-19.13-34.86-19.13-60.57,0-16.6,2.89-31.12,8.66-43.57s14.06-22.11,24.9-28.99c10.82-6.88,23.73-10.32,38.71-10.32,22.27,0,39.77,7.34,52.53,22.01,12.75,14.68,19.13,34.97,19.13,60.88,0,16.4-2.88,30.81-8.65,43.26s-14.07,22.12-24.9,29c-10.83,6.88-23.73,10.32-38.71,10.32Zm.3-10.32c19.03,0,33.75-6.32,44.18-18.98,10.42-12.64,15.63-30.41,15.63-53.28s-5.21-41.19-15.63-53.74c-10.43-12.55-25.15-18.82-44.18-18.82s-33.75,6.28-44.17,18.82c-10.43,12.55-15.64,30.46-15.64,53.74s5.21,40.64,15.64,53.28c10.42,12.65,25.15,18.98,44.17,18.98Z"/></g></svg>