<?xml version="1.0" encoding="UTF-8"?><svg id="a" xmlns="http://www.w3.org/2000/svg" viewBox="0 0 1399.08 282.11"><defs><style>.b{fill:#fff;}.c{fill:#d51e3e;}.d{fill:#231f20;}</style></defs><polygon class="c" points="122.16 0 0 70.55 0 211.61 122.16 282.11 122.16 282.11 244.32 211.61 244.32 70.55 122.16 0"/><polygon class="b" points="122.16 141.05 169.8 113.55 122.16 86.05 74.52 113.55 74.52 168.56 122.16 196.06 122.16 141.05"/><path d="M324.63,34.3h81.31c14.34-.38,28.65,1.56,42.38,5.74,10,3.12,19.14,8.48,26.74,15.69,6.46,6.36,11.23,14.24,13.87,22.91,2.67,9.08,3.99,18.51,3.92,27.98,.07,9.72-1.32,19.39-4.11,28.7-2.75,8.96-7.68,17.09-14.35,23.68-7.51,7.31-16.61,12.78-26.59,15.98-13.33,4.18-27.26,6.15-41.23,5.84h-25.4v70.5h-56.54V34.3Zm56.54,99.97h24.92c12.15,0,20.62-2.25,25.4-6.84,5.12-5.55,7.7-12.99,7.13-20.52,.64-7.43-2.04-14.77-7.32-20.04-4.85-4.27-13.34-6.41-25.49-6.41h-24.63v53.81Z"/><path d="M562.35,91.74V251.31h-55.05V91.74h55.05Z"/><path d="M687.34,167.12l54.38,84.18h-60.17l-26.74-43.77-27.36,43.77h-58.26l55.91-81.31-50.27-78.25h60.79l22.53,38.27,23.92-38.27h55.63l-50.37,75.38Z"/><path d="M749.09,85.09V251.31h55.01V34.3c-51.32,0-54.81,41.76-55.01,50.8Z"/><path d="M823.56,85.09V251.31h55.01V34.3c-51.08,0-54.81,41.76-55.01,50.8Z"/><circle cx="534.8" cy="47.07" r="31.57"/><circle class="c" cx="922.62" cy="221.44" r="31.57"/><g><path class="d" d="M1117.94,251.04l-54.66-200.39-54.65,200.39h-13.36l-59.81-216.79h13.06l53.44,201,55.56-200.09h13.05l54.66,200.39,53.74-201.3h12.45l-59.51,216.79h-13.97Z"/><path class="d" d="M1219.95,251.04V95.28h11.54V251.04h-11.54Z"/><path class="d" d="M1387.54,251.04v-101.11c0-16.59-3.39-28.89-10.17-36.89-6.79-7.99-17.36-12-31.73-12-16.6,0-31.17,5.67-43.72,17-5.87,5.27-9.87,10.63-11.99,16.09s-3.19,12.96-3.19,22.47v94.42h-11.54V95.28h11.54v26.72c15.58-21.05,35.83-31.58,60.72-31.58,16.8,0,29.61,4.81,38.41,14.42,8.8,9.62,13.21,23.73,13.21,42.36v103.84h-11.54Z"/></g><circle class="d" cx="1225.72" cy="59.82" r="11.79"/></svg>