<?xml version="1.0" encoding="UTF-8"?><svg id="a" xmlns="http://www.w3.org/2000/svg" viewBox="0 0 1667.81 282.11"><defs><style>.b{fill:#fff;}.c{fill:#d51e3e;}</style></defs><polygon class="c" points="122.16 0 0 70.55 0 211.61 122.16 282.11 122.16 282.11 244.32 211.61 244.32 70.55 122.16 0"/><polygon class="b" points="122.16 141.05 169.8 113.55 122.16 86.05 74.52 113.55 74.52 168.56 122.16 196.06 122.16 141.05"/><path class="b" d="M324.63,34.3h81.31c14.34-.38,28.65,1.56,42.38,5.74,10,3.12,19.14,8.48,26.74,15.69,6.46,6.36,11.23,14.24,13.87,22.91,2.67,9.08,3.99,18.51,3.92,27.98,.07,9.72-1.32,19.39-4.11,28.7-2.75,8.96-7.68,17.09-14.35,23.68-7.51,7.31-16.61,12.78-26.59,15.98-13.33,4.18-27.26,6.15-41.23,5.84h-25.4v70.5h-56.54V34.3Zm56.54,99.97h24.92c12.15,0,20.62-2.25,25.4-6.84,5.12-5.55,7.7-12.99,7.13-20.52,.64-7.43-2.04-14.77-7.32-20.04-4.85-4.27-13.34-6.41-25.49-6.41h-24.63v53.81Z"/><path class="b" d="M562.35,91.74V251.31h-55.05V91.74h55.05Z"/><path class="b" d="M687.34,167.12l54.38,84.18h-60.17l-26.74-43.77-27.36,43.77h-58.26l55.91-81.31-50.27-78.25h60.79l22.53,38.27,23.92-38.27h55.63l-50.37,75.38Z"/><path class="b" d="M749.09,85.09V251.31h55.01V34.3c-51.32,0-54.81,41.76-55.01,50.8Z"/><path class="b" d="M823.56,85.09V251.31h55.01V34.3c-51.08,0-54.81,41.76-55.01,50.8Z"/><circle class="b" cx="534.8" cy="47.07" r="31.57"/><circle class="c" cx="922.62" cy="221.44" r="31.57"/><g><path class="b" d="M1161.07,251.04V54.29l-82.58,196.75h-11.24l-82.58-196.14V251.04h-11.23V34.25h14.57l85.31,202.82,85.02-202.82h13.97V251.04h-11.24Z"/><path class="b" d="M1320.64,212.18c-2.84,13.77-9.61,24.49-20.34,32.18-10.73,7.69-24.19,11.54-40.38,11.54-22.47,0-39.83-7.08-52.07-21.25-12.25-14.17-18.37-34.31-18.37-60.42s6.17-46.86,18.52-61.64c12.35-14.77,29.55-22.16,51.61-22.16,20.45,0,36.28,6.73,47.52,20.19,11.23,13.46,16.85,32.64,16.85,57.54v7.89h-122.96c0,22.27,5.16,39.42,15.48,51.46,10.32,12.05,25.1,18.07,44.33,18.07,13.16,0,23.88-2.83,32.18-8.5,8.3-5.67,13.86-13.97,16.7-24.9h10.93Zm-8.2-46.15c0-21.45-4.45-37.7-13.36-48.73-8.91-11.03-22.16-16.55-39.77-16.55s-31.42,5.57-41.44,16.7c-10.02,11.14-15.64,27.33-16.85,48.58h111.43Z"/><path class="b" d="M1463.96,251.04v-30.36c-12.95,23.48-32.29,35.22-57.99,35.22-20.85,0-37.25-7.33-49.19-22.01-11.94-14.67-17.91-34.86-17.91-60.57s6.17-45.95,18.52-60.73c12.35-14.77,29.25-22.16,50.7-22.16,12.95,0,24.24,2.84,33.86,8.5,9.61,5.67,16.95,13.87,22.01,24.59V34.25h11.54V251.04h-11.54Zm.61-85.01c0-12.55-1.57-23.02-4.7-31.43-3.14-8.4-8.05-15.53-14.73-21.41-9.92-8.3-22.06-12.45-36.43-12.45-18.42,0-32.64,6.28-42.66,18.82-10.02,12.56-15.03,30.47-15.03,53.74s4.86,40.64,14.57,53.28c9.72,12.65,23.48,18.98,41.29,18.98,14.57,0,26.92-4.25,37.04-12.75,6.68-5.87,11.79-13.21,15.34-22.01,3.54-8.8,5.31-18.57,5.31-29.3v-15.48Z"/><path class="b" d="M1512.17,251.04V95.28h11.54V251.04h-11.54Z"/><path class="b" d="M1656.57,251.04v-26.11c-6.27,9.72-14.42,17.11-24.44,22.16s-21.41,7.59-34.16,7.59c-16.8,0-29.9-4.15-39.32-12.45-9.41-8.3-14.12-19.94-14.12-34.92,0-16.8,6.17-29.3,18.52-37.5,12.35-8.2,32.08-12.8,59.21-13.81l34.01-1.21v-6.38c0-17.41-3.44-29.7-10.32-36.89-6.88-7.18-18.72-10.78-35.52-10.78-14.17,0-25.1,2.33-32.79,6.98-7.69,4.66-12.75,12.05-15.18,22.16l-10.32-1.82c5.26-25.09,24.99-37.65,59.21-37.65,19.63,0,33.95,4.51,42.96,13.51,9.01,9.01,13.51,23.53,13.51,43.57v103.54h-11.23Zm-.3-86.83l-32.79,1.21c-24.29,1.01-41.55,4.76-51.76,11.23-10.22,6.48-15.34,16.7-15.34,30.67,0,12.14,3.64,21.36,10.93,27.63,7.29,6.28,17.81,9.41,31.58,9.41,17.81,0,31.98-4.96,42.51-14.88,5.67-5.26,9.57-10.27,11.69-15.03,2.13-4.75,3.19-11.18,3.19-19.28v-30.97Z"/></g><circle class="b" cx="1517.88" cy="64.97" r="11.79"/></svg>