<?xml version="1.0" encoding="UTF-8"?><svg id="a" xmlns="http://www.w3.org/2000/svg" viewBox="0 0 1012.39 299.63"><defs><style>.b{fill:#fff;}.c{fill:#d51e3e;}</style></defs><polygon class="c" points="134.17 0 2.74 75.9 2.74 227.66 134.17 303.51 134.17 303.51 265.6 227.66 265.6 75.9 134.17 0"/><polygon class="b" points="134.17 151.76 185.43 122.17 134.17 92.58 82.92 122.17 82.92 181.35 134.17 210.94 134.17 151.76"/><path class="b" d="M352,36.9h87.48c15.43-.41,30.83,1.67,45.59,6.18,10.75,3.35,20.59,9.13,28.77,16.88,6.95,6.84,12.08,15.32,14.92,24.65,2.88,9.77,4.3,19.92,4.22,30.1,.07,10.46-1.42,20.86-4.43,30.88-2.96,9.64-8.27,18.39-15.44,25.47-8.08,7.86-17.87,13.75-28.61,17.19-14.35,4.5-29.33,6.62-44.36,6.28h-27.33v75.85h-60.83V36.9Zm60.83,107.55h26.81c13.07,0,22.18-2.42,27.33-7.36,5.51-5.98,8.29-13.97,7.67-22.08,.69-8-2.19-15.89-7.87-21.56-5.21-4.6-14.36-6.9-27.43-6.9h-26.5v57.89Z"/><path class="b" d="M607.76,98.7v171.67h-59.23V98.7h59.23Z"/><path class="b" d="M742.23,179.8l58.51,90.57h-64.74l-28.77-47.09-29.44,47.09h-62.68l60.16-87.48-54.08-84.19h65.41l24.24,41.17,25.73-41.17h59.85l-54.19,81.1Z"/><path class="b" d="M808.66,91.55v178.82h59.18V36.9c-55.22,0-58.97,44.92-59.18,54.65Z"/><path class="b" d="M888.79,91.55v178.82h59.18V36.9c-54.96,0-58.97,44.92-59.18,54.65Z"/><circle class="b" cx="578.12" cy="50.64" r="33.96"/></svg>