<?xml version="1.0" encoding="UTF-8"?><svg id="a" xmlns="http://www.w3.org/2000/svg" viewBox="0 0 1702.84 282.11"><defs><style>.b{fill:#fff;}.c{fill:#d51e3e;}.d{fill:#231f20;}</style></defs><polygon class="c" points="124.73 0 0 70.55 0 211.61 124.73 282.11 124.73 282.11 249.45 211.61 249.45 70.55 124.73 0"/><polygon class="b" points="124.73 141.05 173.37 113.55 124.73 86.05 76.09 113.55 76.09 168.56 124.73 196.06 124.73 141.05"/><path d="M331.45,34.3h83.02c14.64-.38,29.26,1.56,43.27,5.74,10.21,3.12,19.54,8.48,27.3,15.69,6.6,6.36,11.47,14.24,14.16,22.91,2.73,9.08,4.08,18.51,4,27.98,.07,9.72-1.35,19.39-4.2,28.7-2.81,8.96-7.84,17.09-14.65,23.68-7.67,7.31-16.96,12.78-27.15,15.98-13.61,4.18-27.83,6.15-42.1,5.84h-25.93v70.5h-57.72V34.3Zm57.72,99.97h25.44c12.4,0,21.05-2.25,25.93-6.84,5.23-5.55,7.86-12.99,7.28-20.52,.65-7.43-2.08-14.77-7.47-20.04-4.95-4.27-13.63-6.41-26.03-6.41h-25.15v53.81Z"/><path d="M574.17,91.74V251.31h-56.21V91.74h56.21Z"/><path d="M701.77,167.12l55.53,84.18h-61.44l-27.3-43.77-27.93,43.77h-59.48l57.09-81.31-51.33-78.25h62.07l23,38.27,24.42-38.27h56.8l-51.42,75.38Z"/><path d="M764.82,85.09V251.31h56.16V34.3c-52.4,0-55.97,41.76-56.16,50.8Z"/><path d="M840.86,85.09V251.31h56.16V34.3c-52.16,0-55.97,41.76-56.16,50.8Z"/><ellipse cx="546.04" cy="47.07" rx="32.23" ry="31.57"/><ellipse class="c" cx="942" cy="221.44" rx="32.23" ry="31.57"/><g><path class="d" d="M1185.46,251.04V54.29l-84.32,196.75h-11.47l-84.31-196.14V251.04h-11.47V34.25h14.88l87.1,202.82,86.81-202.82h14.26V251.04h-11.47Z"/><path class="d" d="M1348.38,212.18c-2.89,13.77-9.81,24.49-20.77,32.18s-24.69,11.54-41.23,11.54c-22.94,0-40.66-7.08-53.16-21.25-12.51-14.17-18.76-34.31-18.76-60.42s6.3-46.86,18.91-61.64c12.6-14.77,30.17-22.16,52.7-22.16,20.87,0,37.05,6.73,48.52,20.19,11.47,13.46,17.2,32.64,17.2,57.54v7.89h-125.55c0,22.27,5.27,39.42,15.81,51.46,10.54,12.05,25.62,18.07,45.26,18.07,13.43,0,24.38-2.83,32.86-8.5,8.47-5.67,14.15-13.97,17.05-24.9h11.16Zm-8.37-46.15c0-21.45-4.54-37.7-13.64-48.73-9.09-11.03-22.63-16.55-40.61-16.55s-32.08,5.57-42.31,16.7c-10.23,11.14-15.97,27.33-17.21,48.58h113.77Z"/><path class="d" d="M1494.71,251.04v-30.36c-13.22,23.48-32.96,35.22-59.21,35.22-21.28,0-38.03-7.33-50.22-22.01-12.19-14.67-18.29-34.86-18.29-60.57s6.3-45.95,18.91-60.73c12.6-14.77,29.86-22.16,51.77-22.16,13.22,0,24.75,2.84,34.57,8.5,9.81,5.67,17.31,13.87,22.47,24.59V34.25h11.78V251.04h-11.78Zm.62-85.01c0-12.55-1.6-23.02-4.8-31.43-3.2-8.4-8.22-15.53-15.04-21.41-10.12-8.3-22.52-12.45-37.2-12.45-18.8,0-33.32,6.28-43.55,18.82-10.23,12.56-15.35,30.47-15.35,53.74s4.96,40.64,14.88,53.28c9.92,12.65,23.97,18.98,42.16,18.98,14.88,0,27.48-4.25,37.82-12.75,6.82-5.87,12.04-13.21,15.66-22.01,3.62-8.8,5.42-18.57,5.42-29.3v-15.48Z"/><path class="d" d="M1543.94,251.04V95.28h11.78V251.04h-11.78Z"/><path class="d" d="M1691.37,251.04v-26.11c-6.4,9.72-14.72,17.11-24.95,22.16s-21.86,7.59-34.88,7.59c-17.15,0-30.53-4.15-40.14-12.45-9.61-8.3-14.42-19.94-14.42-34.92,0-16.8,6.3-29.3,18.91-37.5,12.6-8.2,32.75-12.8,60.45-13.81l34.72-1.21v-6.38c0-17.41-3.51-29.7-10.54-36.89-7.02-7.18-19.11-10.78-36.27-10.78-14.46,0-25.63,2.33-33.48,6.98-7.85,4.66-13.02,12.05-15.5,22.16l-10.54-1.82c5.37-25.09,25.52-37.65,60.45-37.65,20.04,0,34.67,4.51,43.87,13.51,9.19,9.01,13.79,23.53,13.79,43.57v103.54h-11.47Zm-.31-86.83l-33.48,1.21c-24.8,1.01-42.42,4.76-52.85,11.23-10.44,6.48-15.66,16.7-15.66,30.67,0,12.14,3.72,21.36,11.16,27.63,7.44,6.28,18.18,9.41,32.24,9.41,18.18,0,32.65-4.96,43.4-14.88,5.78-5.26,9.77-10.27,11.94-15.03,2.17-4.75,3.25-11.18,3.25-19.28v-30.97Z"/></g><ellipse class="d" cx="1549.77" cy="64.97" rx="12.03" ry="11.79"/></svg>