<?xml version="1.0" encoding="UTF-8"?><svg id="a" xmlns="http://www.w3.org/2000/svg" viewBox="0 0 1564.64 286.55"><defs><style>.f{fill:#fff;}.g{fill:#d51e3e;}</style></defs><g id="b"><g id="c"><g id="d"><g id="e"><path class="f" d="M0,.04H62.26c10.61-.25,21.2,.97,31.48,3.63,7.18,1.86,13.88,5.23,19.65,9.89,4.63,3.88,8.11,8.97,10.03,14.7,1.87,5.93,2.8,12.11,2.77,18.33,.05,6.64-1.44,13.2-4.36,19.16-3.67,6.71-9.42,12.04-16.4,15.18,4.56,2.32,8.81,5.21,12.66,8.58,3.08,2.73,5.7,5.94,7.75,9.51,1.79,3.25,3.09,6.75,3.84,10.38,.72,3.49,1.08,7.05,1.07,10.62,.05,6.97-1.05,13.9-3.25,20.51-2.11,6.39-5.84,12.12-10.83,16.64-5.75,5.03-12.51,8.8-19.82,11.03-9.84,2.98-20.09,4.35-30.37,4.08H0V.04ZM66.24,68.35c9.48,0,15.98-1.78,19.51-5.33,3.78-4.12,5.7-9.61,5.33-15.18,.56-5.9-2.08-11.65-6.92-15.08-4.6-2.97-12.35-4.46-23.28-4.46h-26.01v40.05h31.37Zm-1.21,75.72c5,.13,10-.44,14.84-1.69,3.5-.87,6.75-2.53,9.51-4.84,2.34-2.02,4.1-4.64,5.08-7.58,.97-3.21,1.45-6.54,1.42-9.89,.58-6.35-1.59-12.65-5.95-17.29-4.01-3.87-11.09-5.81-21.24-5.81H34.87v47.11h30.16Z"/><path class="f" d="M198.96,176.17c-20.27,0-35.95-5.76-47.04-17.29-11.09-11.53-16.64-28.1-16.64-49.71-.11-9.41,1.4-18.77,4.46-27.67,2.69-7.84,7.06-15.01,12.8-21,5.67-5.8,12.54-10.29,20.13-13.14,17.08-6.09,35.74-6.09,52.82,0,15.56,5.78,27.64,18.36,32.79,34.14,3.02,8.97,4.49,18.38,4.36,27.84,.15,9.56-1.36,19.08-4.46,28.12-2.73,7.86-7.09,15.05-12.8,21.1-5.65,5.85-12.52,10.38-20.13,13.25-8.42,3.06-17.33,4.54-26.29,4.36Zm0-27.01c8.51,.55,16.7-3.39,21.58-10.38,4.73-6.92,7.1-16.81,7.13-29.68,0-12.87-2.39-22.66-7.13-29.44-9.98-11.89-27.71-13.43-39.61-3.46-1.25,1.05-2.41,2.21-3.46,3.46-4.74,6.92-7.13,16.57-7.13,29.44s2.35,22.97,6.92,29.78c4.9,7.02,13.15,10.92,21.69,10.27Z"/><path class="f" d="M332.93,176.17c-20.27,0-35.95-5.76-47.04-17.29-11.09-11.53-16.64-28.1-16.64-49.71-.11-9.41,1.4-18.77,4.46-27.67,2.71-7.83,7.06-14.99,12.76-21,5.69-5.79,12.57-10.28,20.17-13.14,17.08-6.09,35.74-6.09,52.82,0,7.59,2.85,14.47,7.34,20.13,13.14,5.71,5.98,10.03,13.15,12.66,21,3.02,8.97,4.49,18.38,4.36,27.84,.15,9.56-1.36,19.08-4.46,28.12-2.73,7.86-7.09,15.05-12.8,21.1-5.65,5.85-12.52,10.38-20.13,13.25-8.42,3.06-17.33,4.54-26.29,4.36Zm0-27.01c8.51,.55,16.7-3.39,21.58-10.38,4.75-6.92,7.13-16.81,7.13-29.68s-2.39-22.66-7.13-29.44c-9.93-11.94-27.66-13.58-39.6-3.65-.05,.04-.09,.08-.14,.12-1.25,1.05-2.41,2.21-3.46,3.46-4.7,6.92-6.92,16.64-6.92,29.5s2.32,22.97,6.92,29.78c4.89,7,13.11,10.9,21.62,10.27Z"/><path class="g" d="M601.86,.04h61.02c11.32-.31,22.62,1.28,33.41,4.7,7.76,2.48,14.86,6.69,20.75,12.31,4.77,4.71,8.33,10.5,10.38,16.88,1.9,5.89,2.88,12.04,2.91,18.23,.31,9.67-1.76,19.26-6.02,27.95-4.72,8.22-11.78,14.85-20.27,19.06l34.97,73.12h-38.88l-28.92-64.65h-33.79v64.65h-35.56V.04Zm63.44,77.69c4.68,.12,9.35-.5,13.84-1.83,3.43-.89,6.59-2.61,9.2-5.02,2.19-2.15,3.73-4.87,4.46-7.85,.83-3.31,1.24-6.72,1.21-10.13,0-2.99-.49-5.96-1.45-8.79-1-2.86-2.7-5.43-4.95-7.47-2.78-2.42-6.08-4.16-9.65-5.08-5.08-1.32-10.32-1.93-15.57-1.8h-24.84v48.01l27.74-.03Z"/><path class="g" d="M849.66,132.97c-2.28,14.18-7.92,24.9-17.02,32.2s-22.31,11-39.67,11c-20.94,0-36.65-5.76-47.15-17.29-10.49-11.53-15.76-27.94-15.81-49.22-.17-9.64,1.38-19.23,4.57-28.33,2.81-7.84,7.2-15.03,12.9-21.1,5.58-5.82,12.38-10.31,19.92-13.14,8.17-3.05,16.84-4.56,25.56-4.46,19.3,0,33.82,5.55,43.55,16.64,9.73,11.09,14.59,26.08,14.56,44.97v13.42h-87.3c-.23,8.52,2.44,16.86,7.58,23.66,4.84,5.71,12.07,8.54,21.72,8.58,13.35,0,21.2-5.64,23.62-16.91h32.96Zm-31.13-37.6c.41-7.26-1.87-14.41-6.4-20.1-4.25-4.84-10.9-7.23-19.89-7.23-4.05-.07-8.07,.66-11.83,2.14-3.22,1.38-6.13,3.4-8.54,5.95-2.35,2.52-4.19,5.47-5.43,8.68-1.31,3.44-2.04,7.08-2.18,10.76l54.27-.21Z"/><path class="g" d="M1052.53,176.17c-20.27,0-35.95-5.76-47.04-17.29s-16.64-28.1-16.64-49.71c-.11-9.41,1.4-18.77,4.46-27.67,2.69-7.84,7.06-15.01,12.8-21,5.67-5.79,12.54-10.28,20.13-13.14,17.08-6.09,35.74-6.09,52.82,0,15.59,5.76,27.68,18.34,32.83,34.14,2.99,8.98,4.45,18.39,4.32,27.84,.15,9.56-1.36,19.08-4.46,28.12-2.73,7.85-7.08,15.04-12.76,21.1-5.67,5.85-12.55,10.37-20.17,13.25-8.42,3.06-17.33,4.54-26.29,4.36Zm0-27.01c8.51,.55,16.7-3.39,21.58-10.38,4.75-6.92,7.13-16.81,7.13-29.68s-2.39-22.66-7.13-29.44c-9.98-11.89-27.71-13.43-39.61-3.46-1.25,1.05-2.41,2.21-3.46,3.46-4.74,6.92-7.13,16.57-7.13,29.44s2.35,22.97,6.92,29.78c4.9,7.02,13.15,10.92,21.69,10.27Z"/><path class="g" d="M971.14,60.4c-8.67-11.9-21.77-17.85-39.29-17.85-15.79-.41-30.68,7.33-39.43,20.48v-16.64h-32.79V228.33s33.76-5.85,33.76-32.69h0v-36.49c4.48,6.01,10.52,10.68,17.47,13.49,5.98,2.25,12.32,3.42,18.71,3.46,7.9,.14,15.73-1.52,22.9-4.84,6.72-3.18,12.63-7.84,17.29-13.63,4.94-6.27,8.63-13.44,10.86-21.1,2.59-8.85,3.85-18.04,3.74-27.26-.09-20.71-4.5-37-13.21-48.88Zm-24.21,67.28c-1.21,4.42-3.28,8.55-6.09,12.18-2.31,3.01-5.34,5.39-8.82,6.92-3.34,1.44-6.94,2.18-10.58,2.18-3.39,0-6.76-.45-10.03-1.35-3.67-1.09-7.02-3.06-9.75-5.74-3.22-3.33-5.51-7.44-6.64-11.93-1.52-6.43-2.21-13.04-2.04-19.65v-3.87c-.16-6.03,.61-12.05,2.28-17.85,1.37-4.39,3.82-8.36,7.13-11.55,2.68-2.22,5.7-3.97,8.96-5.19,3.5-1.18,7.17-1.76,10.86-1.69,3.56,0,7.09,.7,10.38,2.08,3.43,1.48,6.38,3.87,8.54,6.92,2.67,3.65,4.6,7.79,5.67,12.18,1.52,6.07,2.22,12.32,2.08,18.57,.14,6.01-.56,12-2.08,17.81h.14Z"/><path class="f" d="M577.09,53.27c-6.5-7.16-16.29-10.72-29.3-10.72-7.39-.09-14.68,1.65-21.24,5.05-7.26,4.13-13.52,9.81-18.33,16.64-2.12-6.64-6.47-12.35-12.31-16.15-13.1-7.22-28.94-7.41-42.2-.48-6.67,3.79-12.31,9.17-16.4,15.67v-16.88h-32.62v125.91h33.76V96.58c-.09-6.9,2.6-13.55,7.47-18.44,4.5-4.92,10.9-7.66,17.57-7.51,2.04,0,4.07,.34,6.02,.97,1.94,.66,3.66,1.86,4.95,3.46,1.56,1.95,2.67,4.22,3.25,6.64,.9,3.58,1.31,7.27,1.21,10.96v79.56c2.32,0,33.69-1.63,33.69-33.79h0v-43.38c-.04-3.17,.66-6.31,2.04-9.17,1.35-2.87,3.19-5.48,5.43-7.71,2.36-2.46,5.18-4.43,8.3-5.81,2.97-1.15,6.12-1.72,9.3-1.69,2.04,0,4.07,.34,6.02,.97,1.94,.66,3.66,1.86,4.95,3.46,1.55,1.95,2.66,4.22,3.25,6.64,.86,3.54,1.25,7.18,1.14,10.83v79.56h33.76V88.1c.02-16.05-3.22-27.66-9.72-34.83Z"/><path class="g" d="M1270.1,77.59c.82-17.19-11.85-32.07-28.95-34V13.01h-33.76v118.47c0,15.59,3.33,26.68,10,33.28,6.66,6.6,16.91,9.89,30.75,9.89,4.23,0,8.47-.28,12.66-.86,2.21-.28,4.46-.66,6.75-1.18v-29.57c-1.58,.41-3.18,.69-4.81,.83-2.3,.25-4.61,.38-6.92,.38-3.84,.16-7.61-1.06-10.62-3.46-2.73-2.35-4.08-6.92-4.08-13.39v-49.81h28.99Z"/><path class="f" d="M644.64,239.13h-16.91v-10.17h45.66v10.17h-16.91v45.94h-11.83v-45.94Z"/><path class="f" d="M676.7,228.96h11.03v20.34c1.44-2.08,3.4-3.76,5.67-4.88,2.15-1.07,4.52-1.62,6.92-1.59,3.83-.33,7.61,1.01,10.38,3.67,2.56,3.28,3.8,7.4,3.46,11.55v27.01h-11.03v-25.53c.25-2.11-.35-4.24-1.66-5.91-1.19-1.1-2.77-1.67-4.39-1.59-2.42-.06-4.76,.82-6.54,2.46-.76,.77-1.39,1.66-1.87,2.63-.52,1.08-.77,2.26-.73,3.46v24.49h-11.03l-.21-56.1Z"/><path class="f" d="M757.74,272.37c-.46,4.04-2.44,7.75-5.53,10.38-3.81,2.59-8.38,3.81-12.97,3.46-5.71,.41-11.32-1.66-15.39-5.67-3.66-4.53-5.5-10.27-5.15-16.08-.06-3.15,.44-6.29,1.49-9.27,.93-2.57,2.36-4.92,4.22-6.92,1.82-1.89,4.04-3.36,6.5-4.29,2.66-1,5.49-1.49,8.34-1.45,5.31-.41,10.53,1.59,14.22,5.43,3.39,4.16,5.09,9.45,4.77,14.8v4.39h-28.5c-.08,2.79,.8,5.53,2.49,7.75,1.81,1.97,4.42,3.01,7.09,2.8,3.63,.51,7.03-1.9,7.75-5.5l10.69,.17Zm-10.17-12.28c.14-2.39-.59-4.76-2.08-6.64-1.72-1.7-4.1-2.56-6.5-2.35-1.32-.04-2.63,.21-3.84,.73-1.06,.42-2.02,1.07-2.8,1.9-.75,.83-1.35,1.79-1.76,2.84-.45,1.1-.69,2.27-.73,3.46l17.71,.07Z"/><path class="f" d="M778.71,228.96h20.23c3.5-.08,6.99,.32,10.38,1.18,2.35,.62,4.54,1.73,6.43,3.25,1.52,1.26,2.65,2.93,3.25,4.81,.61,1.94,.91,3.95,.9,5.98,.03,2.16-.45,4.29-1.42,6.23-1.21,2.19-3.11,3.93-5.4,4.95,1.49,.76,2.89,1.7,4.15,2.8,1.96,1.7,3.29,4.02,3.77,6.57,.25,1.14,.38,2.3,.38,3.46,0,2.28-.36,4.55-1.07,6.71-.68,2.07-1.87,3.94-3.46,5.43-1.9,1.59-4.12,2.77-6.5,3.46-3.21,.97-6.54,1.42-9.89,1.35h-21.58l-.17-56.17Zm21.58,22.31c2.26,.24,4.53-.38,6.36-1.73,1.21-1.37,1.83-3.16,1.73-4.98,.19-1.92-.67-3.8-2.25-4.91-2.36-1.17-4.99-1.67-7.61-1.45h-8.51v13.07h10.27Zm-.42,24.73c1.63,.02,3.26-.16,4.84-.55,1.14-.31,2.21-.86,3.11-1.63,.83-.68,1.45-1.58,1.8-2.59,.33-1.04,.49-2.13,.48-3.22,.13-2.04-.58-4.04-1.97-5.53-2-1.45-4.46-2.11-6.92-1.87h-11.03v15.29l9.69,.1Z"/><path class="f" d="M825.23,244.08h11.03v25.6c-.25,2.11,.32,4.24,1.59,5.95,1.18,1.06,2.74,1.61,4.32,1.52,1.18,.04,2.36-.18,3.46-.62,.97-.46,1.87-1.07,2.66-1.8,.83-.75,1.51-1.66,2.01-2.66,.51-1.08,.76-2.26,.73-3.46v-24.52h11.03v40.99h-10.72v-5.53c-1.43,2.21-3.39,4.03-5.71,5.29-2.13,1.12-4.51,1.69-6.92,1.66-3.83,.33-7.61-1.01-10.38-3.67-2.53-3.3-3.76-7.41-3.46-11.55l.35-27.19Z"/><path class="f" d="M876.66,272.13c.1,1.98,1.21,3.77,2.94,4.74,1.79,.76,3.72,1.14,5.67,1.11,1.92,.14,3.85-.21,5.6-1,1.12-.66,1.77-1.89,1.69-3.18,.02-1.02-.36-2.01-1.04-2.77-1.14-.98-2.58-1.57-4.08-1.66l-5.64-.93c-4-.45-7.84-1.86-11.17-4.12-2.55-2.15-3.92-5.39-3.67-8.72,.06-1.8,.56-3.56,1.45-5.12,.82-1.64,2-3.07,3.46-4.19,1.72-1.17,3.63-2.04,5.64-2.56,2.35-.63,4.77-.93,7.19-.9,2.77-.07,5.53,.27,8.2,1,1.96,.5,3.8,1.39,5.4,2.63,1.35,1.04,2.43,2.4,3.15,3.94,.7,1.56,1.21,3.2,1.52,4.88l-9.82,1.25c-.32-1.63-1.2-3.1-2.49-4.15-1.71-1.05-3.71-1.52-5.71-1.35-1.23-.04-2.46,.08-3.67,.35-.8,.18-1.57,.48-2.28,.9-.49,.32-.9,.76-1.18,1.28-.23,.4-.36,.85-.38,1.31-.08,1.11,.39,2.19,1.25,2.91,1.47,.83,3.09,1.35,4.77,1.52l5.19,.86c2.44,.37,4.84,.97,7.16,1.8,1.67,.62,3.2,1.55,4.53,2.73,1.1,1.04,1.91,2.35,2.35,3.8,.49,1.66,.72,3.39,.69,5.12,.13,3.65-1.52,7.13-4.43,9.34-4.04,2.62-8.83,3.84-13.63,3.46-2.32,0-4.64-.24-6.92-.69-2.12-.4-4.15-1.19-5.98-2.32-1.75-1.12-3.23-2.62-4.32-4.39-1.21-2.11-1.87-4.49-1.94-6.92l10.48,.03Z"/><path class="f" d="M907.93,244.08h11.03v40.99h-11.03v-40.99Z"/><path class="f" d="M925.68,244.08h10.69v5.67c2.8-4.33,7.61-6.94,12.76-6.92,3.82-.31,7.6,1.02,10.38,3.67,2.56,3.28,3.8,7.4,3.46,11.55v27.01h-11.03v-25.53c.25-2.11-.35-4.24-1.66-5.91-1.19-1.1-2.77-1.67-4.39-1.59-2.42-.06-4.76,.82-6.54,2.46-.76,.77-1.39,1.66-1.87,2.63-.52,1.08-.77,2.26-.73,3.46v24.49h-11.03l-.03-40.99Z"/><path class="f" d="M1006.79,272.37c-.47,4.04-2.46,7.75-5.57,10.38-3.79,2.59-8.36,3.81-12.94,3.46-5.71,.41-11.32-1.66-15.39-5.67-3.69-4.52-5.53-10.26-5.15-16.08-.06-3.15,.44-6.29,1.49-9.27,.9-2.58,2.34-4.94,4.22-6.92,1.81-1.89,4.02-3.36,6.47-4.29,2.68-1,5.51-1.49,8.37-1.45,5.31-.41,10.53,1.59,14.22,5.43,3.39,4.16,5.09,9.45,4.77,14.8v4.39h-28.54c-.07,2.8,.82,5.53,2.53,7.75,1.81,1.97,4.42,3.01,7.09,2.8,3.62,.49,7-1.92,7.71-5.5l10.72,.17Zm-10.17-12.28c.14-2.39-.59-4.76-2.08-6.64-1.72-1.7-4.1-2.56-6.5-2.35-1.32-.04-2.63,.21-3.84,.73-1.06,.42-2.02,1.07-2.8,1.9-.76,.83-1.37,1.79-1.8,2.84-.42,1.11-.65,2.28-.69,3.46l17.71,.07Z"/><path class="f" d="M1020.35,272.13c.08,1.98,1.18,3.77,2.91,4.74,1.79,.76,3.72,1.14,5.67,1.11,1.93,.14,3.87-.21,5.64-1,1.12-.66,1.77-1.89,1.69-3.18,0-1.02-.38-2.01-1.07-2.77-1.13-.98-2.55-1.56-4.05-1.66l-5.67-.93c-4-.45-7.84-1.86-11.17-4.12-2.54-2.15-3.89-5.4-3.63-8.72-.03-1.87,.41-3.71,1.28-5.36,.9-1.6,2.15-2.97,3.67-4.01,1.72-1.17,3.63-2.04,5.64-2.56,2.35-.63,4.77-.93,7.19-.9,2.77-.07,5.53,.27,8.2,1,1.96,.5,3.8,1.39,5.4,2.63,1.37,1.08,2.45,2.49,3.15,4.08,.73,1.55,1.24,3.19,1.52,4.88l-9.82,1.25c-.32-1.63-1.2-3.1-2.49-4.15-1.71-1.05-3.71-1.52-5.71-1.35-1.23-.04-2.46,.08-3.67,.35-.8,.18-1.57,.48-2.28,.9-.49,.32-.9,.76-1.18,1.28-.22,.41-.33,.86-.35,1.31-.09,1.11,.36,2.19,1.21,2.91,1.47,.83,3.09,1.35,4.77,1.52l5.19,.86c2.44,.35,4.84,.96,7.16,1.8,1.67,.61,3.21,1.54,4.53,2.73,1.11,1.03,1.93,2.35,2.35,3.8,.49,1.66,.72,3.39,.69,5.12,.13,3.65-1.52,7.13-4.43,9.34-4.04,2.62-8.83,3.84-13.63,3.46-2.32,0-4.64-.24-6.92-.69-2.12-.39-4.15-1.18-5.98-2.32-1.77-1.12-3.26-2.62-4.36-4.39-1.17-2.12-1.84-4.49-1.94-6.92l10.48-.03Z"/><path class="f" d="M1059.47,272.13c.1,1.98,1.21,3.77,2.94,4.74,1.79,.76,3.72,1.14,5.67,1.11,1.92,.14,3.85-.21,5.6-1,1.12-.66,1.77-1.89,1.69-3.18,.02-1.02-.36-2.01-1.04-2.77-1.14-.98-2.58-1.57-4.08-1.66l-5.67-.93c-3.99-.45-7.81-1.87-11.14-4.12-2.55-2.15-3.92-5.39-3.67-8.72-.03-1.87,.42-3.72,1.31-5.36,.9-1.6,2.15-2.97,3.67-4.01,1.72-1.17,3.63-2.04,5.64-2.56,2.35-.63,4.77-.93,7.19-.9,2.77-.07,5.53,.27,8.2,1,1.95,.53,3.78,1.42,5.4,2.63,1.35,1.04,2.43,2.4,3.15,3.94,.7,1.56,1.21,3.2,1.52,4.88l-9.86,1.25c-.29-1.63-1.17-3.11-2.46-4.15-1.71-1.05-3.71-1.52-5.71-1.35-1.23-.04-2.46,.08-3.67,.35-.8,.18-1.57,.48-2.28,.9-.5,.31-.91,.75-1.18,1.28-.23,.4-.36,.85-.38,1.31-.08,1.11,.39,2.19,1.25,2.91,1.46,.83,3.07,1.35,4.74,1.52l5.22,.86c2.44,.37,4.84,.97,7.16,1.8,1.67,.62,3.2,1.55,4.53,2.73,1.1,1.04,1.91,2.35,2.35,3.8,.49,1.66,.72,3.39,.69,5.12,.13,3.65-1.52,7.13-4.43,9.34-4.04,2.62-8.83,3.84-13.63,3.46-2.32,0-4.64-.24-6.92-.69-2.12-.4-4.15-1.19-5.98-2.32-1.71-1.13-3.14-2.63-4.19-4.39-1.21-2.11-1.87-4.49-1.94-6.92l10.27,.1Z"/><path class="f" d="M1124.39,286.48c-5.69,.34-11.26-1.72-15.36-5.67-3.87-4.48-5.81-10.31-5.4-16.22-.04-3.1,.45-6.19,1.45-9.13,1.72-5.15,5.68-9.24,10.76-11.14,5.59-2.01,11.7-2.01,17.29,0,2.48,.94,4.73,2.41,6.61,4.29,1.87,1.97,3.28,4.33,4.12,6.92,1.9,5.95,1.9,12.35,0,18.3-.89,2.57-2.32,4.93-4.19,6.92-1.84,1.94-4.12,3.43-6.64,4.32-2.77,1-5.7,1.49-8.65,1.42Zm0-8.85c2.74,.1,5.35-1.2,6.92-3.46,1.72-2.92,2.53-6.3,2.32-9.69,.23-3.37-.58-6.72-2.32-9.62-3.23-3.9-9-4.44-12.9-1.21-.44,.37-.84,.77-1.21,1.21-1.74,2.89-2.55,6.25-2.32,9.62-.21,3.39,.58,6.77,2.28,9.72,1.62,2.35,4.38,3.66,7.23,3.42Z"/><path class="f" d="M1153.14,252.69h-6.47v-8.61h6.47v-1.31c-.04-2.23,.34-4.44,1.11-6.54,.63-1.73,1.68-3.27,3.04-4.5,1.29-1.17,2.83-2.05,4.5-2.56,1.84-.57,3.75-.85,5.67-.83,1.39,0,2.77,.08,4.15,.24,1.5,.17,2.98,.49,4.43,.93l-1.49,8.02c-1.57-.42-3.19-.62-4.81-.62-1.38-.01-2.73,.42-3.84,1.25-1.28,1.06-1.93,2.71-1.73,4.36v1.56h9.51v8.61h-9.51v32.38h-11.03v-32.38Z"/><path class="f" d="M1192.43,228.96h20.23c3.5-.08,6.99,.32,10.38,1.18,2.34,.62,4.52,1.73,6.4,3.25,1.6,1.23,2.8,2.9,3.46,4.81,.61,1.94,.91,3.95,.9,5.98,0,2.16-.48,4.28-1.42,6.23-1.21,2.18-3.09,3.92-5.36,4.95,1.49,.76,2.89,1.7,4.15,2.8,1.9,1.72,3.22,4,3.77,6.5,.24,1.14,.35,2.3,.35,3.46,.02,2.28-.34,4.55-1.07,6.71-.67,2.08-1.86,3.95-3.46,5.43-1.9,1.59-4.12,2.77-6.5,3.46-3.22,.97-6.57,1.42-9.93,1.35h-21.58l-.31-56.1Zm21.58,22.31c2.26,.24,4.53-.38,6.36-1.73,1.22-1.36,1.86-3.15,1.76-4.98,.19-1.92-.67-3.8-2.25-4.91-2.36-1.15-4.99-1.65-7.61-1.45h-8.34v13.07h10.07Zm-.31,24.73c1.63,.02,3.26-.16,4.84-.55,1.14-.31,2.21-.86,3.11-1.63,.75-.68,1.32-1.54,1.66-2.49,.32-1.04,.47-2.13,.45-3.22,.13-2.04-.58-4.04-1.97-5.53-2-1.45-4.46-2.11-6.92-1.87h-10.86v15.29h9.69Z"/><path class="f" d="M1239.47,228.96h11v56.1h-11v-56.1Z"/><path class="f" d="M1276.59,286.48c-5.69,.34-11.26-1.72-15.36-5.67-3.87-4.48-5.81-10.31-5.4-16.22-.04-3.1,.45-6.19,1.45-9.13,1.72-5.15,5.68-9.24,10.76-11.14,2.74-1.03,5.65-1.53,8.58-1.49,2.96-.05,5.91,.46,8.68,1.49,2.46,.96,4.7,2.42,6.57,4.29,1.87,1.97,3.28,4.33,4.12,6.92,1.9,5.95,1.9,12.35,0,18.3-.89,2.57-2.32,4.93-4.19,6.92-1.83,1.93-4.08,3.41-6.57,4.32-2.77,1-5.7,1.49-8.65,1.42Zm0-8.85c2.74,.1,5.35-1.2,6.92-3.46,1.72-2.92,2.53-6.3,2.32-9.69,.21-3.33-.6-6.65-2.32-9.51-3.23-3.9-9-4.44-12.9-1.21-.44,.37-.84,.77-1.21,1.21-1.74,2.89-2.55,6.25-2.32,9.62-.21,3.39,.58,6.77,2.28,9.72,1.65,2.31,4.4,3.57,7.23,3.32Z"/><path class="f" d="M1338.85,270.33c-.2,4.41-2.01,8.59-5.08,11.76-3.7,3.17-8.5,4.75-13.35,4.39-3.14,.14-6.28-.34-9.24-1.42-2.38-.94-4.5-2.45-6.16-4.39-1.62-2.04-2.8-4.4-3.46-6.92-.82-2.89-1.22-5.88-1.18-8.89-.03-3.04,.44-6.07,1.38-8.96,.83-2.56,2.18-4.92,3.98-6.92,1.76-1.94,3.94-3.45,6.36-4.43,5.11-1.93,10.72-2.11,15.95-.52,1.93,.62,3.72,1.62,5.26,2.94,1.41,1.25,2.53,2.8,3.29,4.53,.81,1.84,1.34,3.78,1.59,5.78l-11.1,1.52c-.16-1.82-.8-3.58-1.83-5.08-1.2-1.41-3.03-2.14-4.88-1.94-1.46-.06-2.9,.31-4.15,1.07-1.12,.71-2.04,1.7-2.66,2.87-.69,1.29-1.15,2.68-1.38,4.12-.25,1.61-.37,3.24-.38,4.88,0,1.66,.13,3.31,.38,4.95,.24,1.45,.69,2.87,1.35,4.19,2.27,3.8,7.2,5.05,11,2.77,.36-.22,.71-.46,1.03-.73,1.31-1.51,2.05-3.43,2.11-5.43l11.17-.14Z"/><path class="f" d="M1343.42,228.96h10.79v29.47l15.77-14.35h12.76l-14.98,14.18,16.22,26.81h-11.9l-12.14-20.75-5.74,5.36v15.57h-10.79v-56.28Z"/><path class="f" d="M1420.31,270.33c-.2,4.41-2.01,8.59-5.08,11.76-3.7,3.17-8.5,4.75-13.35,4.39-3.07,.06-6.13-.48-8.99-1.59-2.41-.93-4.54-2.44-6.23-4.39-1.62-2.04-2.8-4.4-3.46-6.92-.82-2.89-1.22-5.88-1.18-8.89-.03-3.04,.44-6.07,1.38-8.96,.83-2.56,2.18-4.92,3.98-6.92,1.76-1.94,3.94-3.45,6.36-4.43,5.11-1.93,10.72-2.11,15.95-.52,1.93,.69,3.69,1.76,5.19,3.15,1.48,1.23,2.66,2.78,3.46,4.53,.81,1.84,1.34,3.78,1.59,5.78l-11.1,1.52c-.16-1.82-.8-3.58-1.83-5.08-1.2-1.41-3.03-2.14-4.88-1.94-1.46-.06-2.9,.31-4.15,1.07-1.12,.71-2.04,1.7-2.66,2.87-.69,1.29-1.15,2.68-1.38,4.12-.25,1.61-.37,3.24-.38,4.88,0,1.66,.13,3.31,.38,4.95,.24,1.45,.69,2.87,1.35,4.19,2.27,3.8,7.2,5.05,11,2.77,.36-.22,.71-.46,1.03-.73,1.31-1.51,2.05-3.43,2.11-5.43l10.9-.17Z"/><path class="f" d="M1425.01,228.96h11.03v20.34c1.46-2.07,3.41-3.74,5.67-4.88,2.15-1.07,4.52-1.62,6.92-1.59,3.82-.31,7.6,1.02,10.38,3.67,2.56,3.28,3.8,7.4,3.46,11.55v27.01h-11.21v-25.53c.25-2.11-.35-4.24-1.66-5.91-1.21-1.08-2.8-1.65-4.43-1.59-1.25-.02-2.5,.2-3.67,.66-1.05,.45-2.01,1.05-2.87,1.8-.76,.76-1.38,1.65-1.83,2.63-.53,1.07-.79,2.26-.76,3.46v24.49h-11.03v-56.1Z"/><path class="f" d="M1492.91,280.05c-1.58,1.77-3.42,3.29-5.47,4.5-2.42,1.24-5.13,1.84-7.85,1.73-1.77,0-3.52-.24-5.22-.73-1.58-.43-3.05-1.19-4.32-2.21-1.27-1.02-2.29-2.33-2.97-3.8-.77-1.75-1.13-3.66-1.07-5.57-.11-2.44,.55-4.86,1.87-6.92,1.26-1.84,2.97-3.32,4.98-4.29,2.19-1.03,4.52-1.74,6.92-2.11,2.56-.42,5.15-.69,7.75-.8l5.29-.24v-2.04c.25-1.98-.55-3.94-2.11-5.19-1.46-.96-3.17-1.46-4.91-1.42-4.36,0-6.92,1.66-7.47,4.95l-10.1-.93c.41-3.8,2.49-7.22,5.67-9.34,3.75-2.08,8-3.08,12.28-2.87,2.73-.07,5.46,.31,8.06,1.14,2,.65,3.81,1.77,5.29,3.25,1.38,1.47,2.38,3.25,2.94,5.19,.63,2.25,.93,4.58,.9,6.92v25.73h-10.38l-.07-4.95Zm-.24-13.14l-4.88,.21c-1.88,.04-3.75,.28-5.57,.73-1.23,.25-2.4,.72-3.46,1.38-.7,.45-1.24,1.12-1.52,1.9-.27,.79-.42,1.62-.42,2.46-.06,1.24,.47,2.43,1.42,3.22,1.13,.86,2.53,1.28,3.94,1.21,2.46,.1,4.88-.59,6.92-1.97,1-.75,1.84-1.71,2.46-2.8,.65-1.31,.97-2.76,.93-4.22l.17-2.11Z"/><path class="f" d="M1509.62,244.08h11.03v40.99h-11.03v-40.99Z"/><path class="f" d="M1527.33,244.08h10.72v5.67c1.44-2.22,3.43-4.03,5.78-5.26,2.15-1.08,4.51-1.65,6.92-1.66,3.82-.31,7.6,1.02,10.38,3.67,2.56,3.28,3.8,7.4,3.46,11.55v27.01h-11v-25.53c.25-2.11-.35-4.24-1.66-5.91-1.21-1.08-2.8-1.65-4.43-1.59-1.25-.02-2.5,.2-3.67,.66-1.05,.45-2.01,1.05-2.87,1.8-.76,.76-1.38,1.65-1.83,2.63-.53,1.07-.79,2.26-.76,3.46v24.49h-11.03v-40.99Z"/><circle class="g" cx="913.47" cy="233.94" r="6.47"/><circle class="g" cx="1515.12" cy="233.94" r="6.47"/><path class="g" d="M1201.16,44.69v32.83c-43.96-4.29-41.85,16.91-41.85,16.91v77.86h-33.76V93.78s-4.67-52.85,75.61-49.08Z"/><path class="g" d="M1281.68,172.29v-13.84h-5.33v-1.9h12.94v1.9h-5.33v13.84h-2.28Z"/><path class="g" d="M1304.62,156.63h1.83v15.67h-2.08v-11.35l-4.67,8.82h-1.56l-4.5-8.72v11.24h-2.08v-15.67h1.83l5.71,10.86,5.5-10.86Z"/></g></g></g></g></svg>