<?xml version="1.0" encoding="UTF-8"?><svg id="a" xmlns="http://www.w3.org/2000/svg" viewBox="0 0 1553.34 282.11"><defs><style>.b{fill:#fff;}.c{fill:#d51e3e;}</style></defs><polygon class="c" points="119.63 0 -2.53 70.55 -2.53 211.61 119.63 282.11 119.63 282.11 241.79 211.61 241.79 70.55 119.63 0"/><polygon class="b" points="119.63 141.05 167.27 113.55 119.63 86.05 71.99 113.55 71.99 168.56 119.63 196.06 119.63 141.05"/><path class="b" d="M322.1,34.3h81.31c14.34-.38,28.65,1.56,42.38,5.74,10,3.12,19.14,8.48,26.74,15.69,6.46,6.36,11.23,14.24,13.87,22.91,2.67,9.08,3.99,18.51,3.92,27.98,.07,9.72-1.32,19.39-4.11,28.7-2.75,8.96-7.68,17.09-14.35,23.68-7.51,7.31-16.61,12.78-26.59,15.98-13.33,4.18-27.26,6.15-41.23,5.84h-25.4v70.5h-56.54V34.3Zm56.54,99.97h24.92c12.15,0,20.62-2.25,25.4-6.84,5.12-5.55,7.7-12.99,7.13-20.52,.64-7.43-2.04-14.77-7.32-20.04-4.85-4.27-13.34-6.41-25.49-6.41h-24.63v53.81Z"/><path class="b" d="M559.83,91.74V251.31h-55.05V91.74h55.05Z"/><path class="b" d="M684.81,167.12l54.38,84.18h-60.17l-26.74-43.77-27.36,43.77h-58.26l55.91-81.31-50.27-78.25h60.79l22.53,38.27,23.92-38.27h55.63l-50.37,75.38Z"/><path class="b" d="M746.56,85.09V251.31h55.01V34.3c-51.32,0-54.81,41.76-55.01,50.8Z"/><path class="b" d="M821.03,85.09V251.31h55.01V34.3c-51.08,0-54.81,41.76-55.01,50.8Z"/><circle class="b" cx="532.27" cy="47.07" r="31.57"/><circle class="c" cx="920.09" cy="221.44" r="31.57"/><g><path class="b" d="M983.05,147.5v103.54h-12.14V34.26h126.91v11.23h-114.77v90.78h108.09v11.23h-108.09Z"/><path class="b" d="M1192.55,255.9c-22.27,0-39.77-7.33-52.53-22.01-12.75-14.67-19.13-34.86-19.13-60.57,0-16.6,2.89-31.12,8.66-43.57s14.06-22.11,24.9-28.99c10.82-6.88,23.73-10.32,38.71-10.32,22.27,0,39.77,7.34,52.53,22.01,12.75,14.68,19.13,34.97,19.13,60.88,0,16.4-2.88,30.81-8.65,43.26s-14.07,22.12-24.9,29c-10.83,6.88-23.73,10.32-38.71,10.32Zm.3-10.32c19.03,0,33.75-6.32,44.18-18.98,10.42-12.64,15.63-30.41,15.63-53.28s-5.21-41.19-15.63-53.74c-10.43-12.55-25.15-18.82-44.18-18.82s-33.75,6.28-44.17,18.82c-10.43,12.55-15.64,30.46-15.64,53.74s5.21,40.64,15.64,53.28c10.42,12.65,25.15,18.98,44.17,18.98Z"/><path class="b" d="M1302.46,251.04V34.26h11.54V251.04h-11.54Z"/><path class="b" d="M1357.41,62.19v-27.93h12.14v27.93h-12.14Zm.3,188.85V95.28h11.54V251.04h-11.54Z"/><path class="b" d="M1478.55,255.9c-22.27,0-39.77-7.33-52.53-22.01-12.75-14.67-19.13-34.86-19.13-60.57,0-16.6,2.89-31.12,8.66-43.57s14.06-22.11,24.9-28.99c10.82-6.88,23.73-10.32,38.71-10.32,22.27,0,39.77,7.34,52.53,22.01,12.75,14.68,19.13,34.97,19.13,60.88,0,16.4-2.88,30.81-8.65,43.26s-14.07,22.12-24.9,29c-10.83,6.88-23.73,10.32-38.71,10.32Zm.3-10.32c19.03,0,33.75-6.32,44.18-18.98,10.42-12.64,15.63-30.41,15.63-53.28s-5.21-41.19-15.63-53.74c-10.43-12.55-25.15-18.82-44.18-18.82s-33.75,6.28-44.17,18.82c-10.43,12.55-15.64,30.46-15.64,53.74s5.21,40.64,15.64,53.28c10.42,12.65,25.15,18.98,44.17,18.98Z"/></g></svg>