<?xml version="1.0" encoding="UTF-8"?><svg id="a" xmlns="http://www.w3.org/2000/svg" viewBox="0 0 1702.84 298.77"><defs><style>.b{fill:#fff;}.c{fill:#d51e3e;}.d{fill:#231f20;}</style></defs><polygon class="c" points="173.93 8.33 47.48 78.88 47.48 219.94 173.93 290.44 173.93 290.44 300.38 219.94 300.38 78.88 173.93 8.33"/><polygon class="b" points="173.93 149.39 223.24 121.88 173.93 94.38 124.62 121.88 124.62 176.89 173.93 204.39 173.93 149.39"/><path d="M383.51,42.63h84.17c14.85-.38,29.66,1.56,43.87,5.74,10.35,3.12,19.81,8.48,27.68,15.69,6.69,6.36,11.63,14.24,14.36,22.91,2.77,9.08,4.13,18.51,4.06,27.98,.07,9.72-1.36,19.39-4.26,28.7-2.85,8.96-7.95,17.09-14.85,23.68-7.77,7.31-17.2,12.78-27.53,15.98-13.8,4.18-28.22,6.15-42.68,5.84h-26.29v70.5h-58.52V42.63Zm58.52,99.97h25.8c12.58,0,21.34-2.25,26.29-6.84,5.3-5.55,7.97-12.99,7.38-20.52,.66-7.43-2.11-14.77-7.58-20.04-5.02-4.27-13.81-6.41-26.39-6.41h-25.5v53.81Z"/><path d="M629.58,100.07v159.57h-56.99V100.07h56.99Z"/><path d="M758.95,175.45l56.29,84.18h-62.28l-27.68-43.77-28.32,43.77h-60.3l57.88-81.31-52.04-78.25h62.93l23.32,38.27,24.76-38.27h57.58l-52.13,75.38Z"/><path d="M822.87,93.42v166.21h56.94V42.63c-53.13,0-56.74,41.76-56.94,50.8Z"/><path d="M899.96,93.42v166.21h56.94V42.63c-52.88,0-56.74,41.76-56.94,50.8Z"/><ellipse cx="601.06" cy="55.4" rx="32.68" ry="31.57"/><ellipse class="c" cx="1002.49" cy="229.77" rx="32.68" ry="31.57"/><g><path class="d" d="M1067.66,155.83v103.54h-12.57V42.58h131.37v11.23h-118.8v90.78h111.89v11.23h-111.89Z"/><path class="d" d="M1284.52,264.23c-23.05,0-41.17-7.33-54.37-22.01-13.2-14.67-19.8-34.86-19.8-60.57,0-16.6,2.99-31.12,8.96-43.57,5.97-12.45,14.56-22.11,25.77-29,11.2-6.88,24.56-10.32,40.07-10.32,23.05,0,41.17,7.34,54.37,22.01,13.2,14.68,19.8,34.97,19.8,60.88,0,16.4-2.98,30.81-8.95,43.26-5.97,12.45-14.56,22.12-25.77,29-11.21,6.88-24.57,10.32-40.07,10.32Zm.31-10.32c19.69,0,34.93-6.32,45.73-18.98,10.79-12.64,16.18-30.41,16.18-53.28s-5.4-41.19-16.18-53.74c-10.8-12.55-26.04-18.82-45.73-18.82s-34.94,6.28-45.72,18.82c-10.8,12.55-16.19,30.47-16.19,53.74s5.39,40.64,16.19,53.28c10.79,12.65,26.03,18.98,45.72,18.98Z"/><path class="d" d="M1398.29,259.37V42.58h11.94v216.79h-11.94Z"/><path class="d" d="M1455.17,70.52v-27.93h12.57v27.93h-12.57Zm.31,188.85V103.61h11.94v155.76h-11.94Z"/><path class="d" d="M1580.56,264.23c-23.05,0-41.17-7.33-54.37-22.01-13.2-14.67-19.8-34.86-19.8-60.57,0-16.6,2.99-31.12,8.96-43.57,5.97-12.45,14.56-22.11,25.77-29,11.2-6.88,24.56-10.32,40.07-10.32,23.05,0,41.17,7.34,54.37,22.01,13.2,14.68,19.8,34.97,19.8,60.88,0,16.4-2.98,30.81-8.95,43.26-5.97,12.45-14.56,22.12-25.77,29-11.21,6.88-24.57,10.32-40.07,10.32Zm.31-10.32c19.69,0,34.93-6.32,45.73-18.98,10.79-12.64,16.18-30.41,16.18-53.28s-5.4-41.19-16.18-53.74c-10.8-12.55-26.04-18.82-45.73-18.82s-34.94,6.28-45.72,18.82c-10.8,12.55-16.19,30.47-16.19,53.74s5.39,40.64,16.19,53.28c10.79,12.65,26.03,18.98,45.72,18.98Z"/></g></svg>