<svg xmlns="http://www.w3.org/2000/svg" width="400" height="130.825" viewBox="0 0 400 130.825">
  <g id="Group_3407" data-name="Group 3407" transform="translate(-261.583 704)">
    <g id="Group_6" data-name="Group 6" transform="translate(261.583 -704)">
      <path id="Path_19" data-name="Path 19" d="M126.321,706.829a2.664,2.664,0,0,1-.143-3.583l.034-.041a2.611,2.611,0,0,1,3.864-.16l3.346,3.366a2.619,2.619,0,0,0,3.72,0l.038-.038a2.658,2.658,0,0,0,0-3.743l-4.7-4.73a2.654,2.654,0,0,1-.426-3.172,57.6,57.6,0,0,0-9.3-68.769A56.735,56.735,0,0,0,54.395,616.6a2.613,2.613,0,0,1-3.152-.429l-6.208-6.246a2.62,2.62,0,0,0-3.72,0l-.038.038a2.658,2.658,0,0,0,0,3.743l4.866,4.9a2.638,2.638,0,0,1-.171,3.874l-.041.035a2.642,2.642,0,0,1-3.579-.16L29.617,609.539a2.62,2.62,0,0,0-3.72,0l-.038.038a2.658,2.658,0,0,0,0,3.743L38.61,626.148a2.656,2.656,0,0,1,.157,3.566l-.049.059a2.6,2.6,0,0,1-3.85.172l-7.622-7.668a2.619,2.619,0,0,0-3.72,0l-.038.038a2.658,2.658,0,0,0,0,3.743l8.964,9.019a2.655,2.655,0,0,1,.426,3.172,57.6,57.6,0,0,0,9.3,68.769,56.736,56.736,0,0,0,68.355,9.359,2.614,2.614,0,0,1,3.153.429l8.052,8.1a2.619,2.619,0,0,0,3.72,0l.038-.038a2.658,2.658,0,0,0,0-3.742l-6.7-6.738a2.649,2.649,0,0,1,.158-3.887l.041-.035a2.625,2.625,0,0,1,3.562.144l12.788,12.865a2.619,2.619,0,0,0,3.72,0l.038-.038a2.658,2.658,0,0,0,0-3.743ZM120.4,689.488l-.038.038a2.62,2.62,0,0,1-3.72,0l-6.058-6.094a2.618,2.618,0,0,0-4,.336l-.031.044a2.653,2.653,0,0,0,.279,3.407l9.055,9.111a2.658,2.658,0,0,1,0,3.743l-.038.038a2.621,2.621,0,0,1-3.72,0L103.071,691a2.614,2.614,0,0,0-3.386-.28l-.044.032a2.654,2.654,0,0,0-.334,4.023l3.3,3.322a2.658,2.658,0,0,1,0,3.742l-.038.039a2.62,2.62,0,0,1-3.72,0l-5.959-5.995a2.628,2.628,0,0,0-2.57-.674,29.467,29.467,0,0,1-28.793-7.655,29.893,29.893,0,0,1-7.608-28.967,2.667,2.667,0,0,0-.67-2.586l-5.837-5.873a2.657,2.657,0,0,1,0-3.743l.038-.038a2.62,2.62,0,0,1,3.72,0l3.176,3.2a2.622,2.622,0,0,0,4-.333l.032-.044a2.657,2.657,0,0,0-.28-3.408L47.3,634.892a2.658,2.658,0,0,1,0-3.743l.038-.038a2.619,2.619,0,0,1,3.72,0l10.8,10.865a2.617,2.617,0,0,0,3.388.281l.044-.032a2.658,2.658,0,0,0,.33-4.027l-5.019-5.05a2.657,2.657,0,0,1,0-3.743l.037-.038a2.62,2.62,0,0,1,3.72,0l7.68,7.727a2.629,2.629,0,0,0,2.57.674,29.467,29.467,0,0,1,28.793,7.655,29.9,29.9,0,0,1,7.609,28.967,2.666,2.666,0,0,0,.67,2.585l8.715,8.768a2.658,2.658,0,0,1,0,3.743" transform="translate(-17.452 -601.128)" fill="#f3fa2f"/>
      <path id="Path_20" data-name="Path 20" d="M18.277,596.182l-.757-.757a2.657,2.657,0,0,0-3.758,3.758l.757.757a2.657,2.657,0,1,0,3.758-3.758" transform="translate(-12.983 -594.646)" fill="#f3fa2f"/>
      <path id="Path_21" data-name="Path 21" d="M247.4,825.516l-.757-.757a2.657,2.657,0,1,0-3.758,3.758l.757.757a2.657,2.657,0,0,0,3.758-3.758" transform="translate(-118.17 -699.227)" fill="#f3fa2f"/>
    </g>
    <g id="Group_5" data-name="Group 5" transform="translate(429.099 -664.129)">
      <path id="Path_22" data-name="Path 22" d="M700.724,691.039c-5.694,4.24-7.254,7.285-9.208,18.416v0l-3.535,20.129h12.954l3.485-19.621q.909-5.228,3.712-7.31a12.567,12.567,0,0,1,7.652-2.084h3.561l2.424-13.712s-15.349-.062-21.043,4.177" transform="translate(-489.283 -676.408)" fill="#f1f1f1"/>
      <path id="Path_23" data-name="Path 23" d="M359.428,688.443H339.276l3.712-20.909H330.034l-9.393,53.182h12.954l3.864-22.045H357.61l-3.864,22.045H366.7l9.394-53.182H363.14Z" transform="translate(-320.64 -667.535)" fill="#f1f1f1"/>
      <path id="Path_24" data-name="Path 24" d="M641.627,691.014q-4.811-4.433-12.993-4.432a25.543,25.543,0,0,0-11.59,2.652,24.126,24.126,0,0,0-8.864,7.575,29.6,29.6,0,0,0-5.151,16.364q0,7.8,4.886,12.348t13.068,4.545a24.3,24.3,0,0,0,13.788-4.091,23.492,23.492,0,0,0,8.864-10.529H629.847a8.264,8.264,0,0,1-7.425,4.09,6.176,6.176,0,0,1-6.666-6.818,9.766,9.766,0,0,1,.075-1.439H645.15a30.5,30.5,0,0,0,.909-3.713,23.79,23.79,0,0,0,.379-4.47q0-7.651-4.81-12.083m-8.3,13.674H617.044a11.237,11.237,0,0,1,3.674-5.72,9.2,9.2,0,0,1,5.871-2.007,7.4,7.4,0,0,1,5,1.629,5.812,5.812,0,0,1,1.894,4.659,12.4,12.4,0,0,1-.152,1.439" transform="translate(-450.282 -676.279)" fill="#f1f1f1"/>
      <path id="Path_25" data-name="Path 25" d="M461.983,687.7l-14.394,26.44-5.152-26.44H428.044l10,40.833-10.02,15.987h13.8L476,687.7Z" transform="translate(-369.939 -676.793)" fill="#f1f1f1"/>
      <path id="Path_26" data-name="Path 26" d="M543.656,688.817a20.72,20.72,0,0,0-9.735-2.235,26.7,26.7,0,0,0-13.333,3.371,24.565,24.565,0,0,0-9.394,9.28,25.058,25.058,0,0,0-2.964,8.1l0-.009-6.455,36.681h12.957l2.777-15.729a21.149,21.149,0,0,0,8.839,1.787,27.137,27.137,0,0,0,13.371-3.333,24.57,24.57,0,0,0,9.47-9.2,25.48,25.48,0,0,0,3.447-13.144,18.12,18.12,0,0,0-2.349-9.318,16.162,16.162,0,0,0-6.629-6.25M537.823,712a12.9,12.9,0,0,1-3.939,5,9.208,9.208,0,0,1-5.72,1.932,6.8,6.8,0,0,1-5.076-2.007,7.82,7.82,0,0,1-1.97-5.72,16.031,16.031,0,0,1,1.364-6.515,12.81,12.81,0,0,1,3.825-5.038,9,9,0,0,1,5.72-1.931,6.983,6.983,0,0,1,5.152,2.045,7.89,7.89,0,0,1,2.046,5.833,15.24,15.24,0,0,1-1.4,6.4" transform="translate(-403.796 -676.279)" fill="#f1f1f1"/>
    </g>
  </g>
</svg>
