<svg width="413" height="77" viewBox="0 0 413 77" fill="none" xmlns="http://www.w3.org/2000/svg">
<path d="M376.342 58.2045C373.515 58.2045 371.165 57.5684 369.292 56.2962C367.455 54.9886 366.076 53.257 365.158 51.1013C364.239 48.9102 363.779 46.4895 363.779 43.839C363.779 41.0472 364.274 38.5734 365.264 36.4177C366.253 34.2267 367.72 32.5127 369.663 31.2758C371.607 30.0389 374.028 29.4205 376.926 29.4205C377.915 29.4205 378.887 29.5442 379.841 29.7915C380.831 30.0036 381.732 30.3393 382.545 30.7987C383.393 31.2228 384.117 31.7882 384.718 32.495V20.3029H392.139V57.8335C384.824 57.8335 384.824 54.7059 384.824 54.7059C384.188 55.5187 383.41 56.1902 382.492 56.7203C381.608 57.215 380.654 57.5861 379.629 57.8335C378.604 58.0808 377.509 58.2045 376.342 58.2045ZM377.827 51.5254C379.417 51.5254 380.707 51.1543 381.696 50.4122C382.721 49.67 383.481 48.7159 383.976 47.5497C384.471 46.3835 384.718 45.1289 384.718 43.786C384.718 42.4078 384.471 41.1532 383.976 40.0223C383.516 38.8561 382.774 37.9373 381.749 37.2659C380.76 36.5591 379.452 36.2057 377.827 36.2057C376.201 36.2057 374.894 36.5767 373.904 37.3189C372.915 38.061 372.208 39.0328 371.784 40.2344C371.395 41.4006 371.201 42.6551 371.201 43.998C371.201 44.9875 371.307 45.9417 371.519 46.8605C371.766 47.744 372.155 48.5392 372.685 49.246C373.215 49.9527 373.904 50.5182 374.752 50.9423C375.6 51.331 376.625 51.5254 377.827 51.5254Z" fill="white"/>
<path d="M347.124 58.2044C344.191 58.2044 341.699 57.6213 339.65 56.4551C337.6 55.2889 336.027 53.6456 334.932 51.5252C333.836 49.3695 333.289 46.8604 333.289 43.9979C333.289 41.1001 333.854 38.5733 334.985 36.4176C336.116 34.2265 337.706 32.5126 339.756 31.2757C341.841 30.0388 344.297 29.4203 347.124 29.4203C349.244 29.4203 351.1 29.7737 352.69 30.4805C354.316 31.1873 355.676 32.1768 356.772 33.4491C357.903 34.7213 358.733 36.2055 359.263 37.9018C359.829 39.5628 360.094 41.3651 360.058 43.3088C360.058 43.8035 360.041 44.2806 360.005 44.74C359.97 45.1994 359.899 45.6589 359.793 46.1183H340.657C340.763 47.1785 341.063 48.1503 341.558 49.0338C342.053 49.9173 342.742 50.6241 343.625 51.1542C344.544 51.6489 345.675 51.8963 347.018 51.8963C347.901 51.8963 348.714 51.8079 349.456 51.6312C350.199 51.4192 350.835 51.1012 351.365 50.6771C351.895 50.253 352.266 49.7582 352.478 49.1928H359.793C359.334 51.2778 358.468 52.9918 357.196 54.3347C355.959 55.6776 354.457 56.6671 352.69 57.3032C350.923 57.904 349.068 58.2044 347.124 58.2044ZM340.816 40.9234H352.955C352.92 39.9692 352.672 39.0857 352.213 38.2729C351.789 37.4248 351.135 36.7533 350.252 36.2585C349.403 35.7285 348.308 35.4634 346.965 35.4634C345.622 35.4634 344.491 35.7285 343.572 36.2585C342.689 36.7886 342.017 37.4778 341.558 38.3259C341.134 39.1387 340.887 40.0045 340.816 40.9234Z" fill="white"/>
<path d="M324.089 58.2047C320.944 58.2047 318.611 57.3212 317.092 55.5542C315.608 53.7873 314.865 51.3665 314.865 48.292V36.5239H310.678V29.8977H314.865C314.865 22.3704 322.287 22.3704 322.287 22.3704V29.8977H330.768V36.5239H322.287V46.7547C322.287 47.6735 322.393 48.4687 322.605 49.1401C322.852 49.8116 323.241 50.3417 323.771 50.7304C325.556 51.8461 328.081 51.8408 329.842 51.1193L330.196 57.4804C328.075 58.0459 326.487 58.2047 324.089 58.2047Z" fill="white"/>
<path d="M299.388 57.8333V29.8974H306.81V57.8333H299.388ZM303.099 27.0879C301.721 27.0879 300.607 26.6815 299.759 25.8687C298.911 25.0206 298.487 23.9427 298.487 22.6352C298.487 21.2569 298.929 20.1437 299.812 19.2956C300.696 18.4474 301.809 18.0233 303.152 18.0233C304.389 18.0233 305.449 18.4474 306.332 19.2956C307.251 20.1084 307.711 21.2039 307.711 22.5821C307.711 23.925 307.269 25.0206 306.385 25.8687C305.537 26.6815 304.442 27.0879 303.099 27.0879Z" fill="white"/>
<path d="M268.706 57.8333V29.8974C276.022 29.8974 276.022 33.131 276.022 33.131C276.799 32.1768 277.683 31.4347 278.672 30.9046C279.697 30.3392 280.722 29.9504 281.747 29.7384C282.807 29.5264 283.761 29.4203 284.609 29.4203C287.295 29.4203 289.38 30.0035 290.864 31.1697C292.384 32.3359 293.462 33.9085 294.098 35.8875C294.769 37.8312 295.105 40.0045 295.105 42.4076V57.8333H287.684V43.3618C287.684 42.5136 287.613 41.6655 287.472 40.8173C287.33 39.9692 287.065 39.1917 286.676 38.4849C286.323 37.7781 285.811 37.2127 285.139 36.7886C284.468 36.3646 283.584 36.1525 282.489 36.1525C281.075 36.1525 279.891 36.5059 278.937 37.2127C277.983 37.9195 277.276 38.8737 276.817 40.0752C276.357 41.2768 276.128 42.602 276.128 44.0509V57.8333H268.706Z" fill="white"/>
<path d="M248.44 58.2575C244.765 58.2575 241.744 57.5684 239.376 56.1902C237.043 54.8119 235.312 52.8329 234.181 50.2531C233.085 47.6734 232.538 44.5811 232.538 40.9765V20.3029H240.118V41.3476C240.118 43.0439 240.365 44.6518 240.86 46.1714C241.39 47.6557 242.256 48.8749 243.458 49.8291C244.694 50.7479 246.373 51.2073 248.493 51.2073C250.649 51.2073 252.31 50.7479 253.476 49.8291C254.642 48.8749 255.455 47.638 255.915 46.1184C256.374 44.5988 256.604 43.0085 256.604 41.3476V20.3029H264.184V40.9765C264.184 44.5458 263.636 47.638 262.541 50.2531C261.445 52.8329 259.731 54.8119 257.399 56.1902C255.067 57.5684 252.08 58.2575 248.44 58.2575Z" fill="white"/>
<path d="M191.764 57.8336L182.964 29.8977H191.075L196.269 49.3521L201.782 29.8977H210.105L215.618 49.3521L220.707 29.8977H228.711L219.912 57.8336H211.377L205.811 38.9623L200.298 57.8336H191.764Z" fill="white"/>
<path d="M168.495 58.2044C165.667 58.2044 163.194 57.639 161.073 56.5081C158.953 55.3419 157.31 53.6986 156.143 51.5782C154.977 49.4225 154.394 46.8781 154.394 43.9449C154.394 40.941 154.977 38.3612 156.143 36.2055C157.345 34.0145 159.006 32.3359 161.126 31.1697C163.247 30.0035 165.685 29.4203 168.442 29.4203C171.269 29.4203 173.725 30.0211 175.81 31.2227C177.895 32.4242 179.52 34.1028 180.687 36.2585C181.853 38.4143 182.436 40.994 182.436 43.9979C182.436 46.9311 181.853 49.4755 180.687 51.6312C179.556 53.7516 177.948 55.3772 175.863 56.5081C173.813 57.639 171.357 58.2044 168.495 58.2044ZM168.388 51.4192C170.014 51.4192 171.322 51.0658 172.311 50.359C173.301 49.6522 174.007 48.7334 174.432 47.6025C174.891 46.4363 175.121 45.2171 175.121 43.9449C175.121 42.6727 174.891 41.4535 174.432 40.2873C174.007 39.121 173.301 38.1669 172.311 37.4248C171.357 36.6473 170.049 36.2585 168.388 36.2585C166.798 36.2585 165.508 36.6473 164.519 37.4248C163.529 38.1669 162.805 39.121 162.345 40.2873C161.921 41.4535 161.709 42.6727 161.709 43.9449C161.709 45.2525 161.921 46.4717 162.345 47.6025C162.805 48.7334 163.529 49.6522 164.519 50.359C165.508 51.0658 166.798 51.4192 168.388 51.4192Z" fill="white"/>
<path d="M135.162 57.8333V29.8974C135.162 29.8974 142.318 29.8974 142.318 33.237C142.318 33.237 143.82 31.3817 144.703 30.8516C145.587 30.2862 146.506 29.9151 147.46 29.7384C148.414 29.5264 149.386 29.4203 150.375 29.4203C150.835 29.4203 151.259 29.438 151.648 29.4734C152.036 29.4734 152.319 29.4734 152.496 29.4734V36.6296H150.746C149.085 36.6296 147.636 36.9123 146.4 37.4778C145.163 38.0432 144.209 38.9267 143.537 40.1282C142.901 41.3298 142.583 42.867 142.583 44.74V57.8333H135.162Z" fill="white"/>
<path d="M114.059 58.2574C110.242 58.2574 106.991 57.4623 104.305 55.872C101.62 54.2464 99.5698 52.0023 98.1563 49.1398C96.7427 46.242 96.0359 42.867 96.0359 39.015C96.0359 36.1525 96.4246 33.5551 97.2021 31.2227C98.0149 28.8549 99.1811 26.8229 100.701 25.1266C102.256 23.4303 104.146 22.1404 106.373 21.2569C108.599 20.3381 111.126 19.8787 113.953 19.8787C116.816 19.8787 119.378 20.3381 121.639 21.2569C123.901 22.1757 125.774 23.554 127.258 25.3916C128.778 27.1939 129.767 29.4557 130.227 32.1768H122.541C122.258 31.0106 121.745 30.0564 121.003 29.3143C120.261 28.5368 119.325 27.9537 118.194 27.565C117.098 27.1763 115.844 26.9819 114.43 26.9819C112.486 26.9819 110.843 27.3176 109.5 27.9891C108.157 28.6605 107.062 29.5794 106.214 30.7456C105.401 31.8764 104.8 33.184 104.411 34.6683C104.058 36.1172 103.881 37.6191 103.881 39.174C103.881 41.2944 104.235 43.2734 104.941 45.1111C105.648 46.9134 106.761 48.38 108.281 49.5109C109.801 50.6064 111.815 51.1541 114.324 51.1541C115.985 51.1541 117.452 50.9068 118.724 50.412C120.031 49.8819 121.074 49.1045 121.851 48.0796C122.664 47.0194 123.124 45.7472 123.23 44.2629H114.412C114.412 37.7428 118.194 37.7428 118.194 37.7428H131.022V39.8102C131.022 43.6268 130.386 46.9134 129.114 49.6699C127.841 52.4264 125.951 54.5467 123.442 56.031C120.933 57.5153 117.805 58.2574 114.059 58.2574Z" fill="white"/>
<path d="M401.963 12.8241V8.23856H400.24V7.1779H404.842V8.23856H403.111V12.8241H401.963ZM405.509 12.8241V7.1779H407.025L408.532 9.9053L410.023 7.1779H411.483V12.8241H410.342V8.7011L408.739 11.5641H408.277L406.65 8.7011V12.8241H405.509Z" fill="white"/>
<path d="M39.4692 0.583311C60.5481 0.58331 77.1647 21.0802 77.1647 37.8076C77.1647 62.3097 56.4322 76.9167 38.0556 76.9167C16.9767 76.9167 0.831298 64.6657 0.831297 39.6924C0.831296 18.6135 20.857 0.583312 39.4692 0.583311Z" fill="white"/>
<path fill-rule="evenodd" clip-rule="evenodd" d="M42.2847 32.9311L57.4574 17.7583L42.2847 17.7583L42.2847 32.9311ZM39.2033 17.7583L39.2033 36.0124L29.6889 45.5269L29.6889 18.4418C31.1973 17.997 32.7941 17.7583 34.4467 17.7583H39.2033ZM26.6076 48.6082L26.6076 19.6964C21.2821 22.5125 17.6533 28.1083 17.6533 34.5517L17.6533 57.5625L26.6076 48.6082ZM19.8318 59.7417L42.8433 59.7417C49.2871 59.7417 54.8832 56.1125 57.6991 50.7865L28.7869 50.7865L19.8318 59.7417ZM58.9535 47.7052C59.3981 46.197 59.6367 44.6006 59.6367 42.9484V38.1914L41.3821 38.1914L31.8683 47.7052L58.9535 47.7052ZM59.6367 19.9367L59.6367 35.11L44.4634 35.11L59.6367 19.9367Z" fill="#1C1C1C"/>
</svg>
