<svg width="413" height="77" viewBox="0 0 413 77" fill="none" xmlns="http://www.w3.org/2000/svg">
<path d="M376.342 57.7045C373.515 57.7045 371.165 57.0684 369.292 55.7962C367.455 54.4886 366.076 52.757 365.158 50.6013C364.239 48.4102 363.779 45.9894 363.779 43.339C363.779 40.5472 364.274 38.0734 365.264 35.9177C366.253 33.7266 367.72 32.0127 369.663 30.7758C371.607 29.5389 374.028 28.9205 376.926 28.9205C377.915 28.9205 378.887 29.0441 379.841 29.2915C380.831 29.5036 381.732 29.8393 382.545 30.2987C383.393 30.7228 384.117 31.2882 384.718 31.995V19.8029H392.139V57.3334C384.824 57.3334 384.824 54.2059 384.824 54.2059C384.188 55.0187 383.41 55.6901 382.492 56.2202C381.608 56.715 380.654 57.0861 379.629 57.3334C378.604 57.5808 377.509 57.7045 376.342 57.7045ZM377.827 51.0253C379.417 51.0253 380.707 50.6543 381.696 49.9121C382.721 49.17 383.481 48.2158 383.976 47.0496C384.471 45.8834 384.718 44.6289 384.718 43.286C384.718 41.9077 384.471 40.6532 383.976 39.5223C383.516 38.3561 382.774 37.4373 381.749 36.7658C380.76 36.059 379.452 35.7056 377.827 35.7056C376.201 35.7056 374.894 36.0767 373.904 36.8188C372.915 37.561 372.208 38.5328 371.784 39.7344C371.395 40.9006 371.201 42.1551 371.201 43.498C371.201 44.4875 371.307 45.4417 371.519 46.3605C371.766 47.244 372.155 48.0391 372.685 48.7459C373.215 49.4527 373.904 50.0182 374.752 50.4422C375.6 50.831 376.625 51.0253 377.827 51.0253Z" fill="#1C1C1C"/>
<path d="M347.124 57.7043C344.191 57.7043 341.699 57.1212 339.65 55.955C337.6 54.7888 336.027 53.1455 334.932 51.0252C333.836 48.8694 333.289 46.3603 333.289 43.4978C333.289 40.6 333.854 38.0732 334.985 35.9175C336.116 33.7265 337.706 32.0125 339.756 30.7756C341.841 29.5387 344.297 28.9203 347.124 28.9203C349.244 28.9203 351.1 29.2737 352.69 29.9805C354.316 30.6873 355.676 31.6768 356.772 32.949C357.903 34.2212 358.733 35.7055 359.263 37.4018C359.829 39.0627 360.094 40.865 360.058 42.8087C360.058 43.3035 360.041 43.7806 360.005 44.24C359.97 44.6994 359.899 45.1588 359.793 45.6182H340.657C340.763 46.6784 341.063 47.6502 341.558 48.5337C342.053 49.4172 342.742 50.124 343.625 50.6541C344.544 51.1489 345.675 51.3962 347.018 51.3962C347.901 51.3962 348.714 51.3079 349.456 51.1312C350.199 50.9191 350.835 50.6011 351.365 50.177C351.895 49.7529 352.266 49.2582 352.478 48.6928H359.793C359.334 50.7778 358.468 52.4918 357.196 53.8347C355.959 55.1776 354.457 56.1671 352.69 56.8032C350.923 57.4039 349.068 57.7043 347.124 57.7043ZM340.816 40.4233H352.955C352.92 39.4691 352.672 38.5856 352.213 37.7728C351.789 36.9247 351.135 36.2532 350.252 35.7585C349.403 35.2284 348.308 34.9633 346.965 34.9633C345.622 34.9633 344.491 35.2284 343.572 35.7585C342.689 36.2886 342.017 36.9777 341.558 37.8258C341.134 38.6387 340.887 39.5045 340.816 40.4233Z" fill="#1C1C1C"/>
<path d="M324.089 57.7047C320.944 57.7047 318.611 56.8212 317.092 55.0542C315.608 53.2873 314.865 50.8665 314.865 47.792V36.0239H310.678V29.3977H314.865C314.865 21.8704 322.287 21.8704 322.287 21.8704V29.3977H330.768V36.0239H322.287V46.2547C322.287 47.1735 322.393 47.9687 322.605 48.6401C322.852 49.3116 323.241 49.8417 323.771 50.2304C325.556 51.3461 328.081 51.3408 329.842 50.6193L330.196 56.9804C328.075 57.5459 326.487 57.7047 324.089 57.7047Z" fill="#1C1C1C"/>
<path d="M299.388 57.3333V29.3974H306.81V57.3333H299.388ZM303.099 26.5879C301.721 26.5879 300.607 26.1815 299.759 25.3687C298.911 24.5205 298.487 23.4427 298.487 22.1351C298.487 20.7569 298.929 19.6437 299.812 18.7955C300.696 17.9474 301.809 17.5233 303.152 17.5233C304.389 17.5233 305.449 17.9474 306.332 18.7955C307.251 19.6083 307.711 20.7039 307.711 22.0821C307.711 23.425 307.269 24.5205 306.385 25.3687C305.537 26.1815 304.442 26.5879 303.099 26.5879Z" fill="#1C1C1C"/>
<path d="M268.706 57.3333V29.3974C276.022 29.3974 276.022 32.6309 276.022 32.6309C276.799 31.6768 277.683 30.9346 278.672 30.4045C279.697 29.8391 280.722 29.4504 281.747 29.2383C282.807 29.0263 283.761 28.9203 284.609 28.9203C287.295 28.9203 289.38 29.5034 290.864 30.6696C292.384 31.8358 293.462 33.4084 294.098 35.3874C294.769 37.3311 295.105 39.5045 295.105 41.9076V57.3333H287.684V42.8617C287.684 42.0136 287.613 41.1654 287.472 40.3173C287.33 39.4691 287.065 38.6917 286.676 37.9849C286.323 37.2781 285.811 36.7127 285.139 36.2886C284.468 35.8645 283.584 35.6525 282.489 35.6525C281.075 35.6525 279.891 36.0059 278.937 36.7127C277.983 37.4194 277.276 38.3736 276.817 39.5752C276.357 40.7767 276.128 42.1019 276.128 43.5509V57.3333H268.706Z" fill="#1C1C1C"/>
<path d="M248.44 57.7575C244.765 57.7575 241.744 57.0684 239.376 55.6901C237.043 54.3119 235.312 52.3329 234.181 49.7531C233.085 47.1733 232.538 44.0811 232.538 40.4765V19.8029H240.118V40.8475C240.118 42.5438 240.365 44.1518 240.86 45.6714C241.39 47.1557 242.256 48.3749 243.458 49.329C244.694 50.2479 246.373 50.7073 248.493 50.7073C250.649 50.7073 252.31 50.2479 253.476 49.329C254.642 48.3749 255.455 47.138 255.915 45.6184C256.374 44.0988 256.604 42.5085 256.604 40.8475V19.8029H264.184V40.4765C264.184 44.0458 263.636 47.138 262.541 49.7531C261.445 52.3329 259.731 54.3119 257.399 55.6901C255.067 57.0684 252.08 57.7575 248.44 57.7575Z" fill="#1C1C1C"/>
<path d="M191.764 57.3335L182.964 29.3976H191.075L196.269 48.8521L201.782 29.3976H210.105L215.618 48.8521L220.707 29.3976H228.711L219.912 57.3335H211.377L205.811 38.4622L200.298 57.3335H191.764Z" fill="#1C1C1C"/>
<path d="M168.495 57.7043C165.667 57.7043 163.194 57.1389 161.073 56.008C158.953 54.8418 157.31 53.1985 156.143 51.0782C154.977 48.9225 154.394 46.378 154.394 43.4448C154.394 40.441 154.977 37.8612 156.143 35.7055C157.345 33.5144 159.006 31.8358 161.126 30.6696C163.247 29.5034 165.685 28.9203 168.442 28.9203C171.269 28.9203 173.725 29.5211 175.81 30.7226C177.895 31.9241 179.52 33.6028 180.687 35.7585C181.853 37.9142 182.436 40.494 182.436 43.4978C182.436 46.431 181.853 48.9755 180.687 51.1312C179.556 53.2516 177.948 54.8772 175.863 56.008C173.813 57.1389 171.357 57.7043 168.495 57.7043ZM168.388 50.9191C170.014 50.9191 171.322 50.5657 172.311 49.859C173.301 49.1522 174.007 48.2333 174.432 47.1025C174.891 45.9363 175.121 44.7171 175.121 43.4448C175.121 42.1726 174.891 40.9534 174.432 39.7872C174.007 38.621 173.301 37.6668 172.311 36.9247C171.357 36.1472 170.049 35.7585 168.388 35.7585C166.798 35.7585 165.508 36.1472 164.519 36.9247C163.529 37.6668 162.805 38.621 162.345 39.7872C161.921 40.9534 161.709 42.1726 161.709 43.4448C161.709 44.7524 161.921 45.9716 162.345 47.1025C162.805 48.2333 163.529 49.1522 164.519 49.859C165.508 50.5657 166.798 50.9191 168.388 50.9191Z" fill="#1C1C1C"/>
<path d="M135.162 57.3333V29.3974C135.162 29.3974 142.318 29.3974 142.318 32.737C142.318 32.737 143.82 30.8816 144.703 30.3515C145.587 29.7861 146.506 29.415 147.46 29.2383C148.414 29.0263 149.386 28.9203 150.375 28.9203C150.835 28.9203 151.259 28.938 151.648 28.9733C152.036 28.9733 152.319 28.9733 152.496 28.9733V36.1296H150.746C149.085 36.1296 147.636 36.4123 146.4 36.9777C145.163 37.5431 144.209 38.4266 143.537 39.6282C142.901 40.8297 142.583 42.367 142.583 44.24V57.3333H135.162Z" fill="#1C1C1C"/>
<path d="M114.059 57.7574C110.242 57.7574 106.991 56.9623 104.305 55.372C101.62 53.7464 99.5698 51.5023 98.1563 48.6398C96.7427 45.742 96.0359 42.367 96.0359 38.515C96.0359 35.6525 96.4246 33.0551 97.2021 30.7227C98.0149 28.3549 99.1811 26.3229 100.701 24.6266C102.256 22.9303 104.146 21.6404 106.373 20.7569C108.599 19.8381 111.126 19.3787 113.953 19.3787C116.816 19.3787 119.378 19.8381 121.639 20.7569C123.901 21.6757 125.774 23.054 127.258 24.8916C128.778 26.6939 129.767 28.9557 130.227 31.6768H122.541C122.258 30.5106 121.745 29.5564 121.003 28.8143C120.261 28.0368 119.325 27.4537 118.194 27.065C117.098 26.6763 115.844 26.4819 114.43 26.4819C112.486 26.4819 110.843 26.8176 109.5 27.4891C108.157 28.1605 107.062 29.0794 106.214 30.2456C105.401 31.3764 104.8 32.684 104.411 34.1683C104.058 35.6172 103.881 37.1191 103.881 38.674C103.881 40.7944 104.235 42.7734 104.941 44.6111C105.648 46.4134 106.761 47.88 108.281 49.0109C109.801 50.1064 111.815 50.6541 114.324 50.6541C115.985 50.6541 117.452 50.4068 118.724 49.912C120.031 49.3819 121.074 48.6045 121.851 47.5796C122.664 46.5194 123.124 45.2472 123.23 43.7629H114.412C114.412 37.2428 118.194 37.2428 118.194 37.2428H131.022V39.3102C131.022 43.1268 130.386 46.4134 129.114 49.1699C127.841 51.9264 125.951 54.0467 123.442 55.531C120.933 57.0153 117.805 57.7574 114.059 57.7574Z" fill="#1C1C1C"/>
<path d="M401.963 12.324V7.7385H400.24V6.67784H404.842V7.7385H403.111V12.324H401.963ZM405.509 12.324V6.67784H407.025L408.532 9.40524L410.023 6.67784H411.483V12.324H410.342V8.20104L408.739 11.064H408.277L406.65 8.20104V12.324H405.509Z" fill="#1C1C1C"/>
<path d="M39.4692 0.0833113C60.5481 0.0833104 77.1647 20.5802 77.1647 37.3076C77.1647 61.8097 56.4322 76.4167 38.0556 76.4167C16.9767 76.4167 0.831298 64.1657 0.831297 39.1924C0.831296 18.1135 20.857 0.0833121 39.4692 0.0833113Z" fill="#1C1C1C"/>
<path fill-rule="evenodd" clip-rule="evenodd" d="M42.2847 32.431L57.4574 17.2583L42.2847 17.2583L42.2847 32.431ZM39.2033 17.2583L39.2033 35.5124L29.6889 45.0269L29.6889 17.9418C31.1973 17.497 32.7941 17.2583 34.4467 17.2583H39.2033ZM26.6076 48.1082L26.6076 19.1964C21.2821 22.0125 17.6533 27.6083 17.6533 34.0516L17.6533 57.0625L26.6076 48.1082ZM19.8318 59.2417L42.8433 59.2417C49.2871 59.2417 54.8832 55.6124 57.6991 50.2865L28.7869 50.2865L19.8318 59.2417ZM58.9535 47.2052C59.3981 45.697 59.6367 44.1005 59.6367 42.4483V37.6913L41.3821 37.6913L31.8683 47.2052L58.9535 47.2052ZM59.6367 19.4367L59.6367 34.61L44.4634 34.61L59.6367 19.4367Z" fill="white"/>
</svg>
