<?xml version="1.0" encoding="UTF-8"?>
<svg id="Layer_2" xmlns="http://www.w3.org/2000/svg" viewBox="0 0 210.81 49.19">
  <defs>
    <style>
      .cls-1 {
        fill: #001233;
      }

      .cls-2 {
        fill: #70e000;
      }
    </style>
  </defs>
  <g id="Layer_1-2" data-name="Layer_1">
    <g>
      <g>
        <path class="cls-1" d="M85.47,4.39h10.62v34.65h22.6v8.82h-33.22V4.39Z"/>
        <path class="cls-1" d="M121.68,16.8h10.62v31.04h-10.62v-31.04ZM132.61,6.09c0,3.37-2.73,6.09-6.09,6.09s-6.09-2.73-6.09-6.09,2.73-6.09,6.09-6.09,6.09,2.73,6.09,6.09Z"/>
        <path class="cls-1" d="M135.62,16.8h10.62v5.96c.95-2.44,2.43-4.21,4.44-5.31,2.01-1.1,4.67-1.65,7.98-1.65,3.48,0,6.21.5,8.2,1.49s3.4,2.63,4.25,4.91c.85,2.28,1.23,5.4,1.15,9.38v16.27h-10.62v-16.27c0-2.77-.56-4.7-1.68-5.77-1.12-1.08-3.1-1.61-5.96-1.61-2.69,0-4.65.56-5.87,1.68s-1.85,2.94-1.89,5.46v16.52h-10.62v-31.04Z"/>
        <path class="cls-1" d="M174.92,4.39h10.62v26.33l12.29-13.91h12.98l-13.72,15.52,13.72,15.52h-12.98l-12.29-13.91v13.91h-10.62V4.39Z"/>
      </g>
      <path class="cls-2" d="M40.68,33.73c2.24-.99,3.84-2.58,4.81-4.75.97-2.17,1.46-5.12,1.46-8.85,0-3.93-.54-7.03-1.61-9.28-1.08-2.26-2.83-3.87-5.25-4.84-2.42-.97-5.79-1.46-10.09-1.46l-12.6-.12c3.2,1.79,5.43,5.1,5.72,8.94h6.88c.41,0,.8.02,1.17.04.04,0,.07,0,.11,0,3.95,0,7.15,3.38,7.15,7.55s-3.2,7.55-7.15,7.55c-.07,0-.15,0-.22-.01-.04,0-.06.01-.1.01h-7.84c.03.33.05.65.05.99v5.97h6.58l7.14,12.54h11.92l-8.13-14.28ZM21.17,29.93v8.99c0,5.66-4.61,10.27-10.27,10.27h-.62c-5.67,0-10.27-4.61-10.27-10.27v-8.99c0-1.19.21-2.33.58-3.4,1-2.84,3.21-5.11,6.01-6.19,1.14-.44,2.38-.68,3.68-.68h.62c.76,0,1.5.09,2.22.24v3.23c0,.9-.54,1.7-1.37,2.05l-2.89,1.35c-1.31.56-2.27,1.88-2.27,3.4v8.99c0,2.03,1.65,3.68,3.68,3.68h.62c2.03,0,3.68-1.65,3.68-3.68v-4.63l.53-.2c2.57-.99,4.68-2.83,6.01-5.19.03.34.06.68.06,1.03ZM10.27,3.77C4.61,3.77,0,8.38,0,14.05v8.99c0,.35.02.69.06,1.03,1.33-2.36,3.44-4.2,6.01-5.19l.53-.2v-4.63c0-2.03,1.65-3.68,3.68-3.68h.62c2.03,0,3.68,1.65,3.68,3.68v8.99c0,1.52-.95,2.83-2.27,3.4l-2.89,1.35c-.83.35-1.37,1.15-1.37,2.05v3.23c.71.16,1.46.24,2.22.24h.62c1.3,0,2.54-.24,3.68-.68,2.8-1.08,5.01-3.35,6.01-6.19.37-1.06.58-2.21.58-3.4v-8.99c0-5.66-4.61-10.27-10.27-10.27h-.62Z"/>
      <path class="cls-1" d="M53.38,23.03h23.83v8.89h-23.83v-8.89Z"/>
    </g>
  </g>
</svg>