<?xml version="1.0" encoding="UTF-8"?>
<svg id="Layer_2" xmlns="http://www.w3.org/2000/svg" viewBox="0 0 69.76 69.76">
  <defs>
    <style>
      .cls-1 {
        fill: #001233;
      }

      .cls-2 {
        fill: #70e000;
      }
    </style>
  </defs>
  <g id="Layer_1-2" data-name="Layer_1">
    <g>
      <circle class="cls-2" cx="34.88" cy="34.88" r="34.88"/>
      <path class="cls-1" d="M48.78,40.81c1.87-.83,3.21-2.16,4.03-3.97.81-1.82,1.22-4.29,1.22-7.4,0-3.29-.45-5.88-1.35-7.77-.9-1.89-2.36-3.24-4.39-4.05-2.03-.81-4.84-1.22-8.44-1.22l-10.54-.1c2.67,1.5,4.54,4.26,4.79,7.48h5.76c.35,0,.67.02.98.04.03,0,.06,0,.09,0,3.3,0,5.98,2.83,5.98,6.32s-2.68,6.32-5.98,6.32c-.06,0-.12,0-.18,0-.03,0-.05,0-.08,0h-6.56c.02.27.05.55.05.83v5h5.51l5.98,10.5h9.98l-6.81-11.95ZM32.46,37.62v7.53c0,4.74-3.86,8.6-8.6,8.6h-.52c-4.74,0-8.6-3.86-8.6-8.6v-7.53c0-1,.17-1.95.49-2.84.84-2.38,2.69-4.28,5.03-5.18.96-.37,2-.57,3.08-.57h.52c.64,0,1.26.07,1.86.2v2.71c0,.75-.45,1.42-1.14,1.71l-2.42,1.13c-1.1.47-1.9,1.57-1.9,2.84v7.53c0,1.7,1.38,3.08,3.08,3.08h.52c1.7,0,3.08-1.38,3.08-3.08v-3.87l.44-.17c2.15-.83,3.91-2.37,5.03-4.34.03.28.05.57.05.86ZM23.34,15.74c-4.74,0-8.6,3.86-8.6,8.6v7.53c0,.29.02.58.05.86,1.11-1.97,2.88-3.51,5.03-4.34l.44-.17v-3.87c0-1.7,1.38-3.08,3.08-3.08h.52c1.7,0,3.08,1.38,3.08,3.08v7.53c0,1.27-.8,2.37-1.9,2.84l-2.42,1.13c-.69.29-1.14.96-1.14,1.71v2.71c.6.13,1.22.2,1.86.2h.52c1.09,0,2.12-.2,3.08-.57,2.34-.9,4.19-2.8,5.03-5.18.31-.89.49-1.85.49-2.84v-7.53c0-4.74-3.86-8.6-8.6-8.6h-.52Z"/>
    </g>
  </g>
</svg>