<?xml version="1.0" encoding="UTF-8"?>
<svg id="Layer_2" xmlns="http://www.w3.org/2000/svg" viewBox="0 0 336.51 68.79">
  <defs>
    <style>
      .cls-1 {
        fill: #8c8c8c;
      }

      .cls-2 {
        fill: #001233;
      }

      .cls-3 {
        fill: #70e000;
      }
    </style>
  </defs>
  <g id="Layer_1-2" data-name="Layer_1">
    <g>
      <g>
        <path class="cls-1" d="M4.93,68.38c-.29.22-.73.33-1.32.33H0v-5.45h3.6c.63,0,1.08.12,1.37.37.28.25.42.64.42,1.19v2.49c-.03.49-.18.84-.47,1.07ZM1.61,67.63h1.63c.36,0,.54-.16.54-.47v-2.33c0-.31-.18-.47-.54-.47h-1.65l.02,3.27Z"/>
        <path class="cls-1" d="M16.19,68.72h-4.96v-5.45h4.96v1.09h-3.35v1.05h2.64v1.09h-2.64v1.13h3.35v1.09Z"/>
        <path class="cls-1" d="M22.45,63.64c.28-.25.74-.37,1.37-.37h3.22v1.09h-2.86c-.36,0-.54.16-.54.47v2.33c0,.31.18.47.54.47h2.86v1.09h-3.22c-.6,0-1.04-.11-1.32-.33s-.44-.58-.47-1.07v-2.49c0-.54.14-.94.42-1.19Z"/>
        <path class="cls-1" d="M37.84,68.72h-4.96v-5.45h4.96v1.09h-3.35v1.05h2.64v1.09h-2.64v1.13h3.35v1.09Z"/>
        <path class="cls-1" d="M49.12,68.72h-1.7l-2.15-3.27v3.27h-1.61v-5.45h1.7l2.15,3.27v-3.27h1.61v5.45Z"/>
        <path class="cls-1" d="M58.45,68.72h-1.61v-4.36h-1.88v-1.09h5.37v1.09h-1.88v4.36Z"/>
        <path class="cls-1" d="M66.16,63.27h3.76c.63,0,1.08.12,1.37.37.28.25.42.64.42,1.19v.7c0,.44-.08.77-.25,1.01-.16.24-.42.39-.78.47l1.11,1.71h-1.74l-1.03-1.63h-1.25v1.63h-1.61v-5.45ZM69.56,65.99c.36,0,.54-.16.54-.47v-.7c0-.31-.18-.47-.54-.47h-1.79v1.63h1.79Z"/>
        <path class="cls-1" d="M79.3,68.72h-1.67l2.22-5.45h1.98l2.29,5.45h-1.77l-.33-.9h-2.39l-.33.9ZM81.54,66.73l-.72-1.83-.71,1.83h1.43Z"/>
        <path class="cls-1" d="M91.57,67.63h3.27v1.09h-4.88v-5.45h1.61v4.36Z"/>
        <path class="cls-1" d="M100.67,68.72v-5.45h1.61v5.45h-1.61Z"/>
        <path class="cls-1" d="M113.21,64.36l-3.13,3.27h3.13v1.09h-5.1v-1.09l3.13-3.27h-3.13v-1.09h5.1v1.09Z"/>
        <path class="cls-1" d="M124.01,68.72h-4.96v-5.45h4.96v1.09h-3.35v1.05h2.64v1.09h-2.64v1.13h3.35v1.09Z"/>
        <path class="cls-1" d="M134.77,68.38c-.29.22-.73.33-1.32.33h-3.6v-5.45h3.6c.63,0,1.08.12,1.37.37.28.25.42.64.42,1.19v2.49c-.03.49-.18.84-.47,1.07ZM131.46,67.63h1.63c.36,0,.54-.16.54-.47v-2.33c0-.31-.18-.47-.54-.47h-1.65l.02,3.27Z"/>
        <path class="cls-1" d="M153.28,67.08l1.52-3.81h1.74l-2.37,5.45h-1.79l-2.37-5.45h1.74l1.52,3.81Z"/>
        <path class="cls-1" d="M162.38,68.72v-5.45h1.61v5.45h-1.61Z"/>
        <path class="cls-1" d="M174.75,68.38c-.29.22-.73.33-1.32.33h-3.6v-5.45h3.6c.63,0,1.08.12,1.37.37.28.25.42.64.42,1.19v2.49c-.03.49-.18.84-.47,1.07ZM171.44,67.63h1.63c.36,0,.54-.16.54-.47v-2.33c0-.31-.18-.47-.54-.47h-1.65l.02,3.27Z"/>
        <path class="cls-1" d="M186.02,68.72h-4.96v-5.45h4.96v1.09h-3.35v1.05h2.64v1.09h-2.64v1.13h3.35v1.09Z"/>
        <path class="cls-1" d="M191.85,64.75c0-.54.14-.94.42-1.19.28-.25.74-.37,1.37-.37h2.23c.63,0,1.08.12,1.37.37.28.25.42.64.42,1.19v2.49c0,.54-.14.94-.42,1.19-.28.25-.74.37-1.37.37h-2.23c-.63,0-1.08-.12-1.37-.37-.28-.25-.42-.64-.42-1.19v-2.49ZM195.52,64.28h-1.52c-.36,0-.54.16-.54.47v2.49c0,.31.18.47.54.47h1.52c.36,0,.54-.16.54-.47v-2.49c0-.31-.18-.47-.54-.47Z"/>
        <path class="cls-1" d="M212.87,63.64c.28-.25.74-.37,1.37-.37h3.22v1.09h-2.86c-.36,0-.54.16-.54.47v2.33c0,.31.18.47.54.47h2.86v1.09h-3.22c-.6,0-1.04-.11-1.32-.33s-.44-.58-.47-1.07v-2.49c0-.54.14-.94.42-1.19Z"/>
        <path class="cls-1" d="M223.29,64.75c0-.54.14-.94.42-1.19.28-.25.74-.37,1.37-.37h2.23c.63,0,1.08.12,1.37.37.28.25.42.64.42,1.19v2.49c0,.54-.14.94-.42,1.19-.28.25-.74.37-1.37.37h-2.23c-.63,0-1.08-.12-1.37-.37-.28-.25-.42-.64-.42-1.19v-2.49ZM226.96,64.28h-1.52c-.36,0-.54.16-.54.47v2.49c0,.31.18.47.54.47h1.52c.36,0,.54-.16.54-.47v-2.49c0-.31-.18-.47-.54-.47Z"/>
        <path class="cls-1" d="M240.39,68.72h-1.7l-2.15-3.27v3.27h-1.61v-5.45h1.7l2.15,3.27v-3.27h1.61v5.45Z"/>
        <path class="cls-1" d="M247.84,68.72h-1.61v-5.45h4.96v1.09h-3.35v1.28h2.64v1.09h-2.64v1.98Z"/>
        <path class="cls-1" d="M261.99,68.72h-4.96v-5.45h4.96v1.09h-3.35v1.05h2.64v1.09h-2.64v1.13h3.35v1.09Z"/>
        <path class="cls-1" d="M267.83,63.27h3.76c.63,0,1.08.12,1.37.37.28.25.42.64.42,1.19v.7c0,.44-.08.77-.25,1.01-.16.24-.42.39-.78.47l1.11,1.71h-1.74l-1.03-1.63h-1.25v1.63h-1.61v-5.45ZM271.23,65.99c.36,0,.54-.16.54-.47v-.7c0-.31-.18-.47-.54-.47h-1.79v1.63h1.79Z"/>
        <path class="cls-1" d="M284.26,68.72h-4.96v-5.45h4.96v1.09h-3.35v1.05h2.64v1.09h-2.64v1.13h3.35v1.09Z"/>
        <path class="cls-1" d="M295.55,68.72h-1.7l-2.15-3.27v3.27h-1.61v-5.45h1.7l2.15,3.27v-3.27h1.61v5.45Z"/>
        <path class="cls-1" d="M301.81,63.64c.28-.25.74-.37,1.37-.37h3.22v1.09h-2.86c-.36,0-.54.16-.54.47v2.33c0,.31.18.47.54.47h2.86v1.09h-3.22c-.6,0-1.04-.11-1.32-.33s-.44-.58-.47-1.07v-2.49c0-.54.14-.94.42-1.19Z"/>
        <path class="cls-1" d="M312.23,68.72v-5.45h1.61v5.45h-1.61Z"/>
        <path class="cls-1" d="M325.13,68.72h-1.7l-2.15-3.27v3.27h-1.61v-5.45h1.7l2.15,3.27v-3.27h1.61v5.45Z"/>
        <path class="cls-1" d="M336.51,68.79h-3.85c-.59,0-1.02-.12-1.29-.36-.27-.24-.41-.61-.41-1.12v-2.49c0-.54.14-.94.42-1.19.28-.25.74-.37,1.37-.37h3.22v1.09h-2.86c-.36,0-.54.16-.54.47v2.49c0,.12.04.21.12.28.08.07.19.1.32.1h1.88v-1.01h-1.17v-1.09h2.78v3.19Z"/>
      </g>
      <g>
        <g>
          <path class="cls-2" d="M163.53,4.39h10.62v34.65h22.6v8.82h-33.22V4.39Z"/>
          <path class="cls-2" d="M199.74,16.8h10.62v31.04h-10.62v-31.04ZM210.67,6.09c0,3.37-2.73,6.09-6.09,6.09s-6.09-2.73-6.09-6.09,2.73-6.09,6.09-6.09,6.09,2.73,6.09,6.09Z"/>
          <path class="cls-2" d="M213.68,16.8h10.62v5.96c.95-2.44,2.43-4.21,4.44-5.31,2.01-1.1,4.67-1.65,7.98-1.65,3.48,0,6.21.5,8.2,1.49s3.4,2.63,4.25,4.91c.85,2.28,1.23,5.4,1.15,9.38v16.27h-10.62v-16.27c0-2.77-.56-4.7-1.68-5.77-1.12-1.08-3.1-1.61-5.96-1.61-2.69,0-4.65.56-5.87,1.68s-1.85,2.94-1.89,5.46v16.52h-10.62v-31.04Z"/>
          <path class="cls-2" d="M252.98,4.39h10.62v26.33l12.29-13.91h12.98l-13.72,15.52,13.72,15.52h-12.98l-12.29-13.91v13.91h-10.62V4.39Z"/>
        </g>
        <path class="cls-3" d="M118.74,33.73c2.24-.99,3.84-2.58,4.81-4.75.97-2.17,1.46-5.12,1.46-8.85,0-3.93-.54-7.03-1.61-9.28-1.08-2.26-2.83-3.87-5.25-4.84-2.42-.97-5.79-1.46-10.09-1.46l-12.6-.12c3.2,1.79,5.43,5.1,5.72,8.94h6.88c.41,0,.8.02,1.17.04.04,0,.07,0,.11,0,3.95,0,7.15,3.38,7.15,7.55s-3.2,7.55-7.15,7.55c-.07,0-.15,0-.22-.01-.04,0-.06.01-.1.01h-7.84c.03.33.05.65.05.99v5.97h6.58l7.14,12.54h11.92l-8.13-14.28ZM99.23,29.93v8.99c0,5.66-4.61,10.27-10.27,10.27h-.62c-5.67,0-10.27-4.61-10.27-10.27v-8.99c0-1.19.21-2.33.58-3.4,1-2.84,3.21-5.11,6.01-6.19,1.14-.44,2.38-.68,3.68-.68h.62c.76,0,1.5.09,2.22.24v3.23c0,.9-.54,1.7-1.37,2.05l-2.89,1.35c-1.31.56-2.27,1.88-2.27,3.4v8.99c0,2.03,1.65,3.68,3.68,3.68h.62c2.03,0,3.68-1.65,3.68-3.68v-4.63l.53-.2c2.57-.99,4.68-2.83,6.01-5.19.03.34.06.68.06,1.03ZM88.33,3.77c-5.67,0-10.27,4.61-10.27,10.27v8.99c0,.35.02.69.06,1.03,1.33-2.36,3.44-4.2,6.01-5.19l.53-.2v-4.63c0-2.03,1.65-3.68,3.68-3.68h.62c2.03,0,3.68,1.65,3.68,3.68v8.99c0,1.52-.95,2.83-2.27,3.4l-2.89,1.35c-.83.35-1.37,1.15-1.37,2.05v3.23c.71.16,1.46.24,2.22.24h.62c1.3,0,2.54-.24,3.68-.68,2.8-1.08,5.01-3.35,6.01-6.19.37-1.06.58-2.21.58-3.4v-8.99c0-5.66-4.61-10.27-10.27-10.27h-.62Z"/>
        <path class="cls-2" d="M131.44,23.03h23.83v8.89h-23.83v-8.89Z"/>
      </g>
    </g>
  </g>
</svg>