<?xml version="1.0" encoding="UTF-8"?><svg id="a" xmlns="http://www.w3.org/2000/svg" viewBox="0 0 1012.39 299.63"><defs><style>.b{fill:#fff;}.c{fill:#6fbe44;}</style></defs><g><path class="b" d="M490.45,247.45c-8.74,0-17.2-.89-25.37-2.67-8.17-1.78-15.58-4.7-22.21-8.74-2.91-1.62-4.7-3.64-5.34-6.07-.65-2.43-.36-4.78,.85-7.04,1.21-2.27,2.91-3.93,5.1-4.98,2.19-1.05,4.57-.85,7.16,.61,7.12,3.88,13.88,6.51,20.27,7.89,6.39,1.37,12.34,2.06,17.84,2.06,22.66,0,33.99-11.33,33.99-33.99v-18.69c-3.4,7.12-8.7,12.71-15.9,16.75-7.2,4.05-15.26,6.07-24.16,6.07-10.68,0-19.99-2.47-27.92-7.41-7.93-4.94-14.08-11.81-18.45-20.64-4.37-8.82-6.56-19.14-6.56-30.95s2.19-21.89,6.56-30.71c4.37-8.82,10.52-15.7,18.45-20.64,7.93-4.94,17.24-7.41,27.92-7.41,8.9,0,16.87,1.98,23.91,5.95,7.04,3.97,12.26,9.35,15.66,16.14v-9.23c0-8.25,4.04-12.38,12.14-12.38s12.14,4.13,12.14,12.38v97.84c0,18.61-4.78,32.57-14.32,41.88-9.55,9.31-23.47,13.96-41.76,13.96Zm-1.94-67.98c10.36,0,18.61-3.56,24.76-10.68,6.15-7.12,9.23-16.83,9.23-29.13s-3.08-21.97-9.23-29.01c-6.15-7.04-14.41-10.56-24.76-10.56s-18.61,3.52-24.76,10.56c-6.15,7.04-9.23,16.71-9.23,29.01s3.07,22.01,9.23,29.13c6.15,7.12,14.4,10.68,24.76,10.68Z"/><path class="b" d="M581.07,203.26c-8.25,0-12.38-4.13-12.38-12.38V93.77c0-8.25,3.96-12.38,11.9-12.38s11.9,4.13,11.9,12.38v10.44c3.24-7.28,8.13-12.87,14.69-16.75,6.56-3.88,14.52-6.15,23.91-6.8,5.99-.49,9.23,2.75,9.71,9.71,.65,7.12-2.83,11.01-10.44,11.65l-4.61,.49c-21.53,2.11-32.29,13.19-32.29,33.26v55.11c0,8.25-4.13,12.38-12.38,12.38Z"/><path class="b" d="M701.83,203.75c-19.42,0-34.72-5.46-45.89-16.39-11.17-10.93-16.75-25.86-16.75-44.79,0-12.14,2.47-22.86,7.4-32.17,4.94-9.3,11.78-16.55,20.52-21.73,8.74-5.18,18.77-7.77,30.11-7.77,16.35,0,29.21,5.22,38.6,15.66,9.39,10.44,14.08,24.8,14.08,43.09,0,5.5-3.24,8.25-9.71,8.25h-77.2c1.78,24.6,14.81,36.9,39.09,36.9,4.86,0,9.95-.61,15.3-1.82,5.34-1.21,10.52-3.44,15.54-6.68,3.4-1.94,6.35-2.63,8.86-2.07,2.51,.57,4.33,1.94,5.46,4.13,1.13,2.19,1.34,4.61,.61,7.28-.73,2.67-2.63,4.98-5.71,6.92-5.5,3.72-11.94,6.52-19.3,8.37-7.37,1.86-14.37,2.79-21,2.79Zm-3.64-105.61c-10.2,0-18.29,3.16-24.28,9.47-5.99,6.31-9.63,14.73-10.93,25.25h66.28c-.49-11.01-3.4-19.54-8.74-25.61-5.34-6.07-12.79-9.1-22.34-9.1Z"/><path class="b" d="M823.5,203.75c-19.42,0-34.72-5.46-45.89-16.39-11.17-10.93-16.75-25.86-16.75-44.79,0-12.14,2.47-22.86,7.4-32.17,4.94-9.3,11.78-16.55,20.52-21.73,8.74-5.18,18.77-7.77,30.11-7.77,16.35,0,29.21,5.22,38.6,15.66,9.39,10.44,14.08,24.8,14.08,43.09,0,5.5-3.24,8.25-9.71,8.25h-77.2c1.78,24.6,14.81,36.9,39.09,36.9,4.86,0,9.95-.61,15.3-1.82,5.34-1.21,10.52-3.44,15.54-6.68,3.4-1.94,6.35-2.63,8.86-2.07,2.51,.57,4.33,1.94,5.46,4.13,1.13,2.19,1.34,4.61,.61,7.28-.73,2.67-2.63,4.98-5.71,6.92-5.5,3.72-11.94,6.52-19.3,8.37-7.37,1.86-14.37,2.79-21,2.79Zm-3.64-105.61c-10.2,0-18.29,3.16-24.28,9.47-5.99,6.31-9.63,14.73-10.93,25.25h66.28c-.49-11.01-3.4-19.54-8.74-25.61-5.34-6.07-12.79-9.1-22.34-9.1Z"/><path class="b" d="M895.48,203.26c-8.09,0-12.14-4.13-12.14-12.38V93.77c0-8.25,3.96-12.38,11.9-12.38s11.9,4.13,11.9,12.38v8.98c4.04-7.12,9.59-12.54,16.63-16.27,7.04-3.72,14.93-5.58,23.67-5.58,28,0,42,15.87,42,47.59v62.4c0,8.25-4.05,12.38-12.14,12.38s-12.38-4.13-12.38-12.38v-60.94c0-10.2-1.98-17.64-5.95-22.34-3.97-4.69-10.16-7.04-18.57-7.04-9.87,0-17.77,3.12-23.67,9.35-5.91,6.23-8.86,14.45-8.86,24.64v56.33c0,8.25-4.13,12.38-12.38,12.38Z"/></g><path class="c" d="M171.06,231.86l8.03-57.58c.4-2.85-1.81-5.39-4.69-5.39h-43.18c-3.72,0-5.98-4.08-4.02-7.24l58.71-94.25c2.7-4.33,9.39-1.92,8.71,3.14l-8.51,62.93c-.38,2.84,1.82,5.37,4.69,5.37h41.05c3.73,0,5.99,4.11,4,7.26l-56.11,88.94c-2.72,4.31-9.4,1.87-8.69-3.18Z"/><path class="c" d="M333.68,1.63H35.14C17.55,1.63,3.29,15.89,3.29,33.48v232.67c0,17.59,14.26,31.85,31.85,31.85H333.68c17.59,0,31.85-14.26,31.85-31.85V33.48c0-17.59-14.26-31.85-31.85-31.85Zm3.74,256.92c0,5.39-4.37,9.75-9.75,9.75H41.15c-5.39,0-9.75-4.37-9.75-9.75V41.08c0-5.39,4.37-9.75,9.75-9.75H327.67c5.39,0,9.75,4.37,9.75,9.75v217.46Z"/></svg>