<?xml version="1.0" encoding="UTF-8"?><svg id="a" xmlns="http://www.w3.org/2000/svg" viewBox="0 0 540.42 442.15"><defs><style>.b{fill:#6fbe44;}</style></defs><path class="b" d="M253.16,343.62l11.97-85.77c.59-4.24-2.7-8.03-6.98-8.03h-64.33c-5.53,0-8.91-6.08-5.99-10.78l87.46-140.4c4.02-6.45,13.99-2.86,12.97,4.67l-12.67,93.74c-.57,4.23,2.72,8,6.99,8h61.15c5.55,0,8.93,6.12,5.96,10.81l-83.59,132.49c-4.05,6.42-14,2.78-12.95-4.74Z"/><path class="b" d="M495.41,.65H50.67C24.47,.65,3.23,21.89,3.23,48.09V394.7c0,26.2,21.24,47.44,47.44,47.44H495.41c26.2,0,47.44-21.24,47.44-47.44V48.09c0-26.2-21.24-47.44-47.44-47.44Zm5.57,382.73c0,8.03-6.51,14.53-14.53,14.53H59.63c-8.03,0-14.53-6.51-14.53-14.53V59.42c0-8.03,6.51-14.53,14.53-14.53H486.45c8.03,0,14.53,6.51,14.53,14.53V383.38Z"/></svg>