<?xml version="1.0" encoding="UTF-8"?><svg id="a" xmlns="http://www.w3.org/2000/svg" viewBox="0 0 540.42 442.15"><defs><style>.b{fill:#fff;}</style></defs><path class="b" d="M250.29,343.47l11.99-85.9c.59-4.25-2.71-8.04-6.99-8.04h-64.42c-5.54,0-8.92-6.09-5.99-10.8l87.59-140.61c4.02-6.46,14.01-2.86,12.99,4.68l-12.69,93.88c-.57,4.24,2.72,8.01,7,8.01h61.24c5.56,0,8.94,6.13,5.97,10.83l-83.71,132.69c-4.06,6.43-14.02,2.79-12.97-4.74Z"/><path class="b" d="M492.91,0H47.51C21.27,0,0,21.27,0,47.51V394.63C0,420.88,21.27,442.15,47.51,442.15H492.91c26.24,0,47.51-21.27,47.51-47.51V47.51c0-26.24-21.27-47.51-47.51-47.51Zm5.58,383.29c0,8.04-6.52,14.55-14.55,14.55H56.49c-8.04,0-14.55-6.52-14.55-14.55V58.86c0-8.04,6.52-14.55,14.55-14.55H483.93c8.04,0,14.55,6.52,14.55,14.55V383.29Z"/></svg>