<?xml version="1.0" encoding="UTF-8"?><svg id="a" xmlns="http://www.w3.org/2000/svg" viewBox="0 0 1067.04 299.63"><defs><style>.b{fill:#fff;}</style></defs><g><path class="b" d="M477.69,244.83c-8.51,0-16.74-.87-24.69-2.6-7.96-1.74-15.16-4.57-21.62-8.51-2.84-1.58-4.57-3.54-5.2-5.91-.63-2.36-.35-4.65,.83-6.85,1.18-2.21,2.83-3.82,4.96-4.84,2.13-1.03,4.45-.83,6.97,.59,6.93,3.78,13.5,6.34,19.73,7.68,6.22,1.34,12.01,2.01,17.37,2.01,22.05,0,33.08-11.03,33.08-33.08v-18.19c-3.31,6.93-8.47,12.37-15.48,16.3-7.01,3.94-14.85,5.91-23.51,5.91-10.4,0-19.46-2.4-27.17-7.21-7.72-4.8-13.7-11.5-17.96-20.08-4.25-8.58-6.38-18.62-6.38-30.12s2.13-21.3,6.38-29.89c4.25-8.58,10.24-15.28,17.96-20.08,7.72-4.8,16.78-7.21,27.17-7.21,8.66,0,16.42,1.93,23.27,5.79,6.85,3.86,11.93,9.09,15.24,15.71v-8.98c0-8.03,3.94-12.05,11.81-12.05s11.81,4.02,11.81,12.05v95.22c0,18.11-4.65,31.7-13.94,40.76-9.3,9.06-22.84,13.58-40.64,13.58Zm-1.89-66.15c10.08,0,18.11-3.46,24.1-10.4,5.98-6.93,8.98-16.38,8.98-28.35s-2.99-21.38-8.98-28.23c-5.99-6.85-14.02-10.28-24.1-10.28s-18.12,3.43-24.1,10.28c-5.99,6.85-8.98,16.26-8.98,28.23s2.99,21.42,8.98,28.35c5.98,6.93,14.02,10.4,24.1,10.4Z"/><path class="b" d="M565.87,201.83c-8.03,0-12.05-4.02-12.05-12.05V95.27c0-8.03,3.86-12.05,11.58-12.05s11.58,4.02,11.58,12.05v10.16c3.15-7.09,7.91-12.52,14.29-16.3,6.38-3.78,14.14-5.98,23.27-6.61,5.83-.47,8.98,2.68,9.45,9.45,.63,6.93-2.76,10.71-10.16,11.34l-4.49,.47c-20.95,2.05-31.42,12.84-31.42,32.37v53.63c0,8.03-4.02,12.05-12.05,12.05Z"/><path class="b" d="M683.39,202.3c-18.9,0-33.79-5.32-44.66-15.95-10.87-10.63-16.3-25.16-16.3-43.59,0-11.81,2.4-22.25,7.21-31.31,4.8-9.05,11.46-16.1,19.97-21.15,8.51-5.04,18.27-7.56,29.3-7.56,15.91,0,28.43,5.08,37.57,15.24,9.13,10.16,13.7,24.14,13.7,41.94,0,5.36-3.15,8.03-9.45,8.03h-75.13c1.73,23.94,14.41,35.91,38.04,35.91,4.73,0,9.69-.59,14.89-1.77,5.2-1.18,10.24-3.34,15.12-6.5,3.31-1.89,6.18-2.56,8.62-2.01,2.44,.55,4.21,1.89,5.32,4.02,1.1,2.13,1.3,4.49,.59,7.09-.71,2.6-2.56,4.84-5.55,6.73-5.36,3.62-11.62,6.34-18.78,8.15-7.17,1.81-13.98,2.72-20.44,2.72Zm-3.54-102.78c-9.92,0-17.8,3.07-23.63,9.22-5.83,6.14-9.37,14.33-10.63,24.57h64.5c-.47-10.71-3.31-19.02-8.51-24.93-5.2-5.91-12.44-8.86-21.74-8.86Z"/><path class="b" d="M801.81,202.3c-18.9,0-33.79-5.32-44.66-15.95-10.87-10.63-16.3-25.16-16.3-43.59,0-11.81,2.4-22.25,7.21-31.31,4.8-9.05,11.46-16.1,19.97-21.15,8.51-5.04,18.27-7.56,29.3-7.56,15.91,0,28.43,5.08,37.57,15.24,9.13,10.16,13.7,24.14,13.7,41.94,0,5.36-3.15,8.03-9.45,8.03h-75.13c1.73,23.94,14.41,35.91,38.04,35.91,4.73,0,9.69-.59,14.89-1.77,5.2-1.18,10.24-3.34,15.12-6.5,3.31-1.89,6.18-2.56,8.62-2.01,2.44,.55,4.21,1.89,5.32,4.02,1.1,2.13,1.3,4.49,.59,7.09-.71,2.6-2.56,4.84-5.55,6.73-5.36,3.62-11.62,6.34-18.78,8.15-7.17,1.81-13.98,2.72-20.44,2.72Zm-3.54-102.78c-9.92,0-17.8,3.07-23.63,9.22-5.83,6.14-9.37,14.33-10.63,24.57h64.5c-.47-10.71-3.31-19.02-8.51-24.93-5.2-5.91-12.44-8.86-21.74-8.86Z"/><path class="b" d="M871.85,201.83c-7.88,0-11.81-4.02-11.81-12.05V95.27c0-8.03,3.86-12.05,11.58-12.05s11.58,4.02,11.58,12.05v8.74c3.93-6.93,9.33-12.2,16.18-15.83,6.85-3.62,14.53-5.43,23.04-5.43,27.25,0,40.87,15.44,40.87,46.31v60.72c0,8.03-3.94,12.05-11.81,12.05s-12.05-4.02-12.05-12.05v-59.3c0-9.92-1.93-17.17-5.79-21.74-3.86-4.57-9.89-6.85-18.07-6.85-9.61,0-17.29,3.04-23.04,9.1-5.75,6.07-8.62,14.06-8.62,23.98v54.82c0,8.03-4.02,12.05-12.05,12.05Z"/></g><path class="b" d="M166.86,229.66l7.82-56.03c.39-2.77-1.77-5.24-4.56-5.24h-42.02c-3.62,0-5.82-3.97-3.91-7.04l57.14-91.72c2.62-4.21,9.14-1.87,8.48,3.05l-8.28,61.24c-.37,2.76,1.78,5.22,4.57,5.22h39.95c3.63,0,5.83,4,3.9,7.07l-54.61,86.55c-2.65,4.2-9.14,1.82-8.46-3.09Z"/><path class="b" d="M325.12,5.61H34.58C17.47,5.61,3.59,19.48,3.59,36.6v226.43c0,17.12,13.88,30.99,30.99,30.99H325.12c17.12,0,30.99-13.88,30.99-30.99V36.6c0-17.12-13.88-30.99-30.99-30.99Zm3.64,250.02c0,5.24-4.25,9.49-9.49,9.49H40.44c-5.24,0-9.49-4.25-9.49-9.49V44c0-5.24,4.25-9.49,9.49-9.49H319.27c5.24,0,9.49,4.25,9.49,9.49V255.63Z"/></svg>