<?xml version="1.0" encoding="UTF-8"?><svg id="a" xmlns="http://www.w3.org/2000/svg" viewBox="0 0 1072.06 299.63"><defs><style>.b{fill:#6fbe44;}.c{fill:#595b5c;}</style></defs><g><path class="c" d="M485.37,246.5c-8.71,0-17.14-.89-25.28-2.66-8.14-1.78-15.52-4.68-22.13-8.71-2.9-1.61-4.68-3.63-5.32-6.05-.65-2.42-.36-4.76,.85-7.01,1.21-2.26,2.9-3.91,5.08-4.96,2.18-1.05,4.55-.85,7.14,.6,7.09,3.87,13.83,6.49,20.2,7.86,6.37,1.37,12.29,2.06,17.78,2.06,22.58,0,33.87-11.29,33.87-33.87v-18.63c-3.39,7.1-8.67,12.66-15.84,16.69-7.18,4.03-15.2,6.05-24.07,6.05-10.64,0-19.92-2.46-27.82-7.38-7.9-4.92-14.03-11.77-18.38-20.56-4.35-8.79-6.53-19.07-6.53-30.84s2.18-21.81,6.53-30.6c4.35-8.79,10.48-15.64,18.38-20.56,7.9-4.92,17.17-7.38,27.82-7.38,8.87,0,16.81,1.98,23.83,5.93,7.01,3.95,12.22,9.31,15.6,16.09v-9.19c0-8.22,4.03-12.34,12.09-12.34s12.09,4.11,12.09,12.34v97.48c0,18.54-4.76,32.45-14.27,41.73-9.52,9.27-23.38,13.91-41.61,13.91Zm-1.94-67.73c10.32,0,18.54-3.55,24.67-10.64,6.13-7.09,9.19-16.77,9.19-29.03s-3.07-21.89-9.19-28.91c-6.13-7.01-14.35-10.52-24.67-10.52s-18.55,3.51-24.67,10.52c-6.13,7.01-9.19,16.65-9.19,28.91s3.06,21.93,9.19,29.03c6.13,7.1,14.35,10.64,24.67,10.64Z"/><path class="c" d="M575.66,202.48c-8.22,0-12.34-4.11-12.34-12.34V93.39c0-8.22,3.95-12.34,11.85-12.34s11.85,4.11,11.85,12.34v10.4c3.22-7.26,8.1-12.82,14.63-16.69,6.53-3.87,14.47-6.13,23.83-6.77,5.96-.48,9.19,2.74,9.68,9.68,.64,7.1-2.82,10.97-10.4,11.61l-4.6,.48c-21.45,2.1-32.17,13.15-32.17,33.14v54.91c0,8.22-4.11,12.34-12.34,12.34Z"/><path class="c" d="M695.97,202.96c-19.35,0-34.59-5.44-45.72-16.33-11.13-10.89-16.69-25.76-16.69-44.63,0-12.09,2.46-22.78,7.38-32.05,4.92-9.27,11.73-16.49,20.44-21.65,8.71-5.16,18.7-7.74,29.99-7.74,16.29,0,29.11,5.2,38.46,15.6,9.35,10.4,14.03,24.71,14.03,42.94,0,5.48-3.23,8.22-9.68,8.22h-76.92c1.77,24.51,14.76,36.77,38.94,36.77,4.84,0,9.92-.6,15.24-1.81,5.32-1.21,10.48-3.42,15.48-6.65,3.39-1.94,6.33-2.62,8.83-2.06,2.5,.57,4.31,1.94,5.44,4.11,1.13,2.18,1.33,4.59,.6,7.26-.73,2.66-2.62,4.96-5.68,6.9-5.48,3.71-11.89,6.49-19.23,8.34-7.34,1.85-14.31,2.78-20.92,2.78Zm-3.63-105.22c-10.16,0-18.22,3.14-24.19,9.43-5.97,6.29-9.6,14.68-10.89,25.16h66.04c-.48-10.96-3.39-19.47-8.71-25.52-5.32-6.05-12.74-9.07-22.25-9.07Z"/><path class="c" d="M817.2,202.96c-19.35,0-34.59-5.44-45.72-16.33s-16.69-25.76-16.69-44.63c0-12.09,2.46-22.78,7.38-32.05,4.92-9.27,11.73-16.49,20.44-21.65,8.71-5.16,18.7-7.74,29.99-7.74,16.29,0,29.11,5.2,38.46,15.6,9.35,10.4,14.03,24.71,14.03,42.94,0,5.48-3.23,8.22-9.68,8.22h-76.92c1.77,24.51,14.76,36.77,38.94,36.77,4.84,0,9.92-.6,15.24-1.81,5.32-1.21,10.48-3.42,15.48-6.65,3.39-1.94,6.33-2.62,8.83-2.06,2.5,.57,4.31,1.94,5.44,4.11,1.13,2.18,1.33,4.59,.6,7.26-.73,2.66-2.62,4.96-5.68,6.9-5.48,3.71-11.89,6.49-19.23,8.34-7.34,1.85-14.31,2.78-20.92,2.78Zm-3.63-105.22c-10.16,0-18.22,3.14-24.19,9.43-5.97,6.29-9.6,14.68-10.89,25.16h66.04c-.48-10.96-3.39-19.47-8.71-25.52-5.32-6.05-12.74-9.07-22.25-9.07Z"/><path class="c" d="M888.91,202.48c-8.07,0-12.09-4.11-12.09-12.34V93.39c0-8.22,3.95-12.34,11.85-12.34s11.85,4.11,11.85,12.34v8.95c4.03-7.09,9.55-12.49,16.57-16.21,7.01-3.71,14.88-5.56,23.59-5.56,27.9,0,41.85,15.81,41.85,47.41v62.17c0,8.22-4.03,12.34-12.09,12.34s-12.34-4.11-12.34-12.34v-60.71c0-10.16-1.98-17.58-5.93-22.25-3.95-4.68-10.12-7.02-18.5-7.02-9.84,0-17.7,3.11-23.59,9.31-5.89,6.21-8.83,14.39-8.83,24.55v56.12c0,8.22-4.11,12.34-12.34,12.34Z"/></g><path class="b" d="M167.15,230.97l8-57.37c.4-2.84-1.81-5.37-4.67-5.37h-43.02c-3.7,0-5.96-4.07-4-7.21l58.5-93.9c2.69-4.31,9.36-1.91,8.68,3.13l-8.48,62.7c-.38,2.83,1.82,5.35,4.67,5.35h40.9c3.71,0,5.97,4.09,3.99,7.23l-55.91,88.61c-2.71,4.3-9.36,1.86-8.66-3.17Z"/><path class="b" d="M329.18,1.59H31.73C14.21,1.59,0,15.79,0,33.32v231.82c0,17.52,14.21,31.73,31.73,31.73H329.18c17.52,0,31.73-14.21,31.73-31.73V33.32c0-17.52-14.21-31.73-31.73-31.73Zm3.73,255.97c0,5.37-4.35,9.72-9.72,9.72H37.72c-5.37,0-9.72-4.35-9.72-9.72V40.9c0-5.37,4.35-9.72,9.72-9.72H323.18c5.37,0,9.72,4.35,9.72,9.72v216.66Z"/></svg>