<?xml version="1.0" encoding="UTF-8"?> <svg xmlns="http://www.w3.org/2000/svg" viewBox="0 0 308.91 64.5"><defs><style>.cls-1{fill:#fff;}.cls-2{fill:blue;mix-blend-mode:overlay;opacity:.79;}.cls-2,.cls-3,.cls-4{fill-rule:evenodd;}.cls-3{fill:#141459;}.cls-4{fill:#00a2db;}.cls-5{isolation:isolate;}</style></defs><g class="cls-5"><g id="Layer_2"><g id="Layer_1-2"><g><path class="cls-1" d="M116.08,52.75c-.71,3.45-2.41,6.14-5.1,8.07-2.69,1.93-6.06,2.89-10.12,2.89-5.63,0-9.98-1.78-13.05-5.33-3.07-3.55-4.61-8.6-4.61-15.15s1.55-11.75,4.64-15.45c3.09-3.7,7.41-5.56,12.94-5.56,5.12,0,9.1,1.69,11.91,5.06,2.82,3.38,4.22,8.18,4.22,14.42v1.98h-30.83c0,5.58,1.29,9.88,3.88,12.9,2.59,3.02,6.29,4.53,11.11,4.53,3.3,0,5.99-.71,8.07-2.13,2.08-1.42,3.47-3.5,4.19-6.24h2.74Zm-2.06-11.57c0-5.38-1.12-9.45-3.35-12.22-2.23-2.77-5.56-4.15-9.97-4.15s-7.88,1.4-10.39,4.19c-2.51,2.79-3.92,6.85-4.22,12.18h27.93Z"></path><path class="cls-1" d="M171,52.75c-.71,3.45-2.41,6.14-5.1,8.07-2.69,1.93-6.06,2.89-10.12,2.89-5.63,0-9.98-1.78-13.05-5.33-3.07-3.55-4.61-8.6-4.61-15.15s1.55-11.75,4.64-15.45c3.09-3.7,7.41-5.56,12.94-5.56,5.12,0,9.1,1.69,11.91,5.06,2.82,3.38,4.22,8.18,4.22,14.42v1.98h-30.83c0,5.58,1.29,9.88,3.88,12.9,2.59,3.02,6.29,4.53,11.11,4.53,3.3,0,5.99-.71,8.07-2.13,2.08-1.42,3.48-3.5,4.19-6.24h2.74Zm-2.05-11.57c0-5.38-1.12-9.45-3.35-12.22-2.23-2.77-5.56-4.15-9.97-4.15s-7.88,1.4-10.39,4.19c-2.51,2.79-3.92,6.85-4.22,12.18h27.93Z"></path><path class="cls-1" d="M190.51,62.5l-15.98-39.05h3.2l14.46,35.85,14.61-35.85h3.05l-15.98,39.05h-3.35Z"></path><path class="cls-1" d="M298.54,52.75c-.71,3.45-2.41,6.14-5.1,8.07-2.69,1.93-6.06,2.89-10.12,2.89-5.63,0-9.98-1.78-13.05-5.33-3.07-3.55-4.61-8.6-4.61-15.15s1.55-11.75,4.64-15.45c3.09-3.7,7.41-5.56,12.94-5.56,5.12,0,9.1,1.69,11.91,5.06,2.82,3.38,4.22,8.18,4.22,14.42v1.98h-30.83c0,5.58,1.29,9.88,3.88,12.9,2.59,3.02,6.29,4.53,11.11,4.53,3.3,0,5.99-.71,8.07-2.13,2.08-1.42,3.48-3.5,4.19-6.24h2.74Zm-2.05-11.57c0-5.38-1.12-9.45-3.35-12.22-2.23-2.77-5.56-4.15-9.97-4.15s-7.88,1.4-10.39,4.19c-2.51,2.79-3.92,6.85-4.22,12.18h27.93Z"></path></g><path class="cls-1" d="M236.87,25.62c-2.26-2.26-5.85-3.39-10.77-3.39-8.44,0-13.35,3.05-14.77,9.14h2.73c.67-2.15,1.86-3.76,3.59-4.8,1.93-1.17,4.67-1.75,8.22-1.75,4.21,0,7.18,.9,8.91,2.7,1.72,1.8,2.59,4.88,2.59,9.25v1.6l-8.52,.3c-6.8,.25-11.75,1.41-14.84,3.46-3.1,2.05-4.64,5.19-4.64,9.4,0,3.76,1.18,6.67,3.54,8.75,2.36,2.08,5.64,3.12,9.86,3.12,3.2,0,6.05-.63,8.56-1.9,2.51-1.27,4.55-3.12,6.13-5.56v6.55h2.82v-25.95c0-5.02-1.13-8.66-3.39-10.92Zm.5,22.87c0,2.03-.27,3.64-.8,4.83-.53,1.19-1.51,2.45-2.93,3.77-2.64,2.49-6.19,3.73-10.66,3.73-3.45,0-6.09-.79-7.92-2.36-1.83-1.57-2.74-3.88-2.74-6.93,0-3.5,1.28-6.06,3.84-7.69,2.56-1.62,6.89-2.56,12.98-2.82l8.22-.3v7.76Z"></path><path class="cls-1" d="M263.22,59.93c-1.5,.54-3.12,.82-4.88,.82-2.44,0-4.24-.67-5.4-2.02-1.17-1.34-1.75-3.46-1.75-6.36V26.04h12.04v-2.59h-12.04V12.64h-2.89V52.15c0,7.46,3.25,11.19,9.74,11.19,1.96,0,3.69-.28,5.19-.81v-2.6Z"></path><path class="cls-1" d="M138.19,60.06c-1.39,.45-2.88,.69-4.49,.69-2.44,0-4.24-.67-5.4-2.02-1.17-1.34-1.75-3.46-1.75-6.36V12.64h-2.89V52.15c0,7.46,3.25,11.19,9.74,11.19,1.79,0,3.39-.22,4.8-.66v-2.61Z"></path><g><path class="cls-1" d="M299.85,24.43h-1.79v-.83h4.54v.83h-1.79v4.83h-.96v-4.83Z"></path><path class="cls-1" d="M303.35,23.6h1.17l1.61,4.51,1.66-4.51h1.13v5.67h-.88v-4.12l-1.56,4.12h-.76l-1.5-4.11v4.11h-.86v-5.67Z"></path></g><g><polygon class="cls-3" points="26.48 64.5 91.81 0 30.52 10.18 26.48 64.5"></polygon><polygon class="cls-4" points="0 0 91.81 0 41.04 35.82 0 0"></polygon><polygon class="cls-2" points="26.48 64.5 91.81 0 30.52 10.18 26.48 64.5"></polygon></g></g></g></g></svg> 