<?xml version="1.0" encoding="utf-8"?>
<!-- Generator: Adobe Illustrator 26.1.0, SVG Export Plug-In . SVG Version: 6.00 Build 0)  -->
<svg version="1.1" id="Layer_1" xmlns="http://www.w3.org/2000/svg" xmlns:xlink="http://www.w3.org/1999/xlink" x="0px" y="0px"
	 viewBox="0 0 1080 1080" style="enable-background:new 0 0 1080 1080;" xml:space="preserve">
<style type="text/css">
	.st0{fill:#4C8CCA;}
	.st1{fill:#FFFFFF;}
	.st2{enable-background:new    ;}
	.st3{fill:#F1F2F2;}
</style>
<path class="st0" d="M873.6,1056.4H206.4c-101,0-182.8-81.8-182.8-182.8V206.4c0-101,81.8-182.8,182.8-182.8h667.2
	c101,0,182.8,81.8,182.8,182.8v667.2C1056.4,974.6,974.6,1056.4,873.6,1056.4z"/>
<polygon class="st1" points="840.2,287.3 477.8,287.3 477.8,205.4 239.8,385.5 477.8,565.7 477.8,483.8 840.2,483.8 "/>
<polygon class="st1" points="240.9,597.3 603.3,597.3 603.3,514.3 840.2,694.5 603.3,874.6 603.3,792.7 240.9,792.7 "/>
<g class="st2">
	<path class="st3" d="M808.5,890.3v-55.6h-20.8v-7.4h50v7.4h-20.8v55.6H808.5z"/>
	<path class="st3" d="M846,890.3v-63h12.6l14.9,44.6c1.4,4.2,2.4,7.3,3,9.3c0.7-2.3,1.8-5.7,3.4-10.1l15.1-43.8h11.2v63h-8v-52.7
		l-18.3,52.7h-7.5l-18.2-53.6v53.6H846z"/>
</g>
</svg>
