<svg width="665" height="191" viewBox="0 0 665 191" fill="none" xmlns="http://www.w3.org/2000/svg">
<path d="M605.545 10.2273V7.72727H623V10.2273H615.682V31H612.864V10.2273H605.545ZM627.349 7.72727H630.713L638.622 27.0455H638.895L646.804 7.72727H650.168V31H647.531V13.3182H647.304L640.031 31H637.486L630.213 13.3182H629.986V31H627.349V7.72727Z" fill="white"/>
<path d="M428.426 32C424.142 32 422 34.5625 422 39.6876V95.1818C422 100.389 424.142 103 428.426 103C432.71 103 434.897 100.389 435 95.1818V39.6876C435 34.5625 432.814 32 428.426 32Z" fill="white"/>
<path d="M428.5 19C433.194 19 437 14.7467 437 9.5C437 4.2533 433.194 0 428.5 0C423.806 0 420 4.2533 420 9.5C420 14.7467 423.806 19 428.5 19Z" fill="white"/>
<path d="M408.548 32.0069C407.247 31.9745 405.976 32.3797 404.882 33.1416C403.581 34.2438 402.65 35.7838 402.236 37.5182L386.495 85.548L370.783 37.2264C370.015 34.0493 367.339 31.861 364.339 32.0069C361.353 31.9258 358.693 34.0655 357.895 37.2264L341.932 85.2562L326.604 37.7938C326.116 36.0431 325.23 34.4546 324.018 33.2064C321.002 31.1478 317.085 31.8448 314.809 34.8274C313.73 36.6591 313.73 38.9933 314.809 41.8138L333.743 96.7652C334.763 100.558 337.985 103.119 341.592 102.99C345.183 103.152 348.391 100.558 349.322 96.7652L364.014 52.6906L378.794 96.7652C379.77 100.591 383.022 103.184 386.643 102.99C390.249 102.99 392.836 100.915 394.373 96.7652L413.307 41.8138C414.164 39.6741 414.224 37.2427 413.499 35.0381C412.745 32.9957 411.09 32.0069 408.548 32.0069V32.0069Z" fill="white"/>
<path d="M479.854 89.9938C478.866 90.1236 477.892 90.3344 476.947 90.6425C475.667 90.9831 474.344 91.1615 473.021 91.129C468.718 91.129 465.606 89.8641 463.702 87.318C461.812 84.7719 460.794 81.0095 460.794 75.966V43.7425H475.624C479.171 43.7425 480.945 41.8937 480.945 38.2286C480.945 34.5635 479.171 32.7148 475.624 32.7148H468.878C464.443 32.7472 460.823 28.7416 460.794 23.7953C460.794 23.7467 460.794 23.698 460.794 23.6494V18.2004C460.794 13.4001 458.686 11 454.47 11C450.254 11 448.102 13.4001 448 18.2004V77.1336C448 85.5179 449.905 91.9237 453.699 96.351C457.494 100.778 463.28 103 471.058 103C472.6 102.984 474.155 102.838 475.682 102.578C477.092 102.384 478.473 101.995 479.811 101.443C480.916 101.135 481.832 100.276 482.268 99.1079C482.748 97.8429 482.995 96.4645 482.966 95.086C483.111 93.6751 482.791 92.248 482.079 91.0642C481.512 90.3668 480.698 89.9776 479.854 89.9938V89.9938Z" fill="white"/>
<path d="M515.111 43.2185C517.187 43.2185 519.248 43.5893 521.222 44.2662C523.459 45.0399 525.564 46.2005 527.464 47.7156C528.663 48.6021 530.154 48.8761 531.543 48.4732C532.712 48.0702 533.706 47.1676 534.276 45.9587C534.905 44.7176 535.139 43.283 534.92 41.8807C534.656 40.3655 533.794 39.0438 532.566 38.3024C529.818 36.0941 526.733 34.45 523.459 33.4668C520.403 32.5158 517.26 32.0322 514.088 32C504.571 32 497.014 35.127 491.415 41.3971C485.816 47.6673 483.024 56.2262 483.009 67.1062C482.878 73.6665 484.179 80.1784 486.825 86.0617C489.237 91.3002 492.979 95.6361 497.598 98.5697C502.642 101.632 508.328 103.163 514.088 102.986C517.217 102.97 520.316 102.486 523.327 101.584C526.514 100.649 529.511 99.0855 532.171 96.9417C533.399 96.2003 534.276 94.8785 534.539 93.3634C534.759 91.9772 534.583 90.5588 534.028 89.2854C533.516 88.1087 532.595 87.19 531.484 86.7548C530.11 86.3196 528.648 86.5775 527.464 87.464C523.853 90.2847 519.541 91.7999 515.111 91.816C509.074 91.816 504.425 89.6722 501.165 85.3686C497.905 81.0649 496.268 75.0527 496.253 67.3158C496.253 59.6433 497.891 53.7278 501.165 49.5854C504.44 45.4429 509.089 43.3152 515.111 43.2185V43.2185Z" fill="white"/>
<path d="M577.839 31.6106C573.604 31.5293 569.413 32.5696 565.604 34.6502C561.987 36.6657 558.987 39.7866 556.943 43.6389V18.217C556.943 13.4057 554.766 11 550.413 11C546.061 11 543.928 13.4057 544.002 18.217L544.002 95.7668C544.002 100.643 546.134 103 550.413 103C554.693 103 556.943 100.578 556.943 95.7668V62.9004C556.722 57.6177 558.413 52.4488 561.634 48.5314C564.898 44.8254 569.442 42.8424 574.118 43.07C578.53 43.07 581.824 44.4516 583.927 47.1823C586.03 49.9131 587.059 54.2693 587.059 60.1859V95.7668C587.059 100.643 589.25 103 593.603 103C597.956 103 600 100.578 600 95.7668V59.3731C600 40.8594 592.618 31.6106 577.839 31.6106V31.6106Z" fill="white"/>
<path d="M283.339 104C279.285 103.984 275.232 103.494 271.267 102.548C267.273 101.667 263.456 100.002 259.994 97.6523C258.663 96.9016 257.657 95.5799 257.213 93.997C256.858 92.6426 256.947 91.1903 257.479 89.9012C258.471 87.3719 261.133 86.197 263.426 87.2903C263.663 87.4045 263.885 87.5351 264.107 87.6982C267.243 89.6238 270.587 91.0924 274.048 92.0878C277.125 92.9527 280.291 93.3933 283.472 93.4096C288.147 93.4096 291.697 92.4794 294.079 90.6355C296.387 88.9874 297.733 86.1317 297.659 83.0965C297.763 80.812 296.875 78.6254 295.277 77.1731C293.132 75.5086 290.691 74.399 288.102 73.9095L275.513 71.1354C264.403 68.5734 258.855 62.2257 258.855 52.0922C258.692 45.7281 261.429 39.6904 266.148 36.0025C271.016 32.0046 277.392 29.9975 285.247 30.0138C292.541 29.8017 299.716 32.0373 305.811 36.4431C307.068 37.1938 307.985 38.4992 308.325 40.0331C308.873 42.8072 307.482 45.5813 305.071 46.5604C303.665 47.0336 302.156 46.8051 300.899 45.9729C298.399 44.2758 295.706 42.9541 292.881 42.0566C290.381 41.257 287.792 40.849 285.188 40.8164C280.587 40.8164 277.096 41.7628 274.714 43.672C272.421 45.3854 271.06 48.2738 271.134 51.3416C271.134 56.2207 274.048 59.3537 279.892 60.7081L292.481 63.4822C298.236 64.755 302.6 66.9253 305.544 70.0094C308.562 73.2078 310.189 77.6789 309.982 82.297C310.189 88.661 307.438 94.6987 302.689 98.305C297.837 102.074 291.401 104 283.339 104Z" fill="white"/>
<path d="M204.364 0L19.7038 0C8.8173 0 0 9.1868 0 20.5295L0 170.471C0 181.813 8.8173 191 19.7038 191L204.364 191C215.25 191 224.068 181.813 224.068 170.471L224.068 20.5295C224.068 9.1868 215.25 0 204.364 0ZM206.675 165.576C206.675 169.053 203.972 171.85 200.636 171.85L23.4134 171.85C20.0952 171.85 17.3923 169.033 17.3923 165.576L17.3923 25.4239C17.3923 21.9473 20.0766 19.1505 23.4134 19.1311L200.636 19.1311C203.972 19.1311 206.675 21.9473 206.675 25.4239L206.675 165.576Z" fill="#ACACB2"/>
<path d="M160.87 52.7911L98.9809 52.7911V38.166L58.4176 70.213L98.9809 102.26V87.6543L160.87 87.6543V52.7911Z" fill="#ACACB2"/>
<path d="M58.5293 107.794H120.418V93.1885L160.981 125.235L120.418 157.282V142.657H58.5293L58.5293 107.794Z" fill="#ACACB2"/>
<path d="M260.725 172V134.234H275.182C277.911 134.234 280.18 134.664 281.987 135.525C283.806 136.373 285.165 137.535 286.062 139.01C286.972 140.485 287.427 142.157 287.427 144.026C287.427 145.563 287.132 146.878 286.542 147.972C285.951 149.054 285.158 149.933 284.163 150.609C283.167 151.285 282.054 151.771 280.825 152.066V152.435C282.165 152.509 283.45 152.92 284.679 153.67C285.921 154.408 286.935 155.453 287.722 156.805C288.508 158.157 288.902 159.792 288.902 161.71C288.902 163.665 288.429 165.423 287.482 166.984C286.535 168.533 285.109 169.756 283.204 170.654C281.298 171.551 278.901 172 276.012 172H260.725ZM267.566 166.283H274.924C277.407 166.283 279.196 165.81 280.29 164.864C281.397 163.905 281.95 162.675 281.95 161.175C281.95 160.057 281.673 159.049 281.12 158.151C280.567 157.242 279.78 156.529 278.76 156.012C277.739 155.484 276.522 155.219 275.108 155.219H267.566V166.283ZM267.566 150.296H274.334C275.514 150.296 276.578 150.081 277.524 149.65C278.471 149.208 279.215 148.587 279.755 147.788C280.309 146.976 280.585 146.017 280.585 144.911C280.585 143.448 280.069 142.243 279.036 141.297C278.016 140.35 276.498 139.877 274.481 139.877H267.566V150.296ZM294.854 172V134.234H301.695V166.265H318.328V172H294.854ZM356.541 153.117C356.541 157.186 355.779 160.671 354.255 163.573C352.743 166.462 350.677 168.675 348.059 170.211C345.452 171.748 342.496 172.516 339.189 172.516C335.882 172.516 332.919 171.748 330.301 170.211C327.694 168.662 325.629 166.443 324.105 163.554C322.592 160.653 321.836 157.174 321.836 153.117C321.836 149.048 322.592 145.569 324.105 142.68C325.629 139.778 327.694 137.559 330.301 136.023C332.919 134.486 335.882 133.718 339.189 133.718C342.496 133.718 345.452 134.486 348.059 136.023C350.677 137.559 352.743 139.778 354.255 142.68C355.779 145.569 356.541 149.048 356.541 153.117ZM349.663 153.117C349.663 150.253 349.214 147.837 348.317 145.87C347.432 143.891 346.202 142.397 344.629 141.389C343.055 140.369 341.242 139.858 339.189 139.858C337.136 139.858 335.322 140.369 333.749 141.389C332.175 142.397 330.94 143.891 330.042 145.87C329.157 147.837 328.715 150.253 328.715 153.117C328.715 155.981 329.157 158.403 330.042 160.383C330.94 162.35 332.175 163.843 333.749 164.864C335.322 165.872 337.136 166.376 339.189 166.376C341.242 166.376 343.055 165.872 344.629 164.864C346.202 163.843 347.432 162.35 348.317 160.383C349.214 158.403 349.663 155.981 349.663 153.117ZM395.335 146.976H388.439C388.242 145.845 387.879 144.843 387.351 143.971C386.822 143.085 386.164 142.336 385.377 141.721C384.591 141.106 383.693 140.645 382.685 140.338C381.689 140.018 380.614 139.858 379.458 139.858C377.405 139.858 375.586 140.375 374 141.407C372.414 142.428 371.172 143.928 370.275 145.907C369.377 147.874 368.929 150.277 368.929 153.117C368.929 156.006 369.377 158.44 370.275 160.419C371.184 162.386 372.426 163.874 374 164.882C375.586 165.878 377.399 166.376 379.44 166.376C380.571 166.376 381.628 166.228 382.611 165.933C383.607 165.626 384.498 165.177 385.285 164.587C386.084 163.997 386.754 163.272 387.295 162.411C387.848 161.55 388.23 160.567 388.439 159.461L395.335 159.497C395.077 161.292 394.518 162.977 393.657 164.55C392.809 166.124 391.696 167.513 390.319 168.718C388.943 169.91 387.332 170.844 385.488 171.521C383.644 172.184 381.597 172.516 379.347 172.516C376.028 172.516 373.065 171.748 370.459 170.211C367.853 168.675 365.8 166.456 364.3 163.554C362.8 160.653 362.05 157.174 362.05 153.117C362.05 149.048 362.806 145.569 364.318 142.68C365.831 139.778 367.89 137.559 370.496 136.023C373.102 134.486 376.053 133.718 379.347 133.718C381.45 133.718 383.404 134.013 385.211 134.603C387.019 135.193 388.629 136.06 390.043 137.203C391.457 138.334 392.618 139.723 393.528 141.371C394.45 143.006 395.052 144.874 395.335 146.976ZM401.6 172V134.234H408.442V151.586H408.903L423.637 134.234H431.99L417.385 151.181L432.119 172H423.895L412.628 155.809L408.442 160.751V172H401.6ZM467.041 146.976H460.144C459.947 145.845 459.585 144.843 459.056 143.971C458.527 143.085 457.87 142.336 457.083 141.721C456.296 141.106 455.399 140.645 454.391 140.338C453.395 140.018 452.319 139.858 451.164 139.858C449.11 139.858 447.291 140.375 445.705 141.407C444.119 142.428 442.878 143.928 441.98 145.907C441.083 147.874 440.634 150.277 440.634 153.117C440.634 156.006 441.083 158.44 441.98 160.419C442.89 162.386 444.132 163.874 445.705 164.882C447.291 165.878 449.104 166.376 451.145 166.376C452.276 166.376 453.333 166.228 454.317 165.933C455.313 165.626 456.204 165.177 456.991 164.587C457.79 163.997 458.46 163.272 459.001 162.411C459.554 161.55 459.935 160.567 460.144 159.461L467.041 159.497C466.783 161.292 466.223 162.977 465.363 164.55C464.514 166.124 463.402 167.513 462.025 168.718C460.648 169.91 459.038 170.844 457.194 171.521C455.349 172.184 453.303 172.516 451.053 172.516C447.734 172.516 444.771 171.748 442.165 170.211C439.558 168.675 437.505 166.456 436.006 163.554C434.506 160.653 433.756 157.174 433.756 153.117C433.756 149.048 434.512 145.569 436.024 142.68C437.536 139.778 439.595 137.559 442.201 136.023C444.808 134.486 447.758 133.718 451.053 133.718C453.155 133.718 455.11 134.013 456.917 134.603C458.724 135.193 460.335 136.06 461.748 137.203C463.162 138.334 464.324 139.723 465.234 141.371C466.156 143.006 466.758 144.874 467.041 146.976ZM473.306 172V134.234H480.147V150.222H497.647V134.234H504.507V172H497.647V155.957H480.147V172H473.306ZM516.797 172H509.495L522.791 134.234H531.236L544.55 172H537.248L527.161 141.979H526.866L516.797 172ZM517.037 157.192H536.953V162.688H517.037V157.192ZM556.366 134.234V172H549.525V134.234H556.366ZM594.81 134.234V172H588.724L570.929 146.276H570.616V172H563.774V134.234H569.897L587.673 159.977H588.005V134.234H594.81Z" fill="white"/>
</svg>
