<?xml version="1.0" encoding="utf-8"?>
<!-- Generator: Adobe Illustrator 26.1.0, SVG Export Plug-In . SVG Version: 6.00 Build 0)  -->
<svg version="1.1" id="Layer_1" xmlns="http://www.w3.org/2000/svg" xmlns:xlink="http://www.w3.org/1999/xlink" x="0px" y="0px"
	 viewBox="0 0 407.4 121.3" style="enable-background:new 0 0 407.4 121.3;" xml:space="preserve">
<style type="text/css">
	.st0{enable-background:new    ;}
</style>
<path d="M262.8,42.9c-2.9,0-4.4,1.6-4.4,4.7v34c0,3.2,1.4,4.8,4.4,4.8c2.9,0,4.4-1.6,4.5-4.8v-34C267.3,44.4,265.8,42.9,262.8,42.9z
	"/>
<circle cx="262.8" cy="28.8" r="6"/>
<path d="M249,42.7c-0.9,0-1.7,0.2-2.5,0.7c-0.9,0.7-1.5,1.6-1.8,2.7l-10.6,29.7L223.5,46c-0.5-2-2.3-3.3-4.4-3.2
	c-2-0.1-3.8,1.3-4.4,3.2L204,75.5l-10.4-29.2c-0.3-1.1-0.9-2.1-1.8-2.8c-2-1.3-4.7-0.8-6.2,1c-0.7,1.1-0.7,2.6,0,4.3l12.8,33.9
	c0.7,2.3,2.9,3.9,5.3,3.8c2.4,0.1,4.6-1.5,5.2-3.8l9.9-27.2l10,27.2c0.7,2.4,2.9,4,5.3,3.8c2.4,0,4.2-1.3,5.2-3.8l12.8-33.9
	c0.6-1.3,0.6-2.8,0.1-4.2C251.9,43.3,250.7,42.7,249,42.7z"/>
<path d="M297.7,78.6c-0.7,0.1-1.3,0.2-2,0.4c-0.9,0.2-1.8,0.3-2.7,0.3c-3,0-5.1-0.8-6.4-2.3s-2-3.9-2-7V50.1h10.2
	c2.4,0,3.7-1.1,3.7-3.4s-1.2-3.4-3.7-3.4h-4.7c-3.1,0-5.5-2.4-5.6-5.5v-3.5c0-3-1.5-4.4-4.4-4.4s-4.4,1.5-4.5,4.4v36.3
	c0,5.2,1.3,9.1,3.9,11.8c2.6,2.7,6.6,4.1,11.9,4.1c1.1,0,2.1-0.1,3.2-0.3c1-0.1,1.9-0.4,2.8-0.7c0.8-0.2,1.4-0.7,1.7-1.4
	c0.3-0.8,0.5-1.6,0.5-2.5c0.1-0.9-0.1-1.8-0.6-2.5C298.8,78.8,298.3,78.6,297.7,78.6z"/>
<path d="M321.8,49.5c3,0,6,1,8.5,2.8c0.8,0.5,1.8,0.7,2.8,0.5c0.8-0.3,1.5-0.8,1.9-1.6s0.6-1.7,0.4-2.5c-0.2-0.9-0.8-1.8-1.6-2.2
	c-1.9-1.4-4-2.4-6.2-3c-2.1-0.6-4.2-0.9-6.4-0.9c-6.5,0-11.7,1.9-15.5,5.8s-5.8,9.2-5.8,16c-0.1,4.1,0.8,8.1,2.6,11.8
	c1.7,3.2,4.2,5.9,7.4,7.8c3.5,1.9,7.3,2.8,11.3,2.7c2.1,0,4.3-0.3,6.3-0.9c2.2-0.6,4.2-1.6,6-2.9c0.8-0.5,1.4-1.3,1.6-2.2
	c0.2-0.9,0-1.7-0.4-2.5c-0.3-0.7-1-1.3-1.7-1.6c-0.9-0.3-1.9-0.1-2.8,0.4c-2.5,1.7-5.4,2.7-8.5,2.7c-4.1,0-7.3-1.3-9.5-4
	s-3.4-6.4-3.4-11.2s1.1-8.4,3.4-11S317.7,49.5,321.8,49.5z"/>
<path d="M364.4,42.5c-2.9,0-5.7,0.6-8.3,1.9c-2.5,1.2-4.5,3.2-5.9,5.5V34.3c0-3-1.5-4.4-4.4-4.4c-3,0-4.4,1.5-4.4,4.4V82
	c0,3,1.5,4.4,4.4,4.4s4.4-1.5,4.4-4.4V61.8c-0.2-3.3,1-6.4,3.2-8.8c2.2-2.3,5.3-3.5,8.5-3.4c3,0,5.2,0.8,6.7,2.5s2.1,4.4,2.1,8V82
	c0,3,1.5,4.4,4.5,4.4s4.4-1.5,4.4-4.4V59.6C379.5,48.2,374.5,42.5,364.4,42.5z"/>
<path d="M164.6,86.9c-2.7,0-5.5-0.3-8.2-0.9c-2.7-0.5-5.3-1.6-7.6-3c-0.9-0.5-1.6-1.3-1.9-2.2c-0.2-0.8-0.2-1.7,0.2-2.5
	c0.7-1.5,2.5-2.2,4-1.6c0.2,0.1,0.3,0.2,0.4,0.2c2.1,1.2,4.4,2.1,6.7,2.7c2.1,0.5,4.2,0.8,6.4,0.8c3.2,0,5.6-0.6,7.2-1.7
	c1.6-1,2.5-2.8,2.4-4.6c0.1-1.4-0.5-2.7-1.6-3.6c-1.4-1-3.1-1.7-4.9-2l-8.5-1.7c-7.5-1.6-11.3-5.5-11.3-11.7
	c-0.1-3.9,1.7-7.6,4.9-9.9c3.3-2.5,7.6-3.7,12.9-3.7c4.9-0.1,9.8,1.2,13.9,3.9c0.9,0.5,1.5,1.3,1.7,2.2c0.4,1.7-0.6,3.4-2.2,4
	c-0.9,0.3-2,0.1-2.8-0.4c-1.7-1-3.5-1.8-5.4-2.4c-1.7-0.5-3.4-0.7-5.2-0.8c-3.1,0-5.5,0.6-7.1,1.8c-1.6,1.1-2.5,2.8-2.4,4.7
	c0,3,2,4.9,5.9,5.7l8.5,1.7c3.9,0.8,6.8,2.1,8.8,4c2,2,3.1,4.7,3,7.5c0.2,3.9-1.7,7.6-4.9,9.8C174.4,85.7,170,86.9,164.6,86.9z"/>
<path d="M119.7,13.1H20.6c-5.8,0-10.6,4.7-10.6,10.6l0,0l0,0v77.2c0,5.8,4.7,10.6,10.6,10.6h99.1c5.8,0,10.6-4.7,10.6-10.6l0,0V23.7
	C130.2,17.8,125.5,13.1,119.7,13.1L119.7,13.1L119.7,13.1z M120.9,98.3c0,1.8-1.5,3.2-3.2,3.2H22.6c-1.8,0-3.2-1.4-3.2-3.2l0,0l0,0
	V26.2c0-1.8,1.4-3.2,3.2-3.2h95.1c1.8,0,3.2,1.5,3.2,3.2l0,0L120.9,98.3z"/>
<polygon points="94.7,40.2 61.5,40.2 61.5,32.7 39.7,49.2 61.5,65.7 61.5,58.2 94.7,58.2 "/>
<polygon points="39.8,68.6 73,68.6 73,61 94.7,77.5 73,94 73,86.5 39.8,86.5 "/>
<g class="st0">
	<path d="M384.9,30.3h-3.2v-1.2h7.8v1.2h-3.2v9.3h-1.4V30.3z"/>
	<path d="M399.5,35.1c-0.1-1.5-0.2-3.2-0.2-4.5h0c-0.4,1.2-0.8,2.5-1.3,4l-1.9,5.1h-1l-1.7-5c-0.5-1.5-0.9-2.8-1.2-4.1h0
		c0,1.3-0.1,3.1-0.2,4.6l-0.3,4.5h-1.3l0.7-10.5h1.7l1.8,5.1c0.4,1.3,0.8,2.4,1.1,3.5h0c0.3-1.1,0.6-2.2,1.1-3.5l1.9-5.1h1.7
		l0.7,10.5h-1.3L399.5,35.1z"/>
</g>
</svg>
