<?xml version="1.0" encoding="utf-8"?>
<!-- Generator: Adobe Illustrator 26.1.0, SVG Export Plug-In . SVG Version: 6.00 Build 0)  -->
<svg version="1.1" id="Layer_1" xmlns="http://www.w3.org/2000/svg" xmlns:xlink="http://www.w3.org/1999/xlink" x="0px" y="0px"
	 viewBox="0 0 153 110.7" style="enable-background:new 0 0 153 110.7;" xml:space="preserve">
<style type="text/css">
	.st0{enable-background:new    ;}
</style>
<path d="M114.3,6.7H15.2c-5.8,0-10.6,4.7-10.6,10.6l0,0l0,0v77.2c0,5.8,4.7,10.6,10.6,10.6h99.1c5.8,0,10.6-4.7,10.6-10.6l0,0V17.3
	C124.8,11.4,120.1,6.7,114.3,6.7L114.3,6.7L114.3,6.7z M115.5,91.9c0,1.8-1.5,3.2-3.2,3.2H17.2c-1.8,0-3.2-1.4-3.2-3.2l0,0l0,0V19.8
	c0-1.8,1.4-3.2,3.2-3.2h95.1c1.8,0,3.2,1.5,3.2,3.2l0,0V91.9z"/>
<polygon points="89.3,33.8 56.1,33.8 56.1,26.3 34.3,42.8 56.1,59.3 56.1,51.8 89.3,51.8 "/>
<polygon points="34.4,62.2 67.6,62.2 67.6,54.6 89.3,71.1 67.6,87.6 67.6,80.1 34.4,80.1 "/>
<g class="st0">
	<path d="M133.4,6.3h-3.2V5.1h7.8v1.2h-3.2v9.3h-1.4V6.3z"/>
	<path d="M148,11c-0.1-1.5-0.2-3.2-0.2-4.5h0c-0.4,1.2-0.8,2.5-1.3,4l-1.9,5.1h-1l-1.7-5c-0.5-1.5-0.9-2.8-1.2-4.1h0
		c0,1.3-0.1,3.1-0.2,4.6l-0.3,4.5h-1.3l0.7-10.5h1.7l1.8,5.1c0.4,1.3,0.8,2.4,1.1,3.5h0c0.3-1.1,0.6-2.2,1.1-3.5l1.9-5.1h1.7
		l0.7,10.5h-1.3L148,11z"/>
</g>
</svg>
