<?xml version="1.0" encoding="utf-8"?>
<!-- Generator: Adobe Illustrator 26.1.0, SVG Export Plug-In . SVG Version: 6.00 Build 0)  -->
<svg version="1.1" id="Layer_1" xmlns="http://www.w3.org/2000/svg" xmlns:xlink="http://www.w3.org/1999/xlink" x="0px" y="0px"
	 viewBox="0 0 1080 1080" style="enable-background:new 0 0 1080 1080;" xml:space="preserve">
<style type="text/css">
	.st0{fill:#4C8CCA;}
	.st1{fill:#FFFFFF;}
	.st2{enable-background:new    ;}
	.st3{fill:#F1F2F2;}
</style>
<circle class="st0" cx="540.2" cy="538.8" r="528"/>
<polygon class="st1" points="865.5,264.9 472.7,264.9 472.7,176.1 214.8,371.3 472.7,566.6 472.7,477.8 865.5,477.8 "/>
<polygon class="st1" points="215.4,600.9 608.2,600.9 608.2,510.9 864.9,706.2 608.2,901.4 608.2,812.6 215.4,812.6 "/>
<g class="st2">
	<path class="st3" d="M792.2,900.4v-55.6h-20.8v-7.4h50v7.4h-20.8v55.6H792.2z"/>
	<path class="st3" d="M829.7,900.4v-63h12.6l14.9,44.6c1.4,4.2,2.4,7.3,3,9.3c0.7-2.3,1.8-5.7,3.4-10.1l15.1-43.8h11.2v63h-8v-52.7
		l-18.3,52.7H856l-18.2-53.6v53.6H829.7z"/>
</g>
</svg>
