<?xml version="1.0" encoding="utf-8"?>
<!-- Generator: Adobe Illustrator 26.1.0, SVG Export Plug-In . SVG Version: 6.00 Build 0)  -->
<svg version="1.1" id="a" xmlns="http://www.w3.org/2000/svg" xmlns:xlink="http://www.w3.org/1999/xlink" x="0px" y="0px"
	 viewBox="0 0 392 98.4" style="enable-background:new 0 0 392 98.4;" xml:space="preserve">
<style type="text/css">
	.st0{fill:#FFFFFF;}
	.st1{enable-background:new    ;}
</style>
<path class="st0" d="M252.8,29.8c-2.9,0-4.4,1.6-4.4,4.7v34c0,3.2,1.4,4.8,4.4,4.8c2.9,0,4.4-1.6,4.4-4.8v-34
	C257.2,31.4,255.8,29.8,252.8,29.8z"/>
<circle class="st0" cx="252.8" cy="15.8" r="6"/>
<path class="st0" d="M239,29.6c-0.9,0-1.7,0.2-2.5,0.7c-0.9,0.7-1.5,1.6-1.8,2.7l-10.6,29.7l-10.6-29.8c-0.5-2-2.3-3.3-4.4-3.2
	c-2,0-3.8,1.3-4.4,3.2l-10.8,29.6l-10.4-29.2c-0.3-1.1-0.9-2.1-1.8-2.8c-2-1.3-4.7-0.8-6.2,1c-0.7,1.1-0.7,2.6,0,4.3l12.8,33.9
	c0.7,2.3,2.9,3.9,5.3,3.8c2.4,0.1,4.6-1.5,5.2-3.8l9.9-27.2l10,27.2c0.7,2.4,2.9,3.9,5.3,3.8c2.4,0,4.2-1.3,5.2-3.8l12.8-33.9
	c0.6-1.3,0.6-2.8,0.1-4.2C241.8,30.2,240.7,29.6,239,29.6z"/>
<path class="st0" d="M287.7,65.5c-0.7,0.1-1.4,0.2-2,0.4c-0.9,0.2-1.8,0.3-2.7,0.3c-3,0-5.1-0.8-6.4-2.3s-2-3.9-2-7V37h10.2
	c2.4,0,3.7-1.1,3.7-3.4s-1.2-3.4-3.7-3.4h-4.7c-3,0-5.5-2.5-5.6-5.5v-3.5c0-3-1.5-4.4-4.4-4.4s-4.4,1.5-4.5,4.4v36.3
	c0,5.2,1.3,9.1,3.9,11.9c2.6,2.7,6.6,4.1,11.9,4.1c1.1,0,2.1-0.1,3.2-0.3c1-0.1,1.9-0.4,2.8-0.7c0.8-0.2,1.4-0.7,1.7-1.4
	c0.3-0.8,0.5-1.6,0.5-2.5c0.1-0.9-0.1-1.8-0.6-2.5C288.8,65.7,288.2,65.5,287.7,65.5L287.7,65.5z"/>
<path class="st0" d="M311.8,36.4c3,0,6,1,8.5,2.8c0.8,0.5,1.8,0.7,2.8,0.5c0.8-0.3,1.5-0.8,1.9-1.6c0.4-0.8,0.6-1.7,0.4-2.5
	c-0.2-0.9-0.8-1.8-1.6-2.2c-1.9-1.4-4-2.4-6.2-3c-2.1-0.6-4.2-0.9-6.4-0.9c-6.5,0-11.7,1.9-15.5,5.8s-5.8,9.2-5.8,16
	c-0.1,4.1,0.8,8.1,2.6,11.8c1.7,3.2,4.2,5.9,7.4,7.8c3.5,1.9,7.3,2.8,11.3,2.7c2.1,0,4.3-0.3,6.3-0.9c2.2-0.6,4.2-1.6,6-2.9
	c0.9-0.5,1.5-1.3,1.6-2.2c0.1-0.9,0-1.7-0.4-2.5c-0.4-0.7-1-1.3-1.7-1.6c-0.9-0.3-1.9-0.1-2.8,0.4c-2.5,1.7-5.4,2.7-8.5,2.7
	c-4.1,0-7.3-1.3-9.5-4c-2.2-2.7-3.4-6.4-3.4-11.2c0-4.8,1.1-8.4,3.4-11S307.7,36.5,311.8,36.4L311.8,36.4z"/>
<path class="st0" d="M354.4,29.5c-2.9,0-5.7,0.6-8.3,1.9c-2.5,1.2-4.5,3.2-5.9,5.5V21.2c0-3-1.5-4.4-4.4-4.4s-4.4,1.5-4.4,4.4v47.7
	c0,3,1.5,4.4,4.4,4.4s4.4-1.5,4.4-4.4V48.7c-0.1-3.2,1-6.4,3.2-8.8c2.2-2.3,5.3-3.5,8.5-3.4c3,0,5.2,0.8,6.7,2.5s2.1,4.4,2.1,8v21.9
	c0,3,1.5,4.4,4.5,4.4s4.4-1.5,4.4-4.4V46.5C369.5,35.1,364.5,29.4,354.4,29.5z"/>
<path class="st0" d="M154.6,73.8c-2.7,0-5.5-0.3-8.2-0.9c-2.7-0.6-5.3-1.6-7.6-3c-0.9-0.5-1.6-1.3-1.9-2.2c-0.2-0.8-0.2-1.7,0.2-2.5
	c0.7-1.5,2.4-2.2,4-1.6c0.2,0.1,0.3,0.2,0.4,0.2c2.1,1.2,4.4,2.1,6.7,2.7c2.1,0.5,4.2,0.8,6.4,0.8c3.2,0,5.6-0.6,7.2-1.7
	c1.6-1,2.5-2.8,2.4-4.6c0.1-1.4-0.5-2.8-1.6-3.6c-1.4-1-3.1-1.7-4.9-2l-8.5-1.7C141.7,52.1,138,48.2,138,42
	c-0.1-3.9,1.8-7.6,4.9-9.9c3.3-2.5,7.6-3.7,12.9-3.7c4.9-0.1,9.8,1.2,13.9,3.9c0.9,0.5,1.5,1.3,1.7,2.2c0.4,1.7-0.6,3.4-2.2,4
	c-0.9,0.3-2,0.2-2.8-0.4c-1.7-1-3.5-1.8-5.4-2.4c-1.7-0.5-3.4-0.8-5.2-0.8c-3.1,0-5.5,0.6-7.1,1.8c-1.6,1-2.5,2.8-2.4,4.7
	c0,3,2,4.9,5.9,5.7l8.5,1.7c3.9,0.8,6.8,2.1,8.8,4c2.1,2,3.1,4.7,3,7.5c0.1,3.9-1.7,7.6-4.9,9.8C164.3,72.6,160,73.8,154.6,73.8
	L154.6,73.8z"/>
<path class="st0" d="M109.6,0H10.6C4.7,0,0,4.7,0,10.6v0l0,0v77.2c0,5.8,4.7,10.6,10.6,10.6h99.1c5.8,0,10.6-4.7,10.6-10.6l0,0V10.6
	C120.2,4.8,115.5,0,109.6,0L109.6,0L109.6,0z M110.9,85.2c0,1.8-1.4,3.2-3.2,3.2H12.6c-1.8,0-3.2-1.4-3.2-3.2l0,0V13.1
	c0-1.8,1.4-3.2,3.2-3.2h95.1c1.8,0,3.2,1.4,3.2,3.2l0,0V85.2z"/>
<polygon class="st0" points="84.6,27.2 51.4,27.2 51.4,19.6 29.7,36.2 51.4,52.7 51.4,45.1 84.6,45.1 "/>
<polygon class="st0" points="29.7,55.5 62.9,55.5 62.9,48 84.7,64.5 62.9,81 62.9,73.4 29.7,73.4 "/>
<g class="st1">
	<path class="st0" d="M374.9,17.3h-3.2v-1.2h7.8v1.2h-3.2v9.3h-1.4V17.3z"/>
	<path class="st0" d="M389.5,22c-0.1-1.5-0.2-3.2-0.2-4.5h0c-0.4,1.2-0.8,2.5-1.3,4l-1.9,5.1h-1l-1.7-5c-0.5-1.5-0.9-2.8-1.2-4.1h0
		c0,1.3-0.1,3.1-0.2,4.6l-0.3,4.5h-1.3l0.7-10.5h1.7l1.8,5.1c0.4,1.3,0.8,2.4,1.1,3.5h0c0.3-1.1,0.6-2.2,1.1-3.5l1.9-5.1h1.7
		l0.7,10.5h-1.3L389.5,22z"/>
</g>
</svg>
