<?xml version="1.0" encoding="utf-8"?>
<!-- Generator: Adobe Illustrator 26.1.0, SVG Export Plug-In . SVG Version: 6.00 Build 0)  -->
<svg version="1.1" id="Layer_1" xmlns="http://www.w3.org/2000/svg" xmlns:xlink="http://www.w3.org/1999/xlink" x="0px" y="0px"
	 viewBox="0 0 143.6 107.5" style="enable-background:new 0 0 143.6 107.5;" xml:space="preserve">
<style type="text/css">
	.st0{fill:#FFFFFF;}
	.st1{enable-background:new    ;}
</style>
<path class="st0" d="M111.6,7h-99C6.7,7,2,11.7,2,17.5l0,0l0,0v77.2c0,5.8,4.7,10.6,10.6,10.6l0,0h99c5.8,0,10.6-4.7,10.6-10.6l0,0
	l0,0V17.6C122.1,11.7,117.4,7,111.6,7L111.6,7z M112.8,92.2c0,1.8-1.5,3.2-3.2,3.2h-95c-1.8,0-3.2-1.4-3.2-3.2l0,0l0,0V20.1
	c0-1.8,1.4-3.2,3.2-3.2h95c1.8,0,3.3,1.4,3.3,3.2l0,0L112.8,92.2z"/>
<polygon class="st0" points="86.6,34.2 53.4,34.2 53.4,26.6 31.7,43.1 53.4,59.6 53.4,52.1 86.6,52.1 "/>
<polygon class="st0" points="31.7,62.5 64.9,62.5 64.9,55 86.7,71.5 64.9,88 64.9,80.4 31.7,80.4 "/>
<g class="st1">
	<path class="st0" d="M125.3,2.8h-3.2V1.6h7.7v1.1h-3.2V12h-1.4V2.8z"/>
	<path class="st0" d="M139.8,7.5c-0.1-1.5-0.2-3.2-0.2-4.5h0c-0.4,1.2-0.8,2.5-1.3,4l-1.8,5h-1l-1.7-5c-0.5-1.5-0.9-2.8-1.2-4h0
		c0,1.3-0.1,3-0.2,4.6L132,12h-1.3l0.7-10.4h1.7l1.8,5c0.4,1.3,0.8,2.4,1,3.5h0c0.3-1.1,0.6-2.2,1.1-3.5l1.9-5h1.7l0.6,10.4H140
		L139.8,7.5z"/>
</g>
</svg>
