<?xml version="1.0" encoding="UTF-8"?><svg id="a" xmlns="http://www.w3.org/2000/svg" viewBox="0 0 460.04 518.35"><defs><style>.b{fill:#fff;}</style></defs><path class="b" d="M314.27,113.24c-73.62-42.5-76.13-53.5-112.94-32.99v-.13l-3.87,2.33-2.91,1.7v.06c-13.3,7.98-39.55,23.68-46.54,27.74-.74,.43-1.49,.86-2.24,1.3-6.66,3.84-12.8,7.31-18.47,10.47-7.85,4.38-14.79,8.17-20.93,11.55-9.3,5.12-16.74,9.31-22.68,13.17-29.55,19.19-22.18,30.54-22.18,110.75,0,89.88-9.25,93.3,34.55,118.17l111.52,63.97-.11,.06,1.65,.82,.03,.02h0c19.01,9.28,28.86,7.6,51.21-5.07,12.64-7.16,53.9-32.05,53.9-32.05l58.88-38.3c7.41-4.82,7.35-15.7-.12-20.43-3.36-2.12-7.64-2.11-10.98,.03l-91.06,58.31s0,0-.01,0c-8.47,5.12-15.23,9.17-21,12.12-24.85,14.35-16.6,13.17-42.2-1.52-33.49-19.19-90.14-51.69-91.04-52.19-35.61-19.94-34.09-23.52-33.04-75.87v-56.2c-.33-16.16-.69-27.68,0-36.46,1.31-16.56,6.39-23.41,22.68-33.39,5.57-3.42,12.45-7.19,20.93-11.86,6.05-3.32,12.92-7.1,20.71-11.5,2.88-1.62,5.87-3.34,9-5.14,4.98-2.88,38.91-23.18,44.1-26.28l.22-.13c35.65-20.64,35.44-11.84,101.69,26.41,79.21,45.73,74.46,30.22,73.2,104.93-.09,5.58-4.64,10.07-10.22,10.07h-2.11c-5.73,0-10.33-4.71-10.22-10.44,1.13-58.94,3.67-47.11-61.94-84.99-59.51-34.35-55.58-40.61-91.99-18.76l-.06,.03-.1,.06c-2.57,1.52-30.37,18.13-31.28,18.66-7.66,4.42-14.38,8.16-20.3,11.42-8.48,4.67-15.27,8.34-20.71,11.58-14.83,8.84-19.59,14.45-20.88,28.27-.02,.35-.03,.72-.05,1.08v32.89c.12,6.35,.22,13.51,.22,21.64s-.11,15.3-.22,21.64c-.94,49.46-2.94,49.31,34.69,70,.61,.35,47.51,27.4,67.95,39.18h0c21.99,13.13,20.18,14.47,42.19,1.76l83.33-52.76c6.39-4.05,6.33-13.39-.12-17.35l-1.11-.68c-3.33-2.04-7.52-2.02-10.81,.07-16.35,10.38-64.7,41.04-70.18,44.25-21.31,12.5-19.58,13.99-40.74,1.76-22.25-12.84-49.81-28.72-50.49-29.1-35.51-19.55-34.58-17.8-33.76-58.05v-41.47c-.22-10.65-.44-18.37,0-24.31,1-13.32,5.36-17.75,20.71-26.51,5.12-2.91,51.75-29.67,51.75-29.67h.02c35.83-21.72,29.46-17.56,81.49,12.48,52.92,30.55,52.44,22.16,51.51,66.52-.11,5.41-4.09,10.35-9.48,10.74-6.07,.44-11.09-4.44-10.97-10.42,.62-30.89-.68-25.65-41.3-49.11-44.82-25.88-35.46-27.75-72.42-5.63-.96,.57-17.11,9.71-25.86,14.67-.06-.02-.11-.05-.16-.07-12.83,6.62-18.93,9.89-21.86,15.59-1.48,2.35-2.29,5.03-2.7,8.56,0,0-.04,13.74-.06,16.01,.02,.02,.04,.03,.06,.05v17.24c.01,1.48,.02,3.01,.02,4.6,0,8.1-.15,14.76-.27,20.31-.57,27.11-.2,27.73,23.55,40.79,2.65,1.45,5.56,3.05,8.82,4.87,1.34,.74,19.79,11.37,27.38,15.74l.22,.12,2.91,1.67,.05-.03c21.04,11.67,23.18,11.17,45.73-1.85,4.33-2.62,15.48-9.19,15.48-9.19l24.43-15.67c6.61-4.24,6.56-13.92-.09-18.1l-1.35-.85c-4.66-2.92-10.57-2.9-15.21,.05-10.33,6.57-27.78,17.66-29.69,18.82-18.26,11.02-17.34,12.94-35.07,2.67-6.77-3.93-13.08-7.58-14.36-8.31-5.48-3.17-9.97-5.6-13.63-7.62-15.9-8.76-16.42-9.65-16.05-27.8,.08-4.19,.22-9.29,.22-15.63,0-6.83-.15-12.22-.24-16.58,.03,0,.06-.01,.08-.02,.08-12.45,.36-16.77,5.73-20.95,9.36-5.28,22.48-12.68,23.89-13.49,34.74-20.05,24.2-20.05,58.94,0,26.2,15.13,29.65,13.65,29.75,29.23,.04,5.69-4.54,10.35-10.23,10.36h-28.23c-4.06-7.34-11.78-12.36-20.76-12.36-13.16,0-23.82,10.67-23.82,23.82s10.67,23.82,23.82,23.82c8.98,0,16.71-5.03,20.77-12.37h137.52c5.65,0,10.22-4.58,10.22-10.22v-1.24c0-114.68,15.06-88.59-84.26-145.93Z"/><path class="b" d="M230.01,518.35c-7.17,0-14.34-1.86-20.72-5.55L20.72,403.94c-12.78-7.39-20.72-21.15-20.72-35.9V150.31c0-14.75,7.94-28.51,20.72-35.9L209.29,5.54c12.76-7.37,28.66-7.41,41.46,0l188.55,108.87c12.8,7.39,20.74,21.15,20.74,35.9v217.74c0,14.75-7.94,28.51-20.74,35.9l-188.55,108.87c-6.4,3.69-13.57,5.55-20.74,5.55Zm0-494.15c-2.98,0-5.96,.76-8.62,2.3L32.82,135.37c-5.31,3.07-8.62,8.79-8.62,14.94v217.74c0,6.15,3.31,11.87,8.62,14.94l188.57,108.87c5.34,3.1,11.94,3.06,17.25,0l188.55-108.87c5.33-3.07,8.64-8.81,8.64-14.94V150.31c0-6.13-3.31-11.87-8.64-14.94L238.65,26.5c-2.66-1.53-5.66-2.3-8.64-2.3Z"/></svg>