<?xml version="1.0" encoding="UTF-8"?><svg id="a" xmlns="http://www.w3.org/2000/svg" viewBox="0 0 410.73 593.81"><defs><style>.b{fill:#fff;}</style></defs><path class="b" d="M154.35,530.77h-34.31c-.48,0-1.02,.08-1.62,.23-.6,.15-1.11,.31-1.53,.49l-8.28,8.28c-.24,.42-.42,.93-.54,1.53-.12,.6-.18,1.14-.18,1.62v38.72c0,.48,.06,1.02,.18,1.62,.12,.6,.3,1.11,.54,1.53l8.28,8.29c.42,.24,.93,.42,1.53,.54,.6,.12,1.14,.18,1.62,.18h34.31c.48,0,.88-.16,1.22-.49s.49-.73,.49-1.22v-11.26c0-.48-.17-.88-.49-1.22-.33-.33-.74-.5-1.22-.5h-30.17c-.3,0-.45-.15-.45-.45v-9.73c0-.3,.15-.45,.45-.45h25.67c1.14,0,1.71-.57,1.71-1.71v-9.01c0-.48-.17-.88-.5-1.22-.33-.33-.74-.49-1.22-.49h-25.67c-.3,0-.45-.12-.45-.36v-9.82c0-.3,.15-.45,.45-.45h30.17c.48,0,.88-.15,1.22-.45,.33-.3,.49-.69,.49-1.17v-11.35c0-.48-.17-.88-.49-1.22-.33-.33-.74-.5-1.22-.5Z"/><path class="b" d="M99.51,578.5h-23.05c-.48,0-.89-.15-1.22-.45-.33-.3-.5-.69-.5-1.17v-44.4c0-1.14-.57-1.71-1.71-1.71h-12.43c-1.14,0-1.71,.57-1.71,1.71v59.62c0,1.14,.57,1.71,1.71,1.71h38.9c.48,0,.87-.16,1.17-.49,.3-.33,.45-.73,.45-1.22v-11.89c0-.48-.15-.89-.45-1.22-.3-.33-.69-.49-1.17-.49Z"/><path class="b" d="M46.47,530.77H12.16c-.48,0-1.02,.08-1.62,.23-.6,.15-1.11,.31-1.53,.49l-8.28,8.28c-.24,.42-.42,.93-.54,1.53-.12,.6-.18,1.14-.18,1.62v38.72c0,.48,.06,1.02,.18,1.62,.12,.6,.3,1.11,.54,1.53l8.28,8.29c.42,.24,.93,.42,1.53,.54,.6,.12,1.14,.18,1.62,.18H46.47c.48,0,.89-.16,1.22-.49s.49-.73,.49-1.22v-11.26c0-.48-.17-.88-.49-1.22-.33-.33-.74-.5-1.22-.5H16.3c-.3,0-.45-.15-.45-.45v-9.73c0-.3,.15-.45,.45-.45h25.67c1.14,0,1.71-.57,1.71-1.71v-9.01c0-.48-.17-.88-.49-1.22-.33-.33-.74-.49-1.22-.49H16.3c-.3,0-.45-.12-.45-.36v-9.82c0-.3,.15-.45,.45-.45h30.17c.48,0,.89-.15,1.22-.45,.33-.3,.49-.69,.49-1.17v-11.35c0-.48-.17-.88-.49-1.22-.33-.33-.74-.5-1.22-.5Z"/><path class="b" d="M290.15,530.77h-34.31c-.48,0-1.02,.08-1.62,.23-.6,.15-1.11,.31-1.53,.49l-8.28,8.28c-.24,.42-.42,.93-.54,1.53-.12,.6-.18,1.14-.18,1.62v38.72c0,.48,.06,1.02,.18,1.62,.12,.6,.3,1.11,.54,1.53l8.28,8.29c.42,.24,.93,.42,1.53,.54,.6,.12,1.14,.18,1.62,.18h34.31c.48,0,.89-.16,1.22-.49s.49-.73,.49-1.22v-11.26c0-.48-.17-.88-.49-1.22-.33-.33-.74-.5-1.22-.5h-30.17c-.3,0-.45-.15-.45-.45v-9.73c0-.3,.15-.45,.45-.45h25.67c1.14,0,1.71-.57,1.71-1.71v-9.01c0-.48-.17-.88-.49-1.22-.33-.33-.74-.49-1.22-.49h-25.67c-.3,0-.45-.12-.45-.36v-9.82c0-.3,.15-.45,.45-.45h30.17c.48,0,.89-.15,1.22-.45,.33-.3,.49-.69,.49-1.17v-11.35c0-.48-.17-.88-.49-1.22-.33-.33-.74-.5-1.22-.5Z"/><path class="b" d="M410.24,531.26c-.33-.33-.74-.5-1.22-.5h-44.76c-1.14,0-1.71,.57-1.71,1.71v11.89c0,.48,.16,.89,.5,1.22,.33,.33,.73,.5,1.22,.5h12.79c.48,0,.87,.15,1.17,.45,.3,.3,.45,.69,.45,1.17v44.4c0,.48,.16,.89,.49,1.22,.33,.33,.73,.49,1.22,.49h12.52c.48,0,.87-.16,1.17-.49,.3-.33,.45-.73,.45-1.22v-44.4c0-.48,.16-.87,.49-1.17,.33-.3,.73-.45,1.22-.45h12.79c.48,0,.88-.17,1.22-.5,.33-.33,.49-.73,.49-1.22v-11.89c0-.48-.17-.88-.49-1.22Z"/><path class="b" d="M232.61,539.77l-8.29-8.28c-.42-.18-.95-.34-1.58-.49-.63-.15-1.19-.23-1.67-.23h-52.59c-.48,0-.89,.17-1.22,.5-.33,.33-.49,.74-.49,1.22v59.62c0,1.14,.57,1.71,1.71,1.71h12.43c1.14,0,1.71-.57,1.71-1.71v-46.02h10.09v46.02c0,.48,.16,.89,.49,1.22,.33,.33,.73,.49,1.22,.49h11.35c.48,0,.87-.16,1.17-.49,.3-.33,.45-.73,.45-1.22v-46.02h10.09v46.02c0,.48,.15,.89,.45,1.22,.3,.33,.69,.49,1.17,.49h12.52c.48,0,.89-.16,1.22-.49,.33-.33,.5-.73,.5-1.22v-49.17c0-.48-.08-1.02-.23-1.62-.15-.6-.32-1.11-.49-1.53Z"/><path class="b" d="M354.81,539.77l-8.28-8.28c-.42-.18-.95-.34-1.58-.49-.63-.15-1.19-.23-1.67-.23h-38.99c-.48,0-.89,.17-1.22,.5-.33,.33-.49,.74-.49,1.22v59.62c0,1.14,.57,1.71,1.71,1.71h12.43c1.14,0,1.71-.57,1.71-1.71v-44.4c0-.48,.16-.87,.49-1.17,.33-.3,.73-.45,1.22-.45h17.83c.48,0,.87,.15,1.17,.45,.3,.3,.45,.69,.45,1.17v44.4c0,.48,.16,.89,.49,1.22,.33,.33,.74,.49,1.22,.49h12.52c.48,0,.88-.16,1.22-.49,.33-.33,.5-.73,.5-1.22v-49.17c0-.48-.08-1.02-.23-1.62-.15-.6-.32-1.11-.5-1.53Z"/><path class="b" d="M378.97,359.26c8.99-5.85,8.91-19.04-.15-24.78-4.07-2.58-9.26-2.56-13.32,.04l-110.44,70.72s-.01,0-.02,.01c-10.27,6.21-18.47,11.12-25.47,14.7-14.08,8.13-19.36,11.99-24.2,12.15-5.52,.18-10.44-4.5-26.99-13.99-40.62-23.28-109.33-62.69-110.41-63.29-43.19-24.18-41.35-28.53-40.07-92.01v-68.16c-.4-19.6-.84-33.57,0-44.22,1.58-20.09,7.75-28.39,27.51-40.5,6.75-4.14,15.09-8.73,25.38-14.38,7.34-4.03,15.67-8.61,25.12-13.95,3.49-1.97,7.12-4.05,10.92-6.24,6.04-3.49,47.19-28.11,53.49-31.87l.27-.16c15.17-8.78,24.97-12.91,34.79-12.9,18.17,.02,36.39,14.82,88.55,44.93,96.07,55.47,90.31,36.66,88.78,127.26-.11,6.77-5.62,12.21-12.4,12.21h-2.56c-6.94,0-12.53-5.72-12.4-12.66,1.37-71.49,4.45-57.14-75.12-103.08-44.13-25.48-59.48-38.06-74.85-38.05-9.77,0-19.56,5-36.72,15.29l-.07,.04-.13,.08c-3.11,1.84-36.83,21.99-37.94,22.63-9.29,5.36-17.44,9.9-24.61,13.85-10.28,5.67-18.52,10.12-25.12,14.05-17.99,10.72-23.76,17.52-25.33,34.29-.02,.43-.04,.88-.06,1.3v39.89c.14,7.7,.27,16.39,.27,26.25s-.13,18.56-.27,26.25c-1.14,59.99-3.56,59.8,42.08,84.9,.74,.42,57.62,33.23,82.41,47.52h0c13.27,7.93,19.39,12.29,25.48,12.8,6.15,.51,12.27-2.92,25.68-10.66l101.06-63.99c7.75-4.91,7.67-16.24-.14-21.04l-1.35-.83c-4.04-2.48-9.12-2.45-13.12,.09-19.83,12.58-78.47,49.78-85.12,53.67-14.52,8.51-20.26,12.64-27.01,12.15-5.27-.38-11.15-3.51-22.4-10.01-26.99-15.58-60.41-34.84-61.24-35.29-43.07-23.71-41.94-21.59-40.94-70.41v-50.29c-.27-12.92-.54-22.28,0-29.48,1.21-16.15,6.5-21.53,25.12-32.16,6.2-3.53,62.76-35.99,62.76-35.99h.02c18.22-11.05,27.46-16.24,36.68-16.25,12.77,0,25.51,10.23,62.15,31.38,64.18,37.06,63.6,26.87,62.48,80.68-.14,6.56-4.96,12.56-11.5,13.03-7.36,.53-13.45-5.39-13.31-12.63,.75-37.46-.82-31.11-50.1-59.56-29.28-16.91-39.52-25.08-49.72-25.09-8.73-.01-17.44,5.88-38.12,18.26-1.16,.7-20.76,11.78-31.36,17.79-.07-.03-.13-.06-.2-.09-15.56,8.03-22.96,11.99-26.51,18.91-1.79,2.85-2.78,6.1-3.28,10.38,0,0-.05,16.66-.07,19.41,.02,.02,.05,.04,.07,.06v20.91c.01,1.79,.02,3.66,.02,5.58,0,9.83-.19,17.9-.33,24.63-.69,32.88-.24,33.64,28.56,49.47,3.21,1.76,6.74,3.7,10.69,5.91,1.62,.9,24.01,13.79,33.2,19.09l.27,.15,3.52,2.02,.07-.04c10.67,5.92,17.31,9.1,23.45,9.83,8.54,1.01,16.1-2.88,32-12.07,5.26-3.18,18.78-11.15,18.78-11.15l29.63-19c8.02-5.14,7.96-16.89-.11-21.95l-1.64-1.03c-5.64-3.54-12.82-3.52-18.44,.06-12.53,7.97-33.69,21.41-36.02,22.82-12.96,7.82-17.98,11.73-24.2,11.24-4.41-.34-9.41-2.83-18.33-8-8.22-4.77-15.87-9.19-17.41-10.08-6.65-3.84-12.09-6.8-16.53-9.25-19.28-10.62-19.91-11.71-19.47-33.71,.1-5.08,.26-11.27,.26-18.95,0-8.28-.18-14.82-.29-20.11,.03-.01,.07-.01,.1-.02,.09-15.1,.44-20.34,6.94-25.41,11.35-6.4,27.27-15.38,28.98-16.37,21.07-12.16,28.41-18.24,35.75-18.24,7.34,0,14.68,6.08,35.74,18.24,31.78,18.35,35.96,16.56,36.09,35.45,.05,6.9-5.5,12.56-12.4,12.56h-34.24c-4.92-8.9-14.29-14.99-25.18-14.99-15.96,0-28.89,12.94-28.89,28.89s12.94,28.89,28.89,28.89c10.89,0,20.26-6.1,25.19-15h166.79c6.85,0,12.4-5.55,12.4-12.4v-1.5c0-139.09,18.27-107.45-102.19-176.99C247.35,16.96,226.34,0,205.37,0c-10.13,0-20.25,3.62-34.79,11.72v-.16l-4.7,2.82-3.53,2.06v.07c-16.13,9.68-47.96,28.72-56.45,33.64-.9,.52-1.81,1.05-2.72,1.57-8.07,4.66-15.52,8.87-22.39,12.7-9.53,5.31-17.94,9.91-25.38,14-11.28,6.21-20.3,11.29-27.51,15.97C-7.95,117.67,.99,131.44,.99,228.72c0,109.01-11.22,113.16,41.91,143.32l135.26,77.59-.13,.07,2.01,.99,.03,.03h0c9.77,4.76,17.52,6.62,25.29,6.61,10.58,0,21.2-3.91,36.82-12.76,15.33-8.69,65.37-38.87,65.37-38.87l71.41-46.45Z"/></svg>