<?xml version="1.0" encoding="UTF-8"?><svg id="a" xmlns="http://www.w3.org/2000/svg" viewBox="0 0 465.98 559.76"><defs><style>.b{fill:#fff;}.c{fill:#231f20;}</style></defs><path class="c" d="M308,92.95c-65.47-37.8-67.7-47.58-100.44-29.34v-.12l-3.44,2.07-2.59,1.51v.05c-11.83,7.1-35.17,21.06-41.39,24.67-.66,.38-1.32,.77-2,1.15-5.92,3.42-11.38,6.5-16.42,9.31-6.99,3.89-13.16,7.26-18.61,10.27-8.27,4.56-14.89,8.28-20.17,11.71-26.28,17.07-19.72,27.16-19.72,98.49,0,79.93-8.23,82.97,30.73,105.09l99.18,56.89-.1,.05,1.47,.73,.02,.02h0c16.91,8.26,25.66,6.76,45.54-4.51,11.25-6.37,47.93-28.5,47.93-28.5l52.36-34.06c6.59-4.29,6.53-13.96-.11-18.17-2.98-1.89-6.79-1.88-9.77,.02l-80.98,51.86s0,0-.01,0c-7.53,4.56-13.54,8.15-18.68,10.78-22.1,12.76-14.76,11.71-37.53-1.35-29.78-17.07-80.17-45.97-80.96-46.41-31.67-17.73-30.32-20.92-29.38-67.47v-49.98c-.29-14.37-.62-24.62,0-32.42,1.16-14.73,5.68-20.82,20.17-29.69,4.95-3.04,11.07-6.4,18.61-10.55,5.38-2.95,11.49-6.31,18.42-10.23,2.56-1.44,5.22-2.97,8.01-4.57,4.43-2.56,34.6-20.61,39.22-23.37l.2-.12c31.71-18.36,31.52-10.53,90.44,23.49,70.44,40.67,66.22,26.88,65.1,93.31-.08,4.97-4.12,8.96-9.09,8.96h-1.88c-5.09,0-9.19-4.19-9.09-9.28,1.01-52.42,3.26-41.9-55.08-75.58-52.92-30.55-49.43-36.11-81.81-16.68l-.05,.03-.09,.06c-2.28,1.35-27.01,16.13-27.82,16.6-6.81,3.93-12.79,7.26-18.05,10.15-7.54,4.16-13.58,7.42-18.42,10.3-13.19,7.86-17.42,12.85-18.57,25.15-.01,.31-.03,.64-.04,.96v29.25c.1,5.65,.2,12.02,.2,19.25s-.1,13.61-.2,19.25c-.84,43.99-2.61,43.85,30.85,62.25,.55,.31,42.25,24.36,60.43,34.85h0c19.56,11.68,17.95,12.87,37.52,1.57l74.1-46.92c5.68-3.6,5.63-11.91-.11-15.43l-.99-.61c-2.96-1.82-6.68-1.8-9.62,.06-14.54,9.23-57.53,36.5-62.41,39.35-18.96,11.12-17.41,12.44-36.23,1.57-19.79-11.42-44.3-25.54-44.91-25.88-31.58-17.39-30.76-15.83-30.02-51.63v-36.88c-.19-9.47-.4-16.33,0-21.62,.88-11.84,4.76-15.79,18.42-23.58,4.55-2.59,46.02-26.39,46.02-26.39h.01c31.87-19.31,26.2-15.62,72.47,11.1,47.06,27.17,46.64,19.7,45.81,59.16-.1,4.81-3.63,9.21-8.43,9.55-5.4,.39-9.86-3.95-9.76-9.26,.55-27.47-.6-22.81-36.73-43.67-39.86-23.01-31.54-24.68-64.41-5.01-.85,.51-15.22,8.64-22.99,13.04-.05-.02-.1-.04-.15-.06-11.41,5.89-16.84,8.79-19.44,13.86-1.31,2.09-2.04,4.48-2.4,7.61,0,0-.04,12.22-.05,14.24,.02,.01,.04,.03,.05,.04v15.33c.01,1.31,.02,2.68,.02,4.09,0,7.21-.14,13.12-.24,18.06-.51,24.11-.18,24.66,20.94,36.28,2.35,1.29,4.94,2.71,7.84,4.33,1.19,.66,17.6,10.11,24.35,14l.2,.11,2.58,1.48,.05-.03c18.71,10.38,20.61,9.93,40.67-1.65,3.86-2.33,13.77-8.17,13.77-8.17l21.73-13.93c5.88-3.77,5.84-12.38-.08-16.09l-1.2-.75c-4.14-2.59-9.4-2.58-13.52,.04-9.19,5.84-24.7,15.7-26.41,16.73-16.24,9.8-15.42,11.51-31.19,2.38-6.02-3.49-11.63-6.74-12.77-7.39-4.88-2.82-8.86-4.98-12.12-6.78-14.14-7.79-14.6-8.58-14.27-24.72,.08-3.73,.19-8.26,.19-13.9,0-6.07-.14-10.87-.21-14.74,.02,0,.05,0,.07-.02,.07-11.07,.32-14.92,5.09-18.63,8.32-4.69,20-11.28,21.25-12,30.9-17.83,21.52-17.83,52.42,0,23.3,13.45,26.36,12.14,26.46,25.99,.04,5.06-4.03,9.21-9.09,9.21h-25.11c-3.61-6.52-10.48-10.99-18.47-10.99-11.7,0-21.19,9.49-21.19,21.19s9.49,21.19,21.19,21.19c7.99,0,14.86-4.47,18.47-11h122.3c5.02,0,9.09-4.07,9.09-9.09v-1.1c0-101.99,13.4-78.78-74.93-129.78Z"/><path class="c" d="M465.98,445.38H.91V34.96C.91,15.68,16.59,0,35.87,0H431.02c19.28,0,34.96,15.68,34.96,34.96V445.38ZM26.33,419.96H440.56V34.96c0-5.25-4.28-9.53-9.53-9.53H35.87c-5.25,0-9.53,4.28-9.53,9.53V419.96Z"/><path class="c" d="M3.54,432.67H462.39c1.95,0,3.54,1.59,3.54,3.54v123.55H0v-123.55c0-1.95,1.59-3.54,3.54-3.54Z" transform="translate(465.93 992.43) rotate(180)"/><g><path class="b" d="M185.24,458.45h-32.76c-.46,0-.98,.07-1.55,.22-.57,.14-1.06,.3-1.46,.47l-7.91,7.91c-.23,.4-.4,.89-.52,1.46-.12,.57-.17,1.09-.17,1.55v36.97c0,.46,.06,.98,.17,1.55,.11,.57,.29,1.06,.52,1.46l7.91,7.91c.4,.23,.89,.4,1.46,.52,.57,.12,1.09,.17,1.55,.17h32.76c.46,0,.85-.16,1.16-.47s.47-.7,.47-1.16v-10.75c0-.46-.16-.84-.47-1.16-.32-.31-.7-.47-1.16-.47h-28.8c-.29,0-.43-.14-.43-.43v-9.29c0-.29,.14-.43,.43-.43h24.5c1.09,0,1.63-.54,1.63-1.63v-8.6c0-.46-.16-.84-.47-1.16-.32-.31-.7-.47-1.16-.47h-24.5c-.29,0-.43-.11-.43-.34v-9.37c0-.29,.14-.43,.43-.43h28.8c.46,0,.85-.14,1.16-.43,.31-.29,.47-.66,.47-1.12v-10.83c0-.46-.16-.84-.47-1.16-.32-.31-.7-.47-1.16-.47Z"/><path class="b" d="M132.88,504.02h-22.01c-.46,0-.85-.14-1.16-.43-.32-.29-.47-.66-.47-1.12v-42.39c0-1.09-.55-1.63-1.63-1.63h-11.86c-1.09,0-1.63,.55-1.63,1.63v56.92c0,1.09,.54,1.63,1.63,1.63h37.14c.46,0,.83-.16,1.12-.47,.29-.31,.43-.7,.43-1.16v-11.35c0-.46-.14-.85-.43-1.16-.29-.31-.66-.47-1.12-.47Z"/><path class="b" d="M82.24,458.45H49.49c-.46,0-.98,.07-1.55,.22-.57,.14-1.06,.3-1.46,.47l-7.91,7.91c-.23,.4-.4,.89-.52,1.46-.12,.57-.17,1.09-.17,1.55v36.97c0,.46,.06,.98,.17,1.55,.11,.57,.29,1.06,.52,1.46l7.91,7.91c.4,.23,.89,.4,1.46,.52,.57,.12,1.09,.17,1.55,.17h32.76c.46,0,.85-.16,1.16-.47,.31-.31,.47-.7,.47-1.16v-10.75c0-.46-.16-.84-.47-1.16-.32-.31-.7-.47-1.16-.47h-28.8c-.29,0-.43-.14-.43-.43v-9.29c0-.29,.14-.43,.43-.43h24.5c1.09,0,1.63-.54,1.63-1.63v-8.6c0-.46-.16-.84-.47-1.16-.32-.31-.7-.47-1.16-.47h-24.5c-.29,0-.43-.11-.43-.34v-9.37c0-.29,.14-.43,.43-.43h28.8c.46,0,.85-.14,1.16-.43,.31-.29,.47-.66,.47-1.12v-10.83c0-.46-.16-.84-.47-1.16-.32-.31-.7-.47-1.16-.47Z"/><path class="b" d="M314.9,458.45h-32.76c-.46,0-.98,.07-1.55,.22-.57,.14-1.06,.3-1.46,.47l-7.91,7.91c-.23,.4-.4,.89-.52,1.46-.12,.57-.17,1.09-.17,1.55v36.97c0,.46,.06,.98,.17,1.55,.11,.57,.29,1.06,.52,1.46l7.91,7.91c.4,.23,.89,.4,1.46,.52,.57,.12,1.09,.17,1.55,.17h32.76c.46,0,.85-.16,1.16-.47,.31-.31,.47-.7,.47-1.16v-10.75c0-.46-.16-.84-.47-1.16-.32-.31-.7-.47-1.16-.47h-28.8c-.29,0-.43-.14-.43-.43v-9.29c0-.29,.14-.43,.43-.43h24.5c1.09,0,1.63-.54,1.63-1.63v-8.6c0-.46-.16-.84-.47-1.16-.32-.31-.7-.47-1.16-.47h-24.5c-.29,0-.43-.11-.43-.34v-9.37c0-.29,.14-.43,.43-.43h28.8c.46,0,.85-.14,1.16-.43,.31-.29,.47-.66,.47-1.12v-10.83c0-.46-.16-.84-.47-1.16-.32-.31-.7-.47-1.16-.47Z"/><path class="b" d="M429.54,458.92c-.32-.31-.7-.47-1.16-.47h-42.73c-1.09,0-1.63,.55-1.63,1.63v11.35c0,.46,.16,.85,.47,1.16,.31,.32,.7,.47,1.16,.47h12.21c.46,0,.83,.14,1.12,.43,.29,.29,.43,.66,.43,1.12v42.39c0,.46,.16,.85,.47,1.16,.31,.32,.7,.47,1.16,.47h11.95c.46,0,.83-.16,1.12-.47,.29-.31,.43-.7,.43-1.16v-42.39c0-.46,.16-.83,.47-1.12,.31-.29,.7-.43,1.16-.43h12.21c.46,0,.84-.16,1.16-.47,.31-.31,.47-.7,.47-1.16v-11.35c0-.46-.16-.84-.47-1.16Z"/><path class="b" d="M259.96,467.05l-7.91-7.91c-.4-.17-.9-.33-1.5-.47-.6-.14-1.13-.22-1.59-.22h-50.21c-.46,0-.85,.16-1.16,.47-.32,.32-.47,.7-.47,1.16v56.92c0,1.09,.54,1.63,1.63,1.63h11.86c1.09,0,1.63-.54,1.63-1.63v-43.93h9.63v43.93c0,.46,.16,.85,.47,1.16,.31,.32,.7,.47,1.16,.47h10.83c.46,0,.83-.16,1.12-.47,.29-.31,.43-.7,.43-1.16v-43.93h9.63v43.93c0,.46,.14,.85,.43,1.16,.29,.32,.66,.47,1.12,.47h11.95c.46,0,.85-.16,1.16-.47,.31-.31,.47-.7,.47-1.16v-46.94c0-.46-.07-.97-.21-1.55-.14-.57-.3-1.06-.47-1.46Z"/><path class="b" d="M376.63,467.05l-7.91-7.91c-.4-.17-.9-.33-1.5-.47-.6-.14-1.13-.22-1.59-.22h-37.23c-.46,0-.85,.16-1.16,.47-.32,.32-.47,.7-.47,1.16v56.92c0,1.09,.54,1.63,1.63,1.63h11.86c1.09,0,1.63-.54,1.63-1.63v-42.39c0-.46,.16-.83,.47-1.12,.31-.29,.7-.43,1.16-.43h17.02c.46,0,.83,.14,1.12,.43,.29,.29,.43,.66,.43,1.12v42.39c0,.46,.16,.85,.47,1.16,.31,.32,.7,.47,1.16,.47h11.95c.46,0,.84-.16,1.16-.47,.31-.31,.47-.7,.47-1.16v-46.94c0-.46-.07-.97-.22-1.55-.14-.57-.3-1.06-.47-1.46Z"/></g></svg>