<?xml version="1.0" encoding="UTF-8"?><svg id="a" xmlns="http://www.w3.org/2000/svg" viewBox="0 0 429.57 479.2"><defs><style>.b{fill:none;stroke:#231f20;stroke-miterlimit:10;}</style></defs><path class="b" d="M321.41,54.92C228.25,1.13,225.07-12.78,178.49,13.17v-.17l-4.9,2.95-3.69,2.15v.07c-16.83,10.1-50.05,29.97-58.9,35.11-.94,.54-1.88,1.09-2.84,1.64-8.42,4.87-16.2,9.25-23.37,13.25-9.94,5.54-18.72,10.34-26.49,14.61-11.77,6.48-21.18,11.78-28.7,16.66C-7.79,123.73,1.53,138.09,1.53,239.6c0,113.74-11.71,118.07,43.73,149.55l141.14,80.96-.14,.08,2.09,1.04,.03,.03h0c24.06,11.75,36.52,9.62,64.81-6.42,16-9.06,68.21-40.55,68.21-40.55l74.52-48.47c9.38-6.1,9.3-19.87-.16-25.86-4.25-2.69-9.66-2.68-13.9,.04l-115.24,73.79s0,0-.02,0c-10.72,6.48-19.27,11.6-26.58,15.34-31.45,18.16-21.01,16.66-53.41-1.92-42.38-24.29-114.08-65.41-115.21-66.04-45.06-25.23-43.15-29.77-41.81-96.01v-71.12c-.41-20.46-.88-35.03,0-46.14,1.65-20.96,8.09-29.62,28.7-42.26,7.05-4.32,15.75-9.11,26.49-15.01,7.66-4.2,16.35-8.98,26.21-14.56,3.64-2.05,7.43-4.22,11.39-6.51,6.31-3.64,49.24-29.33,55.81-33.26l.28-.16c45.12-26.13,44.85-14.98,128.69,33.42,100.24,57.87,94.23,38.25,92.64,132.79-.12,7.07-5.87,12.74-12.93,12.74h-2.67c-7.25,0-13.07-5.97-12.93-13.21,1.43-74.59,4.65-59.62-78.38-107.56-75.31-43.48-70.34-51.39-116.41-23.74l-.08,.04-.13,.08c-3.25,1.92-38.43,22.95-39.58,23.62-9.69,5.59-18.2,10.33-25.69,14.45-10.73,5.91-19.32,10.56-26.21,14.66-18.77,11.18-24.79,18.28-26.42,35.78-.02,.45-.04,.91-.06,1.36v41.62c.15,8.04,.28,17.1,.28,27.39s-.14,19.37-.28,27.39c-1.19,62.59-3.72,62.4,43.91,88.59,.78,.44,60.12,34.67,85.99,49.59h0c27.83,16.62,25.54,18.31,53.39,2.23l105.45-66.77c8.09-5.12,8-16.94-.15-21.95l-1.41-.87c-4.21-2.59-9.51-2.56-13.69,.09-20.69,13.13-81.87,51.94-88.82,56-26.97,15.82-24.78,17.7-51.56,2.23-28.16-16.25-63.04-36.35-63.9-36.82-44.94-24.74-43.77-22.52-42.72-73.47v-52.48c-.28-13.48-.56-23.24,0-30.76,1.26-16.85,6.78-22.47,26.21-33.55,6.47-3.69,65.49-37.55,65.49-37.55l.02-.02c45.35-27.47,37.28-22.21,103.12,15.81,66.97,38.67,66.36,28.04,65.19,84.18-.14,6.85-5.17,13.1-12,13.59-7.68,.55-14.04-5.62-13.89-13.18,.78-39.09-.86-32.46-52.27-62.15-56.72-32.75-44.88-35.12-91.65-7.12-1.22,.73-21.66,12.29-32.72,18.56-.07-.03-.14-.06-.21-.09-16.24,8.37-23.96,12.51-27.66,19.73-1.87,2.97-2.9,6.37-3.42,10.83,0,0-.06,17.38-.07,20.26,.02,.02,.05,.04,.07,.06v21.82c.01,1.87,.02,3.81,.02,5.82,0,10.25-.2,18.67-.34,25.7-.72,34.31-.25,35.1,29.8,51.62,3.35,1.84,7.03,3.86,11.16,6.16,1.69,.94,25.05,14.39,34.65,19.92l.28,.15,3.68,2.11,.07-.04c26.63,14.77,29.33,14.13,57.87-2.34,5.49-3.32,19.59-11.63,19.59-11.63l30.92-19.83c8.37-5.37,8.31-17.62-.12-22.9l-1.71-1.07c-5.89-3.69-13.38-3.67-19.24,.06-13.08,8.32-35.15,22.34-37.58,23.81-23.11,13.95-21.94,16.38-44.38,3.38-8.57-4.97-16.55-9.59-18.17-10.52-6.94-4.01-12.61-7.09-17.25-9.65-20.12-11.08-20.78-12.22-20.31-35.18,.11-5.3,.27-11.76,.27-19.78,0-8.64-.19-15.46-.3-20.98,.04-.01,.07-.01,.11-.02,.1-15.75,.46-21.23,7.25-26.51,11.85-6.68,28.45-16.04,30.24-17.08,43.97-25.38,30.63-25.38,74.59,0,33.16,19.15,37.52,17.28,37.66,36.99,.05,7.2-5.74,13.1-12.94,13.1h-35.73c-5.14-9.28-14.91-15.65-26.28-15.65-16.65,0-30.15,13.5-30.15,30.15s13.5,30.15,30.15,30.15c11.36,0,21.14-6.36,26.28-15.65h174.04c7.14,0,12.94-5.79,12.94-12.94v-1.56c0-145.13,19.06-112.11-106.63-184.68Z"/></svg>