<?xml version="1.0" encoding="UTF-8"?><svg id="a" xmlns="http://www.w3.org/2000/svg" viewBox="0 0 471.98 566.97"><defs><style>.b{fill:#e8ff00;}.c{fill:#fff;}.d{fill:#231f20;}</style></defs><rect class="b" x="16.93" y="13.92" width="437.99" height="429.48"/><g><path class="d" d="M311.97,94.15c-66.31-38.29-68.57-48.19-101.73-29.71v-.12l-3.49,2.1-2.62,1.53v.05c-11.98,7.19-35.62,21.33-41.92,24.99-.67,.39-1.34,.78-2.02,1.17-6,3.46-11.53,6.58-16.63,9.43-7.08,3.94-13.33,7.36-18.85,10.4-8.37,4.62-15.08,8.38-20.43,11.86-26.62,17.29-19.98,27.51-19.98,99.76,0,80.96-8.33,84.04,31.12,106.44l100.46,57.63-.1,.05,1.49,.74,.02,.02h0c17.13,8.36,26,6.84,46.13-4.57,11.39-6.45,48.55-28.87,48.55-28.87l53.04-34.5c6.68-4.34,6.62-14.14-.11-18.4-3.02-1.91-6.88-1.9-9.89,.03l-82.03,52.52s0,0-.01,0c-7.63,4.62-13.72,8.26-18.92,10.92-22.38,12.93-14.95,11.86-38.02-1.37-30.17-17.29-81.2-46.56-82-47.01-32.08-17.96-30.71-21.19-29.76-68.34v-50.62c-.29-14.56-.62-24.93,0-32.84,1.18-14.92,5.76-21.08,20.43-30.08,5.02-3.08,11.21-6.48,18.85-10.68,5.45-2.99,11.64-6.39,18.65-10.36,2.59-1.46,5.29-3,8.11-4.63,4.49-2.59,35.05-20.88,39.73-23.67l.2-.12c32.11-18.6,31.92-10.67,91.6,23.79,71.35,41.19,67.07,27.23,65.94,94.52-.08,5.03-4.18,9.07-9.21,9.07h-1.9c-5.16,0-9.3-4.25-9.21-9.4,1.02-53.09,3.31-42.44-55.79-76.56-53.6-30.95-50.07-36.58-82.86-16.9l-.06,.03-.09,.06c-2.31,1.37-27.35,16.33-28.18,16.81-6.9,3.98-12.96,7.35-18.28,10.29-7.64,4.21-13.75,7.52-18.65,10.43-13.36,7.96-17.65,13.01-18.81,25.47-.01,.32-.03,.65-.04,.97v29.63c.1,5.72,.2,12.17,.2,19.5s-.1,13.78-.2,19.5c-.85,44.55-2.65,44.42,31.25,63.06,.55,.31,42.79,24.68,61.21,35.3h0c19.81,11.83,18.18,13.03,38,1.59l75.06-47.53c5.76-3.64,5.7-12.06-.11-15.63l-1-.62c-3-1.84-6.77-1.82-9.74,.07-14.73,9.35-58.28,36.97-63.22,39.86-19.2,11.26-17.64,12.6-36.7,1.59-20.04-11.57-44.87-25.87-45.48-26.21-31.99-17.61-31.15-16.03-30.41-52.29v-37.35c-.2-9.6-.4-16.54,0-21.89,.9-12,4.83-15.99,18.65-23.88,4.61-2.63,46.62-26.73,46.62-26.73h.01c32.28-19.56,26.53-15.82,73.4,11.24,47.67,27.52,47.24,19.96,46.4,59.92-.1,4.87-3.68,9.33-8.54,9.68-5.47,.39-9.99-4-9.88-9.38,.56-27.82-.61-23.11-37.21-44.23-40.37-23.31-31.94-25-65.24-5.07-.87,.52-15.42,8.75-23.29,13.21-.05-.02-.1-.04-.15-.06-11.56,5.96-17.05,8.91-19.69,14.04-1.33,2.12-2.07,4.53-2.43,7.71,0,0-.04,12.37-.05,14.42,.02,.01,.04,.03,.05,.04v15.53c.01,1.33,.02,2.71,.02,4.15,0,7.3-.14,13.29-.24,18.29-.51,24.42-.18,24.98,21.21,36.74,2.38,1.31,5.01,2.75,7.94,4.39,1.2,.67,17.83,10.24,24.66,14.18l.2,.11,2.62,1.5,.05-.03c18.95,10.51,20.88,10.06,41.19-1.67,3.9-2.36,13.95-8.28,13.95-8.28l22.01-14.11c5.96-3.82,5.91-12.54-.09-16.3l-1.22-.76c-4.19-2.63-9.52-2.61-13.7,.04-9.31,5.92-25.02,15.9-26.75,16.95-16.45,9.93-15.62,11.66-31.59,2.41-6.1-3.54-11.78-6.82-12.93-7.49-4.94-2.85-8.98-5.05-12.28-6.87-14.32-7.89-14.79-8.7-14.46-25.04,.08-3.77,.19-8.37,.19-14.08,0-6.15-.14-11.01-.21-14.93,.03,0,.05,0,.08-.02,.07-11.21,.32-15.11,5.16-18.87,8.43-4.75,20.25-11.42,21.52-12.16,31.29-18.06,21.8-18.06,53.09,0,23.6,13.63,26.7,12.3,26.8,26.33,.04,5.13-4.09,9.33-9.21,9.33h-25.43c-3.66-6.61-10.62-11.14-18.7-11.14-11.85,0-21.46,9.61-21.46,21.46s9.61,21.46,21.46,21.46c8.09,0,15.05-4.53,18.71-11.14h123.88c5.09,0,9.21-4.12,9.21-9.21v-1.11c0-103.3,13.57-79.8-75.89-131.45Z"/><path class="d" d="M471.98,451.12H.92V35.41C.92,15.88,16.8,0,36.33,0H436.57c19.53,0,35.41,15.88,35.41,35.41V451.12ZM26.67,425.37H446.23V35.41c0-5.32-4.34-9.66-9.66-9.66H36.33c-5.32,0-9.66,4.34-9.66,9.66V425.37Z"/><path class="d" d="M3.54,438.24H468.39c1.95,0,3.54,1.59,3.54,3.54v125.19H0v-125.19c0-1.95,1.59-3.54,3.54-3.54Z" transform="translate(471.93 1005.21) rotate(180)"/><g><path class="c" d="M187.63,464.35h-33.18c-.47,0-.99,.07-1.57,.22-.58,.15-1.08,.3-1.48,.48l-8.01,8.01c-.23,.41-.41,.9-.52,1.48-.12,.58-.17,1.1-.17,1.57v37.45c0,.47,.06,.99,.17,1.57,.12,.58,.29,1.08,.52,1.48l8.01,8.01c.41,.23,.9,.41,1.48,.52,.58,.12,1.1,.17,1.57,.17h33.18c.46,0,.86-.16,1.18-.48s.48-.71,.48-1.18v-10.89c0-.46-.16-.86-.48-1.18-.32-.32-.71-.48-1.18-.48h-29.17c-.29,0-.44-.14-.44-.43v-9.41c0-.29,.14-.44,.44-.44h24.82c1.1,0,1.65-.55,1.65-1.65v-8.71c0-.46-.16-.86-.48-1.18-.32-.32-.71-.48-1.18-.48h-24.82c-.29,0-.44-.12-.44-.35v-9.49c0-.29,.14-.44,.44-.44h29.17c.46,0,.86-.14,1.18-.44,.32-.29,.48-.67,.48-1.13v-10.97c0-.46-.16-.86-.48-1.18-.32-.32-.71-.48-1.18-.48Z"/><path class="c" d="M134.6,510.51h-22.29c-.47,0-.86-.14-1.18-.44-.32-.29-.48-.67-.48-1.13v-42.93c0-1.1-.55-1.65-1.65-1.65h-12.02c-1.1,0-1.65,.55-1.65,1.65v57.65c0,1.1,.55,1.65,1.65,1.65h37.62c.46,0,.84-.16,1.13-.48,.29-.32,.44-.71,.44-1.18v-11.49c0-.46-.15-.86-.44-1.18-.29-.32-.67-.48-1.13-.48Z"/><path class="c" d="M83.3,464.35H50.12c-.47,0-.99,.07-1.57,.22-.58,.15-1.08,.3-1.48,.48l-8.01,8.01c-.23,.41-.41,.9-.52,1.48-.12,.58-.17,1.1-.17,1.57v37.45c0,.47,.06,.99,.17,1.57,.12,.58,.29,1.08,.52,1.48l8.01,8.01c.41,.23,.9,.41,1.48,.52,.58,.12,1.1,.17,1.57,.17h33.18c.46,0,.86-.16,1.18-.48,.32-.32,.48-.71,.48-1.18v-10.89c0-.46-.16-.86-.48-1.18-.32-.32-.71-.48-1.18-.48h-29.17c-.29,0-.44-.14-.44-.43v-9.41c0-.29,.14-.44,.44-.44h24.82c1.1,0,1.65-.55,1.65-1.65v-8.71c0-.46-.16-.86-.48-1.18-.32-.32-.71-.48-1.18-.48h-24.82c-.29,0-.44-.12-.44-.35v-9.49c0-.29,.14-.44,.44-.44h29.17c.46,0,.86-.14,1.18-.44,.32-.29,.48-.67,.48-1.13v-10.97c0-.46-.16-.86-.48-1.18-.32-.32-.71-.48-1.18-.48Z"/><path class="c" d="M318.95,464.35h-33.18c-.47,0-.99,.07-1.57,.22-.58,.15-1.08,.3-1.48,.48l-8.01,8.01c-.23,.41-.41,.9-.52,1.48-.12,.58-.17,1.1-.17,1.57v37.45c0,.47,.06,.99,.17,1.57,.12,.58,.29,1.08,.52,1.48l8.01,8.01c.41,.23,.9,.41,1.48,.52,.58,.12,1.1,.17,1.57,.17h33.18c.46,0,.86-.16,1.18-.48,.32-.32,.48-.71,.48-1.18v-10.89c0-.46-.16-.86-.48-1.18-.32-.32-.71-.48-1.18-.48h-29.17c-.29,0-.44-.14-.44-.43v-9.41c0-.29,.14-.44,.44-.44h24.82c1.1,0,1.65-.55,1.65-1.65v-8.71c0-.46-.16-.86-.48-1.18-.32-.32-.71-.48-1.18-.48h-24.82c-.29,0-.44-.12-.44-.35v-9.49c0-.29,.14-.44,.44-.44h29.17c.46,0,.86-.14,1.18-.44,.32-.29,.48-.67,.48-1.13v-10.97c0-.46-.16-.86-.48-1.18-.32-.32-.71-.48-1.18-.48Z"/><path class="c" d="M435.08,464.83c-.32-.32-.71-.48-1.18-.48h-43.28c-1.1,0-1.65,.55-1.65,1.65v11.5c0,.47,.16,.86,.48,1.18,.32,.32,.71,.48,1.18,.48h12.37c.46,0,.84,.15,1.13,.43,.29,.29,.44,.67,.44,1.13v42.93c0,.47,.16,.86,.48,1.18,.32,.32,.71,.48,1.18,.48h12.1c.46,0,.84-.16,1.13-.48,.29-.32,.44-.71,.44-1.18v-42.93c0-.46,.16-.84,.48-1.13,.32-.29,.71-.43,1.18-.43h12.37c.46,0,.86-.16,1.18-.48,.32-.32,.48-.71,.48-1.18v-11.5c0-.46-.16-.86-.48-1.18Z"/><path class="c" d="M263.3,473.06l-8.01-8.01c-.41-.17-.91-.33-1.52-.48-.61-.14-1.15-.22-1.61-.22h-50.86c-.47,0-.86,.16-1.18,.48-.32,.32-.48,.71-.48,1.18v57.65c0,1.1,.55,1.65,1.65,1.65h12.02c1.1,0,1.65-.55,1.65-1.65v-44.5h9.75v44.5c0,.47,.16,.86,.48,1.18,.32,.32,.71,.48,1.18,.48h10.97c.46,0,.84-.16,1.13-.48,.29-.32,.44-.71,.44-1.18v-44.5h9.75v44.5c0,.47,.14,.86,.44,1.18,.29,.32,.67,.48,1.13,.48h12.1c.46,0,.86-.16,1.18-.48,.32-.32,.48-.71,.48-1.18v-47.55c0-.46-.07-.99-.22-1.57-.15-.58-.3-1.07-.48-1.48Z"/><path class="c" d="M381.48,473.06l-8.01-8.01c-.41-.17-.91-.33-1.52-.48-.61-.14-1.15-.22-1.61-.22h-37.71c-.47,0-.86,.16-1.18,.48-.32,.32-.48,.71-.48,1.18v57.65c0,1.1,.55,1.65,1.65,1.65h12.02c1.1,0,1.65-.55,1.65-1.65v-42.93c0-.46,.16-.84,.48-1.13,.32-.29,.71-.43,1.18-.43h17.24c.46,0,.84,.15,1.13,.43,.29,.29,.44,.67,.44,1.13v42.93c0,.47,.16,.86,.48,1.18,.32,.32,.71,.48,1.18,.48h12.1c.46,0,.86-.16,1.18-.48,.32-.32,.48-.71,.48-1.18v-47.55c0-.46-.07-.99-.22-1.57-.15-.58-.3-1.07-.48-1.48Z"/></g></g></svg>