<?xml version="1.0" encoding="UTF-8"?><svg id="a" xmlns="http://www.w3.org/2000/svg" viewBox="0 0 352.49 288.39"><defs><style>.b{fill:#f7941d;}</style></defs><path class="b" d="M321.5,0H30.99C13.87,0,0,13.87,0,30.99v226.41c0,17.12,13.87,30.99,30.99,30.99H321.5c17.12,0,30.99-13.87,30.99-30.99V30.99c0-17.12-13.87-30.99-30.99-30.99Zm3.64,250c0,5.24-4.25,9.49-9.49,9.49H36.84c-5.24,0-9.49-4.25-9.49-9.49V38.39c0-5.24,4.25-9.49,9.49-9.49H315.65c5.24,0,9.49,4.25,9.49,9.49V250Z"/><g><path class="b" d="M191.24,95.1c-.13-.47-.34-.92-.64-1.33-.76-1.05-1.99-1.67-3.29-1.67h-24.3c-1.32,0-2.55,.66-3.31,1.74-.26,.37-.45,.78-.57,1.21l-26.34,73.04-26.43-73.31c-.58-1.61-2.1-2.68-3.81-2.68h-24.3c-1.32,0-2.56,.64-3.32,1.72-.76,1.08-.94,2.46-.5,3.7l42.71,118.46c.58,1.61,2.1,2.68,3.81,2.68h23.67c1.71,0,3.23-1.07,3.81-2.68l26.74-74.16,26.74,74.16c.58,1.61,2.1,2.68,3.81,2.68h24.3c1.32,0,2.56-.64,3.32-1.72,.76-1.08,.94-2.46,.5-3.7l-42.6-118.14Z"/><path class="b" d="M283,118.5l-9.99-45.59c-.3-1.37-1.29-2.49-2.62-2.96-.44-.15-.89-.23-1.33-.23-.92,0-1.83,.31-2.56,.91l-36.18,29.49c-1.14,.93-1.68,2.4-1.43,3.84,.25,1.45,1.27,2.64,2.66,3.12l7.68,2.68-13.93,37.58c-.32,.89-.32,1.86,0,2.74l12.14,33.74c.58,1.61,2.1,2.68,3.81,2.68h0c1.71,0,3.23-1.07,3.81-2.68l23.35-63.89,9.31,3.25c.44,.15,.89,.23,1.33,.23,.97,0,1.94-.35,2.69-1.02,1.1-.97,1.58-2.47,1.27-3.9Z"/></g></svg>