<?xml version="1.0" encoding="UTF-8"?><svg id="a" xmlns="http://www.w3.org/2000/svg" viewBox="0 0 775.57 292.04"><defs><style>.b{fill:#f7f8f9;}.c{fill:#f7941d;}</style></defs><path class="c" d="M325.57,0H31.38C14.05,0,0,14.05,0,31.38v229.28c0,17.33,14.05,31.38,31.38,31.38H325.57c17.33,0,31.38-14.05,31.38-31.38V31.38c0-17.33-14.05-31.38-31.38-31.38Zm3.68,253.17c0,5.31-4.3,9.61-9.61,9.61H37.31c-5.31,0-9.61-4.3-9.61-9.61V38.88c0-5.31,4.3-9.61,9.61-9.61H319.64c5.31,0,9.61,4.3,9.61,9.61V253.17Z"/><g><path class="b" d="M593.97,103.57c-2.54,0-4.81,.64-6.79,1.91-1.99,1.28-3.62,3.74-4.89,7.39l-29.08,81.06-29.08-81.53c-2.07-5.88-6.04-8.82-11.92-8.82s-9.7,2.94-11.92,8.82l-29.56,81.06-28.37-80.1c-1.43-3.81-3.02-6.4-4.77-7.75-1.75-1.35-4.05-2.03-6.91-2.03-4.77,0-8.15,1.55-10.13,4.65-1.99,3.1-2.03,7.03-.12,11.8l35.05,92.74c2.7,7,7.55,10.49,14.54,10.49s11.76-3.49,14.3-10.49l27.18-74.38,27.42,74.38c2.54,7,7.39,10.49,14.54,10.49,6.68,0,11.44-3.49,14.3-10.49l35.05-92.74c1.59-4.29,1.71-8.11,.36-11.44-1.35-3.34-4.41-5.01-9.18-5.01Z"/><path class="b" d="M632.4,104.04c-7.95,0-11.92,4.29-11.92,12.87v92.98c0,8.74,3.97,13.11,11.92,13.11s12.16-4.37,12.16-13.11V116.92c0-8.58-4.05-12.87-12.16-12.87Z"/><path class="b" d="M734.32,103.09c-8.58,0-16.33,1.83-23.24,5.48-6.91,3.66-12.36,8.98-16.33,15.97v-8.82c0-8.11-3.9-12.16-11.68-12.16s-11.68,4.05-11.68,12.16v95.36c0,8.11,3.97,12.16,11.92,12.16s12.16-4.05,12.16-12.16v-55.31c0-10.01,2.9-18.08,8.7-24.2,5.8-6.12,13.55-9.18,23.24-9.18,8.26,0,14.34,2.31,18.24,6.91,3.89,4.61,5.84,11.92,5.84,21.93v59.84c0,8.11,4.05,12.16,12.16,12.16s11.92-4.05,11.92-12.16v-61.27c0-31.15-13.75-46.73-41.24-46.73Z"/><circle class="b" cx="632.4" cy="65.66" r="16.9"/></g><g><path class="c" d="M193.66,96.31c-.13-.48-.35-.94-.64-1.35-.77-1.07-2.02-1.7-3.33-1.7h-24.61c-1.34,0-2.58,.67-3.35,1.76-.26,.38-.46,.79-.58,1.22l-26.67,73.97-26.77-74.24c-.59-1.63-2.13-2.71-3.86-2.71h-24.61c-1.34,0-2.59,.65-3.36,1.74-.77,1.09-.95,2.49-.5,3.75l43.25,119.96c.59,1.63,2.13,2.71,3.86,2.71h23.97c1.73,0,3.27-1.08,3.86-2.71l27.08-75.1,27.08,75.1c.59,1.63,2.13,2.71,3.86,2.71h24.61c1.34,0,2.59-.65,3.36-1.74,.77-1.09,.95-2.49,.5-3.75l-43.14-119.63Z"/><path class="c" d="M286.58,120l-10.12-46.17c-.3-1.39-1.31-2.53-2.66-3-.44-.15-.9-.23-1.35-.23-.93,0-1.85,.32-2.59,.92l-36.64,29.86c-1.15,.94-1.71,2.43-1.45,3.89,.26,1.46,1.29,2.67,2.69,3.16l7.77,2.71-14.1,38.06c-.32,.9-.32,1.88,0,2.78l12.29,34.17c.59,1.63,2.13,2.71,3.86,2.71h0c1.73,0,3.28-1.09,3.86-2.72l23.65-64.7,9.43,3.29c.44,.15,.9,.23,1.35,.23,.99,0,1.96-.36,2.72-1.03,1.11-.99,1.6-2.5,1.29-3.95Z"/></g></svg>