<?xml version="1.0" encoding="UTF-8"?> <svg xmlns="http://www.w3.org/2000/svg" id="Layer_2" viewBox="0 0 611.47 180.73"><defs><style>.cls-1{opacity:.1;}.cls-1,.cls-2{fill:#fff;}.cls-3{fill:#00ae42;}.cls-4{fill:#ee3c39;}.cls-5{fill:#e3e317;}.cls-6{fill:#d41e3d;}.cls-7{fill:#101627;}.cls-8{fill:#878755;}.cls-9{fill:#29a6a9;}.cls-10{fill:#6fbd44;}.cls-11{fill:#4e8cca;}</style></defs><g id="Layer_1-2"><g><circle class="cls-6" cx="441.03" cy="26.21" r="22.6"></circle><path class="cls-2" d="M441.35,14.64l-10.71,6.18v12.37l10.71,6.18,10.71-6.18v-12.37l-10.71-6.18Zm0,12.37v4.82l-4.18-2.41v-4.82l4.18-2.41,4.18,2.41-4.18,2.41Z"></path></g><g><circle class="cls-4" cx="441.03" cy="90.37" r="22.6"></circle><path class="cls-2" d="M443.09,91.52v-2.99h3.06v2.75c0,.17,0,.3-.23,.3-.9,0-1.79,0-2.69,0-.05,0-.1-.02-.14-.05Z"></path><path class="cls-2" d="M429.39,88.53h3.02v3.02h-3.02v-3.02Z"></path><path class="cls-2" d="M435.83,91.55h-3.03v-3.02h3.03v3.02Z"></path><path class="cls-2" d="M439.3,88.53v3.01h-3.03v-3.01h3.03Z"></path><path class="cls-2" d="M449.59,91.55h-3.03v-3.02h3.03v3.02Z"></path><path class="cls-2" d="M449.98,91.55v-3.02h3.02v3.02h-3.02Z"></path><path class="cls-2" d="M442.71,88.54v3.01h-3.03v-3.01h3.03Z"></path><path class="cls-2" d="M443.09,98.4v-3.01h3.05v3.01h-3.05Z"></path><path class="cls-2" d="M443.08,88.1c0-.95,0-1.87,0-2.79,0-.19,.08-.24,.26-.24,.92,0,1.84,0,2.8,0v3.03h-3.05Z"></path><path class="cls-2" d="M435.83,91.96v3.04c-.96,0-1.9,0-2.84-.01-.07,0-.2-.15-.2-.24-.01-.92,0-1.84,0-2.79h3.05Z"></path><path class="cls-2" d="M443.09,84.69v-3.01h3.04v3.01h-3.04Z"></path><path class="cls-2" d="M446.55,84.68v-3h3.03v3h-3.03Z"></path><path class="cls-2" d="M429.38,88.11v-3.02h3.02v3.02h-3.02Z"></path><path class="cls-2" d="M436.26,85.09h3.02v3.01h-3.02v-3.01Z"></path><path class="cls-2" d="M439.68,88.1v-3.01h3.01v3.01h-3.01Z"></path><path class="cls-2" d="M446.56,85.08h3.01v3.02h-3.01v-3.02Z"></path><path class="cls-2" d="M449.98,88.1v-3.01h3.01v3.01h-3.01Z"></path><path class="cls-2" d="M439.29,81.68v3.01h-3.03v-3.01h3.03Z"></path><path class="cls-2" d="M435.83,81.69v3.01h-3.02v-3.01h3.02Z"></path><path class="cls-2" d="M446.57,91.95h3.03c0,.97,0,1.92-.01,2.88,0,.06-.15,.17-.23,.17-.92,.01-1.84,0-2.79,0v-3.05Z"></path><path class="cls-2" d="M439.68,91.95h3.01v3.03h-3.01v-3.03Z"></path><path class="cls-2" d="M443.08,91.95h3.05v3.05c-.95,0-1.9,0-2.84,0-.1-.03-.17-.11-.2-.2-.02-.93-.01-1.86-.01-2.84Z"></path><path class="cls-2" d="M439.3,95.39v3.01h-3.03v-3.01h3.03Z"></path><path class="cls-2" d="M439.69,95.38h3.01v3.03h-3.01v-3.03Z"></path><path class="cls-2" d="M439.69,98.8h3.02v3.01h-3.02v-3.01Z"></path><path class="cls-2" d="M432.78,88.11c0-.96,0-1.89,0-2.81,0-.08,.14-.22,.21-.22,.93-.01,1.86,0,2.82,0v3.04h-3.05Z"></path><path class="cls-2" d="M436.25,95.01v-3.05h3.05v1.88c0,.31,.02,.62,0,.92,0,.09-.13,.23-.21,.23-.93,.01-1.87,0-2.84,0Z"></path></g><rect class="cls-1" x="0" y="0" width="197.55" height="52.43" rx="26.21" ry="26.21"></rect><g><path class="cls-2" d="M64.43,21.15c-.06-.21-.14-.39-.25-.55s-.24-.3-.39-.41c-.15-.11-.33-.2-.53-.26-.2-.06-.42-.09-.65-.09-.45,0-.84,.11-1.17,.33-.34,.22-.6,.54-.79,.96s-.28,.94-.28,1.54,.09,1.12,.28,1.55c.18,.43,.45,.75,.78,.97,.34,.22,.74,.33,1.2,.33,.42,0,.77-.07,1.07-.22s.52-.36,.68-.63c.16-.27,.24-.6,.24-.97l.38,.06h-2.25v-1.39h3.65v1.1c0,.77-.16,1.43-.49,1.98s-.77,.97-1.34,1.27-1.22,.45-1.95,.45c-.82,0-1.54-.18-2.16-.54s-1.1-.88-1.45-1.55c-.35-.67-.52-1.46-.52-2.38,0-.71,.1-1.34,.31-1.89s.5-1.03,.87-1.41c.37-.39,.81-.68,1.3-.88s1.03-.3,1.61-.3c.49,0,.95,.07,1.38,.21,.43,.14,.8,.35,1.14,.61,.33,.26,.6,.57,.81,.93s.34,.75,.41,1.19h-1.88Z"></path><path class="cls-2" d="M67.77,27.06v-8.73h3.44c.66,0,1.22,.12,1.69,.35,.47,.23,.82,.57,1.07,.99s.37,.93,.37,1.51-.12,1.08-.38,1.49-.61,.74-1.08,.96-1.04,.33-1.71,.33h-2.31v-1.48h2.01c.35,0,.64-.05,.88-.14,.23-.1,.41-.24,.52-.43,.11-.19,.17-.43,.17-.72s-.06-.53-.17-.73c-.12-.2-.29-.35-.52-.45-.23-.1-.53-.16-.88-.16h-1.24v7.22h-1.84Zm4.71-3.97l2.17,3.97h-2.04l-2.12-3.97h1.99Z"></path><path class="cls-2" d="M75.64,27.06v-8.73h5.88v1.52h-4.04v2.08h3.73v1.52h-3.73v2.08h4.05v1.52h-5.9Z"></path><path class="cls-2" d="M83,27.06v-8.73h5.88v1.52h-4.04v2.08h3.73v1.52h-3.73v2.08h4.05v1.52h-5.9Z"></path><path class="cls-2" d="M97.65,18.33v8.73h-1.59l-3.8-5.49h-.06v5.49h-1.84v-8.73h1.62l3.77,5.49h.08v-5.49h1.84Z"></path></g><g><path class="cls-2" d="M58.39,35.89v-5.82h3.92v1.01h-2.69v1.39h2.49v1.01h-2.49v1.39h2.7v1.01h-3.93Z"></path><path class="cls-2" d="M63.29,35.89v-5.82h2.29c.44,0,.82,.08,1.13,.23s.55,.38,.71,.66,.25,.62,.25,1-.08,.72-.25,1c-.17,.28-.41,.49-.72,.64s-.7,.22-1.14,.22h-1.54v-.99h1.34c.23,0,.43-.03,.58-.1s.27-.16,.35-.29c.08-.13,.12-.29,.12-.48s-.04-.36-.12-.49c-.08-.13-.19-.23-.35-.3s-.35-.1-.59-.1h-.83v4.81h-1.23Zm3.14-2.65l1.45,2.65h-1.36l-1.41-2.65h1.33Z"></path><path class="cls-2" d="M73.67,32.1h-1.25c-.02-.16-.07-.3-.14-.43s-.16-.23-.27-.32c-.11-.09-.24-.16-.38-.2-.14-.05-.3-.07-.46-.07-.3,0-.56,.07-.79,.22-.22,.15-.4,.37-.52,.65-.12,.28-.18,.63-.18,1.03s.06,.76,.19,1.05,.3,.5,.52,.64c.22,.14,.48,.22,.78,.22,.16,0,.32-.02,.46-.07,.14-.04,.27-.11,.38-.19s.2-.19,.27-.31c.07-.12,.12-.26,.15-.41h1.25c-.03,.27-.11,.53-.24,.78s-.3,.47-.51,.66-.47,.35-.77,.46c-.3,.11-.63,.17-1,.17-.52,0-.98-.12-1.39-.35-.41-.24-.73-.58-.97-1.02-.24-.44-.35-.98-.35-1.62s.12-1.17,.36-1.62c.24-.45,.56-.78,.97-1.02,.41-.23,.87-.35,1.38-.35,.34,0,.65,.05,.94,.14s.54,.23,.77,.41c.22,.18,.41,.4,.55,.66,.14,.26,.23,.56,.27,.9Z"></path><path class="cls-2" d="M74.52,35.89v-.89l2.07-1.92c.18-.17,.32-.32,.44-.46,.12-.14,.21-.27,.27-.4s.09-.27,.09-.43c0-.17-.04-.32-.12-.44-.08-.12-.18-.22-.32-.29-.13-.07-.29-.1-.46-.1s-.33,.04-.47,.11-.23,.17-.31,.31-.11,.29-.11,.48h-1.17c0-.38,.09-.71,.26-.99,.17-.28,.41-.5,.72-.65s.67-.23,1.07-.23,.78,.07,1.09,.22c.31,.15,.55,.35,.72,.61,.17,.26,.26,.56,.26,.89,0,.22-.04,.44-.13,.65-.09,.21-.24,.45-.46,.71-.22,.26-.53,.57-.93,.94l-.85,.83v.04h2.44v1.01h-4.15Z"></path><path class="cls-2" d="M81.84,36.01c-.49,0-.91-.12-1.26-.36-.35-.24-.62-.58-.81-1.04-.19-.45-.28-1-.28-1.63,0-.63,.09-1.17,.28-1.62s.46-.79,.81-1.02c.35-.23,.77-.35,1.26-.35s.91,.12,1.26,.35c.35,.24,.62,.58,.81,1.02,.19,.45,.28,.99,.28,1.62,0,.64-.09,1.18-.28,1.64-.19,.45-.46,.8-.81,1.04-.35,.24-.77,.36-1.26,.36Zm0-1.02c.33,0,.6-.17,.8-.5,.2-.34,.3-.84,.3-1.51,0-.44-.04-.81-.13-1.1-.09-.29-.22-.51-.38-.66-.16-.15-.36-.22-.58-.22-.33,0-.6,.17-.8,.5-.2,.33-.3,.83-.3,1.49,0,.45,.04,.82,.13,1.12,.09,.3,.22,.52,.38,.67,.17,.15,.36,.22,.58,.22Z"></path></g><rect class="cls-1" x="206.96" y="0" width="197.55" height="52.43" rx="26.21" ry="26.21"></rect><g><path class="cls-2" d="M270.34,20.84c-.03-.34-.18-.61-.44-.8-.26-.19-.61-.29-1.05-.29-.3,0-.55,.04-.76,.12-.21,.08-.37,.2-.47,.35s-.16,.32-.16,.5c0,.16,.03,.29,.1,.41,.07,.12,.17,.22,.3,.3,.13,.08,.28,.16,.44,.22,.17,.06,.35,.11,.54,.16l.78,.19c.38,.09,.73,.2,1.05,.34,.32,.14,.59,.32,.83,.52,.23,.21,.41,.45,.54,.73,.13,.28,.2,.6,.2,.97,0,.53-.14,1-.41,1.39s-.65,.69-1.16,.91c-.5,.21-1.11,.32-1.82,.32s-1.32-.11-1.84-.32-.93-.54-1.22-.96-.44-.95-.46-1.58h1.79c.02,.29,.1,.54,.25,.73,.15,.19,.35,.34,.6,.44s.54,.15,.85,.15,.58-.05,.82-.14c.23-.09,.41-.22,.54-.38,.13-.16,.19-.35,.19-.56,0-.2-.06-.36-.17-.49s-.28-.25-.5-.34c-.22-.09-.49-.18-.81-.26l-.95-.24c-.74-.18-1.32-.46-1.74-.84-.43-.38-.64-.89-.64-1.54,0-.53,.14-.99,.42-1.39,.29-.39,.68-.7,1.18-.92,.5-.22,1.07-.33,1.71-.33s1.21,.11,1.7,.33c.48,.22,.86,.53,1.13,.92,.27,.4,.41,.85,.42,1.37h-1.77Z"></path><path class="cls-2" d="M275.42,27.06l-2.5-8.73h2.02l1.45,6.06h.07l1.59-6.06h1.73l1.59,6.08h.08l1.44-6.08h2.02l-2.5,8.73h-1.8l-1.66-5.71h-.07l-1.66,5.71h-1.8Z"></path><path class="cls-2" d="M287.74,18.33v8.73h-1.84v-8.73h1.84Z"></path><path class="cls-2" d="M288.92,19.85v-1.52h7.17v1.52h-2.67v7.21h-1.82v-7.21h-2.67Z"></path><path class="cls-2" d="M304.59,21.38h-1.87c-.03-.24-.1-.46-.21-.65-.11-.19-.24-.35-.41-.48-.17-.13-.35-.24-.57-.31-.21-.07-.45-.11-.7-.11-.45,0-.84,.11-1.18,.33-.33,.22-.59,.55-.78,.97s-.28,.94-.28,1.54,.09,1.14,.28,1.57c.19,.42,.45,.74,.78,.96s.72,.32,1.16,.32c.25,0,.48-.03,.69-.1,.21-.07,.4-.16,.56-.29s.3-.28,.41-.46c.11-.18,.19-.39,.23-.62h1.87c-.05,.41-.17,.79-.36,1.17s-.45,.7-.77,.99c-.32,.29-.71,.52-1.15,.69s-.95,.25-1.51,.25c-.78,0-1.47-.18-2.09-.53-.61-.35-1.1-.86-1.45-1.53-.35-.67-.53-1.48-.53-2.42s.18-1.76,.54-2.43c.36-.67,.84-1.18,1.46-1.53,.61-.35,1.3-.53,2.07-.53,.5,0,.97,.07,1.41,.21,.43,.14,.82,.35,1.15,.62s.61,.6,.82,1c.21,.39,.35,.84,.41,1.35Z"></path><path class="cls-2" d="M305.91,27.06v-8.73h1.84v3.6h3.75v-3.6h1.84v8.73h-1.84v-3.61h-3.75v3.61h-1.84Z"></path></g><g><path class="cls-2" d="M265.35,35.89v-5.82h3.92v1.01h-2.69v1.39h2.49v1.01h-2.49v1.39h2.7v1.01h-3.93Z"></path><path class="cls-2" d="M270.25,35.89v-5.82h2.29c.44,0,.82,.08,1.13,.23s.55,.38,.71,.66,.25,.62,.25,1-.08,.72-.25,1c-.17,.28-.41,.49-.72,.64s-.7,.22-1.14,.22h-1.54v-.99h1.34c.23,0,.43-.03,.58-.1s.27-.16,.35-.29c.08-.13,.12-.29,.12-.48s-.04-.36-.12-.49c-.08-.13-.19-.23-.35-.3s-.35-.1-.59-.1h-.83v4.81h-1.23Zm3.14-2.65l1.45,2.65h-1.36l-1.41-2.65h1.33Z"></path><path class="cls-2" d="M280.63,32.1h-1.25c-.02-.16-.07-.3-.14-.43s-.16-.23-.27-.32c-.11-.09-.24-.16-.38-.2-.14-.05-.3-.07-.46-.07-.3,0-.56,.07-.79,.22-.22,.15-.4,.37-.52,.65-.12,.28-.18,.63-.18,1.03s.06,.76,.19,1.05,.3,.5,.52,.64c.22,.14,.48,.22,.78,.22,.16,0,.32-.02,.46-.07,.14-.04,.27-.11,.38-.19s.2-.19,.27-.31c.07-.12,.12-.26,.15-.41h1.25c-.03,.27-.11,.53-.24,.78s-.3,.47-.51,.66-.47,.35-.77,.46c-.3,.11-.63,.17-1,.17-.52,0-.98-.12-1.39-.35-.41-.24-.73-.58-.97-1.02-.24-.44-.35-.98-.35-1.62s.12-1.17,.36-1.62c.24-.45,.56-.78,.97-1.02,.41-.23,.87-.35,1.38-.35,.34,0,.65,.05,.94,.14s.54,.23,.77,.41c.22,.18,.41,.4,.55,.66,.14,.26,.23,.56,.27,.9Z"></path><path class="cls-2" d="M281.48,35.89v-.89l2.07-1.92c.18-.17,.32-.32,.44-.46,.12-.14,.21-.27,.27-.4s.09-.27,.09-.43c0-.17-.04-.32-.12-.44-.08-.12-.18-.22-.32-.29-.13-.07-.29-.1-.46-.1s-.33,.04-.47,.11-.23,.17-.31,.31-.11,.29-.11,.48h-1.17c0-.38,.09-.71,.26-.99,.17-.28,.41-.5,.72-.65s.67-.23,1.07-.23,.78,.07,1.09,.22c.31,.15,.55,.35,.72,.61,.17,.26,.26,.56,.26,.89,0,.22-.04,.44-.13,.65-.09,.21-.24,.45-.46,.71-.22,.26-.53,.57-.93,.94l-.85,.83v.04h2.44v1.01h-4.15Z"></path><path class="cls-2" d="M288.8,36.01c-.49,0-.91-.12-1.26-.36-.35-.24-.62-.58-.81-1.04-.19-.45-.28-1-.28-1.63,0-.63,.09-1.17,.28-1.62s.46-.79,.81-1.02c.35-.23,.77-.35,1.26-.35s.91,.12,1.26,.35c.35,.24,.62,.58,.81,1.02,.19,.45,.28,.99,.28,1.62,0,.64-.09,1.18-.28,1.64-.19,.45-.46,.8-.81,1.04-.35,.24-.77,.36-1.26,.36Zm0-1.02c.33,0,.6-.17,.8-.5,.2-.34,.3-.84,.3-1.51,0-.44-.04-.81-.13-1.1-.09-.29-.22-.51-.38-.66-.16-.15-.36-.22-.58-.22-.33,0-.6,.17-.8,.5-.2,.33-.3,.83-.3,1.49,0,.45,.04,.82,.13,1.12,.09,.3,.22,.52,.38,.67,.17,.15,.36,.22,.58,.22Z"></path></g><rect class="cls-1" x="413.92" y="0" width="197.55" height="52.43" rx="26.21" ry="26.21"></rect><g><path class="cls-2" d="M472.56,27.06v-8.73h3.44c.66,0,1.23,.13,1.69,.38,.47,.25,.82,.6,1.07,1.04,.25,.44,.37,.96,.37,1.54s-.12,1.09-.38,1.53c-.25,.44-.61,.79-1.08,1.04s-1.04,.37-1.71,.37h-2.2v-1.48h1.9c.36,0,.65-.06,.88-.18,.23-.12,.41-.3,.52-.52,.11-.22,.17-.47,.17-.76s-.06-.54-.17-.76c-.12-.22-.29-.39-.52-.51-.23-.12-.53-.18-.89-.18h-1.24v7.22h-1.84Z"></path><path class="cls-2" d="M482.18,18.33v8.73h-1.84v-8.73h1.84Z"></path><path class="cls-2" d="M485.43,18.33l1.76,2.97h.07l1.77-2.97h2.08l-2.66,4.36,2.72,4.36h-2.12l-1.79-2.98h-.07l-1.79,2.98h-2.11l2.73-4.36-2.68-4.36h2.09Z"></path><path class="cls-2" d="M492.28,27.06v-8.73h1.84v7.21h3.74v1.52h-5.59Z"></path><path class="cls-2" d="M499.09,27.06v-8.73h1.84v7.21h3.74v1.52h-5.59Z"></path></g><g><path class="cls-2" d="M472.31,35.89v-5.82h3.92v1.01h-2.69v1.39h2.49v1.01h-2.49v1.39h2.7v1.01h-3.93Z"></path><path class="cls-2" d="M477.21,35.89v-5.82h2.29c.44,0,.82,.08,1.13,.23s.55,.38,.71,.66,.25,.62,.25,1-.08,.72-.25,1c-.17,.28-.41,.49-.72,.64s-.7,.22-1.14,.22h-1.54v-.99h1.34c.23,0,.43-.03,.58-.1s.27-.16,.35-.29c.08-.13,.12-.29,.12-.48s-.04-.36-.12-.49c-.08-.13-.19-.23-.35-.3s-.35-.1-.59-.1h-.83v4.81h-1.23Zm3.14-2.65l1.45,2.65h-1.36l-1.41-2.65h1.33Z"></path><path class="cls-2" d="M487.59,32.1h-1.25c-.02-.16-.07-.3-.14-.43s-.16-.23-.27-.32c-.11-.09-.24-.16-.38-.2-.14-.05-.3-.07-.46-.07-.3,0-.56,.07-.79,.22-.22,.15-.4,.37-.52,.65-.12,.28-.18,.63-.18,1.03s.06,.76,.19,1.05,.3,.5,.52,.64c.22,.14,.48,.22,.78,.22,.16,0,.32-.02,.46-.07,.14-.04,.27-.11,.38-.19s.2-.19,.27-.31c.07-.12,.12-.26,.15-.41h1.25c-.03,.27-.11,.53-.24,.78s-.3,.47-.51,.66-.47,.35-.77,.46c-.3,.11-.63,.17-1,.17-.52,0-.98-.12-1.39-.35-.41-.24-.73-.58-.97-1.02-.24-.44-.35-.98-.35-1.62s.12-1.17,.36-1.62c.24-.45,.56-.78,.97-1.02,.41-.23,.87-.35,1.38-.35,.34,0,.65,.05,.94,.14s.54,.23,.77,.41c.22,.18,.41,.4,.55,.66,.14,.26,.23,.56,.27,.9Z"></path><path class="cls-2" d="M488.44,35.89v-.89l2.07-1.92c.18-.17,.32-.32,.44-.46,.12-.14,.21-.27,.27-.4s.09-.27,.09-.43c0-.17-.04-.32-.12-.44-.08-.12-.18-.22-.32-.29-.13-.07-.29-.1-.46-.1s-.33,.04-.47,.11-.23,.17-.31,.31-.11,.29-.11,.48h-1.17c0-.38,.09-.71,.26-.99,.17-.28,.41-.5,.72-.65s.67-.23,1.07-.23,.78,.07,1.09,.22c.31,.15,.55,.35,.72,.61,.17,.26,.26,.56,.26,.89,0,.22-.04,.44-.13,.65-.09,.21-.24,.45-.46,.71-.22,.26-.53,.57-.93,.94l-.85,.83v.04h2.44v1.01h-4.15Z"></path><path class="cls-2" d="M495.76,36.01c-.49,0-.91-.12-1.26-.36-.35-.24-.62-.58-.81-1.04-.19-.45-.28-1-.28-1.63,0-.63,.09-1.17,.28-1.62s.46-.79,.81-1.02c.35-.23,.77-.35,1.26-.35s.91,.12,1.26,.35c.35,.24,.62,.58,.81,1.02,.19,.45,.28,.99,.28,1.62,0,.64-.09,1.18-.28,1.64-.19,.45-.46,.8-.81,1.04-.35,.24-.77,.36-1.26,.36Zm0-1.02c.33,0,.6-.17,.8-.5,.2-.34,.3-.84,.3-1.51,0-.44-.04-.81-.13-1.1-.09-.29-.22-.51-.38-.66-.16-.15-.36-.22-.58-.22-.33,0-.6,.17-.8,.5-.2,.33-.3,.83-.3,1.49,0,.45,.04,.82,.13,1.12,.09,.3,.22,.52,.38,.67,.17,.15,.36,.22,.58,.22Z"></path></g><rect class="cls-1" x="0" y="64.15" width="197.55" height="52.43" rx="26.21" ry="26.21"></rect><g><path class="cls-2" d="M60.49,82.48v8.73h-1.84v-8.73h1.84Z"></path><path class="cls-2" d="M61.91,91.21v-1.09l4.35-6.11h-4.36v-1.52h6.68v1.1l-4.36,6.11h4.37v1.52h-6.68Z"></path><path class="cls-2" d="M70.01,91.21v-8.73h5.88v1.52h-4.04v2.08h3.73v1.52h-3.73v2.08h4.05v1.52h-5.9Z"></path></g><g><path class="cls-2" d="M58.39,100.04v-5.82h3.92v1.01h-2.69v1.39h2.49v1.01h-2.49v1.39h2.7v1.01h-3.93Z"></path><path class="cls-2" d="M63.29,100.04v-5.82h2.29c.44,0,.82,.08,1.13,.23s.55,.38,.71,.66,.25,.62,.25,1-.08,.72-.25,1c-.17,.28-.41,.49-.72,.64s-.7,.22-1.14,.22h-1.54v-.99h1.34c.23,0,.43-.03,.58-.1s.27-.16,.35-.29c.08-.13,.12-.29,.12-.48s-.04-.36-.12-.49c-.08-.13-.19-.23-.35-.3s-.35-.1-.59-.1h-.83v4.81h-1.23Zm3.14-2.65l1.45,2.65h-1.36l-1.41-2.65h1.33Z"></path><path class="cls-2" d="M73.67,96.26h-1.25c-.02-.16-.07-.3-.14-.43s-.16-.23-.27-.32c-.11-.09-.24-.16-.38-.2-.14-.05-.3-.07-.46-.07-.3,0-.56,.07-.79,.22-.22,.15-.4,.37-.52,.65-.12,.28-.18,.63-.18,1.03s.06,.76,.19,1.05,.3,.5,.52,.64c.22,.14,.48,.22,.78,.22,.16,0,.32-.02,.46-.07,.14-.04,.27-.11,.38-.19s.2-.19,.27-.31c.07-.12,.12-.26,.15-.41h1.25c-.03,.27-.11,.53-.24,.78s-.3,.47-.51,.66-.47,.35-.77,.46c-.3,.11-.63,.17-1,.17-.52,0-.98-.12-1.39-.35-.41-.24-.73-.58-.97-1.02-.24-.44-.35-.98-.35-1.62s.12-1.17,.36-1.62c.24-.45,.56-.78,.97-1.02,.41-.23,.87-.35,1.38-.35,.34,0,.65,.05,.94,.14s.54,.23,.77,.41c.22,.18,.41,.4,.55,.66,.14,.26,.23,.56,.27,.9Z"></path><path class="cls-2" d="M74.52,100.04v-.89l2.07-1.92c.18-.17,.32-.32,.44-.46,.12-.14,.21-.27,.27-.4s.09-.27,.09-.43c0-.17-.04-.32-.12-.44-.08-.12-.18-.22-.32-.29-.13-.07-.29-.1-.46-.1s-.33,.04-.47,.11-.23,.17-.31,.31-.11,.29-.11,.48h-1.17c0-.38,.09-.71,.26-.99,.17-.28,.41-.5,.72-.65s.67-.23,1.07-.23,.78,.07,1.09,.22c.31,.15,.55,.35,.72,.61,.17,.26,.26,.56,.26,.89,0,.22-.04,.44-.13,.65-.09,.21-.24,.45-.46,.71-.22,.26-.53,.57-.93,.94l-.85,.83v.04h2.44v1.01h-4.15Z"></path><path class="cls-2" d="M81.84,100.17c-.49,0-.91-.12-1.26-.36-.35-.24-.62-.58-.81-1.04-.19-.45-.28-1-.28-1.63,0-.63,.09-1.17,.28-1.62s.46-.79,.81-1.02c.35-.23,.77-.35,1.26-.35s.91,.12,1.26,.35c.35,.24,.62,.58,.81,1.02,.19,.45,.28,.99,.28,1.62,0,.64-.09,1.18-.28,1.64-.19,.45-.46,.8-.81,1.04-.35,.24-.77,.36-1.26,.36Zm0-1.02c.33,0,.6-.17,.8-.5,.2-.34,.3-.84,.3-1.51,0-.44-.04-.81-.13-1.1-.09-.29-.22-.51-.38-.66-.16-.15-.36-.22-.58-.22-.33,0-.6,.17-.8,.5-.2,.33-.3,.83-.3,1.49,0,.45,.04,.82,.13,1.12,.09,.3,.22,.52,.38,.67,.17,.15,.36,.22,.58,.22Z"></path></g><rect class="cls-1" x="206.96" y="64.15" width="197.55" height="52.43" rx="26.21" ry="26.21"></rect><g><path class="cls-2" d="M265.6,91.21v-8.73h5.88v1.52h-4.04v2.08h3.73v1.52h-3.73v2.08h4.05v1.52h-5.9Z"></path><path class="cls-2" d="M272.95,91.21v-8.73h1.84v7.21h3.74v1.52h-5.59Z"></path><path class="cls-2" d="M279.76,91.21v-8.73h5.88v1.52h-4.04v2.08h3.73v1.52h-3.73v2.08h4.05v1.52h-5.9Z"></path><path class="cls-2" d="M287.11,82.48h2.28l2.4,5.86h.1l2.4-5.86h2.28v8.73h-1.79v-5.68h-.07l-2.26,5.64h-1.22l-2.26-5.66h-.07v5.7h-1.79v-8.73Z"></path><path class="cls-2" d="M298.09,91.21v-8.73h5.88v1.52h-4.04v2.08h3.73v1.52h-3.73v2.08h4.05v1.52h-5.9Z"></path><path class="cls-2" d="M312.74,82.48v8.73h-1.59l-3.8-5.49h-.06v5.49h-1.84v-8.73h1.62l3.77,5.49h.08v-5.49h1.84Z"></path><path class="cls-2" d="M313.93,84v-1.52h7.17v1.52h-2.67v7.21h-1.82v-7.21h-2.67Z"></path></g><g><path class="cls-2" d="M265.35,100.04v-5.82h3.92v1.01h-2.69v1.39h2.49v1.01h-2.49v1.39h2.7v1.01h-3.93Z"></path><path class="cls-2" d="M270.25,100.04v-5.82h2.29c.44,0,.82,.08,1.13,.23s.55,.38,.71,.66,.25,.62,.25,1-.08,.72-.25,1c-.17,.28-.41,.49-.72,.64s-.7,.22-1.14,.22h-1.54v-.99h1.34c.23,0,.43-.03,.58-.1s.27-.16,.35-.29c.08-.13,.12-.29,.12-.48s-.04-.36-.12-.49c-.08-.13-.19-.23-.35-.3s-.35-.1-.59-.1h-.83v4.81h-1.23Zm3.14-2.65l1.45,2.65h-1.36l-1.41-2.65h1.33Z"></path><path class="cls-2" d="M280.63,96.26h-1.25c-.02-.16-.07-.3-.14-.43s-.16-.23-.27-.32c-.11-.09-.24-.16-.38-.2-.14-.05-.3-.07-.46-.07-.3,0-.56,.07-.79,.22-.22,.15-.4,.37-.52,.65-.12,.28-.18,.63-.18,1.03s.06,.76,.19,1.05,.3,.5,.52,.64c.22,.14,.48,.22,.78,.22,.16,0,.32-.02,.46-.07,.14-.04,.27-.11,.38-.19s.2-.19,.27-.31c.07-.12,.12-.26,.15-.41h1.25c-.03,.27-.11,.53-.24,.78s-.3,.47-.51,.66-.47,.35-.77,.46c-.3,.11-.63,.17-1,.17-.52,0-.98-.12-1.39-.35-.41-.24-.73-.58-.97-1.02-.24-.44-.35-.98-.35-1.62s.12-1.17,.36-1.62c.24-.45,.56-.78,.97-1.02,.41-.23,.87-.35,1.38-.35,.34,0,.65,.05,.94,.14s.54,.23,.77,.41c.22,.18,.41,.4,.55,.66,.14,.26,.23,.56,.27,.9Z"></path><path class="cls-2" d="M281.48,100.04v-.89l2.07-1.92c.18-.17,.32-.32,.44-.46,.12-.14,.21-.27,.27-.4s.09-.27,.09-.43c0-.17-.04-.32-.12-.44-.08-.12-.18-.22-.32-.29-.13-.07-.29-.1-.46-.1s-.33,.04-.47,.11-.23,.17-.31,.31-.11,.29-.11,.48h-1.17c0-.38,.09-.71,.26-.99,.17-.28,.41-.5,.72-.65s.67-.23,1.07-.23,.78,.07,1.09,.22c.31,.15,.55,.35,.72,.61,.17,.26,.26,.56,.26,.89,0,.22-.04,.44-.13,.65-.09,.21-.24,.45-.46,.71-.22,.26-.53,.57-.93,.94l-.85,.83v.04h2.44v1.01h-4.15Z"></path><path class="cls-2" d="M288.8,100.17c-.49,0-.91-.12-1.26-.36-.35-.24-.62-.58-.81-1.04-.19-.45-.28-1-.28-1.63,0-.63,.09-1.17,.28-1.62s.46-.79,.81-1.02c.35-.23,.77-.35,1.26-.35s.91,.12,1.26,.35c.35,.24,.62,.58,.81,1.02,.19,.45,.28,.99,.28,1.62,0,.64-.09,1.18-.28,1.64-.19,.45-.46,.8-.81,1.04-.35,.24-.77,.36-1.26,.36Zm0-1.02c.33,0,.6-.17,.8-.5,.2-.34,.3-.84,.3-1.51,0-.44-.04-.81-.13-1.1-.09-.29-.22-.51-.38-.66-.16-.15-.36-.22-.58-.22-.33,0-.6,.17-.8,.5-.2,.33-.3,.83-.3,1.49,0,.45,.04,.82,.13,1.12,.09,.3,.22,.52,.38,.67,.17,.15,.36,.22,.58,.22Z"></path></g><rect class="cls-1" x="413.92" y="64.15" width="197.55" height="52.43" rx="26.21" ry="26.21"></rect><g><path class="cls-2" d="M478.35,85.3c-.06-.21-.14-.39-.25-.55s-.24-.3-.39-.41c-.15-.11-.33-.2-.53-.26-.2-.06-.42-.09-.65-.09-.45,0-.84,.11-1.17,.33-.34,.22-.6,.54-.79,.96s-.28,.94-.28,1.54,.09,1.12,.28,1.55c.18,.43,.45,.75,.78,.97,.34,.22,.74,.33,1.2,.33,.42,0,.77-.07,1.07-.22s.52-.36,.68-.63c.16-.27,.24-.6,.24-.97l.38,.06h-2.25v-1.39h3.65v1.1c0,.77-.16,1.43-.49,1.98s-.77,.97-1.34,1.27-1.22,.45-1.95,.45c-.82,0-1.54-.18-2.16-.54s-1.1-.88-1.45-1.55c-.35-.67-.52-1.46-.52-2.38,0-.71,.1-1.34,.31-1.89s.5-1.03,.87-1.41c.37-.39,.81-.68,1.3-.88s1.03-.3,1.61-.3c.49,0,.95,.07,1.38,.21,.43,.14,.8,.35,1.14,.61,.33,.26,.6,.57,.81,.93s.34,.75,.41,1.19h-1.88Z"></path><path class="cls-2" d="M483.54,82.48v8.73h-1.84v-8.73h1.84Z"></path><path class="cls-2" d="M486.63,82.48l2.11,6.63h.08l2.11-6.63h2.04l-3.01,8.73h-2.38l-3.01-8.73h2.05Z"></path><path class="cls-2" d="M494.03,91.21v-8.73h5.88v1.52h-4.04v2.08h3.73v1.52h-3.73v2.08h4.05v1.52h-5.9Z"></path></g><g><path class="cls-2" d="M472.31,100.04v-5.82h3.92v1.01h-2.69v1.39h2.49v1.01h-2.49v1.39h2.7v1.01h-3.93Z"></path><path class="cls-2" d="M477.21,100.04v-5.82h2.29c.44,0,.82,.08,1.13,.23s.55,.38,.71,.66,.25,.62,.25,1-.08,.72-.25,1c-.17,.28-.41,.49-.72,.64s-.7,.22-1.14,.22h-1.54v-.99h1.34c.23,0,.43-.03,.58-.1s.27-.16,.35-.29c.08-.13,.12-.29,.12-.48s-.04-.36-.12-.49c-.08-.13-.19-.23-.35-.3s-.35-.1-.59-.1h-.83v4.81h-1.23Zm3.14-2.65l1.45,2.65h-1.36l-1.41-2.65h1.33Z"></path><path class="cls-2" d="M487.59,96.26h-1.25c-.02-.16-.07-.3-.14-.43s-.16-.23-.27-.32c-.11-.09-.24-.16-.38-.2-.14-.05-.3-.07-.46-.07-.3,0-.56,.07-.79,.22-.22,.15-.4,.37-.52,.65-.12,.28-.18,.63-.18,1.03s.06,.76,.19,1.05,.3,.5,.52,.64c.22,.14,.48,.22,.78,.22,.16,0,.32-.02,.46-.07,.14-.04,.27-.11,.38-.19s.2-.19,.27-.31c.07-.12,.12-.26,.15-.41h1.25c-.03,.27-.11,.53-.24,.78s-.3,.47-.51,.66-.47,.35-.77,.46c-.3,.11-.63,.17-1,.17-.52,0-.98-.12-1.39-.35-.41-.24-.73-.58-.97-1.02-.24-.44-.35-.98-.35-1.62s.12-1.17,.36-1.62c.24-.45,.56-.78,.97-1.02,.41-.23,.87-.35,1.38-.35,.34,0,.65,.05,.94,.14s.54,.23,.77,.41c.22,.18,.41,.4,.55,.66,.14,.26,.23,.56,.27,.9Z"></path><path class="cls-2" d="M488.44,100.04v-.89l2.07-1.92c.18-.17,.32-.32,.44-.46,.12-.14,.21-.27,.27-.4s.09-.27,.09-.43c0-.17-.04-.32-.12-.44-.08-.12-.18-.22-.32-.29-.13-.07-.29-.1-.46-.1s-.33,.04-.47,.11-.23,.17-.31,.31-.11,.29-.11,.48h-1.17c0-.38,.09-.71,.26-.99,.17-.28,.41-.5,.72-.65s.67-.23,1.07-.23,.78,.07,1.09,.22c.31,.15,.55,.35,.72,.61,.17,.26,.26,.56,.26,.89,0,.22-.04,.44-.13,.65-.09,.21-.24,.45-.46,.71-.22,.26-.53,.57-.93,.94l-.85,.83v.04h2.44v1.01h-4.15Z"></path><path class="cls-2" d="M495.76,100.17c-.49,0-.91-.12-1.26-.36-.35-.24-.62-.58-.81-1.04-.19-.45-.28-1-.28-1.63,0-.63,.09-1.17,.28-1.62s.46-.79,.81-1.02c.35-.23,.77-.35,1.26-.35s.91,.12,1.26,.35c.35,.24,.62,.58,.81,1.02,.19,.45,.28,.99,.28,1.62,0,.64-.09,1.18-.28,1.64-.19,.45-.46,.8-.81,1.04-.35,.24-.77,.36-1.26,.36Zm0-1.02c.33,0,.6-.17,.8-.5,.2-.34,.3-.84,.3-1.51,0-.44-.04-.81-.13-1.1-.09-.29-.22-.51-.38-.66-.16-.15-.36-.22-.58-.22-.33,0-.6,.17-.8,.5-.2,.33-.3,.83-.3,1.49,0,.45,.04,.82,.13,1.12,.09,.3,.22,.52,.38,.67,.17,.15,.36,.22,.58,.22Z"></path></g><rect class="cls-1" x="0" y="128.31" width="197.55" height="52.43" rx="26.21" ry="26.21"></rect><g><path class="cls-2" d="M64.43,149.46c-.06-.21-.14-.39-.25-.55s-.24-.3-.39-.41c-.15-.11-.33-.2-.53-.26-.2-.06-.42-.09-.65-.09-.45,0-.84,.11-1.17,.33-.34,.22-.6,.54-.79,.96s-.28,.94-.28,1.54,.09,1.12,.28,1.55c.18,.43,.45,.75,.78,.97,.34,.22,.74,.33,1.2,.33,.42,0,.77-.07,1.07-.22s.52-.36,.68-.63c.16-.27,.24-.6,.24-.97l.38,.06h-2.25v-1.39h3.65v1.1c0,.77-.16,1.43-.49,1.98s-.77,.97-1.34,1.27-1.22,.45-1.95,.45c-.82,0-1.54-.18-2.16-.54s-1.1-.88-1.45-1.55c-.35-.67-.52-1.46-.52-2.38,0-.71,.1-1.34,.31-1.89s.5-1.03,.87-1.41c.37-.39,.81-.68,1.3-.88s1.03-.3,1.61-.3c.49,0,.95,.07,1.38,.21,.43,.14,.8,.35,1.14,.61,.33,.26,.6,.57,.81,.93s.34,.75,.41,1.19h-1.88Z"></path><path class="cls-2" d="M69,155.36h-1.98l3.01-8.73h2.38l3.01,8.73h-1.98l-2.19-6.73h-.07l-2.19,6.73Zm-.12-3.43h4.67v1.44h-4.67v-1.44Z"></path><path class="cls-2" d="M76.47,155.36v-8.73h1.84v7.21h3.74v1.52h-5.59Z"></path><path class="cls-2" d="M85,155.36h-1.98l3.01-8.73h2.38l3.01,8.73h-1.98l-2.19-6.73h-.07l-2.19,6.73Zm-.12-3.43h4.67v1.44h-4.67v-1.44Z"></path></g><g><path class="cls-2" d="M58.39,164.19v-5.82h3.92v1.01h-2.69v1.39h2.49v1.01h-2.49v1.39h2.7v1.01h-3.93Z"></path><path class="cls-2" d="M63.29,164.19v-5.82h2.29c.44,0,.82,.08,1.13,.23s.55,.38,.71,.66,.25,.62,.25,1-.08,.72-.25,1c-.17,.28-.41,.49-.72,.64s-.7,.22-1.14,.22h-1.54v-.99h1.34c.23,0,.43-.03,.58-.1s.27-.16,.35-.29c.08-.13,.12-.29,.12-.48s-.04-.36-.12-.49c-.08-.13-.19-.23-.35-.3s-.35-.1-.59-.1h-.83v4.81h-1.23Zm3.14-2.65l1.45,2.65h-1.36l-1.41-2.65h1.33Z"></path><path class="cls-2" d="M73.67,160.41h-1.25c-.02-.16-.07-.3-.14-.43s-.16-.23-.27-.32c-.11-.09-.24-.16-.38-.2-.14-.05-.3-.07-.46-.07-.3,0-.56,.07-.79,.22-.22,.15-.4,.37-.52,.65-.12,.28-.18,.63-.18,1.03s.06,.76,.19,1.05,.3,.5,.52,.64c.22,.14,.48,.22,.78,.22,.16,0,.32-.02,.46-.07,.14-.04,.27-.11,.38-.19s.2-.19,.27-.31c.07-.12,.12-.26,.15-.41h1.25c-.03,.27-.11,.53-.24,.78s-.3,.47-.51,.66-.47,.35-.77,.46c-.3,.11-.63,.17-1,.17-.52,0-.98-.12-1.39-.35-.41-.24-.73-.58-.97-1.02-.24-.44-.35-.98-.35-1.62s.12-1.17,.36-1.62c.24-.45,.56-.78,.97-1.02,.41-.23,.87-.35,1.38-.35,.34,0,.65,.05,.94,.14s.54,.23,.77,.41c.22,.18,.41,.4,.55,.66,.14,.26,.23,.56,.27,.9Z"></path><path class="cls-2" d="M74.52,164.19v-.89l2.07-1.92c.18-.17,.32-.32,.44-.46,.12-.14,.21-.27,.27-.4s.09-.27,.09-.43c0-.17-.04-.32-.12-.44-.08-.12-.18-.22-.32-.29-.13-.07-.29-.1-.46-.1s-.33,.04-.47,.11-.23,.17-.31,.31-.11,.29-.11,.48h-1.17c0-.38,.09-.71,.26-.99,.17-.28,.41-.5,.72-.65s.67-.23,1.07-.23,.78,.07,1.09,.22c.31,.15,.55,.35,.72,.61,.17,.26,.26,.56,.26,.89,0,.22-.04,.44-.13,.65-.09,.21-.24,.45-.46,.71-.22,.26-.53,.57-.93,.94l-.85,.83v.04h2.44v1.01h-4.15Z"></path><path class="cls-2" d="M81.84,164.32c-.49,0-.91-.12-1.26-.36-.35-.24-.62-.58-.81-1.04-.19-.45-.28-1-.28-1.63,0-.63,.09-1.17,.28-1.62s.46-.79,.81-1.02c.35-.23,.77-.35,1.26-.35s.91,.12,1.26,.35c.35,.24,.62,.58,.81,1.02,.19,.45,.28,.99,.28,1.62,0,.64-.09,1.18-.28,1.64-.19,.45-.46,.8-.81,1.04-.35,.24-.77,.36-1.26,.36Zm0-1.02c.33,0,.6-.17,.8-.5,.2-.34,.3-.84,.3-1.51,0-.44-.04-.81-.13-1.1-.09-.29-.22-.51-.38-.66-.16-.15-.36-.22-.58-.22-.33,0-.6,.17-.8,.5-.2,.33-.3,.83-.3,1.49,0,.45,.04,.82,.13,1.12,.09,.3,.22,.52,.38,.67,.17,.15,.36,.22,.58,.22Z"></path></g><rect class="cls-1" x="206.96" y="128.31" width="197.55" height="52.43" rx="26.21" ry="26.21"></rect><g><path class="cls-2" d="M271.39,149.46c-.06-.21-.14-.39-.25-.55s-.24-.3-.39-.41c-.15-.11-.33-.2-.53-.26-.2-.06-.42-.09-.65-.09-.45,0-.84,.11-1.17,.33-.34,.22-.6,.54-.79,.96s-.28,.94-.28,1.54,.09,1.12,.28,1.55c.18,.43,.45,.75,.78,.97,.34,.22,.74,.33,1.2,.33,.42,0,.77-.07,1.07-.22s.52-.36,.68-.63c.16-.27,.24-.6,.24-.97l.38,.06h-2.25v-1.39h3.65v1.1c0,.77-.16,1.43-.49,1.98s-.77,.97-1.34,1.27-1.22,.45-1.95,.45c-.82,0-1.54-.18-2.16-.54s-1.1-.88-1.45-1.55c-.35-.67-.52-1.46-.52-2.38,0-.71,.1-1.34,.31-1.89s.5-1.03,.87-1.41c.37-.39,.81-.68,1.3-.88s1.03-.3,1.61-.3c.49,0,.95,.07,1.38,.21,.43,.14,.8,.35,1.14,.61,.33,.26,.6,.57,.81,.93s.34,.75,.41,1.19h-1.88Z"></path><path class="cls-2" d="M274.73,155.36v-8.73h3.44c.66,0,1.22,.12,1.69,.35,.47,.23,.82,.57,1.07,.99s.37,.93,.37,1.51-.12,1.08-.38,1.49-.61,.74-1.08,.96-1.04,.33-1.71,.33h-2.31v-1.48h2.01c.35,0,.64-.05,.88-.14,.23-.1,.41-.24,.52-.43,.11-.19,.17-.43,.17-.72s-.06-.53-.17-.73c-.12-.2-.29-.35-.52-.45-.23-.1-.53-.16-.88-.16h-1.24v7.22h-1.84Zm4.71-3.97l2.17,3.97h-2.04l-2.12-3.97h1.99Z"></path><path class="cls-2" d="M290.62,151c0,.95-.18,1.76-.54,2.43s-.85,1.18-1.47,1.53c-.62,.35-1.31,.53-2.08,.53s-1.47-.18-2.09-.53-1.1-.86-1.46-1.53c-.36-.67-.54-1.48-.54-2.42s.18-1.76,.54-2.43c.36-.67,.85-1.18,1.46-1.53s1.31-.53,2.09-.53,1.46,.18,2.08,.53,1.11,.86,1.47,1.53c.36,.67,.54,1.48,.54,2.43Zm-1.87,0c0-.62-.09-1.14-.27-1.56-.18-.42-.44-.75-.77-.96s-.72-.33-1.17-.33-.83,.11-1.17,.33c-.33,.22-.59,.54-.77,.96-.18,.42-.28,.94-.28,1.56s.09,1.14,.28,1.56c.18,.42,.44,.74,.77,.96,.33,.22,.72,.33,1.17,.33s.84-.11,1.17-.33,.59-.54,.77-.96c.18-.42,.27-.94,.27-1.56Z"></path><path class="cls-2" d="M293.62,155.36l-2.5-8.73h2.02l1.45,6.06h.07l1.59-6.06h1.73l1.59,6.08h.08l1.44-6.08h2.02l-2.5,8.73h-1.8l-1.66-5.71h-.07l-1.66,5.71h-1.8Z"></path></g><g><path class="cls-2" d="M265.35,164.19v-5.82h3.92v1.01h-2.69v1.39h2.49v1.01h-2.49v1.39h2.7v1.01h-3.93Z"></path><path class="cls-2" d="M270.25,164.19v-5.82h2.29c.44,0,.82,.08,1.13,.23s.55,.38,.71,.66,.25,.62,.25,1-.08,.72-.25,1c-.17,.28-.41,.49-.72,.64s-.7,.22-1.14,.22h-1.54v-.99h1.34c.23,0,.43-.03,.58-.1s.27-.16,.35-.29c.08-.13,.12-.29,.12-.48s-.04-.36-.12-.49c-.08-.13-.19-.23-.35-.3s-.35-.1-.59-.1h-.83v4.81h-1.23Zm3.14-2.65l1.45,2.65h-1.36l-1.41-2.65h1.33Z"></path><path class="cls-2" d="M280.63,160.41h-1.25c-.02-.16-.07-.3-.14-.43s-.16-.23-.27-.32c-.11-.09-.24-.16-.38-.2-.14-.05-.3-.07-.46-.07-.3,0-.56,.07-.79,.22-.22,.15-.4,.37-.52,.65-.12,.28-.18,.63-.18,1.03s.06,.76,.19,1.05,.3,.5,.52,.64c.22,.14,.48,.22,.78,.22,.16,0,.32-.02,.46-.07,.14-.04,.27-.11,.38-.19s.2-.19,.27-.31c.07-.12,.12-.26,.15-.41h1.25c-.03,.27-.11,.53-.24,.78s-.3,.47-.51,.66-.47,.35-.77,.46c-.3,.11-.63,.17-1,.17-.52,0-.98-.12-1.39-.35-.41-.24-.73-.58-.97-1.02-.24-.44-.35-.98-.35-1.62s.12-1.17,.36-1.62c.24-.45,.56-.78,.97-1.02,.41-.23,.87-.35,1.38-.35,.34,0,.65,.05,.94,.14s.54,.23,.77,.41c.22,.18,.41,.4,.55,.66,.14,.26,.23,.56,.27,.9Z"></path><path class="cls-2" d="M281.48,164.19v-.89l2.07-1.92c.18-.17,.32-.32,.44-.46,.12-.14,.21-.27,.27-.4s.09-.27,.09-.43c0-.17-.04-.32-.12-.44-.08-.12-.18-.22-.32-.29-.13-.07-.29-.1-.46-.1s-.33,.04-.47,.11-.23,.17-.31,.31-.11,.29-.11,.48h-1.17c0-.38,.09-.71,.26-.99,.17-.28,.41-.5,.72-.65s.67-.23,1.07-.23,.78,.07,1.09,.22c.31,.15,.55,.35,.72,.61,.17,.26,.26,.56,.26,.89,0,.22-.04,.44-.13,.65-.09,.21-.24,.45-.46,.71-.22,.26-.53,.57-.93,.94l-.85,.83v.04h2.44v1.01h-4.15Z"></path><path class="cls-2" d="M288.8,164.32c-.49,0-.91-.12-1.26-.36-.35-.24-.62-.58-.81-1.04-.19-.45-.28-1-.28-1.63,0-.63,.09-1.17,.28-1.62s.46-.79,.81-1.02c.35-.23,.77-.35,1.26-.35s.91,.12,1.26,.35c.35,.24,.62,.58,.81,1.02,.19,.45,.28,.99,.28,1.62,0,.64-.09,1.18-.28,1.64-.19,.45-.46,.8-.81,1.04-.35,.24-.77,.36-1.26,.36Zm0-1.02c.33,0,.6-.17,.8-.5,.2-.34,.3-.84,.3-1.51,0-.44-.04-.81-.13-1.1-.09-.29-.22-.51-.38-.66-.16-.15-.36-.22-.58-.22-.33,0-.6,.17-.8,.5-.2,.33-.3,.83-.3,1.49,0,.45,.04,.82,.13,1.12,.09,.3,.22,.52,.38,.67,.17,.15,.36,.22,.58,.22Z"></path></g><rect class="cls-1" x="413.92" y="128.31" width="197.55" height="52.43" rx="26.21" ry="26.21"></rect><g><path class="cls-2" d="M472.56,155.36v-8.73h1.84v7.21h3.74v1.52h-5.59Z"></path><path class="cls-2" d="M481.22,146.64v8.73h-1.84v-8.73h1.84Z"></path><path class="cls-2" d="M482.74,155.36v-8.73h3.49c.64,0,1.18,.1,1.61,.29s.75,.45,.97,.79c.22,.34,.32,.72,.32,1.16,0,.34-.07,.64-.2,.9-.14,.26-.32,.47-.56,.63-.24,.16-.51,.28-.81,.35v.08c.33,.01,.64,.11,.93,.28,.29,.17,.53,.42,.71,.73,.18,.31,.27,.68,.27,1.11,0,.46-.11,.88-.34,1.24s-.57,.65-1.01,.86c-.45,.21-1,.32-1.65,.32h-3.73Zm1.84-5.08h1.37c.25,0,.48-.04,.68-.13,.2-.09,.35-.22,.47-.38,.11-.17,.17-.36,.17-.59,0-.32-.11-.57-.33-.76-.22-.19-.54-.29-.95-.29h-1.4v2.16Zm0,3.57h1.5c.51,0,.89-.1,1.12-.3,.24-.2,.35-.46,.35-.79,0-.24-.06-.46-.17-.64-.12-.18-.28-.33-.5-.43-.21-.11-.47-.16-.76-.16h-1.55v2.32Z"></path><path class="cls-2" d="M490.67,155.36v-8.73h5.88v1.52h-4.04v2.08h3.73v1.52h-3.73v2.08h4.05v1.52h-5.9Z"></path><path class="cls-2" d="M498.02,155.36v-8.73h3.44c.66,0,1.22,.12,1.69,.35,.47,.23,.82,.57,1.07,.99s.37,.93,.37,1.51-.12,1.08-.38,1.49-.61,.74-1.08,.96-1.04,.33-1.71,.33h-2.31v-1.48h2.01c.35,0,.64-.05,.88-.14,.23-.1,.41-.24,.52-.43,.11-.19,.17-.43,.17-.72s-.06-.53-.17-.73c-.12-.2-.29-.35-.52-.45-.23-.1-.53-.16-.88-.16h-1.24v7.22h-1.84Zm4.71-3.97l2.17,3.97h-2.04l-2.12-3.97h1.99Z"></path><path class="cls-2" d="M505.56,148.16v-1.52h7.17v1.52h-2.67v7.21h-1.82v-7.21h-2.67Z"></path><path class="cls-2" d="M513.4,146.64h2.07l1.99,3.76h.09l1.99-3.76h2.07l-3.18,5.64v3.08h-1.83v-3.08l-3.18-5.64Z"></path></g><g><path class="cls-2" d="M472.31,164.19v-5.82h3.92v1.01h-2.69v1.39h2.49v1.01h-2.49v1.39h2.7v1.01h-3.93Z"></path><path class="cls-2" d="M477.21,164.19v-5.82h2.29c.44,0,.82,.08,1.13,.23s.55,.38,.71,.66,.25,.62,.25,1-.08,.72-.25,1c-.17,.28-.41,.49-.72,.64s-.7,.22-1.14,.22h-1.54v-.99h1.34c.23,0,.43-.03,.58-.1s.27-.16,.35-.29c.08-.13,.12-.29,.12-.48s-.04-.36-.12-.49c-.08-.13-.19-.23-.35-.3s-.35-.1-.59-.1h-.83v4.81h-1.23Zm3.14-2.65l1.45,2.65h-1.36l-1.41-2.65h1.33Z"></path><path class="cls-2" d="M487.59,160.41h-1.25c-.02-.16-.07-.3-.14-.43s-.16-.23-.27-.32c-.11-.09-.24-.16-.38-.2-.14-.05-.3-.07-.46-.07-.3,0-.56,.07-.79,.22-.22,.15-.4,.37-.52,.65-.12,.28-.18,.63-.18,1.03s.06,.76,.19,1.05,.3,.5,.52,.64c.22,.14,.48,.22,.78,.22,.16,0,.32-.02,.46-.07,.14-.04,.27-.11,.38-.19s.2-.19,.27-.31c.07-.12,.12-.26,.15-.41h1.25c-.03,.27-.11,.53-.24,.78s-.3,.47-.51,.66-.47,.35-.77,.46c-.3,.11-.63,.17-1,.17-.52,0-.98-.12-1.39-.35-.41-.24-.73-.58-.97-1.02-.24-.44-.35-.98-.35-1.62s.12-1.17,.36-1.62c.24-.45,.56-.78,.97-1.02,.41-.23,.87-.35,1.38-.35,.34,0,.65,.05,.94,.14s.54,.23,.77,.41c.22,.18,.41,.4,.55,.66,.14,.26,.23,.56,.27,.9Z"></path><path class="cls-2" d="M488.44,164.19v-.89l2.07-1.92c.18-.17,.32-.32,.44-.46,.12-.14,.21-.27,.27-.4s.09-.27,.09-.43c0-.17-.04-.32-.12-.44-.08-.12-.18-.22-.32-.29-.13-.07-.29-.1-.46-.1s-.33,.04-.47,.11-.23,.17-.31,.31-.11,.29-.11,.48h-1.17c0-.38,.09-.71,.26-.99,.17-.28,.41-.5,.72-.65s.67-.23,1.07-.23,.78,.07,1.09,.22c.31,.15,.55,.35,.72,.61,.17,.26,.26,.56,.26,.89,0,.22-.04,.44-.13,.65-.09,.21-.24,.45-.46,.71-.22,.26-.53,.57-.93,.94l-.85,.83v.04h2.44v1.01h-4.15Z"></path><path class="cls-2" d="M495.76,164.32c-.49,0-.91-.12-1.26-.36-.35-.24-.62-.58-.81-1.04-.19-.45-.28-1-.28-1.63,0-.63,.09-1.17,.28-1.62s.46-.79,.81-1.02c.35-.23,.77-.35,1.26-.35s.91,.12,1.26,.35c.35,.24,.62,.58,.81,1.02,.19,.45,.28,.99,.28,1.62,0,.64-.09,1.18-.28,1.64-.19,.45-.46,.8-.81,1.04-.35,.24-.77,.36-1.26,.36Zm0-1.02c.33,0,.6-.17,.8-.5,.2-.34,.3-.84,.3-1.51,0-.44-.04-.81-.13-1.1-.09-.29-.22-.51-.38-.66-.16-.15-.36-.22-.58-.22-.33,0-.6,.17-.8,.5-.2,.33-.3,.83-.3,1.49,0,.45,.04,.82,.13,1.12,.09,.3,.22,.52,.38,.67,.17,.15,.36,.22,.58,.22Z"></path></g><g><circle class="cls-5" cx="234.07" cy="90.37" r="22.6"></circle><path class="cls-7" d="M240.28,80.28c-5.23-3.02-5.41-3.8-8.02-2.34h0s-.28,.16-.28,.16l-.21,.12h0c-.94,.57-2.81,1.69-3.31,1.98-.05,.03-.11,.06-.16,.09-.47,.27-.91,.52-1.31,.74-.56,.31-1.05,.58-1.49,.82-.66,.36-1.19,.66-1.61,.94-2.1,1.36-1.58,2.17-1.58,7.87,0,6.39-.66,6.63,2.46,8.4l7.92,4.55h0s.12,.06,.12,.06h0s0,0,0,0c1.35,.66,2.05,.54,3.64-.36,.9-.51,3.83-2.28,3.83-2.28l4.18-2.72c.53-.34,.52-1.12,0-1.45-.24-.15-.54-.15-.78,0l-6.47,4.14s0,0,0,0c-.6,.36-1.08,.65-1.49,.86-1.77,1.02-1.18,.94-3-.11-2.38-1.36-6.4-3.67-6.47-3.71-2.53-1.42-2.42-1.67-2.35-5.39v-3.99c-.02-1.15-.05-1.97,0-2.59,.09-1.18,.45-1.66,1.61-2.37,.4-.24,.88-.51,1.49-.84,.43-.24,.92-.5,1.47-.82,.2-.12,.42-.24,.64-.37,.35-.2,2.76-1.65,3.13-1.87h.02c2.53-1.48,2.52-.85,7.23,1.87,5.63,3.25,5.29,2.15,5.2,7.46,0,.4-.33,.72-.73,.72h-.15c-.41,0-.73-.33-.73-.74,.08-4.19,.26-3.35-4.4-6.04-4.23-2.44-3.95-2.89-6.54-1.33h0s0,0,0,0c-.18,.11-2.16,1.29-2.22,1.33-.54,.31-1.02,.58-1.44,.81-.6,.33-1.08,.59-1.47,.82-1.05,.63-1.39,1.03-1.48,2.01,0,.03,0,.05,0,.08v2.34c0,.45,.02,.96,.02,1.54s0,1.09-.02,1.54c-.07,3.51-.21,3.5,2.47,4.97,.04,.02,3.38,1.95,4.83,2.78h0c1.56,.93,1.43,1.03,3,.13l5.92-3.75c.45-.29,.45-.95,0-1.23l-.08-.05c-.24-.15-.53-.14-.77,0-1.16,.74-4.6,2.92-4.99,3.14-1.51,.89-1.39,.99-2.89,.13-1.58-.91-3.54-2.04-3.59-2.07-2.52-1.39-2.46-1.26-2.4-4.12v-2.95c-.02-.76-.03-1.3,0-1.73,.07-.95,.38-1.26,1.47-1.88,.36-.21,3.68-2.11,3.68-2.11h0c2.55-1.54,2.09-1.25,5.79,.89,3.76,2.17,3.73,1.57,3.66,4.73,0,.38-.29,.74-.67,.76-.43,.03-.79-.32-.78-.74,.04-2.19-.05-1.82-2.93-3.49-3.18-1.84-2.52-1.97-5.15-.4-.07,.04-1.22,.69-1.84,1.04,0,0,0,0-.01,0-.91,.47-1.35,.7-1.55,1.11-.1,.17-.16,.36-.19,.61,0,0,0,.98,0,1.14,0,0,0,0,0,0v1.22c0,.11,0,.21,0,.33,0,.58-.01,1.05-.02,1.44-.04,1.93-.01,1.97,1.67,2.9,.19,.1,.39,.22,.63,.35,.09,.05,1.41,.81,1.95,1.12h.02s.21,.13,.21,.13h0c1.5,.83,1.65,.79,3.25-.13,.31-.19,1.1-.65,1.1-.65l1.74-1.11c.47-.3,.47-.99,0-1.29l-.1-.06c-.33-.21-.75-.21-1.08,0-.73,.47-1.97,1.25-2.11,1.34-1.3,.78-1.23,.92-2.49,.19-.48-.28-.93-.54-1.02-.59-.39-.22-.71-.4-.97-.54-1.13-.62-1.17-.69-1.14-1.97,0-.3,.02-.66,.02-1.11,0-.49-.01-.87-.02-1.18,0,0,0,0,0,0,0-.88,.03-1.19,.41-1.49,.67-.37,1.6-.9,1.7-.96,2.47-1.42,1.72-1.42,4.19,0,1.86,1.07,2.11,.97,2.11,2.08,0,.4-.32,.74-.73,.74h-2.01c-.29-.52-.84-.88-1.48-.88-.93,0-1.69,.76-1.69,1.69s.76,1.69,1.69,1.69c.64,0,1.19-.36,1.48-.88h9.77c.4,0,.73-.33,.73-.73v-.09c0-8.15,1.07-6.29-5.99-10.37Z"></path></g><g><circle class="cls-9" cx="27.11" cy="90.37" r="22.6"></circle><path class="cls-2" d="M29.75,96.35l-.03,.24c-.41,2.83-3.6,4.24-5.9,2.6-.84-.59-1.59-1.88-1.59-2.71v-.13h-4.76l.03,.4c.28,3.56,2.96,6.66,6.39,7.36,5.38,1.11,10.06-2.17,10.56-7.4l.03-.37h-4.74Z"></path><path class="cls-2" d="M28.01,96.8c6.99-1.35,8.23-11.66,1.77-14.75-1.39-.67-3.52-.95-5.19-.7-4.12,.62-6.58,3.53-6.57,7.79,0,5.51,4.25,8.77,9.99,7.66Zm-1.18-11.28c2.54,.54,3.59,3.77,1.95,5.97-1.51,2.01-4.85,1.69-5.97-.56-1.46-2.96,.85-6.07,4.02-5.4h0Z"></path><path class="cls-2" d="M36.26,82.89c1.41-2.12-.35-4.9-2.88-4.53-2.33,.34-3.29,3.19-1.66,4.9,1.29,1.36,3.51,1.18,4.54-.37h0Z"></path></g><g><circle class="cls-11" cx="234.07" cy="26.21" r="22.6"></circle><polygon class="cls-2" points="243.58 19.3 231.41 19.3 231.41 16.55 223.44 22.59 231.41 28.63 231.41 25.88 243.58 25.88 243.58 19.3"></polygon><polygon class="cls-2" points="223.47 29.68 235.63 29.68 235.63 26.92 243.6 32.97 235.63 39.01 235.63 36.25 223.47 36.25 223.47 29.68"></polygon></g><g><circle class="cls-3" cx="234.07" cy="154.52" r="22.6"></circle><path class="cls-2" d="M242.35,151.98c-.03,1.53-.7,2.73-2.01,3.52-1.5,.9-3.02,1.75-4.54,2.63-.02,.01-.05,.02-.1,.05,0-.07-.02-.13-.02-.19,0-1.25-.02-2.51,0-3.76,.03-1.51,.68-2.71,1.98-3.49,1.5-.91,3.03-1.77,4.55-2.64,.03-.02,.06-.03,.13-.06v1.83c0,.71,.01,1.41,0,2.12Zm-6.66,15.2c0-1.7,0-4.55,0-6.24,0-.19,.05-.28,.21-.37,1.81-1.04,3.62-2.07,5.42-3.13,2.11-1.25,3.18-3.12,3.21-5.56,.03-2.43,0-4.86,0-7.29v-.3c-.07,.04-.13,.06-.18,.09-2.55,1.47-5.11,2.93-7.65,4.42-1.9,1.11-2.93,2.8-3.15,4.99,0,.02,0,.04-.01,.06-.02,0-.04,0-.04,0-1.07-.84-2.3-1.43-3.47-2.11-1.69-1-3.41-1.97-5.11-2.96-.06-.04-.13-.07-.22-.12v.28c0,2.46-.02,4.92,0,7.38,.03,2.38,1.08,4.22,3.13,5.44,1.83,1.09,3.68,2.14,5.53,3.2v2.21h2.33Zm-2.17-4.77s0,.08-.01,.15c-.08-.04-.14-.07-.2-.1-1.45-.84-2.91-1.66-4.35-2.52-1.38-.82-2.08-2.04-2.1-3.65-.01-1.2,0-2.41,0-3.61v-.29l1.19,.69c1.08,.62,2.16,1.25,3.24,1.87,1.45,.83,2.22,2.07,2.24,3.75,.01,1.24,0,2.48,0,3.72Z"></path></g><g><circle class="cls-10" cx="27.11" cy="26.21" r="22.6"></circle><path class="cls-2" d="M25.05,35.26l.89-6.37c.04-.32-.2-.6-.52-.6h-4.78c-.41,0-.66-.45-.44-.8l6.5-10.43c.3-.48,1.04-.21,.96,.35l-.94,6.97c-.04,.31,.2,.59,.52,.59h4.54c.41,0,.66,.45,.44,.8l-6.21,9.84c-.3,.48-1.04,.21-.96-.35Z"></path></g><g><circle class="cls-2" cx="27.2" cy="154.53" r="22.61"></circle><polygon points="14.21 148.42 16.25 149.52 16.25 161.52 24.8 166.76 24.8 156.75 22.02 155.23 22.02 152.98 26.79 155.75 26.79 170.33 14.21 162.57 14.21 148.42"></polygon><polygon points="28.05 161.21 29.98 160.11 29.98 156.86 38.58 151.93 38.58 161.47 28.05 167.97 28.05 170.33 40.57 162.57 40.57 148.42 28.05 155.75 28.05 161.21"></polygon><polygon points="30.19 150.62 32.08 151.77 27.43 154.55 14.99 147.42 27.43 140.71 39.74 147.37 37.85 148.42 27.43 142.96 19.06 147.47 27.36 152.45 30.19 150.62"></polygon></g><circle class="cls-8" cx="440.87" cy="154.54" r="22.58"></circle><polygon class="cls-2" points="431.95 155.97 431.95 155.97 431.95 154.48 428.9 154.48 428.9 154.48 428.9 155.98 428.9 155.98 431.95 155.98 431.95 155.97"></polygon><rect class="cls-2" x="423.79" y="151.46" width="5.11" height="1.5"></rect><rect class="cls-2" x="430.4" y="148.44" width="3.05" height="1.5"></rect><polygon class="cls-2" points="433.46 158.98 433.45 158.98 433.45 157.47 431.95 157.47 431.95 158.98 433.46 158.98 433.46 158.98"></polygon><polygon class="cls-2" points="434.96 155.97 434.96 154.48 434.96 154.47 433.46 154.47 433.46 155.98 434.96 155.98 434.96 155.97"></polygon><polygon class="cls-2" points="430.4 152.96 440.19 152.96 440.19 154.48 436.46 154.48 436.46 155.97 441.69 155.97 441.69 154.48 441.69 152.96 441.69 151.46 441.69 151.45 441.36 151.45 441.36 151.46 430.4 151.46 430.4 152.96"></polygon><path class="cls-2" d="M436.46,160.47h-4.45c.12,.54,.35,1.06,.68,1.5h3.76v-1.5Z"></path><path class="cls-2" d="M450.5,145.44v-.03h-21.6v1.5h11.29v1.52h-5.23v1.5h6.73v-3.03h7.55v12.41c0,2.29-2.46,3.38-4.17,4.36l-3.38,1.94v-2.16h-7.43c.93,.63,1.9,1.22,2.89,1.75l4.21,2.45,4.21-2.45c2.13-1.24,5.2-2.63,5.2-5.53v-14.25h-.26Z"></path><polygon class="cls-2" points="441.69 161.98 441.69 157.47 441.36 157.47 441.36 157.47 434.96 157.47 434.96 158.98 434.96 158.98 440.19 158.98 440.19 160.47 437.97 160.47 437.97 160.47 437.97 160.47 437.97 161.98 441.69 161.98"></polygon></g></svg> 