<?xml version="1.0" encoding="UTF-8"?><svg id="a" xmlns="http://www.w3.org/2000/svg" viewBox="0 0 859.53 299.63"><defs><style>.b{fill:#ef3d39;}.c{fill:#595b5c;}</style></defs><g><path class="c" d="M544.23,92.86c-8.17,0-12.25,4.16-12.25,12.49v9.31c-3.43-6.86-8.7-12.29-15.8-16.29-7.1-4-15.15-6-24.13-6-10.78,0-20.18,2.49-28.18,7.47-8.01,4.98-14.21,11.93-18.62,20.83-4.41,8.91-6.62,19.23-6.62,31s2.21,22.34,6.62,31.24c4.41,8.91,10.62,15.85,18.62,20.83,8,4.98,17.4,7.47,28.18,7.47,8.98,0,17.11-2.04,24.38-6.13,7.27-4.08,12.62-9.72,16.05-16.91v18.87c0,22.87-11.44,34.3-34.3,34.3-5.56,0-11.56-.7-18.01-2.08-6.46-1.39-13.27-4.04-20.46-7.96-2.61-1.47-5.02-1.68-7.23-.61-2.21,1.06-3.92,2.73-5.15,5.02-1.22,2.28-1.51,4.65-.86,7.11,.65,2.45,2.45,4.49,5.39,6.13,6.7,4.08,14.17,7.02,22.42,8.82,8.25,1.79,16.78,2.69,25.61,2.69,18.46,0,32.5-4.7,42.15-14.09,9.64-9.4,14.46-23.49,14.46-42.27V105.35c0-8.33-4.09-12.49-12.25-12.49Zm-21.32,88.21c-6.21,7.19-14.54,10.78-24.99,10.78s-18.79-3.59-24.99-10.78c-6.21-7.19-9.31-16.98-9.31-29.4s3.1-22.17,9.31-29.28c6.2-7.11,14.54-10.66,24.99-10.66s18.78,3.55,24.99,10.66c6.21,7.11,9.31,16.87,9.31,29.28s-3.1,22.22-9.31,29.4Z"/><path class="c" d="M592.65,93.34c-8.17,0-12.25,4.41-12.25,13.23v95.56c0,8.99,4.08,13.48,12.25,13.48s12.5-4.49,12.5-13.48V106.58c0-8.82-4.17-13.23-12.5-13.23Z"/><path class="c" d="M731.16,92.86c-3.43,0-6.09,.73-7.96,2.21-1.88,1.47-3.55,4-5.02,7.59l-34.3,82.82-33.57-82.82c-1.47-3.59-3.15-6.13-5.02-7.59-1.88-1.47-4.29-2.21-7.23-2.21-5.55,0-9.23,1.71-11.03,5.14-1.8,3.43-1.71,7.35,.25,11.76l40.92,95.07c3.27,7.35,8.33,11.03,15.19,11.03s12.09-3.68,15.19-11.03l41.41-95.31c1.8-4.25,1.88-8.09,.25-11.52-1.63-3.43-4.65-5.14-9.07-5.14Z"/><path class="c" d="M845.69,186.58c-2.53-.57-5.51,.12-8.94,2.08-5.07,3.27-10.29,5.51-15.68,6.74-5.39,1.22-10.54,1.84-15.44,1.84-24.5,0-37.65-12.41-39.45-37.25h77.92c6.53,0,9.8-2.78,9.8-8.33,0-18.46-4.74-32.95-14.21-43.49-9.47-10.54-22.46-15.8-38.96-15.8-11.44,0-21.56,2.61-30.38,7.84-8.82,5.23-15.73,12.54-20.71,21.93-4.98,9.39-7.47,20.22-7.47,32.47,0,19.11,5.64,34.18,16.91,45.21,11.27,11.03,26.71,16.54,46.31,16.54,6.7,0,13.76-.94,21.19-2.82,7.43-1.87,13.93-4.69,19.48-8.45,3.1-1.96,5.02-4.29,5.76-6.98,.74-2.7,.53-5.15-.61-7.35-1.15-2.21-2.98-3.59-5.51-4.16Zm-68.49-67.26c6.04-6.37,14.21-9.56,24.5-9.56,9.64,0,17.15,3.06,22.54,9.19,5.39,6.13,8.33,14.74,8.82,25.85h-66.89c1.31-10.62,4.98-19.11,11.03-25.48Z"/><circle class="c" cx="592.65" cy="53.9" r="16.69"/></g><path class="b" d="M335.28,1.96H37.41C19.86,1.96,5.63,16.19,5.63,33.74v232.15c0,17.55,14.23,31.78,31.78,31.78H335.28c17.55,0,31.78-14.23,31.78-31.78V33.74c0-17.55-14.23-31.78-31.78-31.78Zm3.73,256.34c0,5.38-4.36,9.73-9.73,9.73H43.41c-5.38,0-9.73-4.36-9.73-9.73V41.33c0-5.38,4.36-9.73,9.73-9.73H329.28c5.38,0,9.73,4.36,9.73,9.73v216.98Z"/><path class="b" d="M200.34,149.26v-25.51h26.11v23.41c0,1.42,0,2.58-1.99,2.56-7.64-.07-15.29-.04-22.93-.07-.41-.07-.82-.2-1.19-.39Z"/><path class="b" d="M83.55,123.72h25.69v25.73h-25.69v-25.73Z"/><path class="b" d="M138.43,149.48h-25.84v-25.73h25.84v25.73Z"/><path class="b" d="M167.98,123.74v25.69h-25.81v-25.69h25.81Z"/><path class="b" d="M255.69,149.49h-25.82v-25.74h25.82v25.74Z"/><path class="b" d="M259.02,149.46v-25.74h25.75v25.74h-25.75Z"/><path class="b" d="M197.05,123.81v25.68h-25.78v-25.68h25.78Z"/><path class="b" d="M200.29,207.88v-25.65h25.98v25.65h-25.98Z"/><path class="b" d="M200.2,120.1c0-8.12,.03-15.96,0-23.81,0-1.63,.69-2.06,2.18-2.05,7.87,.04,15.7,0,23.82,0v25.83l-26,.02Z"/><path class="b" d="M138.47,152.98v25.93c-8.19,0-16.22,.04-24.24-.09-.61,0-1.7-1.31-1.71-2.03-.12-7.87-.07-15.7-.07-23.81h26.03Z"/><path class="b" d="M200.3,91.05v-25.63h25.89v25.63h-25.89Z"/><path class="b" d="M229.82,90.97v-25.58h25.82v25.58h-25.82Z"/><path class="b" d="M83.46,120.19v-25.73h25.75v25.73h-25.75Z"/><path class="b" d="M142.14,94.45h25.74v25.67h-25.74v-25.67Z"/><path class="b" d="M171.24,120.12v-25.66h25.66v25.66h-25.66Z"/><path class="b" d="M229.89,94.36h25.65v25.77h-25.65v-25.77Z"/><path class="b" d="M259.01,120.12v-25.68h25.65v25.68h-25.65Z"/><path class="b" d="M167.93,65.36v25.66h-25.8v-25.66h25.8Z"/><path class="b" d="M138.46,65.42v25.65h-25.75v-25.65h25.75Z"/><path class="b" d="M229.95,152.91h25.86c0,8.27,.04,16.39-.09,24.51,0,.51-1.28,1.43-1.98,1.44-7.84,.1-15.67,.07-23.79,.07v-26.01Z"/><path class="b" d="M171.28,152.91h25.66v25.79h-25.66v-25.79Z"/><path class="b" d="M200.21,152.91h25.98v26.03c-8.12,0-16.15,.04-24.17-.07-.83-.24-1.48-.9-1.72-1.73-.13-7.95-.09-15.89-.09-24.22Z"/><path class="b" d="M167.98,182.17v25.63h-25.83v-25.63h25.83Z"/><path class="b" d="M171.33,182.12h25.66v25.78h-25.66v-25.78Z"/><path class="b" d="M171.3,211.23h25.71v25.65h-25.71v-25.65Z"/><path class="b" d="M112.45,120.17c0-8.21-.05-16.07,.08-23.93,0-.67,1.21-1.88,1.82-1.89,7.95-.13,15.89-.08,24.06-.08v25.91h-25.95Z"/><path class="b" d="M142.06,178.93v-25.95h26.03v16.03c0,2.62,.13,5.25-.08,7.87-.06,.74-1.13,1.97-1.75,1.99-7.96,.1-15.91,.06-24.19,.06Z"/></svg>