<?xml version="1.0" encoding="UTF-8"?><svg id="a" xmlns="http://www.w3.org/2000/svg" viewBox="0 0 859.53 299.63"><defs><style>.b{fill:#fff;}</style></defs><g><path class="b" d="M545.75,92.1c-8.28,0-12.42,4.22-12.42,12.66v9.44c-3.48-6.95-8.81-12.45-16.01-16.51-7.2-4.05-15.35-6.08-24.45-6.08-10.92,0-20.44,2.52-28.55,7.57-8.11,5.05-14.4,12.08-18.87,21.1-4.47,9.02-6.7,19.49-6.7,31.41s2.23,22.64,6.7,31.66c4.47,9.02,10.76,16.06,18.87,21.11,8.11,5.05,17.63,7.57,28.55,7.57,9.1,0,17.34-2.07,24.7-6.21,7.36-4.14,12.79-9.85,16.26-17.13v19.12c0,23.17-11.59,34.76-34.76,34.76-5.63,0-11.71-.71-18.25-2.11-6.54-1.41-13.45-4.1-20.73-8.07-2.65-1.49-5.09-1.7-7.32-.62-2.23,1.07-3.97,2.77-5.21,5.09-1.24,2.31-1.53,4.72-.87,7.2,.66,2.48,2.48,4.55,5.46,6.21,6.78,4.13,14.36,7.11,22.72,8.94,8.36,1.82,17.01,2.73,25.94,2.73,18.7,0,32.94-4.76,42.7-14.27,9.76-9.52,14.65-23.8,14.65-42.83V104.76c0-8.44-4.14-12.66-12.41-12.66Zm-21.6,89.38c-6.29,7.29-14.73,10.93-25.32,10.93s-19.04-3.64-25.32-10.93c-6.29-7.28-9.44-17.21-9.44-29.79s3.14-22.47,9.44-29.67c6.29-7.2,14.73-10.8,25.32-10.8s19.03,3.6,25.32,10.8c6.29,7.2,9.43,17.09,9.43,29.67s-3.15,22.51-9.43,29.79Z"/><path class="b" d="M594.81,92.6c-8.28,0-12.41,4.47-12.41,13.41v96.83c0,9.11,4.13,13.66,12.41,13.66s12.66-4.55,12.66-13.66V106c0-8.94-4.22-13.41-12.66-13.41Z"/><path class="b" d="M735.16,92.1c-3.48,0-6.17,.74-8.07,2.23-1.9,1.49-3.6,4.06-5.09,7.69l-34.76,83.92-34.01-83.92c-1.49-3.64-3.19-6.21-5.09-7.69-1.9-1.49-4.34-2.23-7.32-2.23-5.63,0-9.35,1.74-11.17,5.21-1.82,3.48-1.74,7.45,.25,11.92l41.46,96.33c3.31,7.45,8.44,11.17,15.39,11.17s12.25-3.73,15.39-11.17l41.96-96.58c1.82-4.3,1.9-8.19,.25-11.67-1.66-3.48-4.72-5.21-9.19-5.21Z"/><path class="b" d="M851.21,187.07c-2.57-.58-5.59,.12-9.06,2.11-5.13,3.31-10.43,5.59-15.89,6.83-5.46,1.24-10.68,1.86-15.64,1.86-24.83,0-38.15-12.58-39.97-37.74h78.95c6.62,0,9.93-2.81,9.93-8.44,0-18.7-4.8-33.39-14.4-44.07-9.6-10.68-22.76-16.01-39.48-16.01-11.59,0-21.85,2.65-30.79,7.94-8.94,5.3-15.93,12.71-20.98,22.22-5.05,9.52-7.57,20.48-7.57,32.9,0,19.36,5.71,34.63,17.13,45.81,11.42,11.17,27.06,16.76,46.93,16.76,6.78,0,13.94-.96,21.48-2.86,7.53-1.9,14.11-4.75,19.74-8.56,3.14-1.99,5.09-4.35,5.83-7.08,.75-2.73,.54-5.22-.62-7.45-1.16-2.23-3.02-3.64-5.59-4.22Zm-69.39-68.15c6.12-6.45,14.4-9.68,24.83-9.68,9.76,0,17.38,3.1,22.84,9.31,5.46,6.21,8.44,14.94,8.94,26.19h-67.78c1.32-10.76,5.05-19.36,11.17-25.82Z"/><circle class="b" cx="594.81" cy="52.62" r="16.91"/></g><path class="b" d="M334.03,0H32.2C14.42,0,0,14.42,0,32.2v235.23c0,17.78,14.42,32.2,32.2,32.2H334.03c17.78,0,32.2-14.42,32.2-32.2V32.2c0-17.78-14.42-32.2-32.2-32.2Zm3.78,259.74c0,5.45-4.42,9.86-9.86,9.86H38.28c-5.45,0-9.86-4.42-9.86-9.86V39.89c0-5.45,4.42-9.86,9.86-9.86H327.95c5.45,0,9.86,4.42,9.86,9.86v219.86Z"/><path class="b" d="M197.29,149.25v-25.84h26.46v23.72c0,1.44,0,2.61-2.01,2.59-7.75-.07-15.49-.04-23.24-.07-.42-.07-.83-.21-1.21-.4Z"/><path class="b" d="M78.95,123.38h26.03v26.07h-26.03v-26.07Z"/><path class="b" d="M134.56,149.47h-26.18v-26.07h26.18v26.07Z"/><path class="b" d="M164.5,123.39v26.03h-26.16v-26.03h26.16Z"/><path class="b" d="M253.38,149.48h-26.16v-26.08h26.16v26.08Z"/><path class="b" d="M256.75,149.45v-26.08h26.1v26.08h-26.1Z"/><path class="b" d="M193.96,123.47v26.02h-26.12v-26.02h26.12Z"/><path class="b" d="M197.24,208.65v-25.99h26.32v25.99h-26.32Z"/><path class="b" d="M197.15,119.7c0-8.22,.03-16.17,0-24.12,0-1.66,.7-2.09,2.21-2.07,7.97,.04,15.91,0,24.14,0v26.18l-26.35,.02Z"/><path class="b" d="M134.61,153.02v26.27c-8.3,0-16.43,.04-24.56-.09-.61,0-1.72-1.33-1.74-2.05-.12-7.97-.07-15.91-.07-24.13h26.37Z"/><path class="b" d="M197.26,90.27v-25.97h26.23v25.97h-26.23Z"/><path class="b" d="M227.17,90.19v-25.92h26.16v25.92h-26.16Z"/><path class="b" d="M78.87,119.8v-26.07h26.09v26.07h-26.09Z"/><path class="b" d="M138.32,93.71h26.08v26.01h-26.08v-26.01Z"/><path class="b" d="M167.81,119.72v-26h26v26h-26Z"/><path class="b" d="M227.23,93.62h25.99v26.11h-25.99v-26.11Z"/><path class="b" d="M256.75,119.72v-26.02h25.99v26.02h-25.99Z"/><path class="b" d="M164.45,64.24v26h-26.14v-26h26.14Z"/><path class="b" d="M134.59,64.3v25.99h-26.09v-25.99h26.09Z"/><path class="b" d="M227.3,152.96h26.2c0,8.38,.04,16.61-.09,24.83,0,.52-1.3,1.45-2.01,1.46-7.94,.1-15.88,.07-24.1,.07v-26.36Z"/><path class="b" d="M167.85,152.95h26v26.13h-26v-26.13Z"/><path class="b" d="M197.16,152.95h26.33v26.37c-8.23,0-16.36,.04-24.5-.07-.84-.24-1.5-.91-1.74-1.75-.13-8.05-.09-16.1-.09-24.54Z"/><path class="b" d="M164.51,182.6v25.97h-26.18v-25.97h26.18Z"/><path class="b" d="M167.9,182.55h26v26.12h-26v-26.12Z"/><path class="b" d="M167.87,212.04h26.05v25.99h-26.05v-25.99Z"/><path class="b" d="M108.24,119.78c0-8.32-.05-16.28,.08-24.24,0-.68,1.23-1.91,1.84-1.92,8.05-.13,16.1-.09,24.38-.09v26.25h-26.3Z"/><path class="b" d="M138.24,179.31v-26.29h26.37v16.25c0,2.66,.13,5.32-.09,7.97-.06,.75-1.14,2-1.77,2.01-8.06,.1-16.12,.06-24.51,.06Z"/></svg>