<?xml version="1.0" encoding="UTF-8"?><svg id="a" xmlns="http://www.w3.org/2000/svg" viewBox="0 0 540.42 442.15"><defs><style>.b{fill:#fff;}</style></defs><path class="b" d="M492.91,0H47.51C21.27,0,0,21.27,0,47.51V394.63c0,26.24,21.27,47.51,47.51,47.51H492.91c26.24,0,47.51-21.27,47.51-47.51V47.51c0-26.24-21.27-47.51-47.51-47.51Zm5.58,383.29c0,8.04-6.52,14.55-14.55,14.55H56.49c-8.04,0-14.55-6.52-14.55-14.55V58.86c0-8.04,6.52-14.55,14.55-14.55H483.93c8.04,0,14.55,6.52,14.55,14.55V383.29Z"/><path class="b" d="M291.14,220.24v-38.14h39.04v35.01c0,2.13,0,3.86-2.97,3.83-11.43-.1-22.86-.05-34.29-.11-.62-.11-1.22-.31-1.78-.59Z"/><path class="b" d="M116.5,182.06h38.42v38.47h-38.42v-38.47Z"/><path class="b" d="M198.56,220.57h-38.63v-38.47h38.63v38.47Z"/><path class="b" d="M242.74,182.09v38.41h-38.6v-38.41h38.6Z"/><path class="b" d="M373.9,220.59h-38.61v-38.48h38.61v38.48Z"/><path class="b" d="M378.88,220.54v-38.48h38.51v38.48h-38.51Z"/><path class="b" d="M286.22,182.2v38.39h-38.54v-38.39h38.54Z"/><path class="b" d="M291.06,307.89v-38.35h38.84v38.35h-38.84Z"/><path class="b" d="M290.93,176.64c0-12.14,.05-23.87,0-35.59,0-2.44,1.03-3.08,3.26-3.06,11.77,.06,23.48,0,35.62,0v38.63l-38.88,.03Z"/><path class="b" d="M198.63,225.81v38.77c-12.24,0-24.25,.06-36.25-.14-.91,0-2.54-1.96-2.56-3.03-.18-11.77-.11-23.48-.11-35.6h38.92Z"/><path class="b" d="M291.08,133.21v-38.32h38.71v38.32h-38.71Z"/><path class="b" d="M335.22,133.09v-38.25h38.61v38.25h-38.61Z"/><path class="b" d="M116.38,176.78v-38.47h38.5v38.47h-38.5Z"/><path class="b" d="M204.12,138.28h38.49v38.38h-38.49v-38.38Z"/><path class="b" d="M247.63,176.67v-38.37h38.37v38.37h-38.37Z"/><path class="b" d="M335.32,138.15h38.35v38.54h-38.35v-38.54Z"/><path class="b" d="M378.87,176.67v-38.4h38.35v38.4h-38.35Z"/><path class="b" d="M242.67,94.79v38.36h-38.57v-38.36h38.57Z"/><path class="b" d="M198.61,94.89v38.35h-38.5v-38.35h38.5Z"/><path class="b" d="M335.42,225.71h38.66c0,12.37,.05,24.51-.14,36.64,0,.77-1.92,2.14-2.96,2.15-11.72,.15-23.43,.1-35.57,.1v-38.9Z"/><path class="b" d="M247.69,225.7h38.37v38.56h-38.37v-38.56Z"/><path class="b" d="M290.94,225.7h38.85v38.92c-12.15,0-24.15,.06-36.15-.11-1.25-.36-2.22-1.34-2.57-2.59-.2-11.88-.14-23.76-.14-36.22Z"/><path class="b" d="M242.75,269.46v38.32h-38.63v-38.32h38.63Z"/><path class="b" d="M247.77,269.38h38.36v38.54h-38.36v-38.54Z"/><path class="b" d="M247.72,312.9h38.44v38.35h-38.44v-38.35Z"/><path class="b" d="M159.72,176.75c0-12.28-.07-24.03,.12-35.78,0-1,1.81-2.81,2.72-2.83,11.88-.19,23.76-.13,35.97-.13v38.73h-38.81Z"/><path class="b" d="M203.99,264.61v-38.8h38.92v23.97c0,3.92,.2,7.86-.13,11.77-.09,1.1-1.68,2.95-2.62,2.97-11.9,.15-23.78,.09-36.17,.09Z"/></svg>