<?xml version="1.0" encoding="UTF-8"?><svg id="a" xmlns="http://www.w3.org/2000/svg" viewBox="0 0 859.53 299.63"><defs><style>.b{fill:#f7f8f9;}.c{fill:#ef3d39;}</style></defs><g><path class="b" d="M540.65,94.64c-7.91,0-11.87,4.03-11.87,12.1v9.02c-3.32-6.65-8.43-11.9-15.31-15.78-6.88-3.87-14.68-5.81-23.38-5.81-10.44,0-19.54,2.41-27.3,7.24-7.75,4.83-13.77,11.55-18.04,20.17-4.27,8.63-6.41,18.63-6.41,30.02s2.14,21.64,6.41,30.26c4.27,8.63,10.28,15.35,18.04,20.18,7.75,4.83,16.85,7.24,27.3,7.24,8.7,0,16.57-1.98,23.62-5.93,7.04-3.95,12.22-9.41,15.55-16.38v18.28c0,22.15-11.08,33.23-33.23,33.23-5.38,0-11.2-.67-17.45-2.02-6.25-1.35-12.86-3.92-19.82-7.71-2.53-1.43-4.87-1.62-7-.59-2.14,1.03-3.8,2.65-4.99,4.87-1.19,2.21-1.46,4.51-.83,6.88,.63,2.37,2.37,4.35,5.22,5.93,6.49,3.95,13.72,6.8,21.72,8.55,7.99,1.74,16.26,2.61,24.8,2.61,17.88,0,31.49-4.55,40.82-13.65,9.33-9.1,14-22.75,14-40.94V106.75c0-8.07-3.96-12.1-11.87-12.1Zm-20.65,85.44c-6.02,6.97-14.09,10.45-24.21,10.45s-18.2-3.48-24.21-10.45c-6.02-6.96-9.02-16.45-9.02-28.48s3-21.48,9.02-28.36c6.01-6.88,14.08-10.32,24.21-10.32s18.19,3.44,24.21,10.32c6.01,6.88,9.02,16.34,9.02,28.36s-3.01,21.52-9.02,28.48Z"/><path class="b" d="M587.55,95.11c-7.91,0-11.87,4.27-11.87,12.82v92.57c0,8.7,3.95,13.06,11.87,13.06s12.1-4.35,12.1-13.06V107.93c0-8.55-4.03-12.82-12.1-12.82Z"/><path class="b" d="M721.72,94.64c-3.32,0-5.9,.71-7.71,2.14-1.82,1.42-3.44,3.88-4.87,7.36l-33.23,80.22-32.52-80.22c-1.42-3.48-3.05-5.93-4.87-7.36-1.82-1.43-4.15-2.14-7-2.14-5.38,0-8.94,1.66-10.68,4.98-1.74,3.32-1.66,7.12,.24,11.39l39.64,92.09c3.16,7.12,8.07,10.68,14.72,10.68s11.71-3.56,14.71-10.68l40.11-92.33c1.74-4.11,1.82-7.83,.24-11.16-1.58-3.32-4.51-4.98-8.78-4.98Z"/><path class="b" d="M832.66,185.43c-2.45-.55-5.34,.12-8.66,2.02-4.91,3.17-9.97,5.34-15.19,6.53-5.22,1.19-10.21,1.78-14.95,1.78-23.74,0-36.47-12.02-38.21-36.08h75.48c6.33,0,9.5-2.69,9.5-8.07,0-17.88-4.59-31.92-13.77-42.13-9.18-10.21-21.76-15.31-37.74-15.31-11.08,0-20.89,2.53-29.43,7.59-8.55,5.07-15.23,12.15-20.06,21.24-4.83,9.1-7.24,19.58-7.24,31.45,0,18.51,5.46,33.11,16.38,43.79,10.92,10.68,25.87,16.02,44.86,16.02,6.49,0,13.33-.91,20.53-2.73,7.2-1.81,13.49-4.55,18.87-8.19,3-1.9,4.87-4.16,5.58-6.76,.71-2.61,.51-4.99-.59-7.12-1.11-2.14-2.89-3.48-5.34-4.03Zm-66.34-65.15c5.85-6.17,13.77-9.26,23.74-9.26,9.33,0,16.61,2.97,21.84,8.9,5.22,5.93,8.07,14.28,8.55,25.04h-64.8c1.26-10.28,4.82-18.51,10.68-24.68Z"/><circle class="b" cx="587.55" cy="56.9" r="16.16"/></g><path class="c" d="M338.24,6.59H49.7c-17,0-30.78,13.78-30.78,30.78v224.88c0,17,13.78,30.78,30.78,30.78H338.24c17,0,30.78-13.78,30.78-30.78V37.38c0-17-13.78-30.78-30.78-30.78Zm3.61,248.31c0,5.21-4.22,9.43-9.43,9.43H55.51c-5.21,0-9.43-4.22-9.43-9.43V44.73c0-5.21,4.22-9.43,9.43-9.43H332.43c5.21,0,9.43,4.22,9.43,9.43V254.9Z"/><path class="c" d="M207.53,149.28v-24.71h25.29v22.68c0,1.38,0,2.5-1.92,2.48-7.41-.06-14.81-.04-22.21-.07-.4-.07-.79-.2-1.16-.38Z"/><path class="c" d="M94.39,124.54h24.89v24.92h-24.89v-24.92Z"/><path class="c" d="M147.55,149.49h-25.03v-24.92h25.03v24.92Z"/><path class="c" d="M176.18,124.56v24.88h-25.01v-24.88h25.01Z"/><path class="c" d="M261.14,149.5h-25.01v-24.93h25.01v24.93Z"/><path class="c" d="M264.37,149.47v-24.93h24.95v24.93h-24.95Z"/><path class="c" d="M204.34,124.63v24.87h-24.97v-24.87h24.97Z"/><path class="c" d="M207.48,206.06v-24.85h25.16v24.85h-25.16Z"/><path class="c" d="M207.39,121.03c0-7.86,.03-15.46,0-23.06,0-1.58,.67-1.99,2.11-1.98,7.62,.04,15.21,0,23.08,0v25.02l-25.19,.02Z"/><path class="c" d="M147.6,152.88v25.12c-7.93,0-15.71,.04-23.48-.09-.59,0-1.65-1.27-1.66-1.96-.12-7.62-.07-15.21-.07-23.07h25.21Z"/><path class="c" d="M207.49,92.89v-24.82h25.08v24.82h-25.08Z"/><path class="c" d="M236.08,92.82v-24.78h25.01v24.78h-25.01Z"/><path class="c" d="M94.31,121.12v-24.92h24.94v24.92h-24.94Z"/><path class="c" d="M151.15,96.18h24.94v24.87h-24.94v-24.87Z"/><path class="c" d="M179.34,121.05v-24.86h24.86v24.86h-24.86Z"/><path class="c" d="M236.15,96.09h24.85v24.96h-24.85v-24.96Z"/><path class="c" d="M264.36,121.05v-24.88h24.85v24.88h-24.85Z"/><path class="c" d="M176.13,68v24.85h-24.99v-24.85h24.99Z"/><path class="c" d="M147.58,68.07v24.85h-24.94v-24.85h24.94Z"/><path class="c" d="M236.21,152.82h25.05c0,8.01,.04,15.88-.09,23.74,0,.5-1.24,1.39-1.92,1.4-7.59,.1-15.18,.06-23.04,.06v-25.2Z"/><path class="c" d="M179.38,152.81h24.86v24.98h-24.86v-24.98Z"/><path class="c" d="M207.4,152.81h25.17v25.21c-7.87,0-15.64,.04-23.42-.07-.81-.23-1.44-.87-1.67-1.68-.13-7.7-.09-15.39-.09-23.46Z"/><path class="c" d="M176.18,181.16v24.82h-25.02v-24.82h25.02Z"/><path class="c" d="M179.43,181.11h24.85v24.97h-24.85v-24.97Z"/><path class="c" d="M179.4,209.3h24.9v24.85h-24.9v-24.85Z"/><path class="c" d="M122.39,121.1c0-7.96-.05-15.57,.08-23.18,0-.65,1.17-1.82,1.76-1.84,7.7-.12,15.39-.08,23.31-.08v25.09h-25.14Z"/><path class="c" d="M151.07,178.02v-25.13h25.21v15.53c0,2.54,.13,5.09-.08,7.62-.06,.72-1.09,1.91-1.69,1.92-7.71,.1-15.41,.06-23.43,.06Z"/></svg>