<?xml version="1.0" encoding="UTF-8"?><svg id="a" xmlns="http://www.w3.org/2000/svg" viewBox="0 0 540.42 434.66"><defs><style>.b{fill:#ef3d39;}</style></defs><path class="b" d="M492.91,0H47.51C21.27,0,0,20.91,0,46.71V387.95c0,25.8,21.27,46.71,47.51,46.71H492.91c26.24,0,47.51-20.91,47.51-46.71V46.71c0-25.8-21.27-46.71-47.51-46.71Zm5.58,376.8c0,7.9-6.52,14.31-14.55,14.31H56.49c-8.04,0-14.55-6.4-14.55-14.31V57.86c0-7.9,6.52-14.31,14.55-14.31H483.93c8.04,0,14.55,6.4,14.55,14.31V376.8Z"/><path class="b" d="M291.14,216.51v-37.49h39.04v34.41c0,2.09,0,3.79-2.97,3.76-11.43-.1-22.86-.05-34.29-.11-.62-.11-1.22-.3-1.78-.58Z"/><path class="b" d="M116.5,178.98h38.42v37.82h-38.42v-37.82Z"/><path class="b" d="M198.56,216.83h-38.63v-37.82h38.63v37.82Z"/><path class="b" d="M242.74,179v37.76h-38.6v-37.76h38.6Z"/><path class="b" d="M373.9,216.85h-38.61v-37.83h38.61v37.83Z"/><path class="b" d="M378.88,216.81v-37.83h38.51v37.83h-38.51Z"/><path class="b" d="M286.22,179.11v37.74h-38.54v-37.74h38.54Z"/><path class="b" d="M291.06,302.68v-37.71h38.84v37.71h-38.84Z"/><path class="b" d="M290.93,173.65c0-11.93,.05-23.46,0-34.99,0-2.4,1.03-3.02,3.26-3.01,11.77,.06,23.48,0,35.62,0v37.97l-38.88,.03Z"/><path class="b" d="M198.63,221.98v38.11c-12.24,0-24.25,.06-36.25-.13-.91,0-2.54-1.93-2.56-2.98-.18-11.57-.11-23.08-.11-35h38.92Z"/><path class="b" d="M291.08,130.95v-37.67h38.71v37.67h-38.71Z"/><path class="b" d="M335.22,130.84v-37.6h38.61v37.6h-38.61Z"/><path class="b" d="M116.38,173.79v-37.82h38.5v37.82h-38.5Z"/><path class="b" d="M204.12,135.94h38.49v37.73h-38.49v-37.73Z"/><path class="b" d="M247.63,173.67v-37.72h38.37v37.72h-38.37Z"/><path class="b" d="M335.32,135.81h38.35v37.88h-38.35v-37.88Z"/><path class="b" d="M378.87,173.67v-37.75h38.35v37.75h-38.35Z"/><path class="b" d="M242.67,93.18v37.71h-38.57v-37.71h38.57Z"/><path class="b" d="M198.61,93.28v37.71h-38.5v-37.71h38.5Z"/><path class="b" d="M335.42,221.89h38.66c0,12.16,.05,24.09-.14,36.02,0,.76-1.92,2.11-2.96,2.12-11.72,.15-23.43,.1-35.57,.1v-38.24Z"/><path class="b" d="M247.69,221.88h38.37v37.91h-38.37v-37.91Z"/><path class="b" d="M290.94,221.88h38.85v38.26c-12.15,0-24.15,.06-36.15-.11-1.25-.35-2.22-1.32-2.57-2.54-.2-11.68-.14-23.35-.14-35.61Z"/><path class="b" d="M242.75,264.89v37.67h-38.63v-37.67h38.63Z"/><path class="b" d="M247.77,264.81h38.36v37.89h-38.36v-37.89Z"/><path class="b" d="M247.72,307.6h38.44v37.71h-38.44v-37.71Z"/><path class="b" d="M159.72,173.75c0-12.07-.07-23.62,.12-35.17,0-.99,1.81-2.77,2.72-2.78,11.88-.19,23.76-.12,35.97-.12v38.08h-38.81Z"/><path class="b" d="M203.99,260.13v-38.14h38.92v23.57c0,3.85,.2,7.72-.13,11.57-.09,1.09-1.68,2.9-2.62,2.92-11.9,.15-23.78,.09-36.17,.09Z"/></svg>