<svg xmlns="http://www.w3.org/2000/svg" width="192.83" height="193" viewBox="0 0 192.83 193">
  <path id="Union_18" data-name="Union 18" d="M186.251,191.043l-.931-.931a3.267,3.267,0,1,1,4.621-4.621l.931.931a3.268,3.268,0,1,1-4.621,4.621Zm-30.993-7.914-12.1-12.118a3.941,3.941,0,0,0-4.737-.641A85.691,85.691,0,0,1,21.741,53.5a3.958,3.958,0,0,0-.64-4.745L7.631,35.259a3.965,3.965,0,0,1,0-5.6l.057-.056a3.949,3.949,0,0,1,5.59,0L24.731,41.075a3.921,3.921,0,0,0,5.785-.258l.074-.089a3.96,3.96,0,0,0-.236-5.334L11.194,16.2a3.965,3.965,0,0,1,0-5.6l.057-.057a3.95,3.95,0,0,1,5.59,0L35.975,29.714a3.982,3.982,0,0,0,5.377.24l.061-.052a3.935,3.935,0,0,0,.257-5.8l-7.311-7.323a3.964,3.964,0,0,1,0-5.6l.056-.057a3.949,3.949,0,0,1,5.59,0l9.328,9.343a3.939,3.939,0,0,0,4.736.641A85.692,85.692,0,0,1,170.752,137.986a3.955,3.955,0,0,0,.641,4.745l7.063,7.075a3.965,3.965,0,0,1,0,5.6l-.057.057a3.947,3.947,0,0,1-5.59,0l-5.027-5.036a3.935,3.935,0,0,0-5.806.238l-.051.061a3.972,3.972,0,0,0,.214,5.36l19.213,19.246a3.964,3.964,0,0,1,0,5.6l-.058.057a3.948,3.948,0,0,1-5.589,0l-19.214-19.246a3.957,3.957,0,0,0-5.352-.215l-.062.052a3.95,3.95,0,0,0-.238,5.814l10.063,10.08a3.963,3.963,0,0,1,0,5.6l-.056.056a3.947,3.947,0,0,1-5.59,0Zm-43.348-43.418,8.953,8.968a3.949,3.949,0,0,0,5.59,0l.057-.057a3.964,3.964,0,0,0,0-5.6l-4.961-4.969a3.959,3.959,0,0,1,.5-6.018l.067-.047a3.942,3.942,0,0,1,5.088.419l13.606,13.629a3.949,3.949,0,0,0,5.59,0l.057-.057a3.965,3.965,0,0,0,0-5.6l-13.606-13.629a3.955,3.955,0,0,1-.418-5.1c.015-.022.031-.044.047-.066a3.944,3.944,0,0,1,6.008-.5l9.1,9.117a3.949,3.949,0,0,0,5.59,0l.057-.057a3.965,3.965,0,0,0,0-5.6l-13.094-13.116a3.979,3.979,0,0,1-1.007-3.868A44.517,44.517,0,0,0,84.444,52.779a3.961,3.961,0,0,1-3.862-1.007L69.042,40.212a3.948,3.948,0,0,0-5.59,0l-.056.058a3.964,3.964,0,0,0,0,5.6l7.541,7.553a3.965,3.965,0,0,1-.5,6.024l-.066.047a3.945,3.945,0,0,1-5.09-.421L49.058,42.819a3.949,3.949,0,0,0-5.59,0l-.057.057a3.965,3.965,0,0,0,0,5.6L59.638,64.728a3.962,3.962,0,0,1,.421,5.1l-.048.066a3.95,3.95,0,0,1-6.013.5l-4.772-4.78a3.947,3.947,0,0,0-5.59,0l-.057.056a3.964,3.964,0,0,0,0,5.6l8.77,8.785a3.978,3.978,0,0,1,1.007,3.868A44.517,44.517,0,0,0,108.049,138.7a4.033,4.033,0,0,1,1.069-.145A3.936,3.936,0,0,1,111.911,139.711ZM1.888,6.509.957,5.578A3.267,3.267,0,0,1,5.578.957l.931.931A3.268,3.268,0,0,1,1.888,6.509Z" transform="translate(0.5 0.5)" fill="#f3fa2f" stroke="rgba(0,0,0,0)" stroke-width="1"/>
</svg>
